<svg preserveAspectRatio="none" width="100%" height="100%" overflow="visible" style="display: block;" viewBox="0 0 20 20" fill="none" xmlns="http://www.w3.org/2000/svg">
<g id="barefoot">
<mask id="mask0_0_4" style="mask-type:alpha" maskUnits="userSpaceOnUse" x="0" y="0" width="20" height="20">
<rect id="Bounding box" width="20" height="20" fill="var(--fill-0, #00AAFF)"/>
</mask>
<g mask="url(#mask0_0_4)">
<path id="barefoot_2" d="M3.98958 6.42708C3.82986 6.26736 3.75 6.06944 3.75 5.83333C3.75 5.59722 3.82986 5.39931 3.98958 5.23958C4.14931 5.07986 4.34722 5 4.58333 5C4.81944 5 5.01736 5.07986 5.17708 5.23958C5.33681 5.39931 5.41667 5.59722 5.41667 5.83333C5.41667 6.06944 5.33681 6.26736 5.17708 6.42708C5.01736 6.58681 4.81944 6.66667 4.58333 6.66667C4.34722 6.66667 4.14931 6.58681 3.98958 6.42708ZM8.33333 18.3333C7.41667 18.3333 6.63194 18.0069 5.97917 17.3542C5.32639 16.7014 5 15.9167 5 15V10C5 8.61111 5.48611 7.43056 6.45833 6.45833C7.43056 5.48611 8.61111 5 10 5H11.5208C12.4792 5 13.2986 5.32292 13.9792 5.96875C14.6597 6.61458 15 7.40972 15 8.35417C15 8.99306 14.8299 9.57986 14.4896 10.1146C14.1493 10.6493 13.6875 11.0556 13.1042 11.3333C12.6597 11.5417 12.309 11.8507 12.0521 12.2604C11.7951 12.6701 11.6667 13.1181 11.6667 13.6042V15C11.6667 15.9306 11.3438 16.7187 10.6979 17.3646C10.0521 18.0104 9.26389 18.3333 8.33333 18.3333ZM6.07292 4.76042C5.91319 4.60069 5.83333 4.40278 5.83333 4.16667V3.75C5.83333 3.51389 5.91319 3.31597 6.07292 3.15625C6.23264 2.99653 6.43056 2.91667 6.66667 2.91667C6.90278 2.91667 7.10069 2.99653 7.26042 3.15625C7.42014 3.31597 7.5 3.51389 7.5 3.75V4.16667C7.5 4.40278 7.42014 4.60069 7.26042 4.76042C7.10069 4.92014 6.90278 5 6.66667 5C6.43056 5 6.23264 4.92014 6.07292 4.76042ZM8.57292 3.92708C8.41319 3.76736 8.33333 3.56944 8.33333 3.33333V2.91667C8.33333 2.68056 8.41319 2.48264 8.57292 2.32292C8.73264 2.16319 8.93056 2.08333 9.16667 2.08333C9.40278 2.08333 9.60069 2.16319 9.76042 2.32292C9.92014 2.48264 10 2.68056 10 2.91667V3.33333C10 3.56944 9.92014 3.76736 9.76042 3.92708C9.60069 4.08681 9.40278 4.16667 9.16667 4.16667C8.93056 4.16667 8.73264 4.08681 8.57292 3.92708ZM11.0729 3.92708C10.9132 3.76736 10.8333 3.56944 10.8333 3.33333V2.5C10.8333 2.26389 10.9132 2.06597 11.0729 1.90625C11.2326 1.74653 11.4306 1.66667 11.6667 1.66667C11.9028 1.66667 12.1007 1.74653 12.2604 1.90625C12.4201 2.06597 12.5 2.26389 12.5 2.5V3.33333C12.5 3.56944 12.4201 3.76736 12.2604 3.92708C12.1007 4.08681 11.9028 4.16667 11.6667 4.16667C11.4306 4.16667 11.2326 4.08681 11.0729 3.92708ZM13.6979 4.63542C13.4549 4.39236 13.3333 4.09722 13.3333 3.75V2.91667C13.3333 2.56944 13.4549 2.27431 13.6979 2.03125C13.941 1.78819 14.2361 1.66667 14.5833 1.66667C14.9306 1.66667 15.2257 1.78819 15.4687 2.03125C15.7118 2.27431 15.8333 2.56944 15.8333 2.91667V3.75C15.8333 4.09722 15.7118 4.39236 15.4687 4.63542C15.2257 4.87847 14.9306 5 14.5833 5C14.2361 5 13.941 4.87847 13.6979 4.63542Z" fill="var(--fill-0, #00AAFF)"/>
</g>
</g>
</svg>
