<svg preserveAspectRatio="none" width="100%" height="100%" overflow="visible" style="display: block;" viewBox="0 0 20 20" fill="none" xmlns="http://www.w3.org/2000/svg">
<g id="dictionary">
<mask id="mask0_0_4" style="mask-type:alpha" maskUnits="userSpaceOnUse" x="0" y="0" width="20" height="20">
<rect id="Bounding box" width="20" height="20" fill="var(--fill-0, #497AF4)"/>
</mask>
<g mask="url(#mask0_0_4)">
<path id="dictionary_2" d="M5.02083 9.70833L5.8125 7.47917H5.85417L6.64583 9.70833H5.02083ZM10.8333 14.2083C11.4444 13.9167 12.059 13.6979 12.6771 13.5521C13.2951 13.4063 13.9306 13.3333 14.5833 13.3333C15.0833 13.3333 15.5729 13.375 16.0521 13.4583C16.5313 13.5417 17.0139 13.6667 17.5 13.8333V5.58333C17.0417 5.38889 16.566 5.24306 16.0729 5.14583C15.5799 5.04861 15.0833 5 14.5833 5C13.9306 5 13.2847 5.08333 12.6458 5.25C12.0069 5.41667 11.4028 5.66667 10.8333 6V14.2083ZM4.75 10.4792H6.91667L7.3125 11.5833C7.34028 11.6667 7.38889 11.7326 7.45833 11.7813C7.52778 11.8299 7.61111 11.8542 7.70833 11.8542C7.86111 11.8542 7.98264 11.7917 8.07292 11.6667C8.16319 11.5417 8.18056 11.4097 8.125 11.2708L6.41667 6.77083C6.38889 6.6875 6.33681 6.61806 6.26042 6.5625C6.18403 6.50694 6.09722 6.47917 6 6.47917H5.66667C5.56944 6.47917 5.48264 6.50694 5.40625 6.5625C5.32986 6.61806 5.27778 6.6875 5.25 6.77083L3.54167 11.2708C3.48611 11.4097 3.50347 11.5417 3.59375 11.6667C3.68403 11.7917 3.80556 11.8542 3.95833 11.8542C4.05556 11.8542 4.14236 11.8299 4.21875 11.7813C4.29514 11.7326 4.34722 11.6597 4.375 11.5625L4.75 10.4792ZM9.44792 16.1563C9.27431 16.1076 9.11111 16.0417 8.95833 15.9583C8.41667 15.6389 7.84722 15.3993 7.25 15.2396C6.65278 15.0799 6.04167 15 5.41667 15C4.83333 15 4.26042 15.0764 3.69792 15.2292C3.13542 15.3819 2.59722 15.5972 2.08333 15.875C1.79167 16.0278 1.51042 16.0208 1.23958 15.8542C0.96875 15.6875 0.833333 15.4444 0.833333 15.125V5.08333C0.833333 4.93056 0.871528 4.78472 0.947917 4.64583C1.02431 4.50694 1.13889 4.40278 1.29167 4.33333C1.94444 4.01389 2.61458 3.76736 3.30208 3.59375C3.98958 3.42014 4.69444 3.33333 5.41667 3.33333C6.22222 3.33333 7.01042 3.4375 7.78125 3.64583C8.55208 3.85417 9.29167 4.16667 10 4.58333C10.7083 4.16667 11.4479 3.85417 12.2188 3.64583C12.9896 3.4375 13.7778 3.33333 14.5833 3.33333C15.3056 3.33333 16.0104 3.42014 16.6979 3.59375C17.3854 3.76736 18.0556 4.01389 18.7083 4.33333C18.8611 4.40278 18.9757 4.50694 19.0521 4.64583C19.1285 4.78472 19.1667 4.93056 19.1667 5.08333V15.125C19.1667 15.4444 19.0313 15.6875 18.7604 15.8542C18.4896 16.0208 18.2083 16.0278 17.9167 15.875C17.4028 15.5972 16.8646 15.3819 16.3021 15.2292C15.7396 15.0764 15.1667 15 14.5833 15C13.9583 15 13.3472 15.0799 12.75 15.2396C12.1528 15.3993 11.5833 15.6389 11.0417 15.9583C10.8889 16.0417 10.7257 16.1076 10.5521 16.1563C10.3785 16.2049 10.1944 16.2292 10 16.2292C9.80556 16.2292 9.62153 16.2049 9.44792 16.1563ZM11.6667 7.3125C11.6667 7.1875 11.7118 7.05903 11.8021 6.92708C11.8924 6.79514 11.9931 6.70833 12.1042 6.66667C12.5069 6.52778 12.9097 6.42361 13.3125 6.35417C13.7153 6.28472 14.1389 6.25 14.5833 6.25C14.8611 6.25 15.1354 6.26736 15.4063 6.30208C15.6771 6.33681 15.9444 6.38194 16.2083 6.4375C16.3333 6.46528 16.441 6.53472 16.5313 6.64583C16.6215 6.75694 16.6667 6.88194 16.6667 7.02083C16.6667 7.25694 16.5903 7.43056 16.4375 7.54167C16.2847 7.65278 16.0903 7.68056 15.8542 7.625C15.6597 7.58333 15.4549 7.55208 15.2396 7.53125C15.0243 7.51042 14.8056 7.5 14.5833 7.5C14.2222 7.5 13.8681 7.53472 13.5208 7.60417C13.1736 7.67361 12.8403 7.76389 12.5208 7.875C12.2708 7.97222 12.066 7.96528 11.9063 7.85417C11.7465 7.74306 11.6667 7.5625 11.6667 7.3125ZM11.6667 11.8958C11.6667 11.7708 11.7118 11.6424 11.8021 11.5104C11.8924 11.3785 11.9931 11.2917 12.1042 11.25C12.5069 11.1111 12.9097 11.0069 13.3125 10.9375C13.7153 10.8681 14.1389 10.8333 14.5833 10.8333C14.8611 10.8333 15.1354 10.8507 15.4063 10.8854C15.6771 10.9201 15.9444 10.9653 16.2083 11.0208C16.3333 11.0486 16.441 11.1181 16.5313 11.2292C16.6215 11.3403 16.6667 11.4653 16.6667 11.6042C16.6667 11.8403 16.5903 12.0139 16.4375 12.125C16.2847 12.2361 16.0903 12.2639 15.8542 12.2083C15.6597 12.1667 15.4549 12.1354 15.2396 12.1146C15.0243 12.0938 14.8056 12.0833 14.5833 12.0833C14.2222 12.0833 13.8681 12.1146 13.5208 12.1771C13.1736 12.2396 12.8403 12.3264 12.5208 12.4375C12.2708 12.5347 12.066 12.5313 11.9063 12.4271C11.7465 12.3229 11.6667 12.1458 11.6667 11.8958ZM11.6667 9.60417C11.6667 9.47917 11.7118 9.35069 11.8021 9.21875C11.8924 9.08681 11.9931 9 12.1042 8.95833C12.5069 8.81944 12.9097 8.71528 13.3125 8.64583C13.7153 8.57639 14.1389 8.54167 14.5833 8.54167C14.8611 8.54167 15.1354 8.55903 15.4063 8.59375C15.6771 8.62847 15.9444 8.67361 16.2083 8.72917C16.3333 8.75694 16.441 8.82639 16.5313 8.9375C16.6215 9.04861 16.6667 9.17361 16.6667 9.3125C16.6667 9.54861 16.5903 9.72222 16.4375 9.83333C16.2847 9.94444 16.0903 9.97222 15.8542 9.91667C15.6597 9.875 15.4549 9.84375 15.2396 9.82292C15.0243 9.80208 14.8056 9.79167 14.5833 9.79167C14.2222 9.79167 13.8681 9.82639 13.5208 9.89583C13.1736 9.96528 12.8403 10.0556 12.5208 10.1667C12.2708 10.2639 12.066 10.2569 11.9063 10.1458C11.7465 10.0347 11.6667 9.85417 11.6667 9.60417Z" fill="var(--fill-0, #497AF4)"/>
</g>
</g>
</svg>
