<svg preserveAspectRatio="none" width="100%" height="100%" overflow="visible" style="display: block;" viewBox="0 0 20 20" fill="none" xmlns="http://www.w3.org/2000/svg">
<g id="psychology_alt">
<mask id="mask0_0_4" style="mask-type:alpha" maskUnits="userSpaceOnUse" x="0" y="0" width="20" height="20">
<rect id="Bounding box" width="20" height="20" fill="var(--fill-0, #9349F4)"/>
</mask>
<g mask="url(#mask0_0_4)">
<path id="psychology_alt_2" d="M5.83333 18.3333C5.59722 18.3333 5.39931 18.2535 5.23958 18.0937C5.07986 17.934 5 17.7361 5 17.5V14.75C4.20833 14.0278 3.59375 13.184 3.15625 12.2188C2.71875 11.2535 2.5 10.2361 2.5 9.16667C2.5 7.08333 3.22917 5.3125 4.6875 3.85417C6.14583 2.39583 7.91667 1.66667 10 1.66667C11.7361 1.66667 13.2743 2.17708 14.6146 3.19792C15.9549 4.21875 16.8264 5.54861 17.2292 7.1875L18.3125 11.4583C18.3819 11.7222 18.3333 11.9618 18.1667 12.1771C18 12.3924 17.7778 12.5 17.5 12.5H15.8333V15C15.8333 15.4583 15.6701 15.8507 15.3438 16.1771C15.0174 16.5035 14.625 16.6667 14.1667 16.6667H12.5V17.5C12.5 17.7361 12.4201 17.934 12.2604 18.0937C12.1007 18.2535 11.9028 18.3333 11.6667 18.3333H5.83333ZM10 13.3333C10.2361 13.3333 10.434 13.2535 10.5938 13.0938C10.7535 12.934 10.8333 12.7361 10.8333 12.5C10.8333 12.2639 10.7535 12.066 10.5938 11.9063C10.434 11.7465 10.2361 11.6667 10 11.6667C9.76389 11.6667 9.56597 11.7465 9.40625 11.9063C9.24653 12.066 9.16667 12.2639 9.16667 12.5C9.16667 12.7361 9.24653 12.934 9.40625 13.0938C9.56597 13.2535 9.76389 13.3333 10 13.3333ZM10.0208 10.6667C10.1736 10.6667 10.316 10.6146 10.4479 10.5104C10.5799 10.4062 10.6667 10.2639 10.7083 10.0833C10.75 9.91667 10.816 9.75347 10.9063 9.59375C10.9965 9.43403 11.1389 9.25 11.3333 9.04167C11.7778 8.55556 12.0694 8.1875 12.2083 7.9375C12.3472 7.6875 12.4167 7.40278 12.4167 7.08333C12.4167 6.5 12.191 6.00694 11.7396 5.60417C11.2882 5.20139 10.7292 5 10.0625 5C9.61806 5 9.19792 5.10764 8.80208 5.32292C8.40625 5.53819 8.09028 5.83333 7.85417 6.20833C7.77083 6.34722 7.76736 6.49306 7.84375 6.64583C7.92014 6.79861 8.03472 6.90972 8.1875 6.97917C8.34028 7.04861 8.48958 7.05903 8.63542 7.01042C8.78125 6.96181 8.90972 6.86111 9.02083 6.70833C9.15972 6.54167 9.31944 6.41319 9.5 6.32292C9.68056 6.23264 9.86806 6.1875 10.0625 6.1875C10.3681 6.1875 10.6215 6.27083 10.8229 6.4375C11.0243 6.60417 11.125 6.81944 11.125 7.08333C11.125 7.30556 11.066 7.51736 10.9479 7.71875C10.8299 7.92014 10.5972 8.20139 10.25 8.5625C9.98611 8.84028 9.79514 9.08681 9.67708 9.30208C9.55903 9.51736 9.47917 9.76389 9.4375 10.0417C9.40972 10.2083 9.45486 10.3542 9.57292 10.4792C9.69097 10.6042 9.84028 10.6667 10.0208 10.6667Z" fill="var(--fill-0, #9349F4)"/>
</g>
</g>
</svg>
