<svg xmlns="http://www.w3.org/2000/svg" width="16" height="16" viewBox="0 0 16 16" fill="none">
  <mask id="mask0_2395_11596" style="mask-type:alpha" maskUnits="userSpaceOnUse" x="0" y="0" width="16" height="16">
    <rect y="2.79753e-06" width="16" height="16" fill="#D9D9D9"/>
  </mask>
  <g mask="url(#mask0_2395_11596)">
    <path d="M7.64948 9.64999L5.23281 7.23333C5.19948 7.19999 5.17448 7.16388 5.15781 7.12499C5.14115 7.0861 5.13281 7.04444 5.13281 6.99999C5.13281 6.9111 5.16337 6.83333 5.22448 6.76666C5.28559 6.69999 5.36615 6.66666 5.46615 6.66666L10.5328 6.66666C10.6328 6.66666 10.7134 6.69999 10.7745 6.76666C10.8356 6.83332 10.8661 6.9111 10.8661 6.99999C10.8661 7.02221 10.8328 7.09999 10.7661 7.23332L8.34948 9.64999C8.29392 9.70555 8.23837 9.74444 8.18281 9.76666C8.12726 9.78888 8.06615 9.79999 7.99948 9.79999C7.93281 9.79999 7.8717 9.78888 7.81615 9.76666C7.76059 9.74444 7.70504 9.70555 7.64948 9.64999Z" fill="#262626"/>
  </g>
</svg>