<svg xmlns="http://www.w3.org/2000/svg" width="20" height="20" viewBox="0 0 20 20" fill="none">
  <mask id="mask0_2395_11625" style="mask-type:alpha" maskUnits="userSpaceOnUse" x="0" y="0" width="20" height="20">
    <rect width="20" height="20" fill="#9672FF"/>
  </mask>
  <g mask="url(#mask0_2395_11625)">
    <path d="M6.354 5.33335L8.68734 2.31252C8.854 2.0903 9.05192 1.9271 9.28109 1.82294C9.51025 1.71877 9.74984 1.66669 9.99984 1.66669C10.2498 1.66669 10.4894 1.71877 10.7186 1.82294C10.9478 1.9271 11.1457 2.0903 11.3123 2.31252L13.6457 5.33335L17.1873 6.52085C17.5484 6.63196 17.8332 6.83683 18.0415 7.13544C18.2498 7.43405 18.354 7.76391 18.354 8.12502C18.354 8.29169 18.3297 8.45835 18.2811 8.62502C18.2325 8.79169 18.1526 8.95141 18.0415 9.10419L15.7498 12.3542L15.8332 15.7709C15.8471 16.257 15.6873 16.6667 15.354 17C15.0207 17.3334 14.6318 17.5 14.1873 17.5C14.1596 17.5 14.0068 17.4792 13.729 17.4375L9.99984 16.3959L6.27067 17.4375C6.20123 17.4653 6.12484 17.4827 6.0415 17.4896C5.95817 17.4965 5.88178 17.5 5.81234 17.5C5.36789 17.5 4.979 17.3334 4.64567 17C4.31234 16.6667 4.15262 16.257 4.1665 15.7709L4.24984 12.3334L1.979 9.10419C1.86789 8.95141 1.78803 8.79169 1.73942 8.62502C1.69081 8.45835 1.6665 8.29169 1.6665 8.12502C1.6665 7.7778 1.7672 7.45488 1.96859 7.15627C2.16998 6.85766 2.45123 6.64585 2.81234 6.52085L6.354 5.33335Z" fill="#9572FF"/>
  </g>
</svg>