<svg xmlns="http://www.w3.org/2000/svg" width="20" height="20" viewBox="0 0 20 20" fill="none">
  <mask id="mask0_2395_12546" style="mask-type:alpha" maskUnits="userSpaceOnUse" x="0" y="0" width="20" height="20">
    <rect width="20" height="20" fill="#D9D9D9"/>
  </mask>
  <g mask="url(#mask0_2395_12546)">
    <path d="M2.45839 13.5834C2.1945 13.014 1.99658 12.4306 1.86464 11.8334C1.73269 11.2362 1.66672 10.6251 1.66672 10.0001C1.66672 8.8473 1.88547 7.76397 2.32297 6.75008C2.76047 5.73619 3.35422 4.85425 4.10422 4.10425C4.85422 3.35425 5.73617 2.7605 6.75005 2.323C7.76394 1.8855 8.84728 1.66675 10.0001 1.66675C11.1528 1.66675 12.2362 1.8855 13.2501 2.323C14.2639 2.7605 15.1459 3.35425 15.8959 4.10425C16.6459 4.85425 17.2396 5.73619 17.6771 6.75008C18.1146 7.76397 18.3334 8.8473 18.3334 10.0001C18.3334 11.1529 18.1146 12.2362 17.6771 13.2501C17.2396 14.264 16.6459 15.1459 15.8959 15.8959C15.1459 16.6459 14.2639 17.2397 13.2501 17.6772C12.2362 18.1147 11.1528 18.3334 10.0001 18.3334C9.37505 18.3334 8.76394 18.2674 8.16672 18.1355C7.5695 18.0036 6.98617 17.8056 6.41672 17.5417L2.29172 18.7501C1.97228 18.8473 1.6945 18.7779 1.45839 18.5417C1.22228 18.3056 1.15283 18.0279 1.25005 17.7084L2.45839 13.5834ZM9.16672 10.8334V12.5001C9.16672 12.7362 9.24658 12.9341 9.40631 13.0938C9.56603 13.2536 9.76394 13.3334 10.0001 13.3334C10.2362 13.3334 10.4341 13.2536 10.5938 13.0938C10.7535 12.9341 10.8334 12.7362 10.8334 12.5001V10.8334H12.5001C12.7362 10.8334 12.9341 10.7536 13.0938 10.5938C13.2535 10.4341 13.3334 10.2362 13.3334 10.0001C13.3334 9.76397 13.2535 9.56605 13.0938 9.40633C12.9341 9.24661 12.7362 9.16675 12.5001 9.16675H10.8334V7.50008C10.8334 7.26397 10.7535 7.06605 10.5938 6.90633C10.4341 6.74661 10.2362 6.66675 10.0001 6.66675C9.76394 6.66675 9.56603 6.74661 9.40631 6.90633C9.24658 7.06605 9.16672 7.26397 9.16672 7.50008V9.16675H7.50005C7.26394 9.16675 7.06603 9.24661 6.9063 9.40633C6.74658 9.56605 6.66672 9.76397 6.66672 10.0001C6.66672 10.2362 6.74658 10.4341 6.9063 10.5938C7.06603 10.7536 7.26394 10.8334 7.50005 10.8334H9.16672Z" fill="#B3B3B3"/>
  </g>
</svg>