<svg xmlns="http://www.w3.org/2000/svg" width="17" height="14" viewBox="0 0 17 14" fill="none">
  <path d="M0.497507 2.00125L3.19751 0.651246C3.79592 0.352041 4.5 0.787185 4.5 1.45623V11.1438C4.5 11.4847 4.3074 11.7963 4.00249 11.9488L1.30249 13.2988C0.704081 13.598 0 13.1628 0 12.4938V2.80623C0 2.46534 0.192601 2.1537 0.497507 2.00125Z" fill="#B3B3B3"/>
  <path d="M12.1977 2.00125L14.8977 0.651246C15.4961 0.352041 16.2002 0.787185 16.2002 1.45623V11.1438C16.2002 11.4847 16.0076 11.7963 15.7027 11.9488L13.0027 13.2988C12.4043 13.598 11.7002 13.1628 11.7002 12.4938V2.80623C11.7002 2.46534 11.8928 2.1537 12.1977 2.00125Z" fill="#B3B3B3"/>
  <path d="M9.85259 2.00125L7.15259 0.651246C6.55418 0.352041 5.8501 0.787185 5.8501 1.45623V11.1438C5.8501 11.4847 6.0427 11.7963 6.3476 11.9488L9.04761 13.2988C9.64602 13.598 10.3501 13.1628 10.3501 12.4938V2.80623C10.3501 2.46534 10.1575 2.1537 9.85259 2.00125Z" fill="#B3B3B3"/>
</svg>