<svg xmlns="http://www.w3.org/2000/svg" width="16" height="16" viewBox="0 0 16 16" fill="none">
  <path d="M12.4801 15.3602C12.2081 15.3602 11.9801 15.2682 11.7961 15.0842C11.6121 14.9002 11.5201 14.6721 11.5201 14.4001V9.6001C11.5201 9.32809 11.6121 9.10009 11.7961 8.91609C11.9801 8.73209 12.2081 8.64009 12.4801 8.64009H14.4001C14.6721 8.64009 14.9002 8.73209 15.0842 8.91609C15.2682 9.10009 15.3602 9.32809 15.3602 9.6001V14.4001C15.3602 14.6721 15.2682 14.9002 15.0842 15.0842C14.9002 15.2682 14.6721 15.3602 14.4001 15.3602H12.4801ZM6.72007 15.3602C6.44807 15.3602 6.22006 15.2682 6.03606 15.0842C5.85206 14.9002 5.76006 14.6721 5.76006 14.4001V0.96001C5.76006 0.688007 5.85206 0.460005 6.03606 0.276003C6.22006 0.0920009 6.44807 0 6.72007 0H8.64009C8.91209 0 9.14009 0.0920009 9.3241 0.276003C9.5081 0.460005 9.6001 0.688007 9.6001 0.96001V14.4001C9.6001 14.6721 9.5081 14.9002 9.3241 15.0842C9.14009 15.2682 8.91209 15.3602 8.64009 15.3602H6.72007ZM0.96001 15.3602C0.688007 15.3602 0.460005 15.2682 0.276003 15.0842C0.0920009 14.9002 0 14.6721 0 14.4001V5.76006C0 5.48806 0.0920009 5.26005 0.276003 5.07605C0.460005 4.89205 0.688007 4.80005 0.96001 4.80005H2.88003C3.15203 4.80005 3.38003 4.89205 3.56404 5.07605C3.74804 5.26005 3.84004 5.48806 3.84004 5.76006V14.4001C3.84004 14.6721 3.74804 14.9002 3.56404 15.0842C3.38003 15.2682 3.15203 15.3602 2.88003 15.3602H0.96001Z" fill="#B3B3B3"/>
</svg>