<svg xmlns="http://www.w3.org/2000/svg" width="17" height="17" viewBox="0 0 17 17" fill="none">
  <path d="M0 8.2885V13.3462C0 14.3509 0.35775 15.2111 1.07325 15.9268C1.78892 16.6423 2.64908 17 3.65375 17H13.3365C14.344 17 15.2064 16.6436 15.9238 15.9307C16.6413 15.2179 17 14.3564 17 13.3462V8.2885H13.125V10.3558C13.125 10.8529 12.948 11.2785 12.594 11.6325C12.24 11.9865 11.8144 12.1635 11.3173 12.1635H5.68275C5.18558 12.1635 4.76 11.9865 4.406 11.6325C4.052 11.2785 3.875 10.8529 3.875 10.3558V8.2885H0ZM5.375 8.2885V10.3558C5.375 10.4456 5.40383 10.5193 5.4615 10.577C5.51917 10.6347 5.59292 10.6635 5.68275 10.6635H11.3173C11.4071 10.6635 11.4808 10.6347 11.5385 10.577C11.5962 10.5193 11.625 10.4456 11.625 10.3558V8.2885H5.375ZM0 6.7885H17V3.6635C17 2.656 16.6413 1.79358 15.9238 1.07625C15.2064 0.35875 14.344 0 13.3365 0H3.65375C2.64358 0 1.78208 0.35875 1.06925 1.07625C0.356417 1.79358 0 2.656 0 3.6635V6.7885Z" fill="#B3B3B3"/>
</svg>