<svg preserveAspectRatio="none" width="100%" height="100%" overflow="visible" style="display: block;" viewBox="0 0 20 20" fill="none" xmlns="http://www.w3.org/2000/svg">
<g id="alarm">
<mask id="mask0_0_21" style="mask-type:alpha" maskUnits="userSpaceOnUse" x="0" y="0" width="20" height="20">
<rect id="Bounding box" width="20" height="20" fill="var(--fill-0, #B69CFE)"/>
</mask>
<g mask="url(#mask0_0_21)">
<path id="alarm_2" d="M10.8306 10.502C10.8306 10.502 10.8306 7.73806 10.8306 7.50195C10.8306 7.26584 10.7507 7.06793 10.591 6.9082C10.4313 6.74848 10.2334 6.66862 9.99727 6.66862C9.76116 6.66862 9.56325 6.74848 9.40352 6.9082C9.2438 7.06793 9.16394 7.26584 9.16394 7.50195V10.8145C9.16394 10.9256 9.18477 11.0332 9.22644 11.1374C9.26811 11.2415 9.33061 11.3353 9.41394 11.4186L11.7473 13.752C11.9001 13.9047 12.0945 13.9811 12.3306 13.9811C12.5667 13.9811 12.7612 13.9047 12.9139 13.752C13.0667 13.5992 13.1431 13.4047 13.1431 13.1686C13.1431 12.9325 13.0667 12.7381 12.9139 12.5853L10.8306 10.502ZM7.07019 17.7415C6.16047 17.3457 5.3688 16.811 4.69519 16.1374C4.02158 15.4638 3.48686 14.6721 3.09102 13.7624C2.69519 12.8526 2.49727 11.877 2.49727 10.8353C2.49727 9.79362 2.69519 8.81793 3.09102 7.9082C3.48686 6.99848 4.02158 6.20681 4.69519 5.5332C5.3688 4.85959 6.16047 4.32487 7.07019 3.92904C7.97991 3.5332 8.95561 3.33529 9.99727 3.33529C11.0389 3.33529 12.0146 3.5332 12.9244 3.92904C13.8341 4.32487 14.6257 4.85959 15.2994 5.5332C15.973 6.20681 16.5077 6.99848 16.9035 7.9082C17.2994 8.81793 17.4973 9.79362 17.4973 10.8353C17.4973 11.877 17.2994 12.8526 16.9035 13.7624C16.5077 14.6721 15.973 15.4638 15.2994 16.1374C14.6257 16.811 13.8341 17.3457 12.9244 17.7415C12.0146 18.1374 11.0389 18.3353 9.99727 18.3353C8.95561 18.3353 7.97991 18.1374 7.07019 17.7415ZM1.70561 6.08529C1.55283 5.93251 1.47644 5.73806 1.47644 5.50195C1.47644 5.26584 1.55283 5.0714 1.70561 4.91862L4.08061 2.54362C4.23339 2.39084 4.42783 2.31445 4.66394 2.31445C4.90005 2.31445 5.0945 2.39084 5.24727 2.54362C5.40005 2.6964 5.47644 2.89084 5.47644 3.12695C5.47644 3.36306 5.40005 3.55751 5.24727 3.71029L2.87227 6.08529C2.7195 6.23806 2.52505 6.31445 2.28894 6.31445C2.05283 6.31445 1.85838 6.23806 1.70561 6.08529ZM18.2889 6.08529C18.1362 6.23806 17.9417 6.31445 17.7056 6.31445C17.4695 6.31445 17.2751 6.23806 17.1223 6.08529L14.7473 3.71029C14.5945 3.55751 14.5181 3.36306 14.5181 3.12695C14.5181 2.89084 14.5945 2.6964 14.7473 2.54362C14.9001 2.39084 15.0945 2.31445 15.3306 2.31445C15.5667 2.31445 15.7612 2.39084 15.9139 2.54362L18.2889 4.91862C18.4417 5.0714 18.5181 5.26584 18.5181 5.50195C18.5181 5.73806 18.4417 5.93251 18.2889 6.08529Z" fill="var(--fill-0, #B69CFE)"/>
</g>
</g>
</svg>
