<svg preserveAspectRatio="none" width="100%" height="100%" overflow="visible" style="display: block;" viewBox="0 0 20 20" fill="none" xmlns="http://www.w3.org/2000/svg">
<g id="folder">
<mask id="mask0_0_13" style="mask-type:alpha" maskUnits="userSpaceOnUse" x="0" y="0" width="20" height="20">
<rect id="Bounding box" width="20" height="20" fill="var(--fill-0, #C5C5C5)"/>
</mask>
<g mask="url(#mask0_0_13)">
<path id="folder_2" d="M3.49978 16.0017C3.09701 16.0017 2.74631 15.8524 2.4477 15.5538C2.14909 15.2552 1.99978 14.9045 1.99978 14.5017V5.50174C1.99978 5.08924 2.14909 4.73611 2.4477 4.44236C2.74631 4.14861 3.09701 4.00174 3.49978 4.00174H7.36728C7.56659 4.00174 7.75659 4.03646 7.93728 4.1059C8.11784 4.17535 8.28451 4.28646 8.43728 4.43924L9.99978 6.00174H16.4998C16.9123 6.00174 17.2654 6.14861 17.5592 6.44236C17.8529 6.73611 17.9998 7.08924 17.9998 7.50174V14.5017C17.9998 14.9045 17.8529 15.2552 17.5592 15.5538C17.2654 15.8524 16.9123 16.0017 16.4998 16.0017H3.49978Z" fill="var(--fill-0, #B69CFE)"/>
</g>
</g>
</svg>
