<svg preserveAspectRatio="none" width="100%" height="100%" overflow="visible" style="display: block;" viewBox="0 0 20 20" fill="none" xmlns="http://www.w3.org/2000/svg">
<g id="flag_2">
<mask id="mask0_0_10" style="mask-type:alpha" maskUnits="userSpaceOnUse" x="0" y="0" width="20" height="20">
<rect id="Bounding box" width="20" height="20" fill="var(--fill-0, #D9D9D9)"/>
</mask>
<g mask="url(#mask0_0_10)">
<path id="flag_2_2" d="M5.83333 10.8333V17.5C5.83333 17.7361 5.75347 17.934 5.59375 18.0937C5.43403 18.2535 5.23611 18.3333 5 18.3333C4.76389 18.3333 4.56597 18.2535 4.40625 18.0937C4.24653 17.934 4.16667 17.7361 4.16667 17.5V3.33333C4.16667 3.09722 4.24653 2.89931 4.40625 2.73958C4.56597 2.57986 4.76389 2.5 5 2.5H16.2708C16.4236 2.5 16.559 2.53472 16.6771 2.60417C16.7951 2.67361 16.8889 2.76389 16.9583 2.875C17.0278 2.98611 17.0729 3.10764 17.0938 3.23958C17.1146 3.37153 17.0972 3.50694 17.0417 3.64583L15.8333 6.66667L17.0417 9.6875C17.0972 9.82639 17.1146 9.96181 17.0938 10.0937C17.0729 10.2257 17.0278 10.3472 16.9583 10.4583C16.8889 10.5694 16.7951 10.6597 16.6771 10.7292C16.559 10.7986 16.4236 10.8333 16.2708 10.8333H5.83333Z" fill="var(--fill-0, #B69CFE)"/>
</g>
</g>
</svg>
