<svg preserveAspectRatio="none" width="100%" height="100%" overflow="visible" style="display: block;" viewBox="0 0 20 20" fill="none" xmlns="http://www.w3.org/2000/svg">
<g id="developer_guide">
<mask id="mask0_0_25" style="mask-type:alpha" maskUnits="userSpaceOnUse" x="0" y="0" width="20" height="20">
<rect id="Bounding box" width="20" height="20" fill="var(--fill-0, #9672FF)"/>
</mask>
<g mask="url(#mask0_0_25)">
<path id="developer_guide_2" d="M4.50022 16.9991C4.09744 16.9991 3.74674 16.8498 3.44813 16.5512C3.14952 16.2526 3.00022 15.9019 3.00022 15.4991V4.49913C3.00022 4.08247 3.14952 3.7283 3.44813 3.43663C3.74674 3.14497 4.09744 2.99913 4.50022 2.99913H15.5002C15.9169 2.99913 16.2711 3.14497 16.5627 3.43663C16.8544 3.7283 17.0002 4.08247 17.0002 4.49913V15.4991C17.0002 15.9019 16.8544 16.2526 16.5627 16.5512C16.2711 16.8498 15.9169 16.9991 15.5002 16.9991H4.50022ZM10.0002 4.49913V10.395C10.0002 10.5339 10.0592 10.6415 10.1773 10.7179C10.2954 10.7943 10.4169 10.7977 10.5419 10.7283L11.6669 10.1658C11.778 10.1102 11.8891 10.0825 12.0002 10.0825C12.1113 10.0825 12.2224 10.1102 12.3336 10.1658L13.4586 10.7283C13.5836 10.7977 13.7051 10.7943 13.8231 10.7179C13.9412 10.6415 14.0002 10.5339 14.0002 10.395V4.49913H10.0002Z" fill="var(--fill-0, #B69CFE)"/>
</g>
</g>
</svg>
