<svg preserveAspectRatio="none" width="100%" height="100%" overflow="visible" style="display: block;" viewBox="0 0 18 18" fill="none" xmlns="http://www.w3.org/2000/svg">
<g id="assistant_navigation">
<mask id="mask0_0_4" style="mask-type:alpha" maskUnits="userSpaceOnUse" x="0" y="0" width="18" height="18">
<rect id="Bounding box" x="-5.96046e-07" y="-4.15261e-07" width="18" height="18" fill="var(--fill-0, #D9D9D9)"/>
</mask>
<g mask="url(#mask0_0_4)">
<path id="assistant_navigation_2" d="M9.00102 16.1238C8.01552 16.1238 7.08921 15.9368 6.22208 15.5628C5.35496 15.1888 4.60071 14.6813 3.95933 14.0401C3.31796 13.399 2.81014 12.6451 2.43589 11.7783C2.06177 10.9116 1.87471 9.98552 1.87471 9.00014C1.87471 8.01464 2.06171 7.08833 2.43571 6.2212C2.80971 5.35408 3.31727 4.59983 3.95839 3.95845C4.59952 3.31708 5.35346 2.80927 6.22021 2.43502C7.08696 2.06089 8.01302 1.87383 8.9984 1.87383C9.9839 1.87383 10.9102 2.06083 11.7773 2.43483C12.6445 2.80883 13.3987 3.31639 14.0401 3.95752C14.6815 4.59864 15.1893 5.35258 15.5635 6.21933C15.9376 7.08608 16.1247 8.01214 16.1247 8.99752C16.1247 9.98302 15.9377 10.9093 15.5637 11.7765C15.1897 12.6436 14.6821 13.3978 14.041 14.0392C13.3999 14.6806 12.646 15.1884 11.7792 15.5626C10.9125 15.9368 9.9864 16.1238 9.00102 16.1238ZM6.74821 12.1719L8.84539 11.2387C8.89827 11.2137 8.95165 11.2012 9.00552 11.2012C9.0594 11.2012 9.11277 11.2137 9.16565 11.2387L11.2512 12.1719C11.407 12.242 11.5463 12.2187 11.6693 12.102C11.7925 11.9851 11.8189 11.8488 11.7486 11.693L9.35014 5.84883C9.28314 5.68833 9.16596 5.60808 8.99858 5.60808C8.83108 5.60808 8.71465 5.68833 8.64927 5.84883L6.25077 11.693C6.18052 11.8488 6.20696 11.9851 6.33008 12.102C6.45308 12.2187 6.59246 12.242 6.74821 12.1719Z" fill="var(--fill-0, #262626)"/>
</g>
</g>
</svg>
