<svg preserveAspectRatio="none" width="100%" height="100%" overflow="visible" style="display: block;" viewBox="0 0 20 20" fill="none" xmlns="http://www.w3.org/2000/svg">
<g id="maps_ugc">
<mask id="mask0_0_4" style="mask-type:alpha" maskUnits="userSpaceOnUse" x="0" y="0" width="20" height="20">
<rect id="Bounding box" width="20" height="20" fill="var(--fill-0, #D9D9D9)"/>
</mask>
<g mask="url(#mask0_0_4)">
<path id="maps_ugc_2" d="M2.45814 13.5833C2.19425 13.0139 1.99634 12.4306 1.86439 11.8333C1.73245 11.2361 1.66648 10.625 1.66648 10C1.66648 8.84722 1.88523 7.76389 2.32273 6.75C2.76023 5.73611 3.35398 4.85417 4.10398 4.10417C4.85398 3.35417 5.73592 2.76042 6.74981 2.32292C7.7637 1.88542 8.84703 1.66667 9.99981 1.66667C11.1526 1.66667 12.2359 1.88542 13.2498 2.32292C14.2637 2.76042 15.1456 3.35417 15.8956 4.10417C16.6456 4.85417 17.2394 5.73611 17.6769 6.75C18.1144 7.76389 18.3331 8.84722 18.3331 10C18.3331 11.1528 18.1144 12.2361 17.6769 13.25C17.2394 14.2639 16.6456 15.1458 15.8956 15.8958C15.1456 16.6458 14.2637 17.2396 13.2498 17.6771C12.2359 18.1146 11.1526 18.3333 9.99981 18.3333C9.37481 18.3333 8.7637 18.2674 8.16648 18.1354C7.56925 18.0035 6.98592 17.8056 6.41648 17.5417L2.29148 18.75C1.97203 18.8472 1.69425 18.7778 1.45814 18.5417C1.22203 18.3056 1.15259 18.0278 1.24981 17.7083L2.45814 13.5833ZM9.16648 10.8333V12.5C9.16648 12.7361 9.24634 12.934 9.40606 13.0938C9.56578 13.2535 9.7637 13.3333 9.99981 13.3333C10.2359 13.3333 10.4338 13.2535 10.5936 13.0938C10.7533 12.934 10.8331 12.7361 10.8331 12.5V10.8333H12.4998C12.7359 10.8333 12.9338 10.7535 13.0936 10.5938C13.2533 10.434 13.3331 10.2361 13.3331 10C13.3331 9.76389 13.2533 9.56597 13.0936 9.40625C12.9338 9.24653 12.7359 9.16667 12.4998 9.16667H10.8331V7.5C10.8331 7.26389 10.7533 7.06597 10.5936 6.90625C10.4338 6.74653 10.2359 6.66667 9.99981 6.66667C9.7637 6.66667 9.56578 6.74653 9.40606 6.90625C9.24634 7.06597 9.16648 7.26389 9.16648 7.5V9.16667H7.49981C7.2637 9.16667 7.06578 9.24653 6.90606 9.40625C6.74634 9.56597 6.66648 9.76389 6.66648 10C6.66648 10.2361 6.74634 10.434 6.90606 10.5938C7.06578 10.7535 7.2637 10.8333 7.49981 10.8333H9.16648Z" fill="var(--fill-0, #B3B3B3)"/>
</g>
</g>
</svg>
