<svg preserveAspectRatio="none" width="100%" height="100%" overflow="visible" style="display: block;" viewBox="0 0 24 24" fill="none" xmlns="http://www.w3.org/2000/svg">
<g id="home">
<mask id="mask0_0_16" style="mask-type:alpha" maskUnits="userSpaceOnUse" x="0" y="0" width="24" height="24">
<rect id="Bounding box" width="24" height="24" fill="var(--fill-0, #D9D9D9)"/>
</mask>
<g mask="url(#mask0_0_16)">
<path id="home_2" d="M4.5 19V10.1538C4.5 9.86758 4.564 9.5965 4.692 9.3405C4.82017 9.08433 4.99717 8.87342 5.223 8.70775L10.9155 4.41925C11.2313 4.17825 11.5923 4.05775 11.9985 4.05775C12.4047 4.05775 12.7667 4.17825 13.0845 4.41925L18.777 8.70775C19.0028 8.87342 19.1798 9.08433 19.308 9.3405C19.436 9.5965 19.5 9.86758 19.5 10.1538V19C19.5 19.409 19.3523 19.7613 19.0568 20.0568C18.7613 20.3523 18.409 20.5 18 20.5H14.8077C14.5516 20.5 14.3369 20.4133 14.1637 20.24C13.9904 20.0668 13.9038 19.8522 13.9038 19.596V14.7115C13.9038 14.4555 13.8172 14.2408 13.644 14.0675C13.4708 13.8943 13.2562 13.8078 13 13.8078H11C10.7438 13.8078 10.5292 13.8943 10.356 14.0675C10.1828 14.2408 10.0963 14.4555 10.0963 14.7115V19.596C10.0963 19.8522 10.0096 20.0668 9.83625 20.24C9.66308 20.4133 9.44842 20.5 9.19225 20.5H6C5.591 20.5 5.23875 20.3523 4.94325 20.0568C4.64775 19.7613 4.5 19.409 4.5 19Z" fill="var(--fill-0, #262626)"/>
</g>
</g>
</svg>
