<svg preserveAspectRatio="none" width="100%" height="100%" overflow="visible" style="display: block;" viewBox="0 0 24 24" fill="none" xmlns="http://www.w3.org/2000/svg">
<g id="mountain_flag">
<mask id="mask0_0_13" style="mask-type:alpha" maskUnits="userSpaceOnUse" x="0" y="0" width="24" height="24">
<rect id="Bounding box" width="24" height="24" fill="var(--fill-0, #D9D9D9)"/>
</mask>
<g mask="url(#mask0_0_13)">
<path id="mountain_flag_2" d="M7.025 11.825L7.85 10.125C8.01667 9.775 8.2625 9.5 8.5875 9.3C8.9125 9.1 9.26667 9 9.65 9H11V3C11 2.71667 11.0958 2.47917 11.2875 2.2875C11.4792 2.09583 11.7167 2 12 2H17.2C17.3833 2 17.525 2.07917 17.625 2.2375C17.725 2.39583 17.7333 2.55833 17.65 2.725L17.1 3.775C17.0667 3.85833 17.05 3.93333 17.05 4C17.05 4.06667 17.0667 4.14167 17.1 4.225L17.65 5.275C17.7333 5.44167 17.725 5.60417 17.625 5.7625C17.525 5.92083 17.3833 6 17.2 6H13V9H14.275C14.6583 9 15.0042 9.1 15.3125 9.3C15.6208 9.5 15.8667 9.76667 16.05 10.1L16.925 11.85L13.925 13.85L12 12.875L10.075 13.85L7.025 11.825ZM5.225 22C4.475 22 3.90417 21.6875 3.5125 21.0625C3.12083 20.4375 3.09167 19.7917 3.425 19.125L6.125 13.625L9.925 16.15L12 15.125L14.075 16.15L17.825 13.675L20.55 19.1C20.8833 19.7667 20.8542 20.4167 20.4625 21.05C20.0708 21.6833 19.5 22 18.75 22H5.225Z" fill="var(--fill-0, #9D9D9D)"/>
</g>
</g>
</svg>
