<svg preserveAspectRatio="none" width="100%" height="100%" overflow="visible" style="display: block;" viewBox="0 0 19.2002 19.2002" fill="none" xmlns="http://www.w3.org/2000/svg">
<g id="Frame 17">
<path id="bar_chart" d="M14.4001 17.2802C14.1281 17.2802 13.9001 17.1882 13.7161 17.0042C13.5321 16.8202 13.4401 16.5922 13.4401 16.3202V11.5201C13.4401 11.2481 13.5321 11.0201 13.7161 10.8361C13.9001 10.6521 14.1281 10.5601 14.4001 10.5601H16.3202C16.5922 10.5601 16.8202 10.6521 17.0042 10.8361C17.1882 11.0201 17.2802 11.2481 17.2802 11.5201V16.3202C17.2802 16.5922 17.1882 16.8202 17.0042 17.0042C16.8202 17.1882 16.5922 17.2802 16.3202 17.2802H14.4001ZM8.64009 17.2802C8.36809 17.2802 8.14008 17.1882 7.95608 17.0042C7.77208 16.8202 7.68008 16.5922 7.68008 16.3202V2.88003C7.68008 2.60803 7.77208 2.38002 7.95608 2.19602C8.14008 2.01202 8.36809 1.92002 8.64009 1.92002H10.5601C10.8321 1.92002 11.0601 2.01202 11.2441 2.19602C11.4281 2.38002 11.5201 2.60803 11.5201 2.88003V16.3202C11.5201 16.5922 11.4281 16.8202 11.2441 17.0042C11.0601 17.1882 10.8321 17.2802 10.5601 17.2802H8.64009ZM2.88003 17.2802C2.60803 17.2802 2.38002 17.1882 2.19602 17.0042C2.01202 16.8202 1.92002 16.5922 1.92002 16.3202V7.68008C1.92002 7.40808 2.01202 7.18007 2.19602 6.99607C2.38002 6.81207 2.60803 6.72007 2.88003 6.72007H4.80005C5.07205 6.72007 5.30005 6.81207 5.48406 6.99607C5.66806 7.18007 5.76006 7.40808 5.76006 7.68008V16.3202C5.76006 16.5922 5.66806 16.8202 5.48406 17.0042C5.30005 17.1882 5.07205 17.2802 4.80005 17.2802H2.88003Z" fill="var(--fill-0, #B3B3B3)"/>
</g>
</svg>
