<svg preserveAspectRatio="none" width="100%" height="100%" overflow="visible" style="display: block;" viewBox="0 0 1024 1024" fill="none" xmlns="http://www.w3.org/2000/svg">
<g id="iOS App Icon" clip-path="url(#clip0_0_4)">
<rect width="1024" height="1024" fill="#EEE4FF"/>
<path id="Vector 20220" d="M-57.5713 715.775C-55.323 825.712 -48.8885 1009.46 -37.0571 1081.09C-34.6653 1095.57 -21.746 1104.62 -7.07101 1104.37L1013.6 1086.87C1032.69 1086.55 1048 1070.98 1048 1051.88V681.501C1048 672.683 1044.61 664.229 1038.78 657.607C1021.7 638.163 1017.4 629.053 1010.5 608.785C1002.5 585.285 1072 538.285 1041.5 492.285C1011 446.285 981.5 458.785 957.5 457.785C933.5 456.785 913 451.785 926.5 414.285C940 376.785 929 343.285 919 327.785C909 312.285 874 313.285 817 324.785C760 336.285 771 347.285 745 347.285C719 347.285 683 260.786 656.5 238.286C630 215.786 582.5 288.286 561.5 307.286C545.995 321.314 525.039 301.782 514.432 287.682C512.76 285.46 510.904 283.275 508.809 281.446C436.137 218.028 406.27 277.937 356 322.786C305 368.286 310.5 308.787 202 298.287C134.974 291.801 149.896 358.438 176.826 415.918C187.455 438.604 174.597 466.607 149.85 470.507L2.19193 493.782C-30.1094 498.874 -38.4059 541.544 -10.3658 558.368L39.6751 588.392C63.8936 602.923 61.8135 638.678 36.0733 650.302L-37.0258 683.315C-49.7559 689.064 -57.8569 701.81 -57.5713 715.775Z" fill="var(--fill-0, #C3ADF5)"/>
<g id="Group 33955">
<circle id="Ellipse 52" cx="358.5" cy="671.5" r="128.5" fill="var(--fill-0, #FEFFFB)"/>
<circle id="Ellipse 56" cx="663.5" cy="640.5" r="128.5" fill="var(--fill-0, #FEFFFB)"/>
<circle id="Ellipse 54" cx="404" cy="678" r="67" fill="var(--fill-0, #45374E)"/>
<circle id="Ellipse 55" cx="637" cy="641" r="67" fill="var(--fill-0, #45374E)"/>
</g>
<path id="Vector 20226" d="M432.791 846.789C445.719 872.146 482.83 893.845 530.227 843.254C552.587 866.557 603.015 891.245 636.171 826" stroke="var(--stroke-0, #45374E)" stroke-width="30" stroke-linecap="round" stroke-linejoin="round"/>
</g>
<defs>
<clipPath id="clip0_0_4">
<rect width="1024" height="1024" fill="white"/>
</clipPath>
</defs>
</svg>
