<svg width="60" height="60" viewBox="0 0 60 60" fill="none" xmlns="http://www.w3.org/2000/svg">
<circle cx="15.502" cy="37.9114" r="3.37553" fill="#C4AFF4"/>
<circle cx="18.0337" cy="41.2869" r="3.37553" fill="#C4AFF4"/>
<path d="M15.8745 36.065C15.8745 36.0955 15.8745 36.2104 15.8517 36.3911C15.8118 36.7064 15.4669 36.8193 15.2975 36.8891C15.2119 36.9243 15.1124 36.8741 15.0354 36.8699C14.9991 36.8679 14.989 36.9496 14.9583 36.962C14.9275 36.9744 14.8818 36.9362 14.8506 36.867C14.8194 36.7978 14.8041 36.6987 14.7422 36.5272" stroke="#C4AFF4" stroke-width="2.10971" stroke-linecap="round"/>
<path d="M14.3721 35.649C14.3721 35.6796 14.4483 36.0766 14.5639 36.6886C14.6749 37.2767 14.7649 37.8357 14.8417 38.1092C14.9186 38.3835 15.0566 38.7901 15.1804 39.0414C15.3278 39.3403 15.504 39.4154 15.5809 39.4504C15.611 39.4641 15.6274 39.371 15.6047 39.309C15.5558 39.1751 15.3743 39.0776 15.2396 39.0194C15.1928 38.9993 15.1735 39.091 15.1809 39.1797C15.2124 39.5583 15.4037 39.7768 15.5386 39.9852C15.6428 40.1459 15.7503 40.3698 15.8775 40.5706C16.0272 40.8069 16.1589 41.1093 16.1899 41.3178C16.2629 41.8096 16.475 42.5495 16.567 42.7277C16.6849 42.9561 17.1207 42.9516 17.6306 42.9862C17.9775 43.0097 18.6265 42.9826 19.0176 42.9634C19.6908 42.9304 19.9017 42.8365 20.2713 42.8282C20.513 42.8228 20.6726 43.0893 20.8534 43.3011C21.1422 43.6823 21.45 44.0059 21.7849 44.1376C21.8891 44.1533 22.0111 44.1533 22.1368 44.1533" stroke="#C4AFF4" stroke-width="2.10971" stroke-linecap="round"/>
<path d="M28.3999 45.1701C28.4609 45.1701 29.0033 45.1701 29.8118 45.1663C30.4252 45.1634 30.8638 44.8165 31.3826 44.6353C31.6482 44.585 31.8578 44.5159 32.0192 44.4274C32.0967 44.3922 32.1653 44.377 32.2361 44.3613" stroke="#C4AFF4" stroke-width="2.10971" stroke-linecap="round"/>
<path d="M13.1709 27.3297C13.1709 27.2992 13.1709 26.9479 13.1862 26.3899C13.2043 25.7269 13.6631 25.2277 13.848 25.1038C14.0859 24.9444 14.441 24.9961 14.9674 24.9573C15.373 24.9274 15.7037 24.5579 15.8282 24.334C15.953 24.1098 15.944 23.9488 16.0207 23.6488C16.0844 23.4001 16.0827 23.1635 16.1401 22.9781C16.2254 22.7026 16.4441 22.485 16.7972 22.2506C17.3226 21.9018 17.6902 21.6781 17.927 21.3455C18.1472 21.0364 18.0701 20.7675 18.1084 20.5748C18.1525 20.3534 18.2161 20.0904 18.2395 19.8584C18.2677 19.5775 18.6303 19.1286 19.2689 18.4967C19.6779 18.092 20.0339 17.9551 20.1452 17.932C20.4884 17.8607 20.9717 18.1003 21.2927 18.1936C21.6595 18.3003 21.8896 18.1784 22.2205 18.006C22.3384 17.9446 22.4886 17.8641 22.7616 17.6608C23.4424 17.154 23.8701 16.7766 24.0347 16.7153C24.7115 16.4636 25.2936 16.392 25.6256 16.3451C26.0696 16.2824 26.4421 16.276 26.9153 16.2641C27.1809 16.2574 27.3744 16.399 27.5711 16.4526C27.7984 16.5145 28.0367 16.5681 28.2451 16.6029C28.4918 16.644 28.6685 16.7456 28.8615 16.8299C29.0558 16.9149 29.3382 16.9915 29.524 17.0881C29.624 17.1401 29.7856 17.169 30.1035 17.2114C30.6831 17.2887 31.1414 17.1544 31.341 17.0468C31.8153 16.7911 32.2185 16.6157 32.5008 16.4919C32.9643 16.2885 33.3597 16.1679 33.6561 16.1295C33.7445 16.118 33.8441 16.1216 33.9218 16.1407C34.31 16.2359 34.462 16.8602 34.5735 16.9993C34.7123 17.1725 35.2214 17.2309 35.6354 17.2117C36.0132 17.1942 36.4325 17.2383 36.7631 17.3074C37.2974 17.419 37.4736 17.8613 37.5817 18.0353C37.701 18.2276 38.1036 18.4312 38.4245 18.5479C38.8283 18.6948 39.3441 18.5333 40.0905 18.5057C40.4415 18.4927 40.7006 18.6859 40.9437 18.8671C41.1077 18.9894 41.1868 19.2174 41.2445 19.5321C41.3341 20.0213 41.4949 20.4114 41.5603 20.569C41.7078 20.9246 41.9337 21.3129 42.2182 21.4747C42.5121 21.6418 42.835 21.8444 42.9968 21.9409C43.2203 22.0743 43.3586 22.3602 43.4363 22.5453C43.4721 22.6307 43.4594 22.761 43.494 23.1129C43.5672 23.859 43.5902 24.4172 43.644 24.5517C43.746 24.8064 43.8902 25.0562 44.0214 25.2991C44.1126 25.4677 44.2978 25.6723 44.7213 26.3714C45.0414 26.9 45.0156 27.1286 45.0923 27.421C45.1459 27.625 45.1542 28.3631 45.1274 28.8311C45.1219 28.927 45.0392 29.2526 44.9508 29.7411C44.8906 30.0739 44.8078 30.3401 44.7007 30.8418C44.6165 31.1986 44.4716 31.763 44.3969 32.0728C44.3223 32.3825 44.3223 32.4207 44.3223 32.46" stroke="#C4AFF4" stroke-width="2.10971" stroke-linecap="round"/>
<path d="M37.7822 42.5818C37.8127 42.5818 37.8437 42.8487 37.8973 43.2531C37.9161 43.3947 37.9967 43.3907 38.0434 43.3601C38.269 43.2127 38.329 42.9751 38.3407 42.8906C38.3508 42.8171 38.2983 42.7212 38.3365 42.5943C38.4457 42.2322 39.0357 41.9817 39.752 41.8586C40.2503 41.773 41.0402 41.7661 41.4715 41.7502C41.956 41.7325 42.057 41.7499 42.1606 41.7346C42.2938 41.715 42.4951 41.5354 42.7108 41.3124C42.9639 41.0506 42.8048 40.6878 42.6667 40.2458C42.4663 39.6043 42.0038 39.0165 42.0072 38.785C42.0086 38.6889 42.2562 38.6077 42.636 38.477C43.144 38.3022 43.7188 38.3066 44.1306 38.3104C44.352 38.3125 44.5671 38.3297 44.8211 38.3183C45.1126 38.3051 45.315 37.9304 45.435 37.6187C45.6418 37.082 45.3089 36.8133 45.032 36.279C44.922 36.0668 44.8537 35.622 44.8804 34.9948C44.8967 34.6112 45.0841 34.2724 45.2148 33.8763C45.2729 33.7 45.3302 33.5793 45.678 33.0856C46.0258 32.5919 46.6664 31.7301 47.2061 31.0917C47.7458 30.4533 48.1653 30.0644 48.4576 29.803C48.7499 29.5417 48.9024 29.4197 49.0596 29.2939" stroke="#C4AFF4" stroke-width="2.10971" stroke-linecap="round"/>
<path d="M44.7602 6.47188C44.9387 5.78702 45.8304 5.61285 46.2535 6.1802L47.1082 7.32666L48.5355 7.2419C49.2417 7.20004 49.6829 7.99347 49.2747 8.57113L48.4482 9.73953L48.9699 11.0705C49.228 11.7293 48.6093 12.3942 47.9337 12.1843L46.5682 11.7595L45.4628 12.6669C44.9159 13.1161 44.0915 12.7328 44.0827 12.0251L44.0652 10.5957L42.8608 9.82398C42.2647 9.44259 42.3743 8.54156 43.0445 8.31447L44.3997 7.85573L44.7602 6.47188Z" fill="#C4AFF4" stroke="#3E235A" stroke-width="0.843882"/>
<path d="M23.368 26.9643C22.4313 27.1921 21.2525 27.664 20.1597 28.2136C19.5603 28.5151 19.3541 28.7909 19.1429 29.0986C18.9411 29.3926 18.4722 29.3299 18.236 29.2664C18.0398 29.2137 17.9348 28.9344 17.7434 28.7683C17.2639 28.3522 16.1711 28.7027 15.6732 28.8562C14.8147 29.1207 14.4703 29.1109 14.1377 29.3291C13.7716 29.5693 13.4223 29.6111 13.1271 29.5347C12.8391 29.4602 12.5017 29.2535 12.1304 29.1638C11.5518 29.0239 11.0694 28.6275 10.8381 28.4164C10.6346 28.2306 10.5438 27.9248 10.3332 27.6939C10.1349 27.4764 9.91782 27.2597 9.68114 27.0291C9.42454 26.7792 9.13836 26.4549 8.90111 26.166C8.69962 25.9207 8.35891 25.3962 8.08273 24.9324C7.9142 24.6494 7.73136 24.408 7.44367 24.0632C7.20597 23.7783 7.25724 23.1955 7.28889 22.735C7.299 22.5879 7.38383 22.629 7.42909 22.6865C7.52245 22.8052 7.52576 23.0375 7.50677 23.1409C7.46026 23.3941 7.38536 22.5921 7.30903 22.4707C7.16697 22.2448 6.87519 22.1318 6.6061 22.0923C6.07017 22.0136 5.91621 23.1 5.74264 23.3837C5.605 23.6086 5.41601 22.9381 5.26334 22.6182C5.2188 22.5249 5.16131 22.4272 5.16687 22.4067C5.23054 22.1718 5.42829 22.8967 5.42273 23.306C5.32779 23.4092 5.18663 23.4353 5.09054 23.4606C5.0704 23.4859 5.10837 23.5365 5.1475 23.6654" stroke="#C4AFF4" stroke-width="4.64135" stroke-linecap="round"/>
<path d="M6.29834 24.1257C6.42492 24.3796 6.73256 24.8913 6.9305 25.1349C7.13089 25.3815 7.28186 25.7475 7.44201 26.1188C7.66548 26.6369 7.85725 26.9243 8.1576 27.4226C8.37066 27.7761 8.58607 28.1004 8.80356 28.4269C9.12185 28.9046 9.32793 29.1752 9.53238 29.4564C9.65437 29.6242 9.80128 29.7637 9.78306 29.7332C9.71421 29.6267 9.52433 29.3356 9.39487 29.135C9.26541 28.9343 9.20211 28.8331 9.1369 28.7287" stroke="#C4AFF4" stroke-width="4.64135" stroke-linecap="round"/>
<path d="M6.83545 25.0463C6.92406 25.2749 7.25586 25.9884 7.39779 26.5024C7.51534 26.9281 7.70389 27.2957 7.92139 27.5705C8.23236 27.9635 8.7135 28.2807 9.0081 28.4658C9.36393 28.6894 9.74919 29.0602 10.0244 29.3349C10.7074 30.0164 11.3864 30.85 11.6485 31.0679C11.8748 31.2559 12.1658 31.4768 12.4286 31.688C12.5553 31.7898 12.6906 31.9755 13.1415 32.4264C13.4911 32.776 14.0861 33.371 14.4811 33.7661C15.3373 34.5716 15.6948 34.7757 16.1931 35.076C16.3093 35.147 16.3853 35.1976 16.4635 35.2498" stroke="#C4AFF4" stroke-width="4.64135" stroke-linecap="round"/>
<path d="M44.5557 30.6275C44.563 30.6275 44.5702 30.6275 45.1027 30.1207C45.6351 29.6139 46.6924 28.6004 47.2808 28.0454C47.9484 27.4158 48.0761 27.3135 48.2406 27.1342C48.5932 26.7498 48.9082 26.4959 49.0037 26.4077C49.2837 26.1491 49.6078 25.8701 49.8173 25.569C50.1435 25.0999 50.2123 24.9496 50.2857 24.604C50.352 24.2918 50.3449 24.0954 50.3816 23.9036C50.4332 23.6338 50.4775 23.3511 50.5471 23.1125C50.7841 22.3 50.6686 21.6935 50.7457 21.642C50.8224 21.5908 51.1815 21.5901 51.671 21.6338C51.8587 21.6506 51.9054 21.7651 51.9462 21.8758C52.1134 22.3284 52.0755 22.759 52.0796 23.4694C52.0815 23.7992 51.9509 24.056 51.9395 24.4281C51.9358 24.5505 51.958 24.7775 51.9944 24.9917C52.0184 25.1326 52.1935 24.7282 52.212 24.6984C52.323 24.5188 52.0614 25.0804 51.9657 25.272C51.8324 25.5389 51.7008 25.7875 51.6194 25.9718C51.5704 26.0828 51.4506 26.244 51.3035 26.4424C51.1818 26.6064 51.0096 26.9935 50.7298 27.4279C50.5401 27.7225 50.3021 27.9892 50.0843 28.2877C49.9352 28.4921 49.7203 28.7698 49.4556 29.0638C49.0078 29.5614 48.6015 29.992 48.3936 30.1962C48.2709 30.3167 48.1653 30.4719 48.0437 30.5977C47.9053 30.7407 47.6721 30.8847 47.4113 31.0648C46.8385 31.4602 46.6336 31.5184 46.4419 31.6068C46.2921 31.6759 46.0741 31.6952 45.9115 31.7725C45.6708 31.887 45.3962 31.9533 44.8856 32.1769C44.4754 32.3565 44.2251 32.5494 44.0481 32.6232C43.954 32.6625 43.7253 32.7629 43.1464 32.9789C42.7528 33.1257 42.1737 33.3917 41.5961 33.5998C41.0185 33.8078 40.4643 33.961 39.3658 34.1601C38.2672 34.3593 36.6412 34.6 35.7889 34.7385C34.9367 34.8771 34.9075 34.9062 34.8774 34.9363" stroke="#C4AFF4" stroke-width="3.79747" stroke-linecap="round"/>
<path d="M51.6929 16.0237C51.6953 16.0936 51.7074 16.2351 51.728 16.5471C51.7413 16.8446 51.7606 17.4248 51.7681 18.2906C51.7756 19.1563 51.7708 20.2902 51.7658 21.4584" stroke="#C4AFF4" stroke-width="2.53165" stroke-linecap="round"/>
<path d="M52.561 20.8748C52.5803 20.8411 52.6624 20.7346 52.8176 20.5551C52.9813 20.3658 53.1272 20.255 53.1988 20.2004C53.314 20.1126 53.3802 19.9851 53.4817 19.8775C53.5542 19.8008 53.6604 19.6713 53.8582 19.4719C54.056 19.2726 54.3401 19.0054 54.5225 18.8268C54.705 18.6482 54.7772 18.5664 54.83 18.5014C54.9717 18.327 55.0166 18.2103 55.069 18.0826C55.1231 17.9508 55.2182 17.8336 55.312 17.6718C55.4229 17.4805 55.4858 17.3544 55.5505 17.2811C55.576 17.2592 55.6028 17.2324 55.6319 17.1972C55.6466 17.1789 55.661 17.1597 55.6759 17.1398" stroke="#C4AFF4" stroke-width="2.53165" stroke-linecap="round"/>
<path d="M55.0706 21.2103C55.0706 21.179 55.0706 21.1477 55.0706 21.1436C55.0706 21.1395 55.0706 21.1636 55.0308 21.2843C54.9911 21.4051 54.9117 21.6217 54.8334 21.7971C54.7552 21.9725 54.6806 22.1001 54.5964 22.2188C54.5122 22.3375 54.4207 22.4434 54.2629 22.5979C54.105 22.7523 53.8835 22.9521 53.755 23.0755C53.5909 23.2331 53.5558 23.3037 53.5376 23.3594C53.5268 23.3922 53.5314 23.4391 53.5602 23.4711C53.5891 23.5031 53.6469 23.52 53.9667 23.4191C54.2866 23.3183 54.8667 23.0992 55.1704 22.9815C55.4858 22.8593 55.5057 22.8347 55.536 22.8008C55.5783 22.7381 55.656 22.631 55.7423 22.5156C55.7756 22.4677 55.7876 22.4412 55.8 22.3847" stroke="#C4AFF4" stroke-width="2.53165" stroke-linecap="round"/>
<path d="M2.81592 23.5452C2.81592 23.5607 2.83909 23.613 2.88771 23.688C2.94019 23.7341 2.98156 23.7597 3.01266 23.7791C3.03024 23.7889 3.05148 23.7986 3.07336 23.8085" stroke="#C4AFF4" stroke-width="2.53165" stroke-linecap="round"/>
<path d="M3.43311 17.7031C3.43311 17.7301 3.464 17.8077 3.51563 17.911C3.54299 17.9658 3.60232 18.0707 3.68122 18.2189C3.71145 18.2756 3.73115 18.2898 3.78355 18.3692C3.83594 18.4486 3.92283 18.5915 3.97435 18.6738C4.0375 18.7746 4.07262 18.83 4.11635 18.9107C4.13954 18.9535 4.16974 18.9972 4.37195 19.2537C4.57416 19.5102 4.94874 19.9774 5.30679 20.3755C5.66484 20.7736 5.99501 21.0883 6.18441 21.264C6.40809 21.4714 6.46379 21.508 6.48521 21.5237C6.49333 21.5296 6.50276 21.5161 6.50867 21.5044C6.52085 21.4802 6.53014 21.3919 6.54184 21.1504C6.54998 20.9824 6.54582 20.7216 6.57382 20.3903C6.60182 20.0591 6.65781 19.6652 6.68666 19.359C6.7155 19.0528 6.7155 18.8462 6.7184 18.7157C6.72129 18.5851 6.72709 18.5368 6.732 18.4675C6.73692 18.3983 6.74078 18.3094 6.75821 18.1894C6.77565 18.0693 6.80654 17.9206 6.82439 17.8344C6.85356 17.6934 6.87722 17.6467 6.91332 17.5843C6.92988 17.557 6.95715 17.5084 6.98833 17.447C7.00021 17.4223 7.00407 17.4107 7.00805 17.3988" stroke="#C4AFF4" stroke-width="2.53165" stroke-linecap="round"/>
<path d="M20.5339 51.3952C20.624 51.4596 20.6705 51.583 20.664 51.7421C20.6594 51.8577 20.6121 51.9381 20.5007 52.0738C20.4144 52.1791 20.2445 52.3384 20.1357 52.4424C19.9824 52.5889 19.8935 52.6634 19.8173 52.738C19.618 52.9332 19.3536 53.0472 19.235 53.1042C19.0163 53.2093 18.947 53.2879 18.8688 53.3385C18.7683 53.4035 18.528 53.47 18.2737 53.5753C18.1232 53.6376 17.926 53.7096 17.8248 53.7639C17.7236 53.8181 17.7236 53.8503 17.7542 53.8798C17.7848 53.9093 17.846 53.935 18.185 53.9483C18.524 53.9616 19.1391 53.9616 19.5461 53.9712C19.9531 53.9809 20.1334 54.0002 20.4839 54.0102C20.8344 54.0201 21.3496 54.0201 21.7181 53.9976C22.0866 53.975 22.2926 53.93 22.468 53.8842C22.7842 53.8017 22.9535 53.734 23.0071 53.7064C23.0548 53.6819 23.1708 53.614 23.3429 53.5392C23.4547 53.4907 23.613 53.4061 23.8015 53.2665C23.9257 53.1745 24.0168 53.0611 24.1466 52.9557C24.3786 52.7673 24.505 52.6704 24.6042 52.6443C24.7206 52.6138 24.8012 52.6151 24.8191 52.6246C24.8787 52.6563 24.7951 52.7869 24.7416 52.8713C24.5932 53.1055 24.2424 53.2033 24.2304 53.2329C24.216 53.2684 24.389 53.153 24.5213 53.0683C24.6536 52.9835 24.792 52.8837 24.8924 52.7904C24.9927 52.6971 25.0506 52.6134 25.1014 52.5316C25.1522 52.4499 25.1941 52.3726 25.3831 51.6211C25.5721 50.8697 25.907 49.4464 26.1004 48.4974C26.2939 47.5485 26.3357 47.117 26.3654 46.8576C26.4035 46.5233 26.4341 46.3771 26.4519 46.2183C26.4734 46.0264 26.496 45.8888 26.504 45.7982C26.5168 45.6545 26.5673 45.515 26.6047 45.4079C26.6386 45.3108 26.7034 45.0997 26.8897 44.7737C26.9908 44.5966 27.1628 44.4316 27.2634 44.3323C27.3936 44.2039 27.4554 44.181 27.4829 44.1615C27.5086 44.1433 27.4176 44.1903 27.1438 44.2955C26.9799 44.3584 26.7766 44.4683 26.3694 44.7291C25.9621 44.9898 25.36 45.4052 25.0272 45.6241C24.6945 45.8429 24.6494 45.8525 24.5135 45.814C24.3775 45.7755 24.1521 45.6886 23.8621 45.6019C23.5721 45.5153 23.2243 45.4316 22.9534 45.3884C22.6825 45.3453 22.4989 45.3453 22.377 45.3212C22.0868 45.2637 22.0789 45.082 22.0644 45.0431C22.0569 45.0232 22.0466 45.0042 22.0303 45.0216C22.0141 45.039 21.9915 45.0938 21.9622 45.5164C21.9329 45.9391 21.8974 46.728 21.839 47.3292C21.7805 47.9305 21.6999 48.3201 21.6585 48.5418C21.617 48.7634 21.617 48.8053 21.5993 48.9122C21.5531 49.191 21.4968 49.401 21.4724 49.4837C21.4099 49.6961 21.3733 49.9238 21.3327 50.0947C21.3198 50.1491 21.2889 50.1271 21.2725 49.9352C21.2561 49.7433 21.2464 49.3794 21.2511 49.068C21.2558 48.7566 21.2751 48.5086 21.4267 47.8915C21.5784 47.2743 21.8617 46.2953 22.0142 45.7766C22.1666 45.2578 22.1795 45.2288 22.1861 45.2042C22.1927 45.1796 22.1927 45.1603 22.1042 46.4545C22.0156 47.7487 21.8385 50.357 21.7424 51.7103C21.6464 53.0636 21.6367 53.083 21.6253 53.0994C21.6139 53.1158 21.601 53.1286 21.567 53.1063C21.533 53.0839 21.4782 53.026 21.3196 52.6628C21.161 52.2997 20.9002 51.6331 20.6789 50.9339C20.4576 50.2347 20.2837 49.5231 20.1941 49.1275C20.1045 48.7319 20.1045 48.6739 20.1061 48.7181C20.1131 48.9104 20.1336 49.1726 20.1741 49.3674C20.2047 49.5142 20.254 49.6124 20.2993 49.7595C20.3317 49.8648 20.3832 50.0322 20.4194 50.1845C20.4556 50.3368 20.4749 50.4688 20.5541 50.7107C20.6333 50.9526 20.7718 51.3004 20.8882 51.5423C21.071 51.9223 21.2392 52.0618 21.343 52.0734C21.3961 52.0793 21.4468 52.0174 21.5297 51.9169C21.6126 51.8164 21.7253 51.6618 21.8269 51.4743C21.9284 51.2868 22.0153 51.0711 22.2775 50.0261C22.5396 48.9811 22.9743 47.1135 23.245 46.0338C23.5156 44.9541 23.609 44.7191 23.6748 44.6881C23.7406 44.6572 23.776 44.8375 23.8249 45.37C23.8737 45.9024 23.9349 46.7815 23.9423 47.5692C23.9496 48.357 23.9013 49.0268 23.7992 49.7502C23.697 50.4736 23.5424 51.2303 23.4644 51.6073C23.3864 51.9842 23.3896 51.9585 23.6408 51.2496C23.8921 50.5408 24.3912 49.1497 24.6547 48.4412C24.9183 47.7326 24.9312 47.7487 24.9445 47.7653" stroke="#C4AFF4" stroke-width="2.53165" stroke-linecap="round"/>
<path d="M30.8091 44.6086H30.818" stroke="#C4AFF4" stroke-width="2.53165" stroke-linecap="round"/>
<path d="M31.1016 45.0281C31.1726 45.1573 31.303 45.4048 31.3535 45.5059C31.4025 45.6042 31.4689 45.7397 31.5484 45.8828C31.5839 45.9467 31.634 46.057 31.7233 46.2132C31.8126 46.3695 31.9382 46.5691 32.0254 46.7283C32.1127 46.8875 32.1578 47.0002 32.2148 47.1146C32.2718 47.229 32.3395 47.3417 32.5401 47.7846C32.7408 48.2275 33.0725 48.9971 33.2498 49.4161C33.4271 49.8351 33.44 49.8802 33.4611 49.9372C33.5077 50.0632 33.5571 50.212 33.6218 50.4467C33.6647 50.6025 33.7508 50.8263 33.9147 51.1421C34.0785 51.4578 34.3232 51.8571 34.4558 52.0805C34.66 52.4248 34.7604 52.5997 34.8499 52.6684C34.9448 52.7413 35.0627 52.8017 35.2478 52.925C35.311 52.9671 35.3966 53.006 35.5444 53.063C35.6922 53.12 35.9015 53.1908 36.5938 53.2289C37.286 53.267 38.4549 53.2703 39.0845 53.2655C39.714 53.2607 39.7688 53.2478 39.8195 53.2412C39.9147 53.2287 39.9811 53.2378 40.0426 53.2427C40.1488 53.2511 40.37 53.2958 40.638 53.3819C40.9179 53.4719 41.0798 53.475 41.3481 53.519C41.4529 53.5362 41.5226 53.5761 41.617 53.5923C41.6398 53.5962 41.6593 53.5956 41.6821 53.5908C41.7049 53.5859 41.7307 53.5763 41.6087 53.5278C41.4867 53.4794 41.2162 53.3924 40.969 53.2961C40.7218 53.1998 40.5061 53.0968 40.3289 52.9938C40.1517 52.8908 40.0197 52.791 39.7682 52.6429C39.5166 52.4949 39.1495 52.3017 38.8863 52.149C38.6232 51.9964 38.475 51.8901 38.352 51.7935C38.1305 51.6195 38.0169 51.4786 37.9393 51.3459C37.814 51.1316 37.6851 50.9454 37.651 50.793C37.6162 50.6375 37.6458 50.5028 37.6556 50.4103C37.6643 50.3279 37.6718 50.2361 37.6913 49.9246C37.7075 49.665 37.6979 49.1977 37.6963 48.9475C37.6946 48.678 37.6882 48.6388 37.6769 48.5451C37.6523 48.3406 37.5844 48.1223 37.5179 47.9326C37.4431 47.7194 37.4023 47.4946 37.3502 47.3225C37.3164 47.2103 37.3174 47.1136 37.2819 46.889C37.2544 46.7145 37.1757 46.4229 37.0925 45.8196C37.0093 45.2162 36.9159 44.3113 36.8678 43.8081C36.8197 43.305 36.8197 43.2309 36.8229 43.2137C36.8261 43.1965 36.8326 43.2383 37.0082 43.7445C37.1838 44.2507 37.5283 45.22 37.7155 45.774C37.9026 46.3281 37.922 46.4376 37.9496 46.5407C37.9773 46.6438 38.0127 46.7371 38.0535 46.8883C38.0943 47.0394 38.1394 47.2455 38.2334 47.5433C38.3275 47.8411 38.4692 48.2242 38.5728 48.5521C38.6764 48.8799 38.7375 49.1407 38.7835 49.3813C38.8296 49.622 38.8585 49.8345 38.8815 49.9649C38.9122 50.1389 38.9436 50.2222 38.9534 50.3082C38.9634 50.3968 39.0114 50.637 39.0976 50.9652C39.1507 51.1675 39.1904 51.4017 39.2636 51.6569C39.3163 51.8406 39.308 52.0523 39.2497 52.1999C39.2331 52.242 38.9945 52.2263 38.523 52.1699C38.2448 52.1366 37.9001 52.0136 37.6485 51.8994C37.3969 51.7851 37.252 51.6627 37.1355 51.5112C37.019 51.3596 36.9352 51.1825 36.7778 50.5824C36.6204 49.9824 36.3917 48.9649 36.2691 48.3296C36.1465 47.6943 36.1368 47.4721 36.0787 47.0711C36.0206 46.67 35.9144 46.0968 35.8532 45.7951C35.789 45.4784 35.7272 45.4544 35.6005 45.3151C35.5596 45.2701 35.5291 45.2114 35.4078 44.961C35.2865 44.7106 35.0805 44.2662 34.934 43.9697C34.7876 43.6731 34.7071 43.5379 34.6157 43.4988C34.5244 43.4597 34.4245 43.5209 34.3071 43.6088C34.1897 43.6967 34.0576 43.8094 33.9445 43.9254C33.7293 44.1462 33.6065 44.3444 33.535 44.4823C33.4668 44.614 33.476 44.7962 33.4953 44.9877C33.5249 45.2805 33.6319 45.3563 33.7659 45.6016C33.8798 45.8101 34.0769 46.1946 34.2812 46.6657C34.4855 47.1368 34.6884 47.6842 34.8058 48.0178C34.9232 48.3513 34.9489 48.4543 34.9751 48.5348C35.0198 48.6725 35.0696 48.7779 35.1166 48.9027C35.181 49.074 35.2518 49.2106 35.318 49.3755C35.3669 49.4972 35.4647 49.6885 35.5209 49.8203C35.6028 50.0125 35.6773 50.2276 35.7991 50.4794C35.8839 50.6547 35.9446 50.775 35.9722 50.8853C35.997 50.9845 36.026 51.0711 36.0744 51.2569C36.1164 51.4008 36.1936 51.6456 36.2335 51.7861C36.2733 51.9267 36.2733 51.9557 36.2733 51.9855" stroke="#C4AFF4" stroke-width="2.53165" stroke-linecap="round"/>
<path d="M23.3914 29.6973C23.2092 30.3417 23.0243 30.7998 22.8443 31.152C22.7338 31.3683 22.6713 31.7003 22.6 32.1255C22.5287 32.5507 22.4726 33.0691 22.3737 33.6164C22.2748 34.1636 22.1347 34.724 21.9995 35.1633C21.8642 35.6026 21.7382 35.9039 21.4455 35.8909C21.1529 35.878 20.6976 35.5417 20.3754 35.2774C19.8588 34.8536 19.5927 34.4892 19.4124 34.2312C19.1993 33.9261 18.9132 33.6822 18.6837 33.4063C18.2526 32.8881 17.8172 33.03 17.566 33.009C17.4196 32.8606 17.3346 32.6912 17.2427 32.5212C17.2213 32.4785 17.2073 32.4365 17.1504 32.3507" stroke="#C4AFF4" stroke-width="4.21941" stroke-linecap="round"/>
<path d="M29.3562 22.6708C29.3002 22.7409 29.2442 22.8109 28.6128 23.7157C27.9815 24.6204 26.7766 26.3577 25.9948 27.4138C25.213 28.4699 24.8907 28.7921 24.6932 29.0001C24.4237 29.284 24.3397 29.4069 24.2412 29.4913C24.0663 29.6413 23.817 29.8656 23.5805 30.1725C23.3455 30.4774 23.257 30.7018 23.2041 30.7197C23.1332 30.7437 23.1155 30.484 23.0556 30.2018C22.9827 29.8583 22.8609 29.4379 22.7973 28.9789C22.7399 28.5654 22.8036 28.1778 22.8951 27.7932C22.9992 27.3558 23.2768 26.9538 23.6148 26.4359C23.8276 26.11 24.149 25.6729 24.3325 25.3895C24.6941 24.8306 24.6292 24.4693 24.6226 24.3129C24.6141 24.1109 24.0026 24.1992 23.6963 24.2239C23.6454 24.228 23.6043 24.2485 23.5687 24.2032C23.3632 23.9421 23.4337 23.7046 23.3951 23.567C23.3481 23.399 23.1441 23.3433 23.0452 23.3114C23.0042 23.2982 22.9743 23.3285 22.9669 23.3603C22.95 23.4325 23.0159 23.6526 23.0549 24.0231C23.0973 24.4263 23.0165 24.7361 22.9109 24.9546C22.7639 25.2588 22.4309 25.5703 22.0671 25.86C21.6087 26.225 21.3062 26.553 21.0954 26.9324C20.7937 27.4755 20.9789 27.6942 20.8655 27.878C20.8179 27.9552 20.7522 27.9988 20.6852 28.0026C20.5709 28.0092 20.5327 27.8296 20.4519 27.85C19.8839 27.9933 19.7982 28.4864 19.5253 28.6671C19.2333 28.8604 18.9631 28.8333 18.2914 28.8976C17.9546 28.9299 19.0586 28.6647 19.5155 28.3753C19.8148 28.1857 19.965 27.9714 20.405 27.7112C20.7106 27.5304 21.1602 27.2127 21.4298 27.04C21.7619 26.827 21.8696 26.7893 21.9226 26.7364C22.0671 26.5921 22.0887 26.2949 22.216 26.1034C22.2522 26.049 22.3145 25.9977 22.3399 26.0073C22.541 26.0839 22.3086 26.4341 22.2596 26.5899C22.2105 26.6337 22.1124 26.6056 22.0409 26.5772C21.9694 26.5487 21.9273 26.5207 21.884 26.4282" stroke="#C4AFF4" stroke-width="10.5485" stroke-linecap="round"/>
<path d="M21.9902 26.9376H22.1176" stroke="#C4AFF4" stroke-width="10.5485" stroke-linecap="round"/>
<path d="M19.5494 34.516C19.5494 34.572 19.5494 34.628 19.4478 34.9616C19.3463 35.2952 19.1431 35.9047 19.0244 36.2467C18.849 36.7523 18.6451 36.9699 18.5306 37.1406C18.5069 37.1758 18.5513 37.2391 18.5866 37.2679C18.7382 37.3917 19.0595 37.3393 19.5406 37.3991C19.788 37.4299 20.0079 37.5159 20.3196 37.5761C20.5703 37.6245 20.8638 37.6645 21.1124 37.6859C21.2064 37.694 21.2897 37.7354 21.3078 37.7636C21.3718 37.8632 20.6787 37.8063 20.0209 37.8133C19.6054 37.8177 19.352 37.9468 19.1717 38.0396C19.1167 38.0679 19.0344 38.0678 19.0192 38.0855C18.9858 38.1246 19.4679 38.1599 20.0759 38.2057C20.4397 38.233 20.6382 38.358 20.8567 38.3968C21.1426 38.4476 21.5215 38.4851 21.931 38.5768C22.3172 38.6633 22.6122 38.7543 22.8906 38.7755C23.273 38.8047 23.5608 38.8038 23.6984 38.8426C24.253 38.9992 24.9903 38.9449 25.0646 39.0719C25.2082 39.3171 25.0406 39.5529 24.9733 39.7901C24.8967 40.0604 24.864 40.3099 24.8667 40.671C24.8674 40.7656 25.2223 40.5315 25.7647 40.3023C26.1057 40.1583 26.6013 40.0101 27.0325 39.8921C27.4638 39.7741 27.8211 39.704 28.0471 39.668C28.2732 39.6319 28.3573 39.6319 28.9365 39.6494C29.5157 39.6669 30.5875 39.7019 31.1676 39.7305C31.934 39.7682 32.1929 39.8717 32.3734 39.9989C32.4419 40.0472 32.4347 40.098 32.4102 40.1372C32.3548 40.2257 32.1951 40.2475 31.5912 40.265C31.0784 40.2799 30.1468 40.3175 29.6318 40.3426C28.8615 40.38 28.5509 40.4311 28.483 40.4842C28.3755 40.5683 28.8532 40.5162 29.121 40.5339C29.2766 40.5442 29.473 40.5307 30.2711 40.3274C31.0691 40.1241 32.4632 39.7248 33.2303 39.4911C34.1032 39.2252 34.2246 39.1156 34.3196 39.0521C34.4765 38.9473 34.719 38.8613 35.2673 38.6466C35.6889 38.4814 36.4319 38.2847 36.8389 38.1589C37.4255 37.9774 37.6135 37.8351 37.9098 37.722C38.6529 37.4383 39.0077 37.3257 39.1563 37.1525C39.289 36.9978 39.3474 36.7814 39.7566 36.329C39.9848 36.0768 40.3374 36.0376 40.4867 35.9492C40.5208 35.9289 40.5641 35.9242 40.5928 35.9451C40.6214 35.966 40.6355 36.0151 40.6427 36.0999C40.66 36.3032 40.3977 36.6226 39.9701 36.9373C39.5863 37.2197 39.1177 37.4085 38.8567 37.5758C38.7636 37.6355 38.7041 37.7209 38.6829 37.8231C38.6706 37.8825 38.6757 37.9604 38.6897 37.8845C38.7037 37.8086 38.7317 37.5774 38.7287 36.334C38.7256 35.0906 38.6906 32.8419 38.648 31.5749C38.6054 30.308 38.5564 30.0908 38.5171 29.9684C38.4779 29.846 38.4498 29.825 37.4056 30.4832C36.3614 31.1414 34.3019 32.4794 33.2094 33.2001C32.1169 33.9209 32.0539 33.984 32.1545 33.435C32.2551 32.8861 32.5213 31.7232 32.6725 31.1102C32.8236 30.4971 32.8516 30.4691 32.8205 30.5667C32.7894 30.6644 32.6984 30.8885 32.1996 31.5819C31.7009 32.2754 30.7972 33.4312 30.3177 34.0512C29.8381 34.6711 29.8101 34.7202 29.7747 34.7279C29.6944 34.7455 29.6679 34.2582 29.6996 33.5866C29.7122 33.321 29.7384 33.2092 29.4024 33.26C29.0665 33.3109 28.373 33.528 27.9281 33.6854C27.3082 33.9339 27.0577 34.0768 26.9761 34.1055C26.9645 34.0852 27.0135 33.9942 27.0641 33.9003" stroke="#C4AFF4" stroke-width="8.43882" stroke-linecap="round"/>
<path d="M28.4436 24.3266C28.4436 24.0942 28.4156 23.7267 28.3131 23.4854C28.2426 23.3196 28.2245 23.1527 28.1679 22.9899C28.1531 22.9474 28.1396 22.9052 28.1079 22.8871C28.0761 22.8689 28.0271 22.8759 27.2033 23.2228C26.3794 23.5696 24.7822 24.2562 23.4866 24.6133C22.1909 24.9705 21.2452 24.9775 20.737 24.9916C20.2288 25.0057 20.1868 25.0267 20.1512 25.0516C20.0832 25.0989 20.0446 25.1753 20.0234 25.26C20.0128 25.302 20.0161 25.3447 20.0687 25.3594C20.1212 25.374 20.2263 25.36 20.3505 25.3318C20.4747 25.3035 20.6148 25.2615 20.7591 25.2182" stroke="#C4AFF4" stroke-width="8.43882" stroke-linecap="round"/>
<path d="M26.8683 22.0505C26.8683 21.8466 26.8584 21.4953 26.836 21.3428C26.7896 21.0275 26.6533 20.9094 26.6133 20.8319C26.5118 20.635 26.0825 20.7736 26.0426 20.8185C25.9863 20.8816 25.9624 20.9687 25.9323 21.0411C25.8949 21.1312 25.9271 21.229 25.9767 21.3138C26.0106 21.3717 26.1057 21.4283 27.5592 21.4268C29.0127 21.4253 31.8329 21.356 33.3006 21.3326C34.7683 21.3092 34.7981 21.334 34.8357 21.3691C34.9194 21.4472 34.9738 21.5245 35.0037 21.572C35.0925 21.7133 35.5475 21.6593 35.967 21.8337C36.4345 22.028 36.6208 22.3304 36.6558 22.4054C36.6853 22.4685 36.6911 22.5506 36.6763 22.6579C36.6584 22.7868 36.4523 22.9803 35.9172 23.3863C35.5407 23.672 34.9113 24.0649 34.5624 24.3114C34.2135 24.558 34.154 24.6323 34.116 24.735C34.0779 24.8378 34.063 24.9666 34.0603 25.1892C34.0576 25.4117 34.0675 25.7239 34.0875 25.8972C34.1075 26.0704 34.1372 26.0952 34.264 26.0882C34.3909 26.0811 34.6139 26.0414 34.9791 25.9194C35.3443 25.7974 35.8449 25.5942 36.2044 25.4102C36.5639 25.2262 36.7671 25.0676 36.9561 24.8942C37.145 24.7208 37.3135 24.5374 37.4598 24.3537C37.7395 24.0026 37.8972 23.664 37.9723 23.4016C38.0635 23.083 38.0279 22.8729 38.1201 22.5947C38.163 22.4652 38.1928 22.3563 38.2378 22.2813C38.2577 22.2483 38.2532 22.2163 38.2532 22.4909C38.2532 22.7655 38.2532 23.3454 38.2581 23.6789C38.2641 24.0819 38.308 24.1978 38.3852 24.3868C38.5399 24.7655 38.6531 25.1334 38.7704 25.3382C38.951 25.6536 39.0342 25.7447 39.1064 25.8351C39.1428 25.8807 39.2338 25.9797 39.3413 26.1396C39.427 26.267 39.4742 26.4303 39.6856 26.8801C39.8557 27.242 40.1201 27.8901 40.2952 28.2914C40.5323 28.8348 40.6856 29.0736 40.8205 29.261C41.0124 29.5273 41.1312 29.7143 41.2891 30.0221C41.322 30.1051 41.3418 30.1844 41.352 30.3145C41.3622 30.4446 41.3622 30.623 41.3622 30.8068" stroke="#C4AFF4" stroke-width="8.43882" stroke-linecap="round"/>
<path d="M46.0576 31.3299L46.0923 31.3241" stroke="#C4AFF4" stroke-width="5.06329" stroke-linecap="round"/>
<path d="M4.15527 25.4641C4.57721 26.7299 6.0962 29.8101 8.79662 32.0042C11.497 34.1983 13.8599 35.45 14.7038 35.8017" stroke="#3E235A" stroke-width="1.26582" stroke-linecap="round" stroke-linejoin="round"/>
<path d="M42.2954 29.6835C43.9832 28.699 47.6963 26.0548 49.0465 23.3544C48.6245 22.3699 48.1604 20.3164 49.6794 19.9789C51.1984 19.6413 52.2813 20.5415 52.633 21.0337C52.9143 21.4557 53.1393 22.2996 51.7891 22.2996" stroke="#3E235A" stroke-width="1.26582" stroke-linecap="round" stroke-linejoin="round"/>
<path d="M50.5234 19.5569L50.7344 16.3924C50.7344 15.9001 50.9454 14.9156 51.7893 14.9156C52.6331 14.9156 52.8441 17.0253 52.8441 18.0801V19.135L54.7428 16.8143C55.0241 16.3924 55.7555 15.6329 56.4306 15.9704C57.1057 16.308 56.5713 17.6582 56.2196 18.2911L55.3758 19.5569L53.688 21.4557L53.0551 22.0886" stroke="#3E235A" stroke-width="1.26582" stroke-linecap="round" stroke-linejoin="round"/>
<path d="M53.0547 22.5106C53.0547 23.0028 53.2657 23.8608 54.1095 23.3544C54.9534 22.8481 55.5863 22.1589 55.7973 21.8776C56.2192 21.3151 56.6834 20.1899 55.1644 20.1899" stroke="#3E235A" stroke-width="1.26582" stroke-linecap="round" stroke-linejoin="round"/>
<path d="M53.8989 23.7764C54.0396 24.1983 54.5318 24.9578 55.3757 24.6203C56.2196 24.2827 56.8525 23.2138 57.0635 22.7215C57.2041 22.2293 57.2323 21.2869 56.2196 21.4557" stroke="#3E235A" stroke-width="1.26582" stroke-linecap="round" stroke-linejoin="round"/>
<path d="M44.1943 35.3798C44.4053 35.5907 49.2576 33.2701 50.9454 30.9494C52.2956 29.0928 54.0396 26.0971 54.7429 24.8312" stroke="#3E235A" stroke-width="1.26582" stroke-linecap="round" stroke-linejoin="round"/>
<path d="M2.88941 22.7215C2.39715 22.8621 1.58139 23.3122 2.2565 23.9873C3.10038 24.8312 3.94427 25.2531 4.57718 25.2531" stroke="#3E235A" stroke-width="1.26582" stroke-linecap="round" stroke-linejoin="round"/>
<path d="M4.15543 20.8228C3.66316 20.8931 2.72083 21.2026 2.8896 21.8777C3.10057 22.7215 4.78834 24.4093 5.63222 24.1983C6.30732 24.0296 6.05416 23.1435 5.84319 22.7215" stroke="#3E235A" stroke-width="1.26582" stroke-linecap="round" stroke-linejoin="round"/>
<path d="M5.37559 22.5106L2.84395 18.9241C2.56265 18.3151 2.21103 17.0405 3.05492 16.8144C3.8988 16.5883 5.23494 18.2673 5.79753 19.1351L6.0085 16.8144C6.07883 16.4628 6.38825 15.7595 7.06335 15.7595C7.73846 15.7595 8.04788 17.166 8.11821 17.8692V20.4009" stroke="#3E235A" stroke-width="1.26582" stroke-linecap="round" stroke-linejoin="round"/>
<path d="M8.32904 22.9325H7.27419C6.85225 22.8622 6.09276 22.5105 6.43031 21.6667C6.85225 20.6118 9.17292 20.6118 9.59486 21.0338C10.0168 21.4557 10.4387 22.0886 10.2278 22.9325L10.0168 23.7764C11.2826 25.4641 14.2784 29.0506 16.1349 29.8945" stroke="#3E235A" stroke-width="1.26582" stroke-linecap="round" stroke-linejoin="round"/>
<path d="M20.7764 43.1857L18.8777 51.4135C18.2448 51.9761 16.8524 53.1857 16.3461 53.5232C15.7132 53.9452 15.7132 55 18.4558 55C20.6499 55 22.8862 55 23.73 55C24.4333 55 25.9241 54.7469 26.2617 53.7342C26.5992 52.7215 27.8088 48.1083 28.3714 45.9283" stroke="#3E235A" stroke-width="1.26582" stroke-linecap="round" stroke-linejoin="round"/>
<path d="M30.6919 45.2954L32.8016 52.4684C33.0126 53.2419 33.8986 54.789 35.7552 54.789C37.6117 54.789 40.4669 54.789 41.6624 54.789C42.2249 54.7187 43.3079 54.4093 43.1392 53.7342C42.9704 53.0591 41.6624 52.4684 41.0295 52.2574L38.4978 43.1857" stroke="#3E235A" stroke-width="1.26582" stroke-linecap="round" stroke-linejoin="round"/>
<path d="M27.7383 35.1688C27.9493 35.1688 28.7931 36.2237 31.3248 35.5908C31.817 35.4501 32.9282 34.8735 33.4345 33.692" stroke="#3E235A" stroke-width="1.26582" stroke-linecap="round" stroke-linejoin="round"/>
<path d="M36.1774 27.7848C35.1225 28.2067 32.8862 29.346 32.3799 30.5274C33.7864 30.2461 36.7681 30.0211 37.4432 31.3713" stroke="#3E235A" stroke-width="1.26582" stroke-linecap="round" stroke-linejoin="round"/>
<circle cx="25.2067" cy="29.8945" r="4.21941" fill="#FDFDFF"/>
<circle cx="25.2069" cy="29.8945" r="2.10971" fill="#483956"/>
</svg>
