<svg width="60" height="60" viewBox="0 0 60 60" fill="none" xmlns="http://www.w3.org/2000/svg">
<path d="M45.282 15.2137L48.1971 11.8858C46.7235 10.3902 46.0792 8.78731 48.1587 7.04292C49.8682 5.97871 51.2737 7.69388 51.7628 8.6845C53.8041 7.57738 55.1352 9.16167 55.5456 10.0922C55.839 10.6866 56.1644 12.1199 55.1183 13.0983C54.0721 14.0767 52.7857 14.0323 52.2733 13.8878C52.4881 14.4221 52.6089 15.6993 51.3739 16.5335C50.139 17.3677 48.8904 15.8711 48.4204 15.0185L45.282 15.2137Z" fill="#EBE8F9" stroke="#CCC7E9" stroke-width="0.89245" stroke-linecap="round" stroke-linejoin="round"/>
<circle cx="36.3594" cy="40.0286" r="3.34669" fill="#C4AFF4"/>
<circle cx="44.1684" cy="28.2037" r="3.5698" fill="#C4AFF4"/>
<circle cx="42.8296" cy="21.9566" r="3.5698" fill="#C4AFF4"/>
<circle cx="37.4751" cy="19.7254" r="3.5698" fill="#C4AFF4"/>
<circle cx="33.9053" cy="16.1556" r="3.5698" fill="#C4AFF4"/>
<path d="M41.4909 51.1843L38.1442 41.5905L42.1602 39.3593C42.9783 38.7644 44.7037 37.4852 45.0607 37.1282C45.4177 36.7712 46.2506 33.2609 46.6225 31.5504V24.6339L36.1362 14.5938L26.5423 13.9245L22.0801 16.3787L26.5423 51.1843H41.4909Z" fill="#C4AFF4"/>
<circle cx="31.8968" cy="26.865" r="4.46225" fill="#FDFDFF"/>
<circle cx="21.1873" cy="26.865" r="4.46225" fill="#FDFDFF"/>
<circle cx="31.8971" cy="26.865" r="2.23113" fill="#483956"/>
<circle cx="21.1877" cy="26.865" r="2.23113" fill="#483956"/>
<path d="M15.873 51.3562C15.9282 51.382 16.2076 51.463 16.4017 51.5078C16.5483 51.5417 16.7457 51.5966 17.0192 51.6077C17.2522 51.6172 17.6772 51.6115 17.9162 51.6151C18.1552 51.6188 18.1955 51.6261 18.6008 51.6281C19.0062 51.63 19.7753 51.6263 20.1825 51.6208C20.5897 51.6152 20.6117 51.6079 20.9966 51.6078C21.3815 51.6077 22.1286 51.615 22.5318 51.6225C22.935 51.6299 22.9717 51.6372 23.159 51.641C23.3463 51.6448 23.6833 51.6448 23.8715 51.6484C24.0893 51.6527 24.1742 51.6743 24.2776 51.6854C24.3659 51.6949 24.4371 51.7001 24.91 51.7168C25.3534 51.7324 26.2106 51.7225 26.6924 51.7316C27.1742 51.7408 27.2548 51.7591 27.8658 51.7667C28.4769 51.7743 29.6159 51.7706 30.2301 51.7632C30.8444 51.7559 30.8993 51.7449 31.5832 51.7392C32.2671 51.7336 33.5783 51.7336 34.2977 51.7262C35.0171 51.7189 35.105 51.7043 35.2675 51.693C35.43 51.6818 35.6644 51.6745 35.8254 51.6652C36.2057 51.6434 36.4117 51.619 36.5307 51.593C36.6362 51.57 36.9208 51.5671 37.2925 51.5634C37.4262 51.5621 37.4481 51.5524 37.6682 51.5487C37.8883 51.5449 38.3058 51.5449 38.5355 51.5412C38.9021 51.5354 39.1018 51.508 39.257 51.4544C39.4189 51.3985 39.5384 51.4081 39.6234 51.3528C39.7982 51.2389 39.9084 51.1826 40.0119 51.1049C40.1141 51.0282 40.219 50.9609 40.3817 50.8479C40.491 50.7721 40.5484 50.6721 40.6298 50.5926C40.7002 50.5239 40.7484 50.4466 40.7817 50.3577C40.8171 50.263 40.874 50.1802 40.913 50.095C40.9465 50.0219 41.0474 49.8188 41.0925 49.6511C41.1164 49.5627 41.2214 49.3456 41.2922 49.1997C41.3144 49.1035 41.3441 49.0073 41.3643 48.9428C41.3844 48.9075 41.4247 48.8673 41.4662 48.8257" stroke="#B3A4B9" stroke-width="2.23113" stroke-linecap="round"/>
<path d="M41.5167 47.9212C41.5167 47.9139 41.524 47.8918 41.5351 47.5161C41.5457 47.1589 41.5389 46.4628 41.5426 46.086C41.5473 45.5979 41.5757 45.48 41.5869 45.3468C41.5952 45.249 41.6421 45.0225 41.6646 44.6576C41.6763 44.4693 41.6905 44.381 41.6998 44.0657C41.7084 43.7725 41.698 43.2083 41.687 42.872C41.6729 42.4433 41.6388 42.3094 41.6351 42.2246C41.6274 42.0459 41.5873 41.8039 41.5685 41.4869C41.5649 41.4252 41.5575 41.3886 41.5538 39.8095C41.55 38.2304 41.55 35.1099 41.5445 33.4731C41.539 31.8363 41.528 31.7777 41.5224 31.7201C41.5167 31.6075 41.5057 31.4556 41.4891 31.1502C41.4834 30.94 41.4834 30.6177 41.4834 30.2856" stroke="#B3A4B9" stroke-width="2.23113" stroke-linecap="round"/>
<path d="M41.4779 29.9805C41.4779 29.9658 41.4779 29.9512 41.4779 28.6947C41.4779 27.4382 41.4779 24.9404 41.4742 23.6298C41.4705 22.3193 41.4632 22.2717 41.4594 22.1684C41.4557 22.0651 41.4557 21.9076 41.4502 21.7972C41.4447 21.6868 41.4337 21.6282 41.428 20.871C41.4224 20.1138 41.4224 18.6598 41.4224 17.1617" stroke="#B3A4B9" stroke-width="2.23113" stroke-linecap="round"/>
<path d="M35.0303 11.6104C35.043 11.6104 35.2692 11.5627 35.6226 11.4903C35.7559 11.4631 35.7978 11.4658 35.9099 11.4498C36.0219 11.4339 36.2033 11.4021 36.6262 11.3873C37.0491 11.3725 37.708 11.3757 38.0585 11.3805C38.4865 11.3864 38.5762 11.4173 38.7062 11.4432C38.8156 11.465 38.9327 11.4658 39.1046 11.5297C39.2477 11.5831 39.4276 11.607 39.569 11.6567C39.7343 11.7148 39.8428 11.8512 39.9249 11.914C40.0823 12.0345 40.2416 12.2821 40.2964 12.3448C40.3544 12.4113 40.4216 12.4781 40.4636 12.5554C40.5046 12.6307 40.5631 12.6839 40.6418 12.806C40.7157 12.9204 40.817 13.0597 40.8831 13.1581C40.9502 13.2581 40.981 13.3973 41.0214 13.4878C41.0604 13.575 41.1195 13.6934 41.1724 13.8122C41.2381 13.9596 41.264 14.1398 41.3044 14.283C41.3593 14.4777 41.322 14.6961 41.3445 14.8214C41.3533 14.8705 41.3606 14.8894 41.3639 15.13C41.3672 15.3706 41.3672 15.8321 41.3704 16.0842C41.3735 16.3363 41.3799 16.3649 41.4023 17.0147C41.4247 17.6644 41.4628 18.9344 41.5022 20.2429" stroke="#B3A4B9" stroke-width="2.23113" stroke-linecap="round"/>
<path d="M14.3003 12.6158C14.3322 12.5945 14.3858 12.5464 14.5299 12.4222C14.6342 12.3323 14.8121 12.1998 14.9104 12.122C15.0543 12.0082 15.1426 11.9746 15.2594 11.9141C15.4203 11.8308 15.5185 11.7759 15.7459 11.6674C15.9446 11.5727 16.0905 11.5315 16.1599 11.4941C16.2879 11.425 16.3938 11.3998 16.4273 11.3945C16.4663 11.3883 16.549 11.349 16.7653 11.2996C16.9144 11.2655 17.1463 11.2262 17.3292 11.2043C17.512 11.1824 17.6396 11.1824 17.7518 11.1758C17.864 11.1691 17.957 11.1558 18.5045 11.1516C19.052 11.1475 20.0512 11.1528 20.8317 11.1821C21.6122 11.2114 22.1436 11.2645 22.6912 11.3193" stroke="#B3A4B9" stroke-width="2.23113" stroke-linecap="round"/>
<rect x="12.772" y="10.3547" width="29.8971" height="42.3914" rx="4.01603" stroke="#3E235A" stroke-width="0.89245"/>
<rect x="14.9405" y="12.5858" width="25.4348" height="37.9291" rx="2.67735" stroke="#3E235A" stroke-width="0.89245"/>
<path d="M21.9202 8.79291H24.1513C24.2257 7.52861 24.8653 5 27.7211 5C30.577 5 31.3653 7.52861 31.2909 8.79291H33.0758C34.6823 8.79291 35.0839 9.53662 35.0839 9.90848V14.3707C35.0839 15.0847 34.6376 15.2233 34.4145 15.2034H20.8047L20.5815 14.3707V10.3547C20.5815 9.10527 21.474 8.79291 21.9202 8.79291Z" fill="#B0A1B6" stroke="#3E235A" stroke-width="0.89245" stroke-linecap="round" stroke-linejoin="round"/>
<circle cx="27.7205" cy="8.34664" r="1.45023" fill="white" stroke="#3E235A" stroke-width="0.669338"/>
<path d="M3.62469 17.4943L7.19449 16.8249L18.5732 14.5938L21.0275 14.1476C23.5263 13.4336 24.5973 15.635 24.8204 16.8249C26.3822 25.8982 29.5504 44.4909 29.7289 46.2758C29.9073 48.0607 28.3158 48.9532 27.4977 49.1763C22.6636 50.1431 12.4599 52.166 10.3181 52.523C8.17618 52.8799 7.49197 51.4818 7.4176 50.7381L2.0629 19.9485C1.70592 18.6163 2.95535 17.7573 3.62469 17.4943Z" fill="#B3A4B9" stroke="#3E235A" stroke-width="0.89245" stroke-linecap="round" stroke-linejoin="round"/>
<path d="M7.19493 15.9325C7.00363 15.2186 7.85893 14.8914 8.3105 14.817L9.64917 14.5939C9.50043 13.5143 9.33681 11.4227 11.6572 10.8009C13.9776 10.1792 15.1526 12.178 15.227 13.4783L16.7888 13.2552C17.6812 13.0321 18.1274 13.4039 18.1274 13.7014L18.7968 16.6019C18.9881 17.3158 18.4303 17.6431 18.1274 17.7174C15.4501 18.238 9.87228 19.3239 8.97983 19.5023C8.08738 19.6808 7.71553 18.9818 7.64116 18.6099L7.19493 15.9325Z" fill="#B0A1B6" stroke="#3E235A" stroke-width="0.89245" stroke-linecap="round" stroke-linejoin="round"/>
<circle cx="12.2631" cy="13.4783" r="1.22712" fill="white" stroke="#3E235A" stroke-width="0.669338"/>
<path d="M41.2163 33.4273C41.0179 33.5626 40.8543 33.6986 40.8273 33.7416C40.801 33.7835 40.7278 33.7578 40.7049 33.7622C40.6427 33.774 40.8625 33.9065 41.1415 34.0597C41.3343 34.1656 41.6535 34.2847 41.9025 34.3695C42.1514 34.4544 42.3262 34.4902 42.4969 34.5087C42.8275 34.5445 43.013 34.5137 43.0446 34.4799C43.166 34.3502 43.2977 34.0261 43.3725 33.8202C43.3987 33.7482 43.0926 33.7352 42.7215 33.7396C42.592 33.7411 42.5834 33.7709 42.7401 33.7824C43.2182 33.8176 43.5742 33.7895 43.626 33.7177C43.7478 33.5493 43.7597 33.3015 43.8072 33.159C43.8343 33.0777 43.8323 33.0068 43.8459 32.6589C43.8579 32.3516 44.3078 32.9656 44.3123 32.6589C44.3178 32.2844 44.2045 30.4846 44.1684 30.4349C44.1364 30.3908 44.0496 31.5504 44.2804 31.3232C44.5288 31.0787 44.7733 31.7746 44.8776 31.9647C44.9754 32.143 44.9636 32.3946 44.982 32.5735C45.0004 32.7531 45.036 32.9059 45.0791 33.3733C45.1137 33.7496 45.0818 34.4142 45.066 34.8208C45.0501 35.2274 45.0277 35.3574 45.0162 35.487C45.0047 35.6167 45.0047 35.7422 44.98 35.9278C44.9229 36.3579 44.8553 36.6853 44.8508 36.8322C44.8473 36.9484 44.8012 37.0612 44.7381 37.1921C44.6679 37.3377 44.5078 37.5312 44.3113 37.7549C44.0461 38.0569 43.9052 38.1298 43.8307 38.1659C43.7958 38.1828 43.7696 38.202 43.7468 38.162C43.7239 38.1219 43.706 38.0233 43.7528 37.4147C43.7996 36.806 43.9116 35.6903 43.9738 35.1469C44.036 34.6035 44.0449 34.6662 44.0496 34.7501C44.0542 34.8339 44.0542 34.937 44.0206 35.1021C43.987 35.2672 43.9197 35.4912 43.7597 35.8128C43.5996 36.1343 43.3486 36.5465 43.188 36.7925C43.0274 37.0385 42.9646 37.1057 42.9211 37.1448C42.8776 37.1839 42.8552 37.1929 42.7899 37.1101C42.5978 36.8666 42.3897 36.556 42.1729 36.3482C42.0013 36.1837 41.8819 36.1249 41.756 36.1181C41.2852 36.0928 41.0507 36.1832 40.7791 36.2781C40.6837 36.3115 40.6868 36.3461 40.7136 36.3869C40.7821 36.4906 41.0513 36.6712 41.5025 36.9398C42.0196 37.2478 42.3612 37.3558 42.3973 37.3942C42.4161 37.4141 42.4335 37.437 42.4337 37.4665C42.4352 37.6262 42.2263 37.7268 41.8722 37.9793C41.3475 38.3536 41.2033 38.3783 41.0787 38.5164C40.988 38.617 40.9629 38.7178 40.9695 38.8194C40.9773 38.939 41.2462 39.0301 41.5402 39.116C41.8055 39.1935 41.9941 39.1712 42.1076 39.1259C42.3153 39.0429 42.6684 38.895 43.0006 38.7799C43.2084 38.7079 43.3837 38.6373 43.5038 38.6098C43.6706 38.5715 43.8364 38.5512 44.3123 38.204C44.5654 38.0193 44.6831 37.8813 44.829 37.6949C44.9551 37.5339 45.1945 37.2442 45.328 37.0762C45.5431 36.8057 45.5701 36.5876 45.6538 36.3951C45.7246 36.2325 45.7242 36.08 45.7445 35.9383C45.8152 35.4469 45.7243 35.2794 45.6973 35.1028C45.67 34.8444 45.6565 34.7357 45.6317 34.6568C45.6203 34.6137 45.6113 34.5644 45.6021 34.4864" stroke="#C4AFF4" stroke-width="2.23113" stroke-linecap="round"/>
<path d="M39.9925 37.8223C39.5463 38.1942 38.9662 39.1164 40.2156 39.8303C41.4651 40.5443 43.5623 40.2765 44.4548 40.0534C45.2728 39.6072 46.909 38.2239 46.909 36.2605C46.909 33.8063 46.4628 32.0214 46.0166 31.352C45.5703 30.6827 44.0085 29.344 43.1161 29.5671" stroke="#3E235A" stroke-width="1.33868" stroke-linecap="round"/>
<path d="M39.5465 35.3681C39.1746 35.8143 38.7433 36.8853 39.9927 37.5992C41.2422 38.3132 42.8932 37.8967 43.5625 37.5992" stroke="#3E235A" stroke-width="1.33868" stroke-linecap="round"/>
<path d="M43.7861 31.5752C43.4886 31.7983 42.6705 32.2445 41.7781 32.2445C40.6625 32.2445 38.6545 32.9139 39.1007 34.0294C39.547 35.145 41.7781 35.145 43.1168 35.145" stroke="#3E235A" stroke-width="1.33868" stroke-linecap="round"/>
</svg>
