<svg width="60" height="60" viewBox="0 0 60 60" fill="none" xmlns="http://www.w3.org/2000/svg">
<path d="M26.274 38.4651C25.412 40.401 25.3586 40.8507 25.1608 42.1142C24.9294 43.5924 24.5101 44.0483 24.0146 44.8298C23.4856 45.664 23.1712 46.1164 23.0239 46.7802C22.9666 47.0386 23.0104 47.4648 23.0432 47.6353C23.0671 47.7591 23.4458 47.3303 23.7921 47.076C24.0731 46.8695 24.2299 46.625 24.5348 46.3997C24.733 46.2151 24.8806 46.0543 24.9666 45.9353C25.0132 45.8688 25.0657 45.79 25.1994 45.6292" stroke="#C4AEF6" stroke-width="5" stroke-linecap="round"/>
<path d="M25.2788 47.46C25.4507 46.6795 25.5574 46.0685 25.8941 44.9967C25.9763 44.7352 26.0732 44.6102 26.3502 43.9056C26.6273 43.2009 27.1001 41.9269 27.3568 41.218C27.7419 40.1547 27.8515 39.6081 27.9254 39.2622C28.0251 38.9566 28.2615 38.2453 28.5084 37.4794C28.5811 37.2738 28.6993 36.998 28.8211 36.7138" stroke="#C4AEF6" stroke-width="5" stroke-linecap="round"/>
<path d="M12.3496 33.5819C12.4624 33.5819 12.5628 33.5678 12.641 33.5571C12.8109 33.5336 12.9823 33.8797 13.1642 34.0585C13.2391 34.1321 13.3813 34.116 13.6785 34.0666C14.2951 33.9642 14.7696 33.8028 14.9472 33.7674C15.2593 33.7051 15.4743 33.5046 15.7308 33.3688C15.9511 33.2521 16.4261 33.1547 16.7634 33.222C17.0034 33.2699 17.0913 33.652 17.2051 33.9156C17.2343 33.9833 17.2831 34.0365 17.5798 34.0656C17.8765 34.0946 18.4263 34.0946 18.78 34.2285C19.3761 34.4542 19.42 35.005 19.4306 35.2003C19.4409 35.391 19.4841 35.8285 19.4383 36.528C19.3912 37.2463 19.1571 37.7528 19.0682 38.016C18.9671 38.3153 18.8228 38.5791 18.8039 38.758C18.786 38.9267 19.3739 38.4612 19.6827 38.3066C19.9394 38.1782 20.1523 37.9899 20.6305 37.6393C20.9397 37.4127 21.5441 37.071 21.8774 36.8788C22.2106 36.6865 22.267 36.6724 22.3242 36.6757C22.6617 36.6953 23.2547 37.1398 23.4816 37.4998C23.6494 38.3089 23.6635 38.5654 23.6849 38.9013C23.6922 39.1667 23.6922 39.6249 23.6922 40.097" stroke="#C4AEF6" stroke-width="5" stroke-linecap="round"/>
<path d="M15.432 25.0506C15.1803 25.1096 14.8067 25.2294 14.7323 25.1852C14.3461 24.9556 14.6426 24.2023 14.6459 24.0233C14.6498 23.809 14.9765 23.7401 15.2076 23.5725C15.411 23.4249 15.6103 23.4344 15.6921 23.3381C15.8105 23.1987 15.7822 22.7371 15.7378 22.1127C15.7164 21.8112 15.6345 21.5473 15.6003 21.2335C15.5278 20.5688 15.5513 20.1567 15.529 19.9274C15.4795 19.4202 15.5583 19.0688 15.6363 19.0501C15.7956 19.012 15.9746 19.1872 16.51 19.4735C16.8812 19.672 17.1072 19.7388 17.4346 19.7429C17.5587 19.7445 17.6293 19.6648 17.6814 19.6092C17.9173 19.3571 18.0316 18.7868 18.121 18.3785C18.2553 17.765 18.0993 17.2002 18.0324 16.9695C17.965 16.7373 17.8832 16.4039 17.7827 16.0936C17.727 15.9216 17.7115 15.7322 17.7263 15.5722C17.7533 15.28 18.039 15.1354 18.117 15.1131C18.1993 15.0895 18.801 15.2604 19.6723 15.495C19.989 15.5803 20.0568 15.5748 20.1131 15.5601C20.3025 15.5105 20.363 15.3294 20.538 15.1064C20.6584 14.9529 20.7429 14.8007 21.0885 14.329C21.3378 13.9889 21.5694 13.6318 21.7115 13.4597C21.8565 13.2841 21.935 13.1469 22.0096 12.9904C22.0873 12.8276 22.2108 12.6704 22.3779 12.4357C22.4574 12.3242 22.5312 12.2453 22.5757 12.1746C22.791 11.8323 22.71 13.4736 22.7545 13.5554C22.8022 13.6431 22.9478 13.6528 23.0891 13.6418C23.3214 13.6236 23.646 13.2161 24.1947 12.6712C24.3957 12.4714 24.9257 11.936 25.2426 11.5937C25.3218 11.5082 25.3693 11.4108 25.4436 11.3588C25.4794 11.3337 25.5179 11.3214 25.5701 11.336C25.6976 11.3714 25.875 11.669 26.087 12.1112C26.3882 12.7396 26.4937 12.9515 26.68 13.0492C27.0235 13.2292 27.6035 12.998 27.7901 12.8785C27.9506 12.7756 28.1028 12.6623 28.3184 12.4807C28.9395 11.9574 29.3315 11.5315 29.4849 11.2995C29.6908 10.9883 30.0024 10.9862 30.6742 11.0079C31.1653 11.0237 31.5292 11.2682 31.7781 11.4058C32.2214 11.6508 32.3865 11.797 32.5907 11.9832C33.1297 12.4747 33.4816 12.4384 33.6079 12.4313C33.9075 12.4143 33.988 12.1412 34.2779 11.8405C34.5392 11.5694 34.6813 11.3438 34.7481 11.3028C34.8846 11.219 35.0532 11.4251 35.3249 11.7776C35.6074 12.1439 35.6646 12.4742 35.8834 12.8058C36.2726 13.3957 36.8026 13.5398 37.1573 13.7083C37.4681 13.8559 37.735 13.7498 37.9214 13.6571C38.2379 13.4996 38.7975 13.2367 39.1506 13.0946C39.2008 13.0743 39.2252 13.0351 39.2625 13.0384C39.4709 13.0565 39.5899 13.3909 39.7097 13.6923C39.9151 14.2089 39.6288 14.5597 39.4537 14.9695C39.3059 15.3154 39.3003 15.6705 39.304 15.8788C39.3104 16.2428 39.6275 16.5651 39.7832 16.6433C40.1503 16.8276 40.3721 16.5662 40.6177 16.4616C40.7888 16.3888 41.0495 16.4317 41.3798 16.3798C42.1301 16.262 42.5234 16.1492 42.8788 15.9925C43.2397 15.8334 43.7828 15.4188 44.1142 15.3702C44.2306 15.3531 44.2465 15.4027 44.2615 15.4512C44.3313 15.6773 44.2027 15.9682 44.0723 16.1776C44.0043 16.2867 43.897 16.3492 43.8117 16.4272C43.6927 16.5361 43.2594 16.8974 42.7344 17.4409C42.31 17.8803 42.3174 18.4788 42.3321 18.6984C42.338 18.7862 42.3764 18.8221 42.4395 18.8558C42.5904 18.9365 42.83 18.9642 43.3815 18.9829C43.8 18.997 44.5008 18.9794 44.9023 18.9867C45.3857 18.9954 45.498 19.061 45.5575 19.124C45.7244 19.301 45.692 19.9797 45.6661 20.405C45.6507 20.6571 45.4095 20.8482 45.242 20.9938C45.0341 21.1745 44.8213 21.288 44.5796 21.4665C44.0759 21.8384 43.7933 21.9138 43.4178 22.1926C43.2211 22.3386 42.8488 22.5605 42.4394 22.8953C42.0412 23.221 41.9008 23.5296 41.7332 23.8315C41.6657 23.9531 41.6766 24.0816 41.732 24.2152C41.8135 24.4118 42.1737 24.6023 42.5604 24.8919C43.1484 25.3323 43.1805 25.705 43.3224 25.8954C43.5927 26.2582 43.9846 26.4353 44.2786 26.6694C45.0903 27.3158 45.4001 27.4044 45.6205 27.5382C45.9242 27.7227 46.4282 27.9702 46.63 28.1007C46.8449 28.2395 47.0392 28.4834 47.5485 28.9524C47.9511 29.3231 48.1351 29.4158 48.095 29.383C47.8447 29.1787 47.5114 28.9105 46.8303 28.6214C46.3271 28.4078 45.4707 28.1405 44.8126 27.9924C44.1544 27.8442 43.7119 27.8442 43.4545 27.8221C43.1323 27.7944 43.033 27.6954 42.8995 27.673C42.6805 27.6363 42.1057 27.7465 41.4243 27.8768C41.1776 27.924 41.1338 27.9407 41.111 27.9778C41.0593 28.062 41.0956 28.1937 41.1178 28.3053C41.1596 28.5148 41.6067 28.6555 42.371 28.9937C42.4938 29.048 42.3933 29.1686 42.3259 29.2251C42.113 29.4034 41.916 29.5418 41.8147 29.8169C41.7201 30.0741 42.1205 30.5602 42.6415 31.0405C43.0036 31.3743 43.2176 31.5375 43.3265 31.8102C43.4131 32.027 43.4348 32.2388 43.4569 32.3245C43.4742 32.3915 43.355 32.2846 42.8097 32.2064C42.4806 32.1592 42.0358 32.1798 40.5246 32.4675C39.0133 32.7551 36.4468 33.3303 34.4536 33.8811C32.4603 34.4319 31.118 34.9408 30.3934 35.2287C29.6687 35.5167 29.6023 35.5683 29.7931 35.5027C29.9838 35.4371 30.4337 35.2528 31.1817 34.837C31.9297 34.4212 32.9622 33.7795 32.6386 33.7256C32.315 33.6716 30.604 34.2247 29.5898 34.5318C28.5757 34.8389 28.3101 34.8831 28.1881 34.8912C28.0661 34.8992 28.0956 34.8697 28.1477 34.7808C28.1997 34.6918 28.2735 34.5443 28.9199 33.6939C29.5664 32.8436 30.7832 31.2948 32.4648 29.7005C34.1463 28.1061 36.2555 26.5131 36.6157 25.9174C36.9758 25.3217 35.5229 25.7716 34.568 26.114C33.613 26.4564 33.2 26.6776 32.884 26.8653C32.568 27.0531 32.3615 27.2006 32.2182 27.3245C32.075 27.4484 32.0012 27.5443 32.8556 27.2729C33.71 27.0014 35.4948 26.3598 34.4229 26.6967C33.3511 27.0336 29.3686 28.3685 27.5345 28.8423C25.7005 29.3161 26.1356 28.8883 26.522 28.4688C26.9084 28.0494 27.2329 27.6511 27.7246 26.8596C28.2163 26.0682 28.8653 24.8955 29.3029 23.9374C29.7405 22.9794 29.947 22.2714 30.0644 21.7849C30.2388 21.0627 30.212 20.6274 30.1639 20.2707C30.1148 19.9073 29.9592 19.6432 29.8329 19.4943C29.7401 19.3851 29.5722 19.3593 29.2757 19.2927C29.0736 19.2473 28.7728 19.1524 27.8094 18.6274C26.8461 18.1024 25.231 17.1437 24.303 16.6535C23.3751 16.1633 23.1834 16.1706 22.8191 16.3367C22.4548 16.5027 21.9238 16.8272 21.0934 17.4443C20.2631 18.0613 19.1495 18.9611 18.443 19.6311C17.7366 20.3011 17.4711 20.7141 17.2679 21.0707C17.0648 21.4272 16.932 21.7149 16.8378 21.981C16.7436 22.2472 16.692 22.4832 16.6654 22.9846C16.6388 23.486 16.6388 24.2456 16.6204 24.696C16.597 25.2665 16.4386 25.585 16.2307 26.001C16.1201 26.2225 15.9639 26.4465 15.7109 26.7302C15.1355 27.3755 14.6581 27.7394 14.4946 27.8324C14.1396 28.0343 13.7348 28.1642 13.4479 28.2647C13.2637 28.3292 12.8796 28.4686 12.4145 28.6882C11.7899 28.9831 11.1647 29.2513 10.9703 29.3895C10.7479 29.5476 10.4268 29.7505 10.0289 29.9517C9.89994 30.0168 9.82294 30.0715 9.50145 30.2561C9.22422 30.4259 8.71534 30.7504 8.37575 30.9176C8.03616 31.0847 7.88129 31.0847 7.63232 31.1294" stroke="#C4AEF6" stroke-width="5" stroke-linecap="round"/>
<path d="M23.1303 38.959C23.1303 38.9658 23.1303 38.9726 23.0015 39.5727C22.8727 40.1729 22.615 41.3662 22.4704 42.0115C22.3258 42.6567 22.3021 42.7177 22.2356 42.9594C22.1692 43.201 22.0607 43.6214 21.9912 43.865C21.9218 44.1087 21.8947 44.163 21.7722 44.5197C21.6498 44.8765 21.4328 45.5342 21.3075 45.9357C21.1821 46.3373 21.155 46.4627 21.0732 46.6951C20.9915 46.9276 20.8559 47.2632 20.7775 47.4496C20.659 47.7318 20.5966 47.8448 20.5332 47.9288C20.417 48.0827 20.2269 48.2901 20.0612 48.4267C19.7753 48.6625 19.6276 48.7012 19.4652 48.7286C19.3979 48.74 19.3263 48.7662 19.0951 48.8224C18.9093 48.8676 18.5791 48.9227 18.4063 48.9677C18.2335 49.0127 18.2268 49.0398 19.0284 49.0555C19.8301 49.0711 21.4404 49.0745 22.3106 49.0814C23.1809 49.0882 23.2622 49.0984 23.4499 49.0951C23.6376 49.0919 23.9292 49.0749 24.1421 49.0527C24.355 49.0304 24.4804 49.0032 24.5925 48.9842C24.7986 48.9491 25.0532 48.9377 25.3353 48.9156C25.6706 48.8892 25.7461 48.8179 25.9359 48.7974C26.1943 48.7694 26.4617 48.4621 26.5765 48.3764C26.609 48.3521 26.6464 48.3252 26.7317 48.2197C26.817 48.1142 26.9492 47.9311 27.0886 47.7063C27.2279 47.4815 27.3702 47.2204 27.5046 46.9402C27.639 46.6599 27.761 46.3684 27.8561 46.1097C27.9512 45.851 28.0156 45.6341 28.0606 45.4596C28.1376 45.1616 28.164 44.9999 28.1828 44.9232C28.2317 44.7238 28.212 44.63 28.2223 44.333C28.2319 44.0566 28.2258 43.5242 28.2292 43.2246C28.2331 42.874 28.2463 42.7878 28.304 42.5008C28.3551 42.2463 28.4769 41.7765 28.6651 41.1897C28.8533 40.6028 28.5921 38.6988 28.7502 38.2952C28.9084 37.8915 29.2327 38.0046 29.2691 37.915C29.3054 37.8254 29.0523 37.5359 29.724 38.4641C29.915 38.7279 30.1616 37.6814 30.3253 37.4078C30.489 37.1342 30.5229 37.0969 30.5471 37.0828C30.5713 37.0687 30.5849 37.0788 30.5987 37.0942C30.6124 37.1096 30.626 37.13 30.8211 37.4269C31.0163 37.7239 31.3926 38.2968 31.6339 38.692C31.8752 39.0871 31.9701 39.2871 32.0614 39.5343C32.1527 39.7814 32.2374 40.0695 32.3116 40.3756C32.3858 40.6817 32.4468 40.997 32.5782 41.6917C32.7097 42.3863 32.9097 43.4508 33.0127 44.0212C33.1158 44.5917 33.1158 44.6357 33.126 44.6974C33.1492 44.8385 33.2012 45.1208 33.2371 45.446C33.2543 45.6011 33.2731 45.806 33.309 46.09C33.3417 46.3477 33.3623 46.4715 33.3845 46.5779C33.4034 46.6689 33.4343 46.766 33.4547 46.9389C33.4684 47.055 33.4889 47.136 33.5249 47.2234C33.5656 47.3223 33.5608 47.4031 33.6224 47.5144C33.6514 47.5669 33.6737 47.6326 33.7063 47.6602C33.7145 47.6672 33.7083 47.6065 33.5387 47.3244C33.3691 47.0423 33.0369 46.527 32.8335 46.226C32.5769 45.846 32.4757 45.7329 32.4245 45.6423C32.3067 45.4341 32.2087 45.1954 32.1657 45.0788C32.1134 44.937 32.099 44.7574 32.0698 44.5204C32.0516 44.3725 32.0644 44.1648 32.073 44.0142C32.0942 43.6394 32.1158 43.524 32.1261 43.4727C32.1348 43.429 32.1296 43.6514 32.1499 44.0873C32.1589 44.28 32.2109 44.4114 32.2878 44.727C32.3647 45.0425 32.4766 45.5375 32.5902 45.9467C32.7037 46.356 32.8156 46.6645 32.8851 46.8471C33.0169 47.1935 33.1497 47.355 33.2182 47.4698C33.312 47.6269 33.4647 47.6737 33.7133 47.7456C33.8627 47.7888 34.1343 47.8136 34.3688 47.8346C34.6034 47.8555 34.7967 47.8555 35.4183 47.886C36.0399 47.9166 37.0841 47.9776 37.6983 48.0277C38.3124 48.0777 38.465 48.115 38.6427 48.1534" stroke="#C4AEF6" stroke-width="2.5" stroke-linecap="round"/>
<path d="M39.4647 47.835C39.4647 47.9367 39.4647 48.0501 39.4426 48.0968C39.4314 48.1205 39.3765 47.9909 39.2572 47.8081C39.1379 47.6254 38.9446 47.3542 38.8146 47.1484C38.6845 46.9425 38.6235 46.8103 38.5209 46.4456C38.4182 46.0808 38.2759 45.4876 38.1381 45.0158C38.0003 44.5441 37.8715 44.2118 37.7831 44C37.6947 43.7882 37.6506 43.7068 37.6127 43.609C37.5747 43.5111 37.5442 43.3992 37.1861 42.3517C36.828 41.3041 36.1432 39.3243 35.7446 38.0179C35.3461 36.7115 35.2545 36.1386 35.2074 35.7468C35.1602 35.3551 35.1602 35.1618 35.1653 35.025C35.1732 34.8132 35.2249 34.6689 35.3763 34.4526C35.4849 34.2975 35.6938 34.077 35.8138 33.9312C35.9759 33.7342 36.0331 33.6378 36.0895 33.595C36.1266 33.5668 36.2822 33.6846 36.5078 33.8537C36.6912 33.9912 36.7899 34.1572 36.8514 34.2957C36.8949 34.3934 36.893 34.4897 36.8794 34.5972C36.8642 34.7171 36.8042 34.8456 36.6631 35.0501C36.5632 35.1947 36.3626 35.3901 36.2326 35.5474C36.0245 35.7992 35.9447 35.9826 35.8968 36.1208C35.8448 36.2711 35.8485 36.4616 35.8536 36.5716C35.8574 36.6528 35.8793 36.3739 35.8743 36.326C35.8703 36.2887 35.8011 36.2438 35.5342 36.1484C35.3197 36.0716 34.925 35.9987 34.6496 35.9533C34.2282 35.8838 34.0103 35.9147 33.8941 35.9368C33.7862 35.9573 33.6747 36.0478 33.4652 36.2723C33.3105 36.438 33.1099 36.7544 32.988 36.9404C32.8325 37.1778 32.818 37.2637 32.8281 37.303C32.8335 37.3238 32.8586 37.3389 32.8996 37.3477C32.9998 37.369 33.1086 37.336 33.2143 37.2764C33.5493 37.0875 33.6636 36.7884 33.6825 36.7114C33.6904 36.6791 33.6844 36.6582 33.6589 36.6291C33.594 36.5549 33.3371 36.4598 32.9848 36.3572C32.7399 36.2858 32.5347 36.3016 32.3586 36.3237C32.2177 36.3414 32.147 36.4418 32.1077 36.51C32.0653 36.5835 32.0783 36.6813 32.0817 36.7752C32.0855 36.8797 32.1836 37.0335 32.3476 37.1825C32.4651 37.2892 32.629 37.2229 32.7401 37.1855C32.9682 37.1086 33.0674 36.9085 33.1839 36.7816C33.212 36.751 33.2353 36.7201 33.2543 36.6976C33.2733 36.6751 33.2868 36.6615 33.2718 36.9359C33.2567 37.2103 33.2127 37.7731 33.2035 38.2426C33.1944 38.7122 33.2215 39.0716 33.2643 39.4059C33.3071 39.7402 33.3647 40.0385 33.5588 40.7261C33.7529 41.4137 34.0818 42.4816 34.2698 43.1352C34.4579 43.7887 34.4951 43.9955 34.5228 44.1291C34.562 44.3182 34.5917 44.4645 34.6071 44.5794C34.6104 44.6041 34.6258 44.5554 34.6361 44.2529C34.6465 43.9505 34.6566 43.3945 34.5466 42.5419C34.4366 41.6894 34.2061 40.5571 34.0822 39.7043C33.9584 38.8514 33.9482 38.3124 33.943 38.0788C33.9377 37.8452 33.9377 37.9333 33.9801 38.2669C34.0225 38.6005 34.1072 39.1768 34.2679 39.9178C34.4285 40.6588 34.6624 41.547 34.8287 42.1215C34.9949 42.696 35.0865 42.93 35.1336 43.0589C35.1808 43.1879 35.1808 43.2049 35.1503 42.6441C35.1198 42.0832 35.0587 40.9442 34.9476 39.8217C34.8365 38.6993 34.6772 37.628 34.5951 37.0422C34.513 36.4565 34.513 36.3887 34.513 36.4181C34.513 36.4476 34.513 36.5764 34.5368 36.8428C34.5605 37.1092 34.6079 37.5092 35.0206 39.0544C35.4332 40.5996 36.2095 43.2778 36.6061 44.6066C37.0026 45.9355 36.9958 45.8338 36.9652 45.6627C36.9346 45.4917 36.8804 45.2544 36.7812 44.9507C36.6821 44.6471 36.5397 44.2844 36.4664 44.1297C36.393 43.975 36.393 44.0395 36.4015 44.1387C36.41 44.238 36.4269 44.3702 36.6051 44.857C36.7834 45.3438 37.1224 46.1812 37.3004 46.6261C37.4785 47.0711 37.4852 47.0982 36.9277 46.5189C36.3701 45.9396 35.248 44.753 34.6462 44.1248C34.0444 43.4966 33.9969 43.4627 33.9725 43.4571C33.9428 43.4503 33.9616 43.5878 34.0482 43.8807C34.1099 44.0892 34.2535 44.4042 34.4369 44.7344C34.6203 45.0647 34.8508 45.3969 34.9848 45.5986C35.1188 45.8003 35.1493 45.8613 35.1532 45.9046C35.1594 45.9742 35.0682 46.0232 34.9998 46.0711C34.9714 46.0909 34.9585 46.1054 35.0006 46.1751C35.0428 46.2448 35.1411 46.3702 35.4392 46.5908C35.7374 46.8113 36.2323 47.1232 36.5297 47.3042C36.827 47.4853 36.9118 47.5259 36.9216 47.5367C36.961 47.5804 36.5801 47.3977 36.231 47.23C36.0978 47.1659 36.0447 47.1639 36.0796 47.1231C36.1144 47.0824 36.2364 47.0078 36.3163 46.9541C36.3961 46.9004 36.43 46.8699 36.4649 46.8385" stroke="#C4AEF6" stroke-width="2.5" stroke-linecap="round"/>
<path d="M6.23347 29.9959C6.2286 29.9959 6.17984 29.9959 6.06592 29.9801C5.90506 29.9577 5.77404 29.8732 5.68204 29.8241C5.59573 29.778 5.46453 29.7453 5.31232 29.7084C5.11571 29.6608 4.98496 29.6397 4.8101 29.5364C4.75779 29.5055 4.66756 29.4602 4.518 29.3573C4.33312 29.2301 4.19521 29.1083 4.10067 29.0678C3.96533 29.0098 3.83111 28.9851 3.76839 28.9961C3.74478 29.0002 3.74707 29.0289 3.74829 29.0475C3.74951 29.0661 3.75194 29.0807 3.77511 29.0992C3.79828 29.1177 3.8421 29.1396 3.91946 29.1655C3.99682 29.1914 4.10638 29.2206 4.67534 29.3136C5.2443 29.4065 6.26933 29.5624 6.90816 29.6414C7.54699 29.7205 7.76855 29.718 7.87417 29.7326C7.97978 29.7472 7.96274 29.7788 7.94057 29.8085C7.9184 29.8382 7.89162 29.865 7.85591 29.9068C7.8202 29.9486 7.77637 30.0046 7.43971 30.2368C7.10305 30.4689 6.47488 30.8755 6.03685 31.1385C5.59881 31.4016 5.36995 31.5087 5.21187 31.5773C5.0538 31.6459 4.97345 31.6726 4.87119 31.6962C4.64891 31.7473 4.49011 31.7568 4.43485 31.7507C4.4111 31.7481 4.39664 31.7421 4.38302 31.7226C4.31643 31.6269 4.32994 31.5456 4.2957 31.4815C4.26302 31.4204 4.146 31.4789 3.99306 31.5008C3.88996 31.5156 3.74028 31.5665 3.63087 31.5916C3.45999 31.6306 3.29067 31.6532 3.10164 31.6975C3.01546 31.7176 2.9467 31.7222 2.82515 31.726C2.53084 31.7351 2.34045 31.7127 2.31713 31.682C2.30648 31.668 2.29625 31.6586 2.3241 31.6353C2.35196 31.6121 2.4177 31.5755 2.50878 31.5373C2.59986 31.499 2.71429 31.46 2.85359 31.4241C2.99289 31.3882 3.15358 31.3566 3.54071 31.3232C3.92783 31.2899 4.53652 31.2558 4.92557 31.2187C5.31461 31.1817 5.46557 31.1427 5.62003 31.0874C5.77449 31.032 5.92788 30.9614 6.00689 30.9311C6.08591 30.9008 6.08591 30.913 5.9727 31.0946C5.85948 31.2761 5.63305 31.6267 5.43605 31.9035C5.23906 32.1803 5.07837 32.3727 4.92985 32.5265C4.78133 32.6804 4.64985 32.79 4.51151 32.8805C4.37317 32.971 4.23196 33.0392 4.13973 33.0804C4.01042 33.1382 3.88076 33.1853 3.67491 33.2626C3.41776 33.3591 3.24064 33.3799 3.18435 33.4019C3.08974 33.4389 3.02904 33.4881 3.01185 33.5162C2.98744 33.5562 2.98721 33.6036 2.98344 33.6258C2.97421 33.6801 3.26565 33.5771 3.50581 33.5339C3.52297 33.5309 3.32254 33.5595 3.13853 33.5705C2.95672 33.5813 2.84961 33.6356 2.7787 33.6504C2.52787 33.7026 2.40228 33.6702 2.36627 33.669C2.35595 33.6686 2.4447 33.6653 2.56504 33.6434C2.68537 33.6214 2.8558 33.58 3.06291 33.5502C3.27001 33.5203 3.50861 33.5033 4.01622 33.4068C4.52383 33.3104 5.29322 33.1351 5.69443 33.0399C6.10712 32.942 6.1349 32.9104 6.17172 32.8809C6.18954 32.8667 6.20367 32.8515 6.21971 32.8513C6.23576 32.8511 6.2528 32.8657 6.26402 32.8927C6.29006 32.9554 6.28512 33.1181 6.27295 33.3475C6.26178 33.558 6.17482 33.7309 6.10366 33.8708C6.04326 33.9896 5.95362 34.1048 5.86276 34.2142C5.75614 34.3425 5.64116 34.4053 5.59786 34.4435C5.55413 34.482 5.37895 34.589 5.25123 34.6746C5.19313 34.7136 5.05431 34.8448 4.9266 34.9255C4.86043 34.9673 4.82678 35.035 4.82548 35.0632C4.8241 35.0934 4.94386 35.1015 5.12784 35.0906C5.31918 35.0792 5.45347 35.0351 5.61719 35.0059C5.74333 34.9834 5.95134 34.9182 6.12494 34.8821C6.29855 34.8459 6.43003 34.8337 6.54523 34.8116C6.66044 34.7895 6.7554 34.7578 7.00275 34.6916C7.2501 34.6254 7.64696 34.5256 7.86601 34.4656C8.08507 34.4057 8.11429 34.3886 8.10134 34.3945C8.08839 34.4003 8.03239 34.4295 7.90006 34.475C7.76774 34.5205 7.56078 34.5814 7.22287 34.6456C6.88496 34.7098 6.42235 34.7756 6.17065 34.8155C5.91895 34.8555 5.89217 34.8676 5.79437 34.8946C5.69657 34.9216 5.52858 34.963 5.41647 34.9843C5.25474 35.015 5.16159 35.0178 5.07578 35.0387C4.97733 35.0626 4.85688 35.0767 4.73662 35.1099C4.54295 35.1633 4.36771 35.2215 4.28095 35.2931C4.26604 35.3054 4.25881 35.3226 4.24649 35.3325C4.23417 35.3425 4.21956 35.3473 4.25708 35.3499C4.2946 35.3524 4.38468 35.3524 5.01178 35.2416C5.63888 35.1308 6.80026 34.9092 7.43385 34.7829C8.06743 34.6566 8.13804 34.6323 8.19146 34.6112C8.24488 34.5901 8.27896 34.5731 8.39148 34.5047C8.50399 34.4362 8.69391 34.3169 8.81 34.247C8.92609 34.177 8.96261 34.1599 9.01186 34.1329C9.06111 34.1058 9.12198 34.0693 9.59038 33.7096C10.0588 33.35 10.9328 32.6682 11.3917 32.3122C11.8505 31.9561 11.8675 31.9464 11.6669 32.0533C11.4663 32.1603 11.0475 32.3843 10.1318 32.7347C9.21605 33.085 7.81607 33.5549 7.07417 33.808C6.33227 34.061 6.29087 34.0829 6.28294 34.0918C6.27501 34.1006 6.30179 34.0957 6.43611 34.0299C6.57043 33.9641 6.81147 33.8375 6.98677 33.737C7.16207 33.6365 7.26433 33.5658 7.33162 33.5149C7.39891 33.4639 7.42813 33.4347 7.4517 33.4147C7.47527 33.3948 7.49232 33.3851 7.37449 33.4397C7.25666 33.4944 7.00345 33.6137 6.8377 33.6995C6.67195 33.7853 6.60134 33.834 6.58932 33.8505C6.57729 33.8671 6.62599 33.85 7.25611 33.7061C7.88623 33.5622 9.0963 33.292 9.90228 33.0761C10.7083 32.8601 11.0735 32.7067 11.3225 32.579C11.5715 32.4513 11.6932 32.3539 11.7998 32.2599C11.9063 32.1659 11.994 32.0783 12.072 32.0112C12.15 31.9442 12.2157 31.9003 12.2606 31.8668C12.3054 31.8333 12.3273 31.8113 12.3499 31.7888" stroke="#C4AEF6" stroke-width="2.5" stroke-linecap="round"/>
<path d="M12.8482 31.0362C12.8531 31.0362 12.8579 31.0362 13.4643 30.7111C14.0706 30.3861 15.2782 29.736 15.8943 29.406C16.5103 29.076 16.4981 29.0857 15.7152 29.4669C14.9322 29.8481 13.3788 30.6004 12.5847 30.9928C11.7906 31.3853 11.8027 31.395 12.6332 31.3745C13.4636 31.3539 15.1119 31.3028 15.9672 31.2704C16.8224 31.2379 16.8346 31.2258 16.8177 31.2353C16.8009 31.2449 16.7546 31.2765 16.3144 31.473C15.8742 31.6695 15.0416 32.0298 14.6004 32.2228C14.1593 32.4157 14.1349 32.4303 14.3549 32.3003C14.5749 32.1702 15.0399 31.8951 15.8991 31.4941C16.7584 31.093 17.9976 30.5744 19.2745 30.0401" stroke="#C4AEF6" stroke-width="2.5" stroke-linecap="round"/>
<path d="M43.6475 30.3895C43.6835 30.3474 43.8223 30.2717 44.0616 30.2047C44.2869 30.1417 44.4547 30.2799 44.55 30.336C44.6625 30.4021 44.7584 30.453 44.9287 30.5346C45.0669 30.6008 45.3304 30.6703 45.4936 30.7166C45.7891 30.8004 45.8575 30.7872 46.0188 30.8384C46.1484 30.8795 46.3695 30.9677 46.4976 31.0216C46.6564 31.0884 46.7438 31.1453 46.8845 31.1998C47.1759 31.3127 47.3117 31.3304 47.5161 31.3761C47.6976 31.4166 47.9363 31.5033 48.1623 31.5867C48.2536 31.6204 48.2951 31.6431 48.3979 31.6825C48.5008 31.7218 48.6631 31.779 48.8895 31.8895C49.1159 32.0001 49.4014 32.1624 49.5666 32.2536C49.7317 32.3447 49.7678 32.3597 49.9276 32.4441C50.0875 32.5285 50.37 32.6818 50.6388 32.8059C50.9076 32.9299 51.1541 33.0201 51.4149 33.1207C51.6756 33.2212 51.9431 33.3294 52.0975 33.3957C52.2874 33.4773 52.343 33.5107 52.3899 33.5258C52.4364 33.5408 52.6509 33.6225 52.9575 33.7241C53.0692 33.7612 53.0897 33.7747 53.0855 33.7914C53.0731 33.8408 52.9692 33.8719 52.8482 33.9128C52.6951 33.9645 52.4901 33.9783 52.2885 33.9889C52.1322 33.9972 51.9407 33.9002 51.7284 33.7713C51.6408 33.718 51.5882 33.6994 51.4342 33.615C51.2801 33.5305 51.0246 33.3832 50.8524 33.2908C50.6033 33.1571 50.4733 33.1042 50.3885 33.0527C50.3063 33.0027 50.1792 32.9254 50.0307 32.8193C49.9643 32.7718 49.9122 32.7432 49.7401 32.6165C49.568 32.4898 49.2765 32.2674 49.0812 32.1347C48.8859 32.0021 48.7957 31.9661 48.7162 31.9294C48.6367 31.8928 48.5705 31.8567 48.4538 31.8126C48.3371 31.7685 48.1717 31.7174 47.9573 31.667C47.7429 31.6166 47.4844 31.5685 47.3557 31.5498C47.2271 31.531 47.2361 31.543 47.3655 31.6304C47.4949 31.7178 47.7444 31.8801 47.8984 31.9697C48.0964 32.0848 48.2074 32.1048 48.2908 32.1427C48.339 32.1646 48.5429 32.2561 48.8555 32.3789C48.9743 32.4256 49.0057 32.4566 49.0964 32.5006C49.1871 32.5446 49.3344 32.6048 49.9213 32.762C50.5081 32.9192 51.5301 33.1717 52.2866 33.3318C53.043 33.4919 53.5029 33.5521 53.7548 33.586C54.0068 33.62 54.0368 33.626 54.1094 33.6622C54.182 33.6983 54.2962 33.7645 54.4843 33.8286C54.6724 33.8927 54.9309 33.9528 55.1167 33.9838C55.3025 34.0148 55.4077 34.0148 55.4709 34.0103C55.5341 34.0058 55.5522 33.9967 55.5645 33.9605C55.5969 33.8649 55.5649 33.712 55.4954 33.5364C55.4578 33.4414 55.3838 33.3488 55.2731 33.2256C55.0205 32.9444 54.8512 32.7853 54.8587 32.752C54.8665 32.7174 54.9328 32.6912 54.9964 32.6593C55.0384 32.6383 55.0937 32.6425 55.2986 32.6784C55.4728 32.709 55.7801 32.8106 55.9906 32.8646C56.2012 32.9185 56.3034 32.9336 56.4312 32.9398C56.709 32.9534 56.8912 32.9339 56.9518 32.9248C57.0236 32.914 57.1097 32.9157 57.1705 32.8991C57.2619 32.8741 56.9166 32.7099 56.729 32.5736C56.6279 32.5001 56.5053 32.4313 56.3186 32.304C56.1319 32.1766 55.8824 31.9963 55.7374 31.8944C55.5164 31.7391 55.4347 31.6773 55.366 31.5937C55.2842 31.4942 55.2463 31.38 55.2216 31.2553C55.2097 31.1952 55.2064 31.1217 55.2289 31.0399C55.2559 30.942 55.4362 30.8818 55.5969 30.8135C55.6973 30.7708 55.825 30.7813 55.975 30.7676C56.0975 30.7565 56.295 30.781 56.5256 30.8159C56.6506 30.8347 56.7361 30.8692 56.8902 30.8783C57.1341 30.8927 57.3072 30.8874 57.3286 30.8995C57.359 30.9167 57.1567 30.9178 57.0093 30.9208C56.9609 30.9218 57.152 30.9601 57.6306 31.0541C57.7184 31.0713 57.7055 31.0876 57.6917 31.0968C57.678 31.106 57.663 31.112 57.511 31.1241C57.359 31.1363 57.0704 31.1543 56.8451 31.144C56.6198 31.1338 56.4665 31.0947 56.3274 31.0761C56.0699 31.0416 55.8901 31.0726 55.751 31.0862C55.5527 31.1057 55.401 31.0819 55.3449 31.0577C55.2408 31.0128 55.1885 30.8787 55.0143 30.5703C54.9525 30.4609 54.9488 30.3044 54.9364 30.1113C54.924 29.9182 54.924 29.6838 54.9391 29.5239C54.9617 29.2827 55.0903 29.1152 55.2282 28.9636C55.3955 28.7795 55.582 28.6959 55.713 28.5939C55.7609 28.5567 55.8014 28.5375 55.8046 28.5253C55.8068 28.5168 55.7657 28.5372 55.4586 28.59C55.1516 28.6427 54.5684 28.7359 54.1838 28.7839C53.7993 28.8319 53.631 28.8319 53.4931 28.8379C53.3553 28.844 53.2531 28.856 53.1013 28.8607C52.7512 28.8715 52.5286 28.8532 52.4757 28.8411C52.3911 28.8218 52.274 28.8078 52.1378 28.7685C52.0638 28.7471 51.9836 28.7112 51.8065 28.6671C51.6294 28.623 51.3589 28.5689 51.2045 28.535C51.0188 28.4942 50.956 28.4767 50.8924 28.4722C50.8616 28.47 50.8348 28.4587 50.3128 28.209C49.7909 27.9594 48.7749 27.4695 47.7826 27.0683C46.7903 26.6671 45.8525 26.3695 45.3588 26.2162C44.8652 26.0629 44.8442 26.0629 44.7942 26.0569C44.7443 26.0509 44.6662 26.0388 44.6169 26.0327C44.5676 26.0265 44.5496 26.0265 44.531 26.0082" stroke="#C4AEF6" stroke-width="2.5" stroke-linecap="round"/>
<path d="M27.5475 19.3608C27.4293 19.4002 27.3111 19.4396 26.3834 19.7554C25.4556 20.0712 23.7219 20.6623 22.6186 21.0981C21.5153 21.5339 21.0951 21.7966 20.7275 22.0567C20.3599 22.3168 20.0578 22.5663 19.6461 23.0101C19.2344 23.4539 18.7221 24.0843 18.3926 24.5601C18.063 25.036 17.9317 25.338 17.9297 25.5068C17.9277 25.6756 18.0591 25.7018 18.2252 25.676C18.3914 25.6501 18.5884 25.5713 19.3466 24.9659C20.1048 24.3605 21.4182 23.231 22.3181 22.3864C23.218 21.5419 23.6646 21.0165 24.0063 20.5817C24.8801 19.27 25.2502 18.4231 25.4508 18.0281C25.4906 18.0072 25.5432 18.0466 25.5973 18.0872" stroke="#C4AEF6" stroke-width="2.5" stroke-linecap="round"/>
<path d="M25.6769 22.903C24.6787 22.903 23.7311 22.9424 22.9627 23.0349C21.9287 23.1595 21.0903 23.3265 20.7289 23.5462C20.2145 23.8589 21.4827 22.0186 22.0983 21.1888C22.339 20.8643 22.7373 20.4051 22.9991 20.1024C23.261 19.7998 23.3924 19.6815 22.9412 20.4941C22.4901 21.3066 21.4525 23.0535 20.872 24.065C20.1722 25.2845 20.0786 25.6087 20.0519 25.7806C19.9818 26.2324 20.5013 26.6952 21.2561 28.2301C21.6486 29.0283 21.6969 29.8235 21.6376 30.3708C21.6269 30.4694 21.552 30.5431 21.4987 30.5575C21.4453 30.5718 21.3928 30.5193 21.3657 30.4265C21.2416 30.001 21.2061 29.7495 21.1468 29.6235C21.0877 29.498 20.586 29.6811 20.0487 29.8078C19.8709 29.8498 19.866 29.6588 20.1616 29.8076C20.4571 29.9565 21.0481 30.403 21.6744 30.817C22.9184 31.6392 23.6861 31.9775 23.858 32.0104C24.4996 32.1329 25.0911 33.01 25.4236 33.6852C25.8017 34.4529 25.7565 35.3443 26.0323 35.408C26.3876 35.49 26.8598 34.3815 27.2031 33.8442C27.7003 33.0659 27.8783 32.6554 28.2737 32.0034C28.5921 31.4785 29.0894 30.524 29.4387 29.9121C29.9375 29.0382 30.2659 28.6884 30.6291 28.3322C31.2391 27.7339 31.6458 27.0578 31.9234 26.5947C32.0715 26.3477 32.2799 26.1054 32.5784 25.6419C32.8769 25.1784 33.2709 24.5086 33.5527 23.9796C34.0222 23.0983 34.2201 22.3362 34.3196 21.5295C34.4345 20.5978 34.2747 19.8276 34.1159 19.3641C33.981 18.9704 33.495 18.6591 32.8522 18.427C32.4671 18.288 31.4042 18.2861 29.9587 18.2927C28.7856 18.298 27.538 18.2336 27.2164 18.035C27.0907 17.9573 27.1631 17.7035 27.1561 17.5048C27.1427 17.1214 27.7577 17.0396 28.1167 16.874C28.5258 16.6853 28.74 16.4951 29.8558 16.3365C31.2833 16.1336 32.3224 16.4935 32.5869 16.7914C32.8585 17.0973 33.4082 17.5001 33.9911 18.1224C34.7369 18.9186 34.9361 19.266 35.1288 19.5192C35.3814 19.8511 35.8237 20.3136 36.2356 20.6332C36.542 20.8708 36.886 21.0188 37.1377 21.0521C37.4816 21.0975 37.7357 20.7673 37.8814 20.7735C38.0536 20.7808 38.0549 21.3997 38.0024 22.3516C37.9722 22.8979 37.8448 23.5661 37.5411 24.5613C37.2374 25.5565 36.7383 26.8568 36.4681 27.5923C36.1521 28.4523 36.0526 28.739 35.9001 29.0301C35.4037 29.9783 34.8056 31.2993 34.7383 31.5851C34.7024 31.738 35.2629 31.3718 36.2307 30.6623C36.7519 30.3338 37.2685 30.0034 37.8782 29.6054C38.1202 29.4701 38.2253 29.4701 38.3335 29.5099" stroke="#C4AEF6" stroke-width="11" stroke-linecap="round"/>
<path d="M51.9457 31.1019C51.8144 31.1544 51.7073 31.2472 51.5885 31.3467C51.4348 31.4754 51.1903 31.3411 51.0446 31.2289C50.8749 31.0981 50.7923 30.8639 50.7057 30.7511C50.5798 30.5869 51.4641 30.8631 52.8359 30.9952C53.164 31.0223 53.3873 31.0223 53.5417 31.0617C53.6962 31.1011 53.775 31.1799 53.8562 31.1417" stroke="#C4AEF6" stroke-width="5" stroke-linecap="round"/>
<path d="M15.5948 24.2854C14.2048 25.549 10.6667 28.19 7.63398 28.6449C7.19172 28.7712 6.07973 28.9481 5.16993 28.6449C4.03268 28.2658 1.75817 27.6972 2.70588 29.024C3.65359 30.3508 5.16993 29.7821 4.41176 30.3508C3.65359 30.9194 1 30.3508 1 31.2985C1 32.2462 1.94771 32.4357 3.65359 32.2462C2.70588 32.5621 0.886275 33.3834 1.18954 34.1416C1.49281 34.8998 3.9695 34.4575 5.16993 34.1416C4.22222 34.5207 2.55425 35.4305 3.46405 36.037C4.60131 36.7952 8.20261 36.037 9.52941 35.2789C10.8562 34.5207 15.9739 31.8671 16.732 30.9194" stroke="#3E235A" stroke-width="1.5" stroke-linecap="round" stroke-linejoin="round"/>
<path d="M43.647 23.7168C43.8366 23.7168 50.281 27.1286 51.6078 27.5076C52.9346 27.8867 53.8823 27.8867 54.6405 27.6972C55.3987 27.5076 57.1045 26.939 56.915 28.2658C56.7634 29.3273 55.9673 29.719 55.5882 29.7822C56.7255 29.7822 59 30.0475 59 31.109C59 32.1704 56.7255 31.8039 55.5882 31.488C56.6623 31.7408 58.7725 32.4358 58.6209 33.1939C58.4692 33.9521 55.9041 33.3835 54.6405 33.0044C55.5882 33.2571 57.3699 33.9521 56.915 34.7103C56.3464 35.658 51.4183 34.7103 51.0392 34.5207C49.0806 33.8257 44.6326 32.0188 42.5098 30.3508" stroke="#3E235A" stroke-width="1.5" stroke-linecap="round" stroke-linejoin="round"/>
<path d="M22.7972 37.743L20.7123 45.8933C20.5859 46.3988 20.1057 47.4476 19.1959 47.5992C18.0587 47.7887 16.3528 49.1155 17.8691 49.6842C19.3855 50.2528 25.0717 49.6842 25.2613 49.6842C25.4508 49.6842 27.7253 49.4946 28.1044 47.5992C28.4077 46.0829 29.1153 41.6602 29.4312 39.6384C29.6208 39.1961 30.1136 38.577 30.5685 39.6384C31.0234 40.6998 31.6425 45.0088 31.8953 47.0306C31.9584 47.7887 32.6155 49.3051 34.7384 49.3051C36.8613 49.3051 39.1611 49.3051 40.0456 49.3051" stroke="#3E235A" stroke-width="1.5" stroke-linecap="round" stroke-linejoin="round"/>
<path d="M28.1045 26.7495C28.4836 26.3704 29.6966 25.688 31.5163 25.9913" stroke="#3E235A" stroke-width="1.5" stroke-linecap="round" stroke-linejoin="round"/>
<path d="M18.0591 14.4292L21.6604 12.5338H37.582C38.3401 12.597 39.8565 13.0645 39.8565 14.4292C39.8565 15.7939 38.3401 16.2615 37.582 16.3247H21.6604L18.0591 14.4292Z" stroke="#3E235A" stroke-width="1.5" stroke-linecap="round" stroke-linejoin="round"/>
<path d="M21.6602 12.5338V16.3247" stroke="#3E235A" stroke-width="1.5" stroke-linecap="round" stroke-linejoin="round"/>
<path d="M35.686 12.7233V16.3246" stroke="#3E235A" stroke-width="1.5" stroke-linecap="round" stroke-linejoin="round"/>
<path d="M37.3921 12.7233V16.3246C38.2134 15.8824 39.7803 14.7704 39.477 13.8606C39.1738 12.9508 37.9607 12.7233 37.3921 12.7233Z" fill="#3E235A"/>
<path d="M19.9541 15.1874V13.4815L18.8169 14.4292L19.9541 15.1874Z" fill="#3E235A"/>
<path d="M37.3921 12.7233V16.3246C38.2134 15.8824 39.7803 14.7704 39.477 13.8606C39.1738 12.9508 37.9607 12.7233 37.3921 12.7233Z" stroke="#3E235A" stroke-width="1.5" stroke-linecap="round" stroke-linejoin="round"/>
<path d="M19.9541 15.1874V13.4815L18.8169 14.4292L19.9541 15.1874Z" stroke="#3E235A" stroke-width="1.5" stroke-linecap="round" stroke-linejoin="round"/>
<path d="M37.3924 35.4684L38.9087 34.8998L43.0786 33.573L44.7845 33.0043C45.6943 32.7011 46.4272 34.1416 46.68 34.8998C47.754 37.9956 49.9401 44.3769 50.0917 45.135C50.2434 45.8932 49.5231 46.5882 49.144 46.8409C47.1222 47.6623 42.8133 49.3808 41.7518 49.6841C40.6904 49.9873 40.1723 49.0523 40.046 48.5468C38.9347 45.451 36.6208 38.9181 36.2551 37.5533C35.8894 36.1886 36.8609 35.5947 37.3924 35.4684Z" fill="#B8AAC2" stroke="#3E235A" stroke-linecap="round" stroke-linejoin="round"/>
<path d="M38.5293 34.8998C38.226 34.2933 39.0347 34.0153 39.477 33.9521V33.9521C39.477 33.0044 39.477 32.8149 40.4247 32.2462C41.1829 31.7913 41.8779 32.4358 42.1306 32.8149C42.7371 32.5116 43.1415 32.8149 43.2679 33.0044C43.3942 33.3203 43.6849 34.0659 43.8365 34.5208C43.9881 34.9757 43.6469 35.3421 43.4574 35.4685C42.6992 35.7212 40.9933 36.3025 40.2352 36.6057C39.477 36.909 39.1611 36.6057 39.0979 36.4162L38.5293 34.8998Z" fill="#B8AAC2" stroke="#3E235A" stroke-linecap="round" stroke-linejoin="round"/>
<path d="M38.9087 36.4161C37.9989 36.7194 38.0242 37.5534 38.1505 37.9325C39.0351 40.9652 41.0695 47.1063 41.3728 47.4096C41.676 47.7129 42.3836 47.6623 42.6995 47.5991C44.4054 47.0305 47.7035 45.8174 48.0067 45.5142C48.31 45.2109 48.2595 44.6296 48.1963 44.3769C47.3749 41.7233 45.6185 36.1887 45.1636 35.2789C44.7087 34.3691 43.8368 34.5207 43.4577 34.7103C42.3205 35.1525 39.8185 36.1129 38.9087 36.4161Z" fill="white" stroke="#3E235A" stroke-linecap="round" stroke-linejoin="round"/>
<circle cx="24.8822" cy="21.8214" r="3.79085" fill="#FDFDFF"/>
<circle cx="25.6405" cy="20.305" r="1.89542" fill="#483956"/>
<circle cx="34.7386" cy="21.0632" r="3.79085" fill="#FDFDFF"/>
<circle cx="33.9804" cy="19.5469" r="1.89542" fill="#483956"/>
</svg>
