<svg width="60" height="60" viewBox="0 0 60 60" fill="none" xmlns="http://www.w3.org/2000/svg">
<path d="M10.5926 33.9255C10.5817 33.8266 10.5046 33.5834 10.3801 33.4251C10.2851 33.3041 10.106 33.3001 9.89421 33.2863C9.4805 33.2592 9.17588 33.3054 9.00267 33.3878C8.62551 33.5672 8.30734 33.7646 8.11412 33.8556C8.01184 33.9038 7.90994 33.974 7.67271 34.1641C7.43548 34.3542 7.06831 34.6665 6.80243 34.9042C6.53655 35.1418 6.38311 35.2953 6.22459 35.5113C6.06608 35.7274 5.90715 36.0014 5.81158 36.1946C5.66892 36.483 5.60009 36.7362 5.48135 37.0945C5.40935 37.3118 5.3681 37.6172 5.33438 37.8602C5.30067 38.1032 5.28971 38.2785 5.26214 38.4538C5.23458 38.6291 5.19073 38.799 5.17363 39.2098C5.15652 39.6207 5.16748 40.2674 5.21423 40.8033C5.26098 41.3392 6.22056 41.8851 6.32319 42.2611C6.42582 42.6372 7.00598 42.4763 7.24894 42.9554C7.49189 43.4345 7.3302 43.5979 7.67271 44.1059C8.01523 44.6139 9.99651 44.2614 10.6041 44.9111C11.2116 45.5609 9.62244 48.0065 10.0991 48.4942C10.6137 49.0209 10.6534 49.1039 10.67 49.2112C10.699 49.3987 10.6537 49.5577 10.6041 49.6268C10.5114 49.7558 10.3829 49.8401 10.097 50.0681C9.86657 50.2518 9.48228 50.5975 9.24073 50.8164C8.91034 51.1158 8.77748 51.3284 8.64513 51.5795C8.38374 52.0753 8.31216 52.2363 8.25412 52.4028C8.16417 52.661 8.08498 52.994 8.0932 53.2405C8.09576 53.3174 8.11786 53.2951 8.17291 53.2564C8.31628 53.1557 8.5322 53.0023 9.08745 52.5733C9.52037 52.2388 10.2894 51.7058 10.7832 51.3852C11.4581 50.9471 11.7435 50.8978 11.8649 50.8895C12.1175 50.8724 12.258 50.8808 12.405 50.9555C12.5881 51.0486 12.7342 51.2455 12.8893 51.3431C13.0843 51.4658 13.3806 51.6876 13.7713 51.9265C13.886 51.9966 14.0219 52.1024 14.3693 52.2465C14.7166 52.3905 15.2701 52.5714 15.5909 52.6837C15.9872 52.8226 16.2042 52.9123 16.475 52.9705C16.6871 53.016 16.8582 53.0012 17.1059 53.015C17.5611 53.0405 17.943 52.9685 18.117 52.9103C18.3446 52.8343 18.4855 52.7803 18.6849 52.631C19.0225 52.3782 19.3883 52.0111 19.5127 51.8616C19.6007 51.756 19.6487 51.5906 19.6901 51.1097C19.7239 50.7175 19.7261 50.0206 19.7537 49.6483C19.7837 49.2444 19.936 49.1437 20.0769 49.011C20.1818 48.9122 20.2741 48.8719 20.3677 48.847C20.5115 48.8087 20.6394 48.8495 20.7112 48.877C20.7963 48.9098 21.0309 49.1409 21.3407 49.4618C21.587 49.7171 21.7797 49.9007 21.8766 50.0061C22.0361 50.1795 22.1726 50.6247 22.2669 50.8279C22.361 51.0307 22.3556 51.2289 22.4274 51.4145C22.5618 51.7618 22.5549 52.0151 22.5716 52.3774C22.5802 52.5617 22.7156 51.8294 22.7708 51.5188C22.795 51.3824 22.8095 51.1704 22.851 50.8504C22.9006 50.4676 22.876 50.2008 22.8927 50.0219C22.9239 49.6855 22.9093 49.4093 22.9259 49.2494C22.9684 48.8397 23.0365 48.7173 23.1524 48.5843C23.1803 48.5522 23.2351 48.5781 23.2796 48.6057C23.4695 48.7233 23.5563 48.9428 23.7859 49.3765C23.9187 49.6272 23.988 49.8173 24.0385 49.9562C24.093 50.1061 24.1159 50.2494 24.1327 50.4376C24.1478 50.6076 24.1936 50.863 24.1936 51.0242C24.1936 51.1371 24.2101 50.6226 24.3008 49.9461C24.3702 49.4279 24.5065 48.5572 24.5962 48.0398C24.6859 47.5224 24.7297 47.3854 24.7797 47.1093C24.8297 46.8332 24.8845 46.4222 24.9182 46.1885C24.9711 45.8216 24.9851 45.6673 25.0154 45.5813C25.1029 45.3333 25.4162 46.2468 25.4833 46.4354C25.5333 46.5759 25.6105 46.7892 25.6576 46.9945C25.6857 47.1171 25.7268 47.2655 25.7436 47.498C25.7508 47.5987 25.7713 47.9552 25.7685 48.4504C25.7668 48.7719 25.678 48.9923 25.6275 49.2555C25.6162 49.3141 25.5946 49.358 25.5723 49.3422C25.4887 49.2829 25.522 49.0665 25.5743 48.8211C25.643 48.4989 25.7872 48.225 25.8924 48.0454C26.1161 47.6632 26.3794 47.1728 26.5236 47.0455C26.67 46.9161 26.9703 46.8573 27.6896 46.8318C27.943 46.8228 29.7935 47.2666 30.1095 47.4769C30.2962 47.6012 30.4747 47.8468 30.5974 48.1107C30.6763 48.2803 30.7633 48.5058 30.8272 48.7555C30.8607 48.8866 30.9021 48.994 30.9213 49.1892C30.9617 49.6002 31.0184 49.9238 31.0239 50.059C31.0305 50.2223 31.0516 50.4051 31.0598 50.5983C31.0686 50.8038 31.1014 51.1564 31.085 51.6095C31.0644 52.1773 30.9689 52.3808 30.941 52.5973C30.8903 52.9904 30.9129 53.3282 30.9654 53.4305C31.0608 53.6164 31.5428 53.5609 31.9163 53.644C32.0306 53.6695 30.5846 53.4323 30.8825 53.4575C31.1805 53.4828 31.6408 53.4937 31.9163 53.5049C32.3922 53.5241 31.9257 53.5838 32.4754 53.6006C32.692 53.6072 32.8027 53.1782 33.024 53.2308C33.4773 53.3387 33.8211 53.3605 34.1942 53.4467C34.5597 53.531 34.7238 53.4386 35.2562 53.3697C35.7938 53.3001 36.0962 53.3057 36.2546 53.1956C36.4633 53.0505 36.4438 53.1374 36.4108 52.9452C36.3946 52.8507 36.0041 52.6778 35.498 52.4179C35.2094 52.2697 34.8743 52.1179 34.4676 51.9934C34.2192 51.9173 33.9053 51.9178 33.6517 51.882C33.6131 51.8766 33.5934 51.8517 33.5821 51.8213C33.4661 51.5091 33.8305 50.9832 33.9275 50.8279C33.9825 50.7399 34.694 50.3801 34.8156 49.9376C34.9166 49.5704 34.9987 49.3875 35.035 49.1963C35.0775 48.9722 35.1376 48.8172 35.2009 48.5932C35.2535 48.4073 35.2538 48.2466 35.2593 48.1583C35.2648 48.0686 35.287 47.7234 35.2843 47.2502C35.2827 46.984 35.2266 46.7972 35.1985 46.5889C35.1883 46.5131 35.1434 46.42 35.0964 46.3095C35.0597 46.2233 34.9066 45.9074 34.5454 45.2977C34.3427 44.9555 34.0581 44.5729 33.906 44.3615C33.7539 44.1501 33.732 44.1281 33.7042 44.1059C33.6765 44.0836 33.6436 44.0617 33.5765 44.0059" stroke="#C7B5F9" stroke-width="3.70297" stroke-linecap="round"/>
<path d="M6.49823 35.0487C6.73424 34.8777 6.97026 34.7067 7.19616 34.5502C7.42207 34.3936 7.63072 34.2568 7.77241 34.1573C7.98736 34.0062 8.08378 33.9191 8.14581 33.8709C8.21501 33.8172 8.3285 33.7122 8.48719 33.5984C8.55801 33.5476 8.60483 33.5051 8.81592 33.3797C9.027 33.2542 9.39983 33.0456 10.0554 32.7585C10.7109 32.4714 11.6379 32.1123 12.1513 31.9187C12.6647 31.7251 12.7366 31.708 12.7035 31.7129C12.529 31.7386 12.3172 31.7733 12.181 31.7802C12.0469 31.7869 11.8822 31.8251 11.5403 31.921C11.2926 31.9905 10.9146 32.1674 10.5787 32.3375C10.2428 32.5075 9.96577 32.6819 9.70846 32.8317C9.45114 32.9814 9.22197 33.1011 8.93802 33.2654C8.65407 33.4297 8.32228 33.6349 8.13255 33.756C7.90207 33.9032 7.8459 33.9636 7.80283 34.0101C7.75977 34.0567 7.60512 34.1941 7.38087 34.4114C7.2122 34.5749 7.13755 34.6754 7.12024 34.6928C7.11687 34.6962 7.12345 34.6623 7.20223 34.5217C7.281 34.381 7.4315 34.1279 7.58257 33.9086C7.73365 33.6892 7.88073 33.5114 8.13607 33.2573C8.39141 33.0032 8.75057 32.6782 9.15449 32.3364C9.55842 31.9945 9.99624 31.6456 10.2577 31.4454C10.5192 31.2451 10.591 31.2041 10.5767 31.224C10.5624 31.2439 10.4598 31.326 10.3197 31.4145C10.1796 31.5029 10.0052 31.5953 9.73914 31.7438C9.47312 31.8922 9.12081 32.094 8.8863 32.2425C8.65179 32.3909 8.54575 32.4798 8.47231 32.5376C8.39888 32.5954 8.36125 32.6193 8.25465 32.7052C7.97037 32.9342 7.76308 33.1273 7.69763 33.1997C7.55662 33.3557 7.38009 33.5105 7.25545 33.6419C7.03485 33.8744 6.91014 34.0045 6.81634 34.1224C6.75934 34.194 6.72295 34.2983 6.64365 34.4522C6.5537 34.6267 6.4433 34.841 6.40163 34.9447C6.36036 35.0473 6.3156 35.2338 6.23931 35.5675C6.22874 35.6733 6.2219 35.7463 6.21153 35.8238C6.20801 35.867 6.20801 35.9183 6.20801 35.9712" stroke="#C7B5F9" stroke-width="3.70297" stroke-linecap="round"/>
<path d="M10.6353 31.8433C10.6827 31.7328 10.762 31.4793 10.7939 31.2722C10.8277 31.0535 10.9049 30.8122 10.929 30.538C10.9603 30.1816 11.1985 29.6695 11.2902 29.4495C11.4097 29.1629 11.5868 28.5741 11.7189 28.1953C11.7628 28.0693 11.8579 27.9606 11.9331 27.8102C12.0195 27.6372 12.3795 27.1696 12.891 26.5073C13.2366 26.0598 13.5168 25.7301 13.7938 25.354C14.111 24.9231 14.3833 24.6728 14.5253 24.4477C14.7877 24.0317 15.0662 23.7672 15.1534 23.6761C15.4453 23.371 15.9234 22.9415 16.1417 22.7709C16.4537 22.5271 16.6219 22.3935 16.817 22.2624C16.9308 22.1859 17.0593 22.0838 17.3394 21.9099C17.8874 21.5695 18.3697 21.4639 18.5043 21.4204C18.9218 21.2855 19.2991 21.1222 19.6456 21.0082C19.9569 20.9058 20.5268 20.6662 20.8814 20.533C21.5465 20.2833 21.8395 20.1935 22.1254 20.1297C22.3413 20.0815 22.6491 20.0508 22.9819 19.9318C23.2736 19.8275 23.5313 19.8043 24.3112 19.7723C24.9883 19.7446 26.2389 19.8033 26.934 19.8313C27.6291 19.8593 27.7313 19.8829 27.9412 19.954C28.4691 20.1329 28.9154 20.2803 29.5934 20.4889C30.1526 20.6608 31.1206 21.0512 31.7172 21.3045C32.5198 21.6452 32.7991 21.8839 32.9854 21.999C33.3583 22.2293 33.91 22.5903 34.1297 22.7497C34.3918 22.9399 34.8544 23.3041 35.2597 23.6773C35.8505 24.2214 36.3806 24.6316 36.5906 24.794C36.9518 25.0732 37.2926 25.4164 37.6157 25.6759C37.8654 25.8766 38.2218 26.1873 38.501 26.4693C39.0792 27.0532 39.1052 27.3867 39.24 27.6608C39.4695 28.1273 39.5974 28.3554 39.7168 28.6141C39.8562 28.9163 40.0024 29.3236 40.2165 29.9183C40.4496 30.5659 40.4637 31.0881 40.4833 31.2504C40.5244 31.5901 40.6304 31.8262 40.7689 32.3772C40.8464 32.6859 40.9078 33.166 40.948 33.5418C40.978 33.8215 41.035 34.0418 41.0671 34.2567C41.1227 34.5581 41.1546 34.9076 41.2337 35.5602C41.2499 35.8573 41.2499 36.2976 41.2499 36.7512" stroke="#C7B5F9" stroke-width="3.70297" stroke-linecap="round"/>
<path d="M44.622 25.6035C44.608 25.6035 44.5941 25.6035 44.5869 25.6209C44.5346 25.7477 44.6499 25.9267 44.7413 26.0606C44.8609 26.2357 44.9312 26.3986 45.0125 26.5535C45.0604 26.6448 45.735 27.0879 46.1889 27.5349C46.4899 27.8313 46.7436 27.9707 46.9026 28.0796C47.1518 28.2503 47.3706 28.3721 47.5468 28.4705C47.9632 28.7032 48.7226 28.5415 48.9092 28.4783C49.2903 28.3494 49.652 28.1194 49.7827 27.9962C49.9525 27.836 50.1126 28.199 50.2537 27.5349C50.3811 26.9357 50.2404 26.3612 50.1632 25.9783C50.0163 25.2496 49.9939 24.7828 49.9445 24.5785C49.9057 24.4183 49.846 24.2479 49.7827 24.0643C49.7024 23.8317 49.309 22.9373 48.9258 22.7225C48.4866 22.4764 48.2173 22.3808 47.7889 22.2785C47.3139 22.165 47.0774 22.0289 46.8337 21.9508C46.7631 21.9281 46.6553 21.9436 46.6259 21.9157C46.4633 21.7619 46.9549 21.5431 47.2086 21.4544C47.4035 21.3864 47.6309 21.3665 47.881 21.275C48.1466 21.1779 48.4545 21.6462 49.1386 21.6634C49.776 21.6793 49.9926 22.1414 50.2249 22.2078C50.7949 22.3709 51.2808 22.8584 51.4893 23.0071C51.6294 23.107 51.7392 23.2534 51.9293 23.4398C52.0843 23.5918 52.2322 23.7671 52.3801 23.9363C52.6375 24.2308 52.8871 24.8297 53.0208 25.0415C53.2538 25.4107 53.3451 25.5699 53.4958 25.8605C53.7964 26.4402 53.8592 26.971 53.8943 27.1151C53.9726 27.4369 54.1025 27.1942 54.2257 27.5473C54.3397 27.8737 54.6817 29.6141 54.6166 29.7613C54.5953 29.8096 54.5584 30.0166 54.4869 30.4648C54.444 30.7337 54.4669 31.0964 54.475 31.2949C54.4866 31.5796 54.5221 31.6881 54.5885 31.8294C54.639 31.9366 54.4979 33.5044 54.287 34.021C54.2011 34.2313 54.1033 34.3779 53.9286 34.745C53.7888 35.0389 53.5169 35.5374 53.356 35.8238C53.1595 36.1738 53.0473 36.3141 52.8549 36.6153C52.4999 37.1707 52.1673 37.5467 52.0199 37.7079C51.8037 37.9445 51.486 38.3687 50.9666 38.8673C50.3956 39.4154 49.9704 39.6735 49.8544 39.7297C49.755 39.7779 49.6605 39.8634 49.2239 40.0663C48.8514 40.2395 48.1391 40.4783 47.6718 40.6112C47.0088 40.7998 46.5778 40.7859 46.2297 40.8737C45.8128 40.9788 45.5349 41.1307 45.2394 41.2191C44.9458 41.3069 44.6754 41.3423 44.2908 41.4264C43.9851 41.4932 43.4462 41.5662 43.079 41.6093C42.5327 41.6735 42.2114 41.6803 41.6169 41.7226C41.1558 41.7553 40.3671 41.7369 39.9648 41.7997C39.5625 41.8624 39.5695 41.9879 39.5835 42.0804C39.6064 42.231 39.64 42.6277 39.6121 43.2464C39.5902 43.7323 39.3316 44.1778 39.096 44.5719C38.872 44.9465 38.5639 45.2423 38.3697 45.4716C38.2798 45.5778 38.1131 45.7074 37.8919 45.8865C37.664 46.0708 37.3746 46.3057 37.058 46.4921C36.7604 46.6673 36.2914 46.8621 35.853 47.0596C35.7803 47.0923 35.7468 47.1092 35.7289 47.099C35.7109 47.0887 35.7109 47.0539 35.7283 46.9976C35.7458 46.9413 35.7806 46.8646 36.0286 46.5567C36.2766 46.2488 36.7367 45.7121 37.0783 45.3449C37.4199 44.9778 37.629 44.7965 37.8169 44.5951C38.0048 44.3937 38.1651 44.1776 38.7148 43.6027C39.2644 43.0278 40.1985 42.1007 40.746 41.522C41.2934 40.9433 41.4258 40.7411 41.6405 40.4488C41.8551 40.1564 42.1479 39.78 42.3301 39.5617C42.5123 39.3433 42.575 39.2945 42.8513 39.008C43.1276 38.7214 43.6156 38.1986 43.9192 37.8805C44.3215 37.459 44.4631 37.3224 44.5053 37.2067C44.5311 37.1361 44.5197 37.0283 44.4674 36.9675C44.2066 36.6641 43.725 36.8365 43.5732 36.7065C43.2989 36.4715 43.0152 36.0009 42.7635 35.8293C42.7251 35.8032 42.6688 35.8222 42.682 35.8431C42.8412 36.0952 43.4952 36.0334 44.144 35.8759C44.827 35.7101 45.011 35.4356 45.5037 35.1227C45.8112 34.9274 46.047 34.6823 46.3738 34.2431C46.5721 33.9766 46.7365 33.7186 46.9798 33.282C47.1081 33.0519 47.2295 32.67 47.4403 32.1889C47.6495 31.7115 47.7582 31.1846 47.8322 30.6961C47.925 30.0826 47.8996 29.9222 47.924 29.82C47.942 29.7447 48.1171 29.8018 48.289 29.8122C48.5252 29.8266 48.9668 29.8651 49.5779 29.8129C50.1931 29.7602 50.6022 29.4577 50.8167 29.3064C51.0553 29.1381 51.2291 28.9015 51.4511 28.7146C51.703 28.5025 51.8975 28.149 52.2078 27.7997C52.2766 27.7223 52.3137 27.6416 52.3526 27.5882C52.3916 27.5347 52.4265 27.5068 52.1412 27.9839C51.8559 28.461 51.2494 29.4439 50.6024 30.7903C49.9554 32.1366 49.2861 33.8166 48.9065 34.818C48.5269 35.8194 48.4572 36.0913 48.3934 36.2941C48.21 36.8773 48.0622 37.292 47.9492 37.5115C47.9074 37.5927 47.8786 37.6667 47.8539 37.6776C47.838 37.6846 47.8641 37.5979 48.0874 37.1612C48.3106 36.7246 48.7428 35.9159 49.2408 35.1752C49.7388 34.4345 50.2895 33.7862 50.6011 33.4313C50.9578 33.025 51.0678 32.9776 51.152 32.9669C51.1943 32.9616 51.2363 32.9911 51.2683 33.0646C51.3505 33.2534 51.3428 33.7066 51.2487 34.4746C51.1923 34.9352 50.9664 35.5146 50.7718 35.9801C50.5773 36.4455 50.3821 36.7732 50.2083 37.0117C50.0346 37.2502 49.8882 37.3896 49.8023 37.444C49.7164 37.4984 49.6955 37.4635 49.8904 36.9123C50.0853 36.361 50.4966 35.2945 50.82 34.3686C51.1434 33.4427 51.3665 32.6899 51.5302 32.194C51.6939 31.6981 51.7915 31.482 51.9149 31.2696C52.3337 30.5492 52.5676 30.4499 52.6484 30.4076C52.8164 30.3198 53.0184 30.569 53.078 30.6426C53.1582 30.7415 53.1667 31.234 53.0584 32.0873C53.0024 32.5289 52.7898 32.9615 52.5327 33.4527C52.2756 33.9438 51.941 34.4736 51.6292 34.9068C51.3174 35.3401 51.0386 35.6608 50.4837 36.1606C49.9287 36.6604 49.1062 37.3296 48.3757 37.8486C47.6452 38.3676 47.0318 38.7162 46.5833 38.9515C46.1348 39.1868 45.8699 39.2984 45.6185 39.4255C45.1273 39.6739 44.8232 39.8636 44.7071 39.878C44.6279 39.8878 44.7721 39.6049 45.063 39.2297C45.4921 38.6763 45.829 38.3712 45.8645 38.3955C45.8023 38.4965 45.4033 38.889 44.8161 39.4271C44.5704 39.6446 44.431 39.7491 44.2451 39.9414" stroke="#C7B5F9" stroke-width="3.70297" stroke-linecap="round"/>
<path d="M24.1906 26.5395C23.7051 26.7223 23.2195 26.9052 22.9126 27.0656C22.6057 27.2261 22.4922 27.3585 22.0932 27.7231C21.6942 28.0877 21.0132 28.6804 20.6056 29.052C20.0698 29.5404 19.8729 29.7618 19.7044 29.8732C19.4999 30.0084 19.331 30.0615 19.2483 30.1252C19.2141 30.1516 19.1783 30.1385 19.1621 29.9933C19.1458 29.8482 19.1458 29.5644 19.2057 29.2291C19.2656 28.8937 19.3854 28.5153 19.567 28.106C19.7485 27.6967 19.9881 27.2679 20.235 26.8261" stroke="#C7B5F9" stroke-width="3.70297" stroke-linecap="round"/>
<path d="M28.5667 26.8834C28.4153 26.8834 28.268 26.9086 27.98 27.0477C27.7581 27.1549 27.3957 27.3634 27.1316 27.4989C26.7219 27.7091 26.3836 27.8128 26.0404 27.9019C25.7265 27.9834 25.4972 27.9854 25.3511 27.9538C25.0193 27.8819 24.835 27.6042 24.7038 27.2416C24.5841 26.911 24.9914 26.4087 25.3774 26.0974C25.4436 26.044 25.4893 26.0303 25.4016 26.0174C25.1025 25.973 24.8219 26.0107 24.7012 26.0202C24.5683 26.0307 24.1874 26.0928 23.4733 26.2831C23.0648 26.3919 22.5763 26.5742 22.2725 26.6682C21.8727 26.7919 21.5872 26.8446 21.2693 26.9558C20.8025 27.1191 20.4025 27.3026 19.9761 27.5224C19.8004 27.6129 19.546 27.7846 19.2709 28.0078C18.9959 28.231 18.7121 28.5084 18.5375 28.6955C18.2922 28.9584 18.1973 29.1123 17.8875 29.4819C17.6234 29.7972 17.1616 30.3876 16.8928 30.715C16.5763 31.1004 16.4647 31.1952 16.2275 31.5081C16.0307 31.7677 15.694 32.2435 15.446 32.6164C15.0343 33.2358 14.8406 33.5962 14.7261 33.7551C14.5152 34.048 14.3563 34.4044 14.213 34.7836C14.1494 34.9518 14.1142 35.1124 13.9969 35.3436C13.7936 35.7442 13.6747 36.0743 13.5858 36.2013C13.3035 36.6042 12.9365 37.0739 12.7293 37.3285C12.3498 37.7949 11.9681 38.055 11.7768 38.1765C11.5577 38.3157 11.3623 38.5583 11.2195 38.7429C11.0905 38.9096 10.974 39.3393 10.8976 39.9559C10.8294 40.5058 10.8968 40.9145 11.0044 41.3202C11.076 41.5902 11.2255 41.9781 11.3758 42.3466C11.5261 42.7151 12.1596 41.8978 12.2881 42.1394C12.4951 42.5286 12.1833 43.9213 12.2881 44.1279C12.3867 44.3223 12.6405 44.7596 12.9334 45.3136C13.111 45.6495 13.2725 45.7942 13.4628 45.9567C13.7368 46.1907 14.0684 46.2599 14.511 46.2885C14.8711 46.3118 15.5086 46.2983 15.8809 46.2857C16.3427 46.27 16.6152 46.1903 16.9365 46.1268C17.3427 46.0464 17.6475 45.9358 18.2677 45.648C18.747 45.4256 19.5437 45.0134 20.0004 44.7771C20.55 44.4928 20.7436 44.331 21.0826 44.0552C21.3108 43.8696 21.6675 43.6092 21.903 43.4223C22.2536 43.1442 22.5075 42.9297 22.8314 42.6949C23.0083 42.5666 23.1932 42.397 23.9559 41.8805C24.7187 41.3641 26.0492 40.5002 26.7063 40.0614C27.3634 39.6227 27.3066 39.6353 26.2211 39.7017C25.1356 39.7681 23.0231 39.8879 21.6858 40.0032C20.3484 40.1186 19.8502 40.2258 19.3477 40.3756C18.8451 40.5254 18.3532 40.7146 18.021 40.8783C17.5075 41.1312 17.3561 41.3423 17.3528 41.3806C17.3491 41.423 17.7035 41.1157 18.2752 40.6045C18.577 40.3348 18.8722 40.0114 19.3308 39.458C19.7895 38.9046 20.3948 38.1226 21.3247 37.1743C22.2545 36.226 23.4905 35.1351 24.1808 34.5353C24.9698 33.8497 25.1456 33.7503 25.2946 33.7214C25.5127 33.6792 25.952 34.0216 26.4328 34.3812C26.6516 34.5449 26.7188 34.7046 26.8774 34.9549C26.981 35.1184 27.0991 35.3755 27.3028 35.8176C27.5065 36.2597 27.784 36.884 28.0057 37.3506C28.2275 37.8173 28.3851 38.1073 28.4979 38.3324C28.6839 38.7039 28.8206 39.0099 28.9701 39.2643C29.1614 39.59 29.2986 39.8004 29.4101 40.0103C29.6252 40.4154 29.7828 40.5204 29.9482 40.746C30.185 41.0691 30.4501 41.5565 30.703 41.8356C30.8433 41.9905 31.0432 42.0809 31.273 42.1768C31.3218 42.1972 31.3685 42.1898 31.4543 42.1394C31.5401 42.0889 31.6662 41.988 31.851 41.7532C32.0357 41.5183 32.2754 41.1526 32.4524 40.8538C32.6295 40.555 32.7367 40.3343 32.855 40.1292C33.084 39.7319 33.3239 39.3636 33.483 39.0265C33.6806 38.6077 33.7128 38.2927 33.8087 38.1201C33.8932 37.9682 33.9104 37.7194 33.9521 37.4773C34.0175 37.0983 34.0571 36.8973 34.1081 36.6111C34.1444 36.4078 34.2165 36.2795 34.2356 35.427C34.2529 34.6566 34.2421 33.1997 34.2358 32.4209C34.229 31.5852 34.2039 31.4638 34.185 31.3368C34.1475 31.0854 33.9627 30.8913 33.838 30.6645C33.7946 30.5855 33.6696 30.4769 33.4509 30.1822C33.0854 29.6898 32.8475 29.2919 32.7776 29.1583C32.683 28.9777 32.6052 28.8711 32.5703 28.8327C32.5263 28.7843 32.5345 29.1423 32.715 29.7417C32.827 30.1138 33.0531 30.5997 33.2896 31.2283C33.5261 31.8569 33.7846 32.6073 33.9304 33.0475C34.1107 33.5919 34.1905 33.8252 34.2923 34.0319C34.4805 34.4139 34.6495 34.9402 34.8201 35.282C34.9507 35.5436 35.2304 35.9518 35.4173 36.2167C35.8374 36.8121 36.0445 37.0739 36.1272 37.2747C36.1847 37.5268 36.2103 37.736 36.2072 37.9556C36.204 38.0427 36.1977 38.0806 36.153 38.1196" stroke="#C7B5F9" stroke-width="10.1832" stroke-linecap="round"/>
<path d="M31.7007 49.3175C31.7007 49.2417 31.7259 49.0003 31.7706 48.8213C31.7771 48.745 31.7897 48.643 31.8088 48.519C31.8153 48.4582 31.8153 48.4014 31.8153 48.343" stroke="#C7B5F9" stroke-width="5.55446" stroke-linecap="round"/>
<path d="M29.5333 50.028L29.3019 53.4995C29.1476 53.9624 29.163 54.8882 30.4591 54.8882C31.7551 54.8882 34.8563 54.8882 36.245 54.8882C37.0164 54.8882 38.4667 54.5641 38.0964 53.2681C37.7261 51.9721 36.8621 51.4938 36.4764 51.4166C36.4764 51.1852 36.569 50.5835 36.9393 50.028C37.4021 49.3337 37.865 46.5565 36.9393 45.6307C36.0135 44.5507 33.6066 42.8535 31.3848 44.705" stroke="#3E235A" stroke-width="1.38861" stroke-linecap="round" stroke-linejoin="round"/>
<path d="M43.3525 23.6995C43.1982 23.5452 41.3982 22.9795 39.1867 21.8651M39.1867 21.8651C38.0809 21.308 36.8723 20.6137 35.7151 19.7651C32.9379 17.7284 31.1636 15.8307 30.6235 15.1364C31.7036 12.9874 34.9745 9.33077 39.4181 11.8963C43.8617 14.4618 41.1153 19.6111 39.1867 21.8651Z" stroke="#3E235A" stroke-width="1.38861" stroke-linecap="round" stroke-linejoin="round"/>
<path d="M24.2822 47.8156C24.668 48.1242 25.4857 49.1117 25.6708 50.5928C25.856 52.074 24.8222 52.7529 24.2822 52.9072" stroke="#3E235A" stroke-width="1.38861" stroke-linecap="round" stroke-linejoin="round"/>
<path d="M9.00764 30.6894C6.92472 31.7694 2.99031 35.1792 3.91605 40.1782C4.84179 45.1772 9.70194 47.9699 12.0163 48.7413L18.7279 51.0557C19.3451 51.3643 20.7183 52.1666 21.2737 52.9072C21.5823 53.2929 22.2458 54.0644 22.4309 54.0644C22.6623 54.0644 24.2824 54.0644 23.5881 51.9814C23.0326 50.3151 22.2766 49.4356 21.968 49.2042" stroke="#3E235A" stroke-width="1.38861" stroke-linecap="round" stroke-linejoin="round"/>
<path d="M12.6667 36.4753C12.4353 37.0924 12.4816 38.6045 14.5182 39.7153C17.064 41.104 20.5356 40.8725 23.3128 42.9554C26.09 45.0384 27.4786 46.8899 27.4786 48.9728C27.4786 50.6391 26.5529 51.5186 26.09 51.75" stroke="#3E235A" stroke-width="1.38861" stroke-linecap="round" stroke-linejoin="round"/>
<path d="M44.973 22.0794C45.1273 21.0766 46.2227 19.3022 49.3703 20.228C53.3047 21.3851 55.8505 26.4767 55.8505 28.0968C56.159 30.1025 56.3133 34.7158 54.4619 37.1228C52.1475 40.1314 47.7502 44.0658 41.27 43.603" stroke="#3E235A" stroke-width="1.38861" stroke-linecap="round" stroke-linejoin="round"/>
<circle cx="22.2923" cy="31.8465" r="5.09158" fill="#FDFDFF"/>
<circle cx="23.2177" cy="33.2351" r="2.77723" fill="#423553"/>
<circle cx="34.7898" cy="33.698" r="5.09158" fill="#FDFDFF"/>
<circle cx="35.7152" cy="35.0866" r="2.77723" fill="#423553"/>
<ellipse cx="27.2926" cy="40.1323" rx="1.15718" ry="1.38861" transform="rotate(21.2155 27.2926 40.1323)" fill="#423553"/>
<path d="M9.23903 47.5842C8.00471 48.6642 5.7675 51.426 6.69324 53.8329C7.61898 56.2399 10.0105 54.3729 11.0905 53.1386C12.4791 54.1415 15.8581 55.8233 18.265 54.5272C20.6719 53.2312 20.8108 52.4443 20.5794 52.2129M42.1029 34.1609C43.8772 34.0837 47.1482 33.1426 46.0373 29.9951C45.4201 28.9922 43.6768 27.0327 43.1214 26.2921C42.427 25.3663 42.8966 23.665 44.4172 23.9777C46.0373 24.3109 46.5002 27.2178 47.6573 26.5235C48.8145 25.8292 48.1202 23.9777 47.4259 23.7463C46.7316 23.5149 44.4172 23.7463 44.4172 23.052C44.0315 22.4348 43.7229 21.2005 45.5744 21.2005C47.4259 21.2005 48.8145 22.1262 49.2774 22.5891" stroke="#3E235A" stroke-width="1.38861" stroke-linecap="round" stroke-linejoin="round"/>
<path d="M8.40576 8.00866C8.56005 7.00578 9.51665 5 12.1087 5C14.7008 5 15.0403 7.46865 14.886 8.70297C14.886 9.01155 14.6082 9.76757 13.4973 10.323C12.1087 11.0173 11.8773 11.7116 11.8773 13.5631" stroke="#D7D1EE" stroke-width="1.38861" stroke-linecap="round" stroke-linejoin="round"/>
<circle cx="12.1088" cy="16.5718" r="1.38861" fill="#D7D0EF"/>
<path d="M2.42146 17.6191C2.03348 16.9883 1.61805 15.4204 3.06018 14.1957C4.50231 12.9711 5.85748 14.1842 6.35481 14.9438C6.5006 15.1155 6.70328 15.6673 6.34765 16.5012C5.90311 17.5435 6.10238 18.0391 6.97713 19.0692" stroke="#D7D1EE" stroke-width="1.01355" stroke-linecap="round" stroke-linejoin="round"/>
<circle cx="8.52726" cy="20.6338" r="1.01355" transform="rotate(-40.3378 8.52726 20.6338)" fill="#D7D0EF"/>
<path d="M42.6582 32.5408C42.6582 34.1513 41.3753 32.8599 41.0382 32.7723C39.6362 32.4081 36.3973 22.1262 28.7721 22.1262C19.3135 22.1262 8.40576 40.849 8.40576 32.5408C8.40576 24.2327 16.0734 17.4975 25.532 17.4975C34.9906 17.4975 42.6582 24.2327 42.6582 32.5408Z" fill="#C7B5F9"/>
</svg>
