<svg width="60" height="60" viewBox="0 0 60 60" fill="none" xmlns="http://www.w3.org/2000/svg">
<path d="M10.9502 23.8011C10.9649 23.8011 10.9796 23.8011 10.9688 23.8048C10.7796 23.8692 10.4611 23.9196 10.15 23.9717C9.60651 24.0628 9.28841 24.0684 9.02852 24.1423C8.80475 24.206 8.56821 24.3427 8.40097 24.4465C8.12397 24.6184 7.81104 24.8104 7.65126 24.9547C7.39372 25.1873 7.19551 25.3738 7.04586 25.5892C6.94446 25.7351 7.03806 25.931 7.07125 26.0421C7.1354 26.257 7.58434 26.3466 8.10534 26.4214C8.5035 26.4786 8.9361 26.4735 9.1902 26.5288C9.39028 26.5724 9.54629 26.6882 9.75062 26.8071C9.92261 26.9072 10.1182 27.0298 10.2518 27.1485C10.3501 27.2358 10.4304 27.3193 10.46 27.4082C10.5846 27.782 10.4607 28.3807 10.3124 28.7214C10.2094 28.9578 9.97877 29.1601 9.82978 29.316C9.65906 29.4946 9.45142 29.6723 9.28797 29.7543C9.08102 29.858 8.88711 30.0954 8.73857 30.2327C8.64839 30.3161 8.67867 30.5402 8.68969 30.7441C8.69581 30.8574 8.76752 30.9123 8.83767 30.9715C9.06144 31.1605 9.34586 31.1279 9.52781 31.1647C10.022 31.2648 10.5707 31.5207 10.7897 31.8057C11.0341 32.1237 10.9947 32.3741 11.0317 32.6519C11.0691 32.9333 11.0319 33.1686 11.0391 33.2651C11.0704 33.6819 12.1964 33.3619 12.4044 33.4694C12.6376 33.5899 12.6649 34.2567 12.6464 34.5863C12.6343 34.8031 12.5171 34.9796 12.4647 35.1874C12.3757 35.5408 12.2351 35.7662 12.1752 35.9744C12.1342 36.1171 12.049 36.2272 12.0267 36.327C12.0001 36.4463 12.122 36.62 12.2963 36.7759C12.4813 36.9414 13.0916 36.918 13.3771 36.9881C13.5388 37.0278 13.5112 37.7219 13.4114 38.386C13.3621 38.7144 13.2818 39.0692 13.1923 39.2779C13.0789 39.5422 12.7772 39.8562 12.6024 40.3085C12.4672 40.6581 12.5019 40.9176 12.4904 41.6586C12.4881 41.8095 12.5015 41.8462 12.52 41.8762C12.5571 41.9363 12.7598 41.995 13.1848 42.0434C13.8051 42.1141 14.2381 41.9732 14.3823 41.9401C14.7953 41.8454 14.9801 41.6102 15.3354 41.4876C15.7055 41.3599 15.9751 41.2236 16.134 41.1682C16.3818 41.0819 16.8703 40.8684 17.4636 40.6791C17.8102 40.5685 18.009 40.6074 18.1312 40.6183C18.3644 40.6391 18.4987 40.8739 18.6697 41.1296C18.7402 41.235 18.8182 41.3416 18.8962 41.4601C18.9629 41.5615 19.3636 41.6391 20.0832 41.6465C20.6307 41.6521 21.0134 41.7718 21.2789 41.998C21.6138 42.2832 21.4392 42.7428 21.4761 42.9784C21.5034 43.1523 21.5576 43.2866 21.6169 43.3681C21.6694 43.4404 22.0738 43.4652 22.6673 43.4983C23.156 43.5255 23.3236 43.9908 23.5392 44.3843C23.702 44.6815 23.8216 45.0749 23.9329 45.4163C24.0052 45.638 24.258 45.9643 24.4081 46.215C24.4932 46.357 24.7409 46.5153 25.0123 46.5977C25.3646 46.7046 25.5581 46.5389 25.7622 46.4017C26.0399 46.2151 26.4538 45.8882 27.1231 45.4448C27.4661 45.2176 27.7851 45.106 28.0706 44.9431C28.3681 44.7734 28.6314 44.7052 28.8097 44.6088C28.9733 44.5204 29.1952 44.4976 29.8195 44.4119C30.1744 44.3632 30.7875 44.4005 31.1238 44.4079C31.617 44.4187 31.8382 44.4745 32.1125 44.5783C32.4206 44.6948 32.647 44.7123 32.9069 44.8564C33.2288 45.0349 33.4639 45.0606 33.8567 45.0799C33.9736 45.0856 34.1976 44.8404 34.6122 44.562C34.989 44.309 35.3937 44.438 35.6635 44.3934C36.0533 44.3291 36.3371 44.3636 36.6574 44.3413C37.4389 44.287 38.0073 44.3117 38.1182 44.2709C38.4351 44.1545 38.793 44.1195 39.3122 43.8522C39.6622 43.6719 39.8775 43.6363 40.0483 43.5436C40.1138 43.5081 40.2178 43.4661 40.5941 43.2487C40.9705 43.0312 41.6172 42.6417 41.9981 42.4006C42.6618 41.9806 42.9276 41.6997 43.1956 41.4803C43.3541 41.3506 43.5447 41.2169 43.8288 40.94C44.3369 40.4448 44.7254 40.1179 44.8362 39.9848C45.1795 39.5724 45.4151 39.2429 45.612 39.0085C45.8503 38.725 46.17 38.1695 46.4732 37.6693C46.7713 37.1775 46.7962 36.8894 46.8339 36.6516C46.8433 36.5922 46.8559 36.5331 46.8635 36.0803C46.8711 35.6274 46.8711 34.7823 46.8674 34.3249C46.862 33.6586 46.7303 33.2746 46.6524 32.9587C46.6071 32.7754 46.5303 32.334 46.2929 31.7051C46.1938 31.4423 46.1513 31.2254 45.9698 30.7072C45.8495 30.3637 45.9578 30.1039 46.0059 30.0224C46.2451 29.6171 47.3156 29.8665 47.4866 29.7809C47.6591 29.6945 47.6131 29.3623 47.6246 29.0394C47.6325 28.8148 47.4875 28.6123 47.3837 28.4192C47.2942 28.1738 47.2795 28.0624 47.2499 27.981C47.235 27.9364 47.2203 27.885 47.2051 27.7429" stroke="#C7B5F9" stroke-width="3" stroke-linecap="round"/>
<path d="M41.6709 15.0158C41.6709 15.0305 41.7003 15.0822 41.7779 15.1453C41.9539 15.2885 42.1528 15.0461 42.353 14.9345C42.5566 14.8211 42.8058 14.7415 43.2281 14.4787C43.4591 14.335 43.652 14.2297 43.9043 14.0366C44.0997 13.8871 44.3793 13.799 44.6612 13.7134C45.1139 13.5758 45.5734 13.8048 45.8124 13.9834C45.9934 14.1187 46.0798 14.3175 46.3502 14.7949C46.4335 14.942 46.5174 15.361 46.6362 16.186C46.7017 16.6404 46.6669 17.18 46.6374 17.5813C46.5636 18.5843 46.474 18.9188 46.4034 19.2237C46.3699 19.3684 46.3774 19.543 46.3551 19.8568C46.2864 20.8251 46.3992 21.0941 46.5582 21.2913C46.8456 21.6477 47.1773 21.6887 47.4415 21.8188C47.6986 21.9453 48.0088 21.9862 48.2803 22.0452C48.7075 22.1381 49.2706 22.4677 49.5793 22.565C49.955 22.6835 50.4148 23.0249 50.5892 23.177C50.771 23.3356 50.7787 23.5665 50.7867 24.1551C50.7927 24.5895 50.4019 24.8505 50.0345 25.1882C49.8674 25.3417 49.5788 25.4594 49.0709 25.6967C48.481 25.9722 47.93 26.1054 47.6818 26.2203C47.3098 26.3926 47.0463 26.4989 46.8308 26.6585C46.682 26.8036 46.5631 26.8927 46.5075 26.9519C46.4814 26.9817 46.4593 27.0111 46.4366 27.0414" stroke="#C7B5F9" stroke-width="3" stroke-linecap="round"/>
<path d="M44.9445 14.2364C44.8783 14.288 44.6118 14.3477 44.2628 14.5399C44.0638 14.6495 43.7 14.6595 43.3314 14.6965C42.8172 14.748 42.6071 14.6524 42.3511 14.5559C42.1536 14.4816 42.0205 14.4074 41.7351 14.1521C41.5377 13.9754 41.3822 13.807 41.2851 13.6208C41.1972 13.4522 41.0918 13.2356 41.0105 12.9347C40.8644 12.3938 40.9288 11.5132 40.8657 11.3271C40.8118 11.1682 40.7284 11.0006 40.632 10.7928C40.5465 10.6086 40.4465 10.4585 40.2612 10.2547C40.1066 10.0846 39.9347 9.99088 39.7379 9.91628C39.6005 9.86417 39.4519 9.87152 39.3224 9.86417C39.1695 9.85549 38.5731 9.83433 37.7643 9.85281C37.0702 9.86867 36.3867 9.84969 36.1932 9.7457C36.0175 9.65131 35.8371 9.55262 35.655 9.41187C35.4726 9.27086 35.3543 9.09297 35.2354 8.85558C35.0817 8.54879 35.1013 8.0708 35.0643 7.66449C35.0282 7.26696 34.9606 6.80945 34.8679 6.5352C34.8387 6.44872 34.4951 6.46427 34.0798 6.48999C33.6719 6.51525 33.5357 6.87893 33.2429 7.17578C33.0445 7.37692 32.9118 7.53299 32.8452 7.53699C32.5788 7.55303 32.5777 7.08871 32.4666 6.91033C32.3292 6.68974 32.192 6.46516 32.0546 6.32375C32.0197 6.28779 31.9916 6.24246 31.925 6.21975C31.6222 6.11645 31.3689 6.2193 31.1676 6.35225C30.8468 6.56411 30.7075 7.176 30.4003 7.57586C30.1506 7.9009 29.8245 8.09663 29.6354 8.22635C29.5084 8.31355 29.254 8.46742 28.909 8.64179C28.4415 8.8781 27.7087 8.72107 27.5007 8.57687C27.2845 8.42703 27.1813 8.14295 26.9035 7.74277C26.6361 7.35761 26.4687 7.01522 26.2943 6.79531C26.1524 6.61635 26.046 6.36183 25.897 6.20115C25.7624 6.05589 25.5044 6.01175 24.4642 6.00028C24.2417 5.99783 24.183 6.0113 24.1159 6.04816C23.8166 6.21271 23.7077 6.55201 23.6143 6.84519C23.4402 7.39167 23.159 7.9452 22.9687 8.31888C22.7536 8.74128 22.6677 8.89077 22.5713 8.99176C22.472 9.09579 22.5559 8.69168 22.5562 8.62854C22.5564 8.56882 22.1141 8.62442 21.5725 8.62075C21.0141 8.61696 20.4194 8.61685 20.1519 8.69836C20.0928 8.71637 20.0479 8.7135 20.0105 8.73187C19.8002 8.83514 19.7575 9.25376 19.7132 9.47C19.6944 9.56175 19.6391 9.63368 19.5725 9.67454C19.3257 9.82596 18.979 9.18918 18.8006 9.03329C18.5699 8.83171 18.1995 8.70637 18.0286 8.67653C17.7055 8.62011 17.3462 8.46898 16.6907 8.45361C16.5365 8.45 16.4558 8.47566 16.3995 8.50895C16.2957 8.57028 16.2908 8.92595 16.3203 9.41154C16.3551 9.98428 16.5351 10.3744 16.6727 10.8718C16.7975 11.3225 16.9658 12.0201 17.0331 12.4057C17.0747 12.6444 17.0705 13.3549 16.9779 13.8603C16.922 14.1658 16.7885 14.3468 16.6811 14.5622C16.5743 14.7762 16.3066 14.896 16.1062 15.0007C15.7313 15.1964 15.26 15.0679 14.9787 14.9278C14.536 14.7074 14.2356 14.3266 14.0836 14.1265C13.8315 13.7946 13.5229 13.5095 13.3889 13.3832C13.3156 13.3143 13.2405 13.2271 13.1294 13.1752C13.0358 13.1315 12.9141 13.1302 12.7807 13.1487C12.5325 13.1831 12.3498 13.4565 12.264 13.719C12.1243 14.1469 12.356 14.3762 12.3826 15.1427C12.3929 15.4402 12.2607 15.6088 12.1312 15.7313C12.017 15.8393 11.8229 15.7509 11.6968 15.7322C11.6447 15.7245 11.6149 15.765 11.5997 15.8609C11.5595 16.1159 11.5919 16.3293 11.6251 16.4108C11.7229 16.651 12.0585 16.7898 12.2261 16.8971C12.4737 17.0558 12.7934 17.2637 13.0534 17.5201C13.3069 17.7702 13.3136 18.0654 13.3955 18.3921C13.4178 18.4743 13.4472 18.5478 13.4734 18.6077C13.4995 18.6676 13.5216 18.7117 13.5443 18.7571" stroke="#C7B5F9" stroke-width="3" stroke-linecap="round"/>
<path d="M15.6115 16.9654C15.6223 16.9654 15.6332 16.9654 15.6225 16.9708C15.4272 17.0699 14.9787 16.9765 14.4655 16.8157C14.0155 16.6747 13.7375 16.6157 13.4588 16.6996C12.9183 16.8623 12.7423 17.1179 12.5806 17.173C12.5363 17.1881 12.4746 17.1786 12.4331 17.1596C12.3558 17.1244 12.2502 16.9339 12.0593 16.6613C11.8614 16.3787 11.7575 16.1893 11.6921 16.1592C11.5686 16.1024 11.4298 16.3142 11.2576 16.4619C11.1318 16.5697 11.0198 16.6426 10.8884 16.6864C10.8554 16.6974 10.823 16.7082 10.5762 16.7138C10.3295 16.7194 9.8694 16.7194 9.61616 16.7166C9.33035 16.7136 9.04261 16.703 8.63282 16.7057C8.29165 16.7079 8.0295 16.741 7.78077 16.8855C7.63308 16.9713 7.64046 17.1615 7.61324 17.3173C7.57121 17.5577 7.84089 17.8107 8.1152 18.1751C8.31917 18.446 8.42707 18.534 8.6211 18.7713C8.74174 18.9189 8.86466 19.0805 8.97947 19.2119C9.08544 19.3331 9.19235 19.5282 9.29667 19.6684C9.43231 19.8506 9.48266 20.081 9.5727 20.2668C9.6829 20.4942 9.76706 20.7918 9.78346 21.1498C9.79737 21.4535 9.78903 22.0058 9.78633 22.3065C9.78273 22.7057 9.71851 22.8797 9.65799 23.0687C9.60208 23.2433 9.54892 23.3885 9.49939 23.539C9.46025 23.658 9.40131 23.7713 9.36818 23.9026C9.33227 24.045 9.23729 24.1432 9.1361 24.2771C8.95669 24.5144 8.57107 24.8426 8.20762 25.0586C8.12916 25.1052 8.10035 25.1542 8.12692 25.1522C8.15349 25.1501 8.24009 25.1014 8.29824 25.0709C8.35638 25.0404 8.38344 25.0296 8.41132 25.0184" stroke="#C7B5F9" stroke-width="3" stroke-linecap="round"/>
<path d="M37.1614 26.2695C37.1614 26.2444 37.1614 26.2192 37.0295 25.5213C36.8975 24.8234 36.6336 23.4534 36.4285 22.622C36.1564 21.5191 35.8673 21.2048 35.7153 21.0654C35.5752 20.9369 35.3474 20.8742 34.5472 20.5345C33.8726 20.2481 32.7038 19.6166 31.9192 19.2807C31.1347 18.9447 30.7827 18.8945 30.149 18.8686C29.5152 18.8427 28.6103 18.8427 28.0876 18.849C27.5648 18.8552 27.4517 18.8678 27.2426 19.0251C27.0335 19.1824 26.7319 19.4841 26.3125 20.1422C25.8932 20.8003 25.3653 21.8058 25.0494 22.4683C24.6045 23.4014 24.4166 23.9942 24.1757 24.5766C24.0524 24.8747 24.0102 25.2092 23.9841 25.8174C23.958 26.4257 23.9706 27.3055 24.0839 27.9975C24.2802 29.196 24.7944 29.9231 25.1614 30.455C25.5542 31.0244 26.0258 31.3845 26.3615 31.6001C26.6386 31.778 26.9779 31.88 27.829 32.0259C28.4968 32.1403 29.6729 32.1089 30.275 32.1721C30.8772 32.2354 30.8772 32.3359 30.8583 32.4191C30.7485 32.904 30.1924 33.3277 30.0216 33.429C29.9285 33.4842 29.8131 33.5303 29.7359 33.4368C29.6588 33.3433 29.6211 33.1045 29.608 32.3593C29.5948 31.6142 29.6074 30.3699 29.6641 29.5844C29.7424 28.5011 29.925 28.1114 29.9627 28.0533C29.9937 28.0057 30.0759 28.2843 30.1084 28.9344C30.141 29.5845 30.1284 30.6906 30.0654 31.3797C29.9793 32.3204 29.6219 32.7548 29.3179 33.1412C28.7922 33.8096 28.2134 34.0254 27.7937 34.1404C27.3635 34.2583 26.8675 33.9005 25.6396 33.5642C24.9408 33.3728 24.4794 33.4431 24.3086 33.2724C23.8862 32.8505 23.605 32.5553 23.179 32.1554C22.8159 31.8145 22.3619 31.4142 22.0733 30.6721C21.8197 30.0198 22.1044 29.4192 22.1425 28.7764C22.1731 28.2599 22.1554 27.3542 22.212 26.5738C22.2685 25.7934 22.3817 25.165 22.5405 24.6025C22.8395 23.5432 23.3087 22.7686 23.6888 22.2236C23.994 21.786 24.2494 21.5099 24.3951 21.2693C24.549 21.0152 25.0203 20.4088 25.7746 19.6415C26.2806 19.1269 27.1135 18.8945 28.178 18.7421C29.0343 18.6196 29.9201 18.7909 30.9393 19.1129C32.1014 19.4801 32.8047 20.1113 33.1976 20.2823C33.5229 20.4239 34.022 20.7824 34.7188 21.3394C35.0649 21.6161 35.3401 21.9467 35.6587 22.3285C35.9773 22.7103 36.3167 23.1502 36.6863 24.0556C37.0559 24.9609 37.4456 26.3183 37.7531 27.5643C38.0607 28.8102 38.2743 29.9037 38.397 31.0703C38.5196 32.2369 38.5447 33.4434 38.5514 34.1153C38.5591 34.8877 38.4571 35.1044 38.2863 35.3198C37.7982 35.9353 36.7821 36.1202 36.4012 36.2792C35.9554 36.4653 35.6395 36.6915 34.6805 36.8065C34.005 36.8875 32.7434 36.8194 32.0582 36.8508C31.1272 36.8935 30.6898 37.086 30.2642 37.0295C30.1402 36.9729 30.2031 36.8598 30.2794 36.7512C30.3558 36.6427 30.4438 36.5422 30.5344 36.4386" stroke="#C7B5F9" stroke-width="15" stroke-linecap="round"/>
<path d="M16.0993 22.9179C15.6316 23.0192 15.0976 23.1205 14.5145 23.115C14.2015 23.1121 14.2209 22.5637 14.1129 22.1893C14.0317 21.9078 13.7775 21.5742 13.485 21.2686C13.2211 20.9928 13.1422 20.6594 12.9832 20.3673C12.7914 20.0148 12.6212 19.8337 12.5074 19.7069C12.173 19.3344 14.6246 19.5161 14.8797 19.3576C15.1905 19.1647 15.3619 18.768 15.5021 18.3681C15.6318 17.9979 15.7565 17.563 15.9206 17.2379C16.1374 16.7868 16.1876 16.5583 16.2889 16.4063C16.34 16.3298 16.3903 16.2543 16.5182 16.2909" stroke="#C7B5F9" stroke-width="7" stroke-linecap="round"/>
<path d="M11.8587 18.6637C11.7543 18.6637 11.6292 18.617 11.5555 18.5553C11.5191 18.5331 11.4744 18.5069 11.4313 18.4768C11.4115 18.4624 11.396 18.4494 11.3564 18.4204" stroke="#C7B5F9" stroke-width="7" stroke-linecap="round"/>
<path d="M15.2288 24.915C15.0845 24.915 14.892 24.931 14.6228 24.967C14.1712 25.0276 13.935 25.3643 13.7295 25.5419C13.5676 25.6819 13.228 25.5424 12.9455 25.5023C12.7446 25.4739 12.5594 25.4459 12.4546 25.4738C12.2106 25.5386 12.9428 25.9507 13.4854 26.4573C13.9518 26.8928 13.9258 27.3106 13.9859 27.8599C14.0959 28.8657 13.8534 29.2728 13.7614 29.6511C13.7089 29.8669 13.6044 30.0777 13.6079 30.307C13.6149 30.7645 14.1898 31.2432 14.4556 31.7932C14.8802 32.6719 14.9952 33.1016 15.1198 33.3914C15.2476 33.6891 15.3253 34.0832 15.4013 34.3721C15.5548 34.9556 15.5261 35.225 15.6026 35.3986C15.6861 35.5882 15.695 35.8282 15.7515 36.1699C15.8179 36.572 15.8079 37.248 15.7478 37.7701C15.7308 37.9178 15.7355 38.1572 15.7753 38.2404C15.8269 38.3482 16.2874 37.9709 16.9171 37.6336C17.5184 37.3115 18.1299 37.2933 18.5437 37.3093C18.9562 37.3251 19.1928 37.5983 19.4064 37.6871C19.5189 37.7339 19.6039 37.7998 19.6084 37.828C19.6485 38.0817 18.6851 37.7518 17.904 37.7239C17.8144 37.7207 18.5058 37.5829 19.2253 37.5869C19.5549 37.5887 19.8592 37.6787 20.3008 37.835C20.9026 38.0482 21.3055 38.4332 21.7464 38.7281C21.9724 38.8792 22.1853 39.0299 22.4453 39.2221C23.2174 39.7929 23.48 39.9147 23.6733 40.0757C23.8589 40.2302 24.1552 40.3732 24.441 40.6259C24.8348 40.9742 24.9124 41.2496 25.0688 41.563C25.1947 41.8151 25.3226 42.0217 25.387 42.2229C25.4249 42.3414 25.4673 42.4565 25.5554 42.5488C25.7682 42.7718 26.0619 42.6423 26.2989 42.5861C26.7998 42.4673 27.1306 42.1923 27.7666 42.0837C28.1989 42.0099 28.8724 42.0468 29.2688 42.0388C29.9718 42.0247 30.34 41.9667 30.7423 41.9423C31.1103 41.92 31.919 41.8296 32.4402 41.7737C32.7313 41.7424 32.9551 41.5888 33.2601 41.4682C33.5661 41.3393 33.8875 41.195 34.121 41.1222C34.1934 41.0903 34.289 41.0266 34.4357 40.9127" stroke="#C7B5F9" stroke-width="7" stroke-linecap="round"/>
<path d="M14.9504 40.6769C14.7324 40.6769 14.4358 40.7004 14.278 40.73C14.2326 40.7386 14.4909 40.7828 16.5108 40.2966C18.5307 39.8104 22.3954 38.8017 24.439 38.2909C26.4827 37.7801 26.5882 37.7977 26.9651 37.9211C27.3421 38.0445 27.9871 38.2732 28.4074 38.4057C28.8277 38.5382 29.0036 38.5675 29.191 38.6149C29.5759 38.7121 29.8124 38.8284 29.9039 38.9257C30.031 39.0608 30.1555 39.2367 30.4236 39.3991C30.6011 39.5066 30.8969 39.6025 31.432 39.698C31.9671 39.7935 32.7412 39.8697 33.1634 39.9207C33.635 39.9777 33.7044 40.037 33.8279 40.0754C34.3624 40.2415 34.6985 40.2561 34.8357 40.3772C34.9733 40.4987 35.1072 40.77 35.2887 40.9755C35.4226 41.1271 35.6052 41.2982 35.8155 41.3639C35.8808 41.3843 35.9716 41.37 36.0375 41.3993C36.1639 41.4556 36.1866 41.6884 36.2308 41.8848C36.2451 41.9484 36.4107 41.9269 36.6087 41.8886C36.8086 41.8499 37.2728 41.6907 37.8884 41.5369C38.3954 41.4102 38.6085 41.2875 38.8482 41.2016C38.9367 41.1699 39.0513 41.0988 39.3316 40.9747C39.612 40.8505 40.0518 40.6687 40.3077 40.5458C40.6351 40.3884 40.7355 40.292 40.8301 40.2625C40.9086 40.238 41.1895 39.9508 41.6098 39.5365C41.9474 39.2038 42.0972 38.9314 42.2018 38.6902C42.2859 38.4962 42.5234 38.0269 42.6756 37.5977C42.7702 37.3308 42.833 37.1234 42.9126 36.9251C43.0035 36.6985 42.9808 36.4368 42.9988 36.1907C43.0037 36.1223 43.0163 36.0462 43.0224 35.4175C43.0284 34.7889 43.0284 33.6101 43.0402 32.9706C43.0531 32.2659 43.1171 32.1239 43.176 31.9469C43.2542 31.7118 43.36 31.5491 43.3895 31.4604C43.4039 31.4173 43.4308 31.3834 43.481 31.4181C43.6364 31.5253 43.7153 31.7785 43.7597 32.0675C43.8233 32.481 43.7865 32.8271 43.8043 32.9986C43.8184 33.1343 43.8279 33.2423 43.8546 33.6154C43.8779 33.9408 43.8637 34.5456 43.8578 34.889C43.8478 35.4755 43.8047 35.8418 43.7867 36.159C43.7692 36.4686 43.5033 36.849 43.2634 37.2073C43.2008 37.2823 43.1422 37.3175 43.0944 37.362C43.0466 37.4065 43.0114 37.4593 42.9396 37.5492" stroke="#C7B5F9" stroke-width="5" stroke-linecap="round"/>
<path d="M41.2125 17.7811C41.2125 17.7722 41.2125 17.7632 41.5137 17.6551C41.8149 17.5471 42.4174 17.3403 42.7614 17.218C43.1754 17.0709 43.3773 17.0049 43.5974 16.964C43.7639 16.9331 43.828 16.9002 43.8711 16.9181C43.9562 16.9533 43.8919 17.1447 43.7614 17.638C43.649 18.0633 43.3882 18.8283 43.2496 19.3232C43.111 19.8181 43.0885 20.016 43.0791 20.192C43.062 20.5161 43.0879 20.7188 43.1128 20.8297C43.1768 21.1151 43.2825 21.4666 43.3806 21.6498C43.4526 21.7842 43.5193 21.9312 43.5353 22.4746C43.5412 22.6763 43.6686 22.8254 43.9632 23.0775C44.0934 23.1889 44.3442 23.2619 44.6278 23.3503C44.8729 23.4266 45.0484 23.5932 45.2601 23.6483C45.541 23.7213 45.6849 23.739 45.9095 23.9472C46.0027 24.0335 46.296 24.2011 46.7226 24.4008C47.1114 24.5829 47.411 24.5202 47.4653 24.5473C47.4947 24.5619 47.5197 24.5924 47.5111 24.6377C47.4886 24.7565 47.3483 24.8424 47.0574 24.962C46.8313 25.0549 46.4382 25.194 45.9985 25.3828C45.5587 25.5715 45.0822 25.8008 44.8052 25.9391C44.3415 26.1708 44.2239 26.3408 44.1508 26.4747C44.1126 26.5447 44.3124 26.708 44.6454 26.939C44.9679 27.1627 45.1313 27.349 45.1744 27.4531C45.1983 27.5109 45.2129 27.5841 45.2222 27.819C45.2315 28.0539 45.2315 28.4495 45.218 28.6713C45.2045 28.8931 45.1775 28.929 45.1344 28.9723C44.9694 29.1378 44.8775 29.1249 44.8209 29.1318C44.7914 29.1354 44.7598 29.1162 44.3772 28.7968C43.9946 28.4774 43.2618 27.8525 42.7898 27.4204C42.3179 26.9884 42.1291 26.7681 41.9037 26.4388C41.6783 26.1095 41.422 25.6779 41.2428 25.3409C41.0636 25.0039 40.9692 24.7747 40.9093 24.6071C40.8494 24.4395 40.827 24.3406 40.7412 24.0986C40.6554 23.8566 40.5071 23.4744 40.4037 23.0281C40.3003 22.5817 40.2463 22.0826 40.2185 21.5536C40.1907 21.0245 40.1907 20.4805 40.184 20.1531C40.1773 19.8256 40.1638 19.7312 40.1568 19.5005C40.1499 19.2698 40.1499 18.9056 40.1431 18.6888C40.1364 18.472 40.1229 18.4135 40.0665 17.9586C40.0101 17.5036 39.9112 16.6539 39.849 16.1847C39.7633 15.5379 39.7139 15.3796 39.6801 15.2228C39.6562 15.1125 39.5961 14.935 39.5418 14.6814C39.483 14.4066 39.4188 14.1943 39.3985 14.0674C39.3835 13.9742 39.3058 13.764 39.206 13.4668C39.1038 13.1621 38.7892 13.0726 38.611 12.9814C38.4263 12.887 38.1268 12.8271 37.846 12.752C37.6916 12.7107 37.553 12.6859 37.2182 12.5618C37.0618 12.5037 36.817 12.4421 36.584 12.3916C36.3511 12.3411 36.1353 12.3096 35.9949 12.2934C35.8545 12.2772 35.7961 12.2772 35.7358 12.3181" stroke="#C7B5F9" stroke-width="5" stroke-linecap="round"/>
<path d="M19.9444 17.8153C19.9444 17.7264 19.9444 17.6374 19.9444 17.5377C19.9444 17.4379 19.9444 17.3301 19.8554 16.7732C19.7664 16.2162 19.5885 15.2134 19.42 14.4892C19.2516 13.7651 19.0979 13.3499 19.0093 13.0943C18.9207 12.8386 18.9018 12.7551 18.8733 12.6635C18.8137 12.4726 18.7573 12.3237 18.7382 12.2124C18.7166 12.086 18.6894 11.8995 18.6822 11.7212C18.6774 11.6022 18.9603 11.6533 19.1883 11.683C19.3152 11.6995 19.4595 11.7505 19.6261 11.7808C19.7927 11.8111 19.9761 11.8272 20.1028 11.8329C20.2296 11.8385 20.2943 11.8331 21.1161 11.5797C21.938 11.3262 23.515 10.8248 24.605 10.522C25.6951 10.2192 26.2504 10.1303 26.5553 10.0844C26.8603 10.0386 26.898 10.0386 26.8676 10.079C26.8372 10.1195 26.7374 10.2003 25.6104 10.8337C24.4835 11.4671 22.3323 12.6505 21.1715 13.3033C20.0108 13.9561 19.9056 14.0423 19.8447 14.107C19.7838 14.1716 19.7704 14.2121 19.7634 14.241C19.7565 14.2699 19.7565 14.2861 19.8037 14.2877C19.8508 14.2893 19.9452 14.2758 20.5154 14.126C21.0856 13.9761 22.1289 13.6904 23.0814 13.3451C24.034 12.9997 24.8643 12.6035 25.3338 12.3548C25.8033 12.1062 25.8869 12.0173 25.9474 11.9337C26.0564 11.7834 26.0792 11.6726 26.0859 11.621C26.0937 11.5611 26.147 11.3852 26.1878 11.1067C26.2224 10.8707 26.1936 10.7224 26.1719 10.6572C26.1171 10.4924 25.8918 10.3497 25.7638 10.2161C25.6953 10.1097 25.6789 10.001 25.6518 9.78647C25.6462 9.70212 25.6462 9.58621 25.6544 9.45044" stroke="#C7B5F9" stroke-width="5" stroke-linecap="round"/>
<path d="M25.7405 9.08691C25.7352 9.08691 25.7298 9.08691 25.6987 9.08691C25.6676 9.08691 25.611 9.08691 26.3056 9.60854C27.0003 10.1302 28.4479 11.1734 29.3136 11.7715C30.1793 12.3696 30.4192 12.4909 30.6209 12.5749C30.8227 12.659 30.9791 12.7021 31.1796 12.7216C31.3801 12.7412 31.62 12.7358 31.7759 12.7236C31.9981 12.7062 32.1198 12.6461 32.2609 12.5662C32.4653 12.4503 32.5886 12.3383 32.6468 12.2612C32.6905 12.2034 32.7455 12.0952 32.7828 11.9925C32.8201 11.8898 32.8336 11.7928 32.8405 11.674C32.8555 11.4182 32.8313 11.2007 32.8068 11.0769C32.7936 11.0105 32.7877 10.9606 32.7605 10.9049C32.7471 10.8772 32.7226 10.8573 32.5929 10.8489C32.4632 10.8404 32.226 10.8458 31.9595 10.8904C31.6931 10.935 31.4047 11.0185 31.186 11.0939C30.9673 11.1693 30.8271 11.234 30.8668 11.1919C30.9064 11.1497 31.1302 10.9988 31.4409 10.8159C31.7516 10.633 32.1425 10.4227 32.4395 10.278C32.7366 10.1333 32.928 10.0605 33.0347 10.027C33.1414 9.99357 33.1575 10.0017 33.1753 10.026C33.2192 10.0862 33.2449 10.1837 33.2801 10.2937C33.3613 10.5471 33.4082 10.6851 33.4165 10.7191C33.4197 10.7322 33.3871 10.7342 33.3476 10.7222C33.2509 10.6925 33.1071 10.5691 32.8941 10.3373C32.7658 10.1978 32.6244 9.98957 32.5427 9.88003C32.4335 9.73374 32.3955 9.68357 32.3466 9.61813C32.3356 9.60172 32.3302 9.58554 32.3207 9.57182C32.3112 9.55809 32.2977 9.54731 32.2838 9.51986" stroke="#C7B5F9" stroke-width="5" stroke-linecap="round"/>
<path d="M42.0955 41.4496C41.3978 41.4496 40.8415 42.9128 40.3119 43.812C40.1478 44.0906 40.207 44.486 40.4933 44.6362C42.9182 45.9084 47.3931 47.2159 48.9854 47.6936C50.7079 48.2104 51.4256 46.9041 51.5692 46.1864C51.7127 45.5405 51.9998 43.775 51.9998 41.8802C51.9998 39.9855 50.8515 40.373 50.2773 40.8037C49.9185 41.0907 49.0716 41.8372 48.5548 42.5262C48.0381 43.2151 47.6936 43.0335 47.263 43.0335C45.5405 42.8182 43.9902 41.8802 43.818 41.8802C43.6027 41.8802 43.172 41.4496 42.0955 41.4496Z" fill="#3E235A"/>
<path d="M32.8374 33.9904C32.6938 34.4928 32.4067 35.5407 32.4067 35.7129L40.1579 39.1579L44.6795 34.8517L45.3254 32.9139C45.3254 32.0526 44.6077 31.8373 44.2488 31.8373C43.0431 32.0096 41.1627 34.4928 40.3732 35.7129C37.9618 33.6459 34.3445 33.7033 32.8374 33.9904Z" fill="#FFFDF7" stroke="#3E235A" stroke-width="0.75" stroke-linecap="round" stroke-linejoin="round"/>
<path d="M30.2534 43.8947C30.2534 43.7225 31.2582 37.7943 31.7606 34.8517L40.8037 36.7895L39.2965 46.0479C36.2821 45.4019 30.2534 44.067 30.2534 43.8947Z" fill="#FFFDF7" stroke="#3E235A" stroke-width="0.75" stroke-linecap="round" stroke-linejoin="round"/>
<path d="M45.5409 32.6986L40.8041 36.5742L39.2969 46.0479L44.249 41.957L45.5409 32.6986Z" fill="#FFFDF7" stroke="#3E235A" stroke-width="0.75" stroke-linecap="round" stroke-linejoin="round"/>
<circle cx="28.1007" cy="24.5168" r="4.30622" fill="#F7F7F3"/>
<circle cx="28.9617" cy="26.2392" r="1.72249" fill="#50386A"/>
<circle cx="38.8658" cy="23.6555" r="4.30622" fill="#F7F7F3"/>
<circle cx="38.866" cy="25.8086" r="1.72249" fill="#50386A"/>
<path d="M32.4067 25.0112C32.7512 25.0112 33.9857 25.0112 34.5598 25.0112" stroke="#3E235A" stroke-linecap="round"/>
<path d="M34.5599 26.303C34.2155 24.5805 35.2777 24.1499 35.8518 24.1499C37.7178 24.0064 41.6221 24.1499 42.3111 24.1499C43.0001 24.1499 43.1724 24.7241 43.1724 25.0112C43.1724 25.2982 43.0863 25.7002 42.7418 26.7336C42.3973 27.7671 41.4499 28.3126 41.0193 28.4561H36.7131C36.1389 28.4561 34.9044 28.0255 34.5599 26.303Z" stroke="#3E235A" stroke-linecap="round" stroke-linejoin="round"/>
<path d="M17.335 25.8724C17.335 25.4418 17.3516 24.3135 19.4881 24.5805C22.933 25.0111 23.3637 25.0112 23.3637 25.0112M23.3637 25.0112C23.3637 26.016 23.622 28.9729 24.6555 29.3174C25.689 29.6619 28.8182 29.4609 30.2536 29.3174C30.9713 29.1738 32.4067 28.5423 32.4067 27.1643C32.4067 25.7863 32.4067 25.4418 32.4067 25.4418C32.4067 25.1547 32.2345 24.5805 31.5455 24.5805C30.8565 24.5805 25.8039 24.8676 23.3637 25.0112Z" stroke="#3E235A" stroke-linecap="round"/>
<path d="M32.1914 30.1148C32.2632 30.4737 32.7082 31.1914 33.9139 31.1914C34.2291 31.1914 34.9288 30.933 35.2058 29.8995" stroke="#3E235A" stroke-linecap="round" stroke-linejoin="round"/>
<path d="M46.5406 36.7686C46.5406 36.7116 46.5367 36.6205 46.5228 36.5631C46.5095 36.5077 46.4793 36.4544 46.4429 36.401C46.3781 36.3061 46.2975 36.2231 46.2451 36.1813C46.1856 36.1339 46.1255 36.1457 46.0484 36.1436C46.03 36.1431 46.0187 36.1553 46.0136 36.1926C45.9996 36.2956 46.0517 36.4611 46.1178 36.6153C46.1518 36.6944 46.1903 36.7465 46.2317 36.8479C46.2934 36.9989 46.3151 37.1263 46.2955 37.1786C46.2529 37.2928 46.1137 37.2274 46.0002 37.2363C45.7825 37.2535 45.6965 37.2689 45.6133 37.2779C45.4984 37.2902 45.3902 37.3105 45.2377 37.3391C45.1765 37.3506 45.1326 37.3718 45.0579 37.3954C44.9098 37.442 44.8042 37.5003 44.7697 37.5269C44.6801 37.5961 44.5318 37.6976 44.4571 37.782C44.4217 37.8219 44.4164 37.8779 44.4193 37.9194C44.4206 37.9376 44.4281 37.9491 44.4419 37.9611C44.4741 37.9889 44.6091 38.0125 44.8222 38.0363C44.9254 38.0477 45.0197 38.0443 45.1288 38.0355C45.2379 38.0267 45.3593 38.0091 45.4512 38C45.5432 37.9909 45.6019 37.9909 45.6322 37.9997C45.6624 38.0085 45.6624 38.0262 45.6614 38.0401C45.6572 38.1003 45.568 38.1883 45.4556 38.28C45.3926 38.3315 45.3081 38.3815 45.2393 38.4214C45.1705 38.4614 45.1176 38.4868 45.0257 38.543C44.9339 38.5992 44.8047 38.6854 44.7048 38.7415C44.544 38.8319 44.4522 38.8591 44.401 38.8965C44.32 38.9556 44.2015 39.0524 44.0947 39.165C44.0306 39.2326 44.0307 39.2863 44.0356 39.311C44.0474 39.3704 44.251 39.3655 44.4702 39.3577C44.6468 39.3513 44.7406 39.3319 44.7682 39.3348C44.7805 39.3361 44.7881 39.3436 44.794 39.3565C44.8084 39.3872 44.806 39.4658 44.7962 39.5675C44.7886 39.6464 44.7194 39.7211 44.6522 39.7981C44.5673 39.8955 44.4781 40.0217 44.4244 40.0872C44.3868 40.1332 44.3297 40.2528 44.3076 40.3286C44.3042 40.3402 44.3017 40.3522 44.3173 40.371C44.3991 40.4694 44.4913 40.4532 44.6097 40.4583C44.6826 40.4614 44.8385 40.3884 44.9422 40.3447C45.0402 40.3034 45.1375 40.2421 45.2379 40.1737C45.3004 40.1311 45.3595 40.0798 45.4337 40.0214C45.4933 39.9745 45.5297 39.9393 45.5831 39.8761C45.6482 39.7989 45.6801 39.7594 45.7196 39.7108C45.7597 39.6617 45.7908 39.6032 45.8452 39.5171C45.8758 39.4687 45.9036 39.4232 45.9283 39.3736C45.965 39.3003 45.9926 39.255 46.0302 39.174C46.0638 39.1015 46.1053 39.0573 46.1271 38.9988C46.1553 38.9234 46.1943 38.8456 46.2152 38.7882C46.2474 38.6994 46.2952 38.5648 46.3633 38.3704C46.3956 38.2785 46.4532 38.1283 46.4733 38.0425C46.4875 37.9816 46.5127 37.9005 46.5247 37.8368C46.5353 37.7808 46.5543 37.7025 46.5702 37.6273C46.5807 37.5773 46.5939 37.5264 46.6019 37.399C46.6037 37.37 46.6078 37.3544 46.6098 37.2504C46.6118 37.1463 46.6118 36.9544 46.6108 36.8478C46.6095 36.701 46.5802 36.662 46.5723 36.5948C46.5654 36.5367 46.5209 36.4959 46.4942 36.4582C46.4872 36.4483 46.4814 36.4366 46.4744 36.4266C46.4675 36.4166 46.4596 36.4088 46.4338 36.3889" stroke="#3E235A" stroke-width="1.5" stroke-linecap="round"/>
<path d="M46.4096 36.4185C46.4314 36.4815 46.4393 36.5646 46.461 36.624C46.4847 36.6892 46.5124 36.7684 46.5263 36.8326C46.5399 36.8958 46.5402 36.968 46.552 37.0324C46.5645 37.1007 46.5757 37.1403 46.5837 37.2035C46.5857 37.2194 46.5895 37.2312 46.5916 37.4135C46.5936 37.5957 46.5936 37.9482 46.5916 38.1376C46.589 38.3864 46.5739 38.481 46.56 38.5366C46.5392 38.6199 46.5224 38.7521 46.4938 38.8912C46.4665 39.0247 46.4494 39.0883 46.4255 39.1517C46.4006 39.2179 46.3584 39.3254 46.3139 39.4127C46.2596 39.5192 46.1333 39.7011 46.0805 39.7816C46.0351 39.8508 45.9747 39.9033 45.9007 39.9842C45.8177 40.075 45.7691 40.1011 45.6821 40.1437C45.6261 40.1711 45.5007 40.1863 45.4189 40.208C45.3519 40.2257 45.2745 40.2516 45.2044 40.2614C45.1501 40.2691 45.0907 40.2753 45.0127 40.2852C44.8348 40.3076 44.79 40.2813 44.7386 40.2694C44.7227 40.2655 44.7031 40.2616 44.6754 40.2595C44.6477 40.2575 44.6125 40.2575 44.5762 40.2575" stroke="#3E235A" stroke-width="1.5" stroke-linecap="round"/>
<path d="M44.5762 40.2753C44.5762 40.291 44.5762 40.3127 44.5811 40.3364C44.5854 40.3576 44.7586 40.3584 44.9959 40.3564C45.1164 40.3554 45.1947 40.3308 45.4188 40.2578C45.5844 40.2039 45.6637 40.1489 45.7211 40.1034C45.788 40.0504 45.8338 40.0321 45.8715 40.0025C45.9659 39.9281 46.099 39.7949 46.1405 39.7425C46.176 39.6977 46.2195 39.6506 46.2651 39.5813C46.3023 39.5248 46.3893 39.4215 46.4481 39.3164C46.4795 39.2601 46.4965 39.1546 46.5065 39.0513C46.5085 39.0314 46.5124 39.0157 46.5144 38.8814C46.5164 38.747 46.5164 38.4944 46.5164 38.2342" stroke="#3E235A" stroke-width="1.5" stroke-linecap="round"/>
<path d="M15.6123 34.4211C16.4735 36.933 20.6506 41.6555 30.4688 40.4498" stroke="#3E235A" stroke-width="3" stroke-linecap="round" stroke-linejoin="round"/>
<path d="M30.4223 39.693C30.5229 39.5617 30.593 39.434 30.6311 39.3752C30.677 39.3044 30.7021 39.2198 30.7341 39.1468C30.7901 39.0188 30.8461 38.9419 30.8884 38.8597C30.9763 38.6888 31.0438 38.6187 31.126 38.4832C31.2034 38.3555 31.3235 38.236 31.415 38.1485C31.4872 38.0796 31.5625 38.0382 31.6203 38.009C31.6316 38.0033 31.645 38.0069 31.6604 38.0161C31.7344 38.0599 31.7561 38.1567 31.7841 38.2536C31.8151 38.3609 31.7996 38.4347 31.8099 38.5059C31.8215 38.5868 31.8325 38.6489 31.8644 38.7118C31.8796 38.7419 31.884 38.7726 31.8983 38.7932C31.9151 38.8173 31.958 38.8098 31.9919 38.8119C32.0282 38.8141 32.1771 38.8222 32.388 38.8242C32.4685 38.825 32.495 38.8303 32.6452 38.8355C32.7954 38.8407 33.0685 38.8468 33.2255 38.852C33.4152 38.8582 33.4935 38.8838 33.591 38.937C33.8175 39.0608 33.8479 39.1966 33.8717 39.2502C33.914 39.3457 33.9366 39.5194 33.9244 39.6186C33.9186 39.6651 33.8587 39.7113 33.8042 39.7617C33.7633 39.7996 33.6594 39.8408 33.5197 39.9322C33.386 40.0196 33.3335 40.1087 33.3273 40.1549C33.314 40.2541 33.3477 40.3206 33.3939 40.3877C33.4146 40.4177 33.5097 40.483 33.6352 40.5858C33.7557 40.6846 33.819 40.7181 33.8716 40.785C33.9254 40.8534 33.9243 40.9425 33.9345 40.996C33.9426 41.0383 33.9305 41.0846 33.9121 41.1256C33.8911 41.1724 33.8279 41.2101 33.7642 41.2461C33.7168 41.2729 33.6244 41.268 33.5123 41.266C33.4387 41.2646 33.3179 41.2557 33.1595 41.2577C33.0621 41.2589 32.9676 41.2863 32.8637 41.3213C32.7459 41.3609 32.6954 41.455 32.6675 41.522C32.6256 41.6221 32.7177 41.7084 32.7804 41.7885C32.8349 41.8583 32.921 41.9488 32.9905 42.101C33.0643 42.2628 32.9836 42.4125 32.9487 42.4546C32.9075 42.5043 32.8621 42.5299 32.8293 42.5443C32.7833 42.5645 32.6407 42.5589 32.4475 42.5527C32.2352 42.546 32.1828 42.4642 32.1354 42.4304C32.0517 42.3705 32.0221 42.3387 31.9707 42.3017C31.9164 42.2625 31.9007 42.209 31.8626 42.175C31.8158 42.1333 31.7384 42.0467 31.6773 41.9929C31.6151 41.938 31.5428 41.9126 31.45 41.855C31.312 41.7694 31.2401 41.748 31.1556 41.7015C31.0309 41.6329 30.8714 41.5892 30.7738 41.5451C30.7031 41.5133 30.651 41.4925 30.5957 41.4771C30.4801 41.4449 30.361 41.4102 30.29 41.3804C30.2086 41.3462 30.1179 41.3093 30.0469 41.2774C29.9535 41.2355 29.8668 41.2104 29.6809 41.1755C29.5945 41.1593 29.525 41.1445 29.4695 41.1424C29.4338 41.1411 29.3749 41.126 29.1622 41.1167C28.9965 41.1095 28.7131 41.1136 28.5498 41.1116C28.3865 41.1095 28.3519 41.1054 28.3269 41.1003C28.3019 41.0951 28.2876 41.089 28.2729 41.0827" stroke="#3E235A" stroke-width="1.5" stroke-linecap="round"/>
<path d="M29.8794 40.6628C29.8896 40.6587 29.8998 40.6546 30.0049 40.6178C30.11 40.5811 30.3098 40.5118 30.4228 40.4741C30.5359 40.4363 30.5563 40.4323 30.6534 40.3782C30.7506 40.3241 30.9238 40.2202 31.0243 40.1564C31.1247 40.0927 31.1471 40.0723 31.2035 40.0322C31.3475 39.93 31.4767 39.8416 31.5444 39.7769C31.6133 39.7112 31.7293 39.5889 31.8723 39.4847C31.9198 39.4502 31.9399 39.4927 31.9473 39.5279C31.9621 39.5985 31.9322 39.7312 31.8707 39.9304C31.8376 40.0377 31.7766 40.1499 31.7157 40.2606C31.5956 40.4788 31.5141 40.6069 31.5018 40.6501C31.4932 40.6801 31.5852 40.5938 31.772 40.3986C31.8671 40.2993 31.9792 40.2157 32.1286 40.1115C32.278 40.0072 32.4655 39.889 32.5693 39.8209C32.673 39.7529 32.6873 39.7387 32.6987 39.7415C32.7282 39.7488 32.7246 39.8428 32.6991 39.9741C32.6843 40.0505 32.6308 40.138 32.5843 40.2138C32.5377 40.2895 32.4909 40.3486 32.4158 40.4249C32.2446 40.5989 32.1113 40.6997 32.0763 40.7131C32.0603 40.7193 32.131 40.604 32.2666 40.4487C32.327 40.3796 32.3859 40.3444 32.4203 40.3224C32.4548 40.3004 32.467 40.2964 32.4478 40.3279C32.4287 40.3594 32.3777 40.4267 32.3107 40.4899C32.2437 40.5531 32.1622 40.6101 32.06 40.6691C31.9579 40.728 31.8377 40.7871 31.7084 40.8319C31.5792 40.8766 31.4447 40.9051 31.3041 40.9249C31.1635 40.9447 31.0208 40.9549 30.9381 40.9632C30.8554 40.9715 30.8371 40.9776 30.8236 40.991C30.795 41.0191 30.7935 41.0579 30.7955 41.0836C30.7966 41.0971 30.8016 41.1113 30.816 41.1207C30.8303 41.1301 30.8548 41.1341 30.9713 41.1281C31.0879 41.122 31.2957 41.1057 31.4406 41.0902C31.5854 41.0746 31.6608 41.0604 31.6996 41.0602C31.7385 41.0599 31.7385 41.0742 31.7273 41.0928C31.6936 41.1338 31.6481 41.1711 31.552 41.2152C31.4783 41.2449 31.3539 41.2898 31.2258 41.3421" stroke="#3E235A" stroke-width="1.5" stroke-linecap="round"/>
<path d="M28.9616 44.5407C28.2673 44.5407 27.1532 45.3803 26.4089 46.0442C26.1677 46.2594 26.2108 46.64 26.4875 46.8072C28.8832 48.2556 33.1811 50.7372 34.775 51.2153C36.4975 51.7321 37.2152 50.4258 37.3587 49.7081C37.5023 49.0622 37.7894 47.2967 37.7894 45.4019C37.7894 43.5072 36.641 43.8947 36.0669 44.3254C35.708 44.6124 34.8611 45.3589 34.3444 46.0478C33.8711 46.6789 33.4822 46.6356 33.3098 46.5136C33.28 46.4926 33.2529 46.4689 33.2221 46.4494C32.4174 45.9384 30.8531 44.9713 30.6841 44.9713C30.4688 44.9713 30.0382 44.5407 28.9616 44.5407Z" fill="#3E235A"/>
</svg>
