<svg width="58" height="60" viewBox="0 0 58 60" fill="none" xmlns="http://www.w3.org/2000/svg">
<path d="M6.78528 34.0432C8.4171 31.2168 11.4398 29.4797 12.7472 28.9645C16.6587 30.731 24.3871 36.3396 24.0086 44.6421C22.8868 46.5853 20.1554 47.0711 18.9299 47.0711C19.1508 47.8807 19.0624 49.5 16.9426 49.5C14.8228 49.5 15.3233 47.5863 15.8386 46.6295C15.0289 46.7031 12.7472 46.1878 10.0975 43.5381C7.44771 40.8883 6.78528 38.4594 6.78528 37.5762C5.3868 37.797 2.67817 37.7086 3.03147 35.5888C3.38477 33.469 5.68122 33.6751 6.78528 34.0432Z" fill="#FFFDF7" stroke="#3E235A" stroke-width="1.5" stroke-linecap="round" stroke-linejoin="round"/>
<path d="M10.7603 35.8097C11.6435 35.6625 13.7191 35.633 14.9557 36.6929" stroke="#3E235A" stroke-width="1.5" stroke-linecap="round" stroke-linejoin="round"/>
<path d="M16.501 38.901C16.9426 39.637 17.6934 41.5949 17.1634 43.5381" stroke="#3E235A" stroke-width="1.5" stroke-linecap="round" stroke-linejoin="round"/>
<path d="M18.3745 25.8271C17.9158 25.8448 17.5969 25.8681 17.3261 25.886C17.0122 25.9067 16.6658 26.0977 16.4648 26.163C16.2929 26.2188 16.053 26.2452 15.1908 26.3721C14.9207 26.4118 14.4515 26.4285 14.1182 26.4695C13.8863 26.4981 13.7585 26.5877 13.5874 26.6464C13.435 26.6987 13.2749 26.6938 13.0662 26.7906C12.6424 26.987 12.3215 27.0646 12.0723 27.2032C11.8967 27.3008 11.8358 27.4718 11.8327 27.5598C11.8232 27.8302 12.2935 27.9256 12.7418 28.0671C12.996 28.1472 13.2146 28.1911 13.4434 28.2587C13.8174 28.3692 14.1519 28.3919 14.343 28.4123C14.5481 28.4343 14.7356 28.5332 14.9793 28.6006C15.6189 28.7775 15.7912 28.8752 15.9711 29.0075C16.1099 29.1095 16.1514 29.2813 16.1605 29.5407C16.1669 29.7221 15.9932 29.871 15.7841 30.1242C15.503 30.4644 15.3331 30.6022 15.1323 30.7968C14.9882 30.9364 14.8198 31.1092 14.6693 31.2392C14.4526 31.4264 14.3712 31.7343 14.324 31.876C14.275 32.0229 14.2531 32.1765 14.2939 32.3002C14.4165 32.6711 15.066 32.4599 15.3809 32.5367C15.5161 32.5696 15.6147 32.5837 15.6736 32.6514C15.7844 32.7787 15.7095 33.0489 15.6683 33.2144C15.6156 33.4262 15.3331 33.7151 15.1469 33.9775C14.9946 34.1922 15.0137 34.3582 15.0487 34.4729C15.1352 34.7562 15.5082 34.6593 15.7115 34.6771C16.0848 34.7099 16.7673 34.765 17.0179 34.8713C17.0564 34.8877 17.0825 34.9359 17.1005 35.024C17.1465 35.2482 17.0077 35.5833 16.7112 35.9626C16.35 36.4248 15.9517 36.5988 15.8604 36.6959C15.7304 36.8342 15.6625 36.9761 15.6271 37.1112C15.6074 37.1864 15.6151 37.2814 15.7085 37.3295C15.9612 37.4597 16.362 37.3426 16.6683 37.2895C16.8559 37.257 16.9649 37.2481 17.1318 37.1923C17.4583 37.0832 17.8247 37.0244 18.0574 36.9448C18.3509 36.8444 18.7505 36.7532 19.0982 36.6381C19.3207 36.5644 19.541 36.5639 19.6912 36.5785C19.875 36.5964 19.954 36.7231 20.0425 36.7377C20.0949 36.7464 20.0842 36.8466 20.1486 37.0427C20.2953 37.4896 20.426 37.8428 20.4994 37.9838C20.687 38.3435 20.8731 38.6965 21.039 38.9012C21.2265 39.1325 21.5042 39.4758 21.6727 39.6323C21.8627 39.8086 22.0176 39.924 22.1856 40.1098C22.358 40.3003 22.6122 40.4427 22.7696 40.5641C22.9115 40.6736 23.0845 40.732 23.2762 40.8265C23.4469 40.9106 23.7675 40.9618 24.1235 41.0708C24.6264 41.2247 24.9414 41.3214 25.2891 41.3721C25.3954 41.3876 25.5181 41.4159 25.8614 41.4309C26.2048 41.446 26.7651 41.4459 27.0713 41.4401C27.5079 41.4318 27.7539 41.3872 27.9665 41.3458C28.3376 41.2736 28.5329 41.3044 28.8007 41.2164C28.9744 41.1592 29.1577 41.1396 29.4813 40.9779C29.9014 40.768 30.242 40.6917 30.4754 40.5474C30.5913 40.4758 30.8253 40.3502 31.2395 40.1095C31.4849 39.9669 31.7762 39.7404 31.9734 39.5883C32.4123 39.2496 32.6476 39.1174 32.8459 39.0963C33.0346 39.0762 33.255 39.1818 33.4764 39.2287C33.8716 39.3124 33.9869 39.3817 34.1401 39.4528C34.2679 39.5121 34.4461 39.67 34.6148 39.8093C34.776 39.9425 34.8891 40.0655 35.183 40.1925C35.3367 40.2589 35.4434 40.3254 35.514 40.3696C35.5751 40.4079 35.6557 40.373 36.0677 40.294C36.4439 40.2219 37.1627 40.1041 37.5705 40.0264C38.1915 39.908 38.5017 39.8306 38.7889 39.8128C39.0179 39.7985 39.2393 39.7249 39.6051 39.6654C39.7278 39.6455 39.9409 39.6244 40.4483 39.5713C40.7908 39.5355 41.3117 39.5533 41.5939 39.5591C41.9773 39.5671 42.1293 39.612 42.4726 39.7089C42.676 39.7662 43.025 39.8812 43.2901 39.9792C43.731 40.1422 43.9455 40.284 44.0571 40.3984C44.3685 40.7177 44.5349 40.973 44.7059 41.2092C44.9225 41.5083 45.0716 41.8167 45.2218 42.0435C45.3858 42.2909 45.5198 42.4354 45.6406 42.5716C45.7972 42.7482 46.0144 42.8136 46.3562 42.9343C46.7914 43.0878 47.3594 42.9498 47.489 42.8761C47.6625 42.7774 47.8603 42.5851 47.9374 42.434C48.0108 42.2903 48.0556 42.1542 48.085 41.9454C48.1537 41.4563 47.9615 41.2875 47.8411 41.0316C47.7149 40.7634 47.543 40.5973 47.4782 40.5267C47.4186 40.4616 47.2143 40.2566 46.835 39.9418C46.466 39.6356 46.1872 39.4887 46.049 39.4182C45.9736 39.3797 45.8934 39.3244 45.6907 39.2419C45.4881 39.1594 45.1671 39.0485 44.2575 38.9096C43.3478 38.7708 41.8593 38.6073 40.2578 38.5027C38.6563 38.3981 36.9869 38.3572 35.978 38.3566C34.9692 38.356 34.6715 38.3968 33.3098 38.6455C31.9482 38.8942 29.5316 39.3495 28.2137 39.5899C26.8958 39.8303 26.7499 39.842 26.3858 39.9034C26.0217 39.9649 25.4438 40.0758 24.8221 40.1271C24.2005 40.1784 23.5526 40.1667 23.1721 40.1549C22.5538 40.1356 22.3904 40.0839 22.1256 40.0546C21.933 40.0332 21.7945 40.0311 21.7503 40.0921C21.6012 40.2978 21.7528 40.5495 21.8026 40.6024C21.9503 40.759 22.0943 40.8736 22.2594 41.0267C22.404 41.161 22.5892 41.3037 23.2215 41.6041C23.4974 41.7352 23.7737 41.7934 23.9869 41.8232C24.2049 41.8538 24.4055 41.8761 24.9315 41.9028C25.0949 41.911 25.2521 41.9465 25.9637 41.9441C26.6753 41.9416 27.9361 41.9066 28.8512 41.8447C29.7663 41.7829 30.2975 41.6954 30.6412 41.6298C30.9849 41.5643 31.125 41.5234 31.3285 41.4878C31.7921 41.4066 32.147 41.3637 32.3 41.3136C32.4271 41.2721 32.5715 41.2399 32.8062 41.1694C33.4707 40.9699 33.6976 40.8976 33.9364 40.789C34.0516 40.7366 34.2747 40.6859 34.5953 40.5917C35.1677 40.4235 35.402 40.3556 35.6432 40.2876C35.8779 40.2214 36.1439 40.1377 36.3393 40.0518C36.454 40.0015 36.5401 39.9074 36.7654 39.8077C37.2751 39.5819 37.7015 39.5533 37.8102 39.5445C37.9501 39.5333 38.2422 39.5002 38.5082 39.5265C38.5644 39.532 38.4356 39.6053 38.2236 39.6615C38.0116 39.7178 37.7139 39.7762 36.7608 39.8996C35.8078 40.0231 34.2084 40.2099 33.259 40.3411C32.3096 40.4724 32.0586 40.5424 31.7074 40.6077C31.3563 40.673 30.9127 40.7313 30.6462 40.7614C30.1512 40.8173 29.879 40.8269 29.6282 40.865C29.3639 40.9051 28.8729 40.9853 28.5785 41.0273C28.4468 41.046 28.3334 41.0802 28.254 41.1243C28.163 41.1749 27.9805 41.204 27.0826 41.2393C26.3079 41.2699 24.8831 41.2514 24.1319 41.2485C23.2741 41.2451 23.1333 41.1983 22.8801 41.1191C22.6509 41.0473 22.4612 40.9804 22.3168 40.8774C22.0616 40.6956 21.8661 40.6213 21.7004 40.4559C21.5786 40.3344 21.3999 40.2145 21.264 40.0961C21.1189 39.9697 20.9403 39.7606 20.8216 39.6245C20.7397 39.5305 20.6626 39.4125 20.5477 39.306C20.4289 39.196 20.3265 39.0764 20.2174 38.9699C20.0726 38.8287 19.9197 38.5695 19.7345 38.3048C19.347 37.7512 19.3593 37.5495 19.2798 37.39C19.1977 37.2251 19.1181 37.0543 18.9383 36.8917C18.7647 36.7348 18.3829 36.6004 18.0629 36.4318C17.8385 36.3108 17.6733 36.2045 17.585 36.1575C17.5435 36.1338 17.5084 36.1104 17.437 36.051" stroke="#C7B5F9" stroke-width="5" stroke-linecap="round"/>
<path d="M48.1849 40.2514C48.1849 40.2617 48.2287 40.4011 48.3002 40.6415C48.353 40.819 48.3618 40.9255 48.389 40.9891C48.4252 41.0734 48.4348 41.2139 48.4284 41.366C48.4211 41.5388 48.2945 41.6128 48.2203 41.6716C48.1462 41.7302 48.0627 41.8082 47.7916 42.0223C47.5528 42.2109 47.5081 42.2508 47.4405 42.2978C47.3629 42.3518 47.189 42.4301 46.9472 42.5432C46.7692 42.6265 46.6646 42.6832 46.5558 42.6976C46.3764 42.7212 46.2426 42.6835 46.2037 42.6562C46.1016 42.5848 46.1148 42.3147 46.1355 42.1514C46.1448 42.0784 46.2237 41.9758 46.3546 41.7982C46.4348 41.6894 46.5603 41.5561 46.6381 41.4715C46.7444 41.3562 46.8587 41.2727 47.0082 41.17C47.1311 41.0855 47.2263 41.0508 47.3222 41.0237C47.4802 40.9789 47.6167 40.918 47.7399 40.8973C47.8147 40.8848 47.9121 40.856 48.0992 40.8363C48.2862 40.8166 48.5595 40.8037 48.7441 40.788C49.0174 40.7648 49.1324 40.7357 49.1856 40.7306C49.2432 40.725 49.3248 40.6916 49.4454 40.6579C49.7122 40.5834 49.8093 40.5145 49.8654 40.4807C49.8933 40.4639 49.9266 40.4443 49.9784 40.3937C50.0657 40.3085 50.202 40.1742 50.3191 40.0195C50.4223 39.8831 50.4212 39.7416 50.4799 39.4779C50.5029 39.3743 50.4943 39.2962 50.5022 39.1281C50.5084 38.9937 50.5048 38.759 50.5074 38.6188C50.51 38.4786 50.5151 38.44 50.5178 38.3388C50.5204 38.2377 50.5204 38.0753 50.5256 37.9633C50.5373 37.7093 50.5672 37.6426 50.5957 37.6114C50.6096 37.5963 50.6192 37.5802 50.7598 37.5749C50.9005 37.5695 51.1711 37.5746 51.3183 37.576C51.5366 37.578 51.6398 37.5174 51.7373 37.4734C51.8562 37.4197 51.9523 37.3509 52.1935 37.1682C52.3886 37.0205 52.4809 36.872 52.5134 36.8174C52.5443 36.7654 52.5799 36.7106 52.6329 36.5967C52.6709 36.5152 52.7401 36.39 52.7862 36.294C52.8324 36.198 52.8556 36.1361 52.883 36.0114C52.9104 35.8868 52.9413 35.7012 52.9508 35.3555C52.9603 35.0099 52.9474 34.5098 52.9279 34.1516C52.9084 33.7935 52.8826 33.5924 52.8693 33.4618C52.856 33.277 52.8509 33.1954 52.8431 33.1254C52.8404 33.0812 52.8404 33.0194 52.8404 32.9556" stroke="#C7B5F9" stroke-width="5" stroke-linecap="round"/>
<path d="M51.5143 27.4826C51.5229 27.474 51.5596 27.4502 51.615 27.4209C51.6372 27.4091 51.651 27.4109 51.706 27.455C51.7611 27.4991 51.858 27.5874 52.0531 27.7361C52.2483 27.8849 52.5388 28.0915 52.6982 28.2033C52.8756 28.3278 52.9399 28.3692 53.0858 28.4956C53.1912 28.5869 53.3501 28.7447 53.4559 28.8503C53.5616 28.956 53.6068 29.0076 53.672 29.087C53.8229 29.2704 53.9163 29.3976 53.9487 29.4539C54.0526 29.6341 54.1116 29.7535 54.1511 29.8453C54.2002 29.9596 54.2531 30.0842 54.3151 30.2979C54.3339 30.3625 54.3251 30.4355 54.3219 30.4764C54.3186 30.5173 54.3122 30.5259 54.2744 30.5411C54.2367 30.5563 54.1678 30.5778 54.0527 30.591C53.9376 30.6043 53.7783 30.6086 53.6511 30.6097C53.4335 30.6117 53.321 30.6022 53.2765 30.5914C53.221 30.5778 53.1667 30.5674 53.1308 30.576C53.103 30.5826 53.1207 30.6324 53.1283 30.6585C53.1478 30.7256 53.2725 30.7412 53.4453 30.7564C53.5747 30.7678 53.7903 30.7587 53.9345 30.749C54.2351 30.7287 54.3224 30.6761 54.4161 30.6696C54.4958 30.6639 54.5638 30.637 54.6627 30.6012C54.7851 30.5569 54.894 30.4852 54.951 30.4241C54.9724 30.4012 54.9945 30.3331 55.0195 30.2086C55.0521 30.0463 55.0035 29.8854 54.9688 29.779C54.9463 29.71 54.8972 29.6331 54.7664 29.4784C54.6764 29.3719 54.513 29.2312 54.4235 29.1515C54.2663 29.0116 54.1212 28.9458 54.0504 28.8905C53.9569 28.8174 53.884 28.7936 53.7589 28.7342C53.6528 28.6839 53.453 28.6081 53.336 28.5628C53.2189 28.5175 53.1888 28.5089 53.0872 28.4678C52.9856 28.4268 52.8134 28.3537 52.474 28.2525C52.1345 28.1513 51.6331 28.0243 51.3694 27.9567C51.1057 27.8892 51.0949 27.8849 51.0708 27.8804" stroke="#C7B5F9" stroke-width="5" stroke-linecap="round"/>
<path d="M52.688 24.4697C52.7139 24.3595 52.7488 24.155 52.7694 24.0678C52.7921 23.9722 52.7858 23.8616 52.788 23.7767C52.7883 23.7634 52.8311 23.9333 52.8887 24.195C52.9409 24.4324 53.0051 24.5019 53.0529 24.592C53.1172 24.713 53.1985 24.8753 53.2593 25.0036C53.2806 25.0485 53.3028 25.0415 53.3289 25.0274C53.3917 24.9936 53.483 24.9201 53.5829 24.8398C53.6515 24.7847 53.7287 24.72 53.8199 24.6592C53.9345 24.5829 54.0724 24.4895 54.1464 24.4535C54.2159 24.4196 54.266 24.3828 54.4546 24.1987C54.5806 24.0757 54.5879 23.9895 54.6031 23.934C54.6069 23.9202 54.6053 23.9047 54.5967 23.8938C54.5775 23.8692 54.4197 23.8718 54.2036 23.8805C54.0225 23.8877 53.9208 23.9218 53.8274 23.9521C53.769 23.9711 53.6304 24.0883 53.5273 24.1922C53.5016 24.2182 53.4924 24.2478 53.4923 24.2598C53.4922 24.2832 53.5507 24.209 53.6254 24.1656C53.8411 24.0405 54.0051 24.0892 54.0541 24.1174C54.1146 24.1521 54.1812 24.2325 54.2053 24.3409C54.2262 24.4347 54.1448 24.5497 54.0297 24.7222C53.9912 24.78 53.9189 24.8474 53.8213 24.9375C53.7491 25.0041 53.6904 25.0455 53.6169 25.1018C53.4923 25.1972 53.3795 25.2477 53.3437 25.2727C53.3169 25.2914 53.2235 25.3323 53.0943 25.4039C52.8739 25.5261 52.6683 25.6783 52.7018 25.674C52.8262 25.6582 52.9246 25.5828 52.9996 25.5599C53.1083 25.5269 53.2179 25.4915 53.3159 25.4535C53.3973 25.422 53.4659 25.3807 53.528 25.335C53.5751 25.3003 53.6527 25.2504 53.7518 25.1559C53.841 25.0707 54.0154 24.9249 54.0835 24.8437C54.1188 24.8017 54.1314 24.7373 54.1466 24.628C54.1739 24.4328 54.1424 24.2915 54.1283 24.272C54.093 24.2231 54.0513 24.1785 53.972 24.1513C53.8875 24.1222 53.8058 24.1284 53.7404 24.1132C53.6636 24.0953 53.5841 24.0914 53.4656 24.0676C53.3567 24.0457 53.2862 24.0458 53.15 24.0339C52.8814 24.0103 52.7205 24.0089 52.7562 23.9904C52.9054 23.9133 53.0942 23.8373 53.1562 23.784C53.2055 23.7416 53.2854 23.6938 53.3497 23.6567C53.4142 23.6195 53.4963 23.6457 53.8289 23.7161C53.9786 23.7478 54.1026 23.7608 54.1982 23.7944C54.2966 23.829 54.3094 23.9302 54.34 24.0052C54.3704 24.0795 54.3857 24.1498 54.3848 24.4705C54.3843 24.6248 54.2969 24.663 54.2394 24.7345C54.1134 24.8911 54.0621 24.9238 54.0207 24.9684C53.9626 25.031 53.8841 25.0995 53.8338 25.1543C53.8139 25.176 53.7256 25.2429 53.6084 25.3439C53.5451 25.3984 53.5055 25.4174 53.43 25.4681C53.2726 25.5855 53.1534 25.6696 53.1154 25.688C53.0947 25.6999 53.0711 25.7171 53.0336 25.7348" stroke="#C7B5F9" stroke-width="5" stroke-linecap="round"/>
<path d="M51.6509 23.5371C51.6423 23.5284 51.569 23.4853 51.427 23.4137C51.1883 23.2933 51.0839 23.3024 50.9796 23.2849C50.924 23.2756 50.8664 23.2741 50.8154 23.2524C50.7337 23.2177 50.7141 23.1546 50.6869 23.0971C50.6422 23.0028 50.6813 22.8943 50.7192 22.7648C50.7711 22.5876 50.8334 22.4918 50.8465 22.4372C50.8707 22.3374 51.0268 22.2416 51.1201 22.1819C51.1831 22.1415 51.3218 22.1266 51.4516 22.0428C51.5255 21.9952 51.5788 21.9156 51.6571 21.8828C51.7491 21.8443 51.8463 21.835 51.9688 21.8241C52.1156 21.811 52.1659 21.7634 52.2073 21.7317C52.2277 21.7161 52.1626 21.7584 52.0204 21.8257C51.9265 21.8702 51.8125 21.8848 51.5467 21.899C51.3543 21.9092 51.0441 21.898 50.8468 21.8872C50.5732 21.8722 50.4686 21.8307 50.4122 21.7993C50.2944 21.7337 50.288 21.6331 50.2792 21.5699C50.2738 21.5308 50.2705 21.4077 50.2834 21.2243C50.2937 21.079 50.3508 20.9831 50.3962 20.8965C50.5042 20.6907 50.5443 20.6221 50.5704 20.5678C50.6071 20.4913 50.6205 20.3939 50.6551 20.2442C50.6744 20.1608 50.7139 20.0681 50.7291 20.0015C50.7441 19.936 50.7747 19.8011 50.804 19.6577C50.8149 19.6044 50.8225 19.5917 50.8291 19.3053C50.8356 19.0189 50.8421 18.4593 50.8443 18.1603C50.8468 17.8398 50.8336 17.7961 50.8152 17.7527C50.8058 17.7307 50.7946 17.7093 50.7762 17.7004C50.7319 17.6958 50.6773 17.7002 50.6284 17.697C50.6076 17.6937 50.5947 17.6873 50.5814 17.6806" stroke="#C7B5F9" stroke-width="5" stroke-linecap="round"/>
<path d="M47.1548 13.0992C47.1591 13.0992 47.1742 13.0992 47.3348 13.0691C47.4828 13.0413 47.7643 12.9787 47.9354 12.9476C48.1566 12.9075 48.2307 12.9123 48.303 12.9004C48.4415 12.8776 48.6019 12.8709 48.7235 12.886C48.8134 12.8972 48.8395 12.9859 48.8697 13.0573C48.921 13.1782 48.9656 13.2664 48.9753 13.3011C49.0074 13.4152 48.9853 13.5836 48.9495 13.6597C48.9225 13.7173 48.8659 13.8073 48.8127 13.9137C48.778 13.9831 48.7397 14.0746 48.7115 14.2209C48.6967 14.2974 48.7047 14.3823 48.7187 14.4685C48.7328 14.5548 48.7586 14.6409 48.8009 14.7175C48.8433 14.7942 48.9014 14.8587 49.167 15.0039C49.4326 15.1491 49.9039 15.3729 50.1779 15.499C50.4519 15.625 50.5143 15.6465 50.5616 15.6598C50.6379 15.6812 50.713 15.6925 50.7954 15.711C50.8684 15.7273 50.9951 15.7489 51.1665 15.7945C51.3191 15.835 51.4282 15.9053 51.5052 15.9736C51.5753 16.0358 51.6219 16.101 51.6814 16.1972C51.723 16.2645 51.7817 16.3731 51.8279 16.4672C51.874 16.5614 51.9041 16.6389 51.9325 16.7294C51.9922 16.9194 52.0134 17.0898 52.0166 17.207C52.0181 17.2597 52.0263 17.2983 52.0286 17.4636C52.0308 17.6288 52.0287 17.9193 52.0243 18.0808C52.0184 18.3018 51.9983 18.3488 51.9571 18.4908C51.8941 18.7082 51.8374 18.7772 51.8135 18.8325C51.7924 18.8814 51.7679 18.9272 51.7472 18.963C51.7262 18.9995 51.6403 19.1521 51.5143 19.3553C51.4622 19.4393 51.4245 19.4813 51.3757 19.5551C51.3162 19.6288 51.2571 19.6923 51.1986 19.7422C51.166 19.7663 51.1272 19.7878 51.0743 19.81" stroke="#C7B5F9" stroke-width="3" stroke-linecap="round"/>
<path d="M42.5665 11.3612C42.5838 11.3612 42.6938 11.3569 42.8696 11.3428C42.9447 11.3368 42.9895 11.318 43.0699 11.2812C43.2665 11.191 43.4205 11.1006 43.4996 11.0507C43.5394 11.0256 43.5809 11.0051 43.7279 10.9176C43.8748 10.8301 44.1266 10.6773 44.3812 10.5513C44.6357 10.4252 44.8854 10.3305 45.0603 10.2731C45.2351 10.2157 45.3277 10.1985 45.4335 10.1907C45.6549 10.1744 45.8053 10.2023 45.8682 10.2305C45.9332 10.2597 46.0289 10.3 46.1536 10.3672C46.3913 10.4955 46.4858 10.5285 46.5272 10.5891C46.573 10.6561 46.5751 10.7435 46.5957 10.8106C46.6075 10.8493 46.6141 10.8993 46.6186 11.1303C46.623 11.3614 46.623 11.7724 46.6391 12.0541C46.6553 12.3358 46.6876 12.4757 46.7182 12.5725C46.7657 12.7228 46.825 12.7957 46.8619 12.8413C46.8785 12.8618 46.8944 12.8739 46.8753 12.8074C46.8561 12.7409 46.8023 12.5945 46.7639 12.4836C46.7011 12.3027 46.6774 12.1877 46.6558 12.0913C46.6267 11.9614 46.5149 11.8378 46.3655 11.7315C46.2844 11.6738 46.1687 11.6467 46.0766 11.6225C45.9846 11.5982 45.9136 11.5875 45.7522 11.5873C45.5908 11.5871 45.3411 11.5979 44.9768 11.6605C44.6126 11.7231 44.1413 11.8371 43.8447 11.9206C43.5481 12.0041 43.4404 12.0536 43.2408 12.1631C43.0412 12.2725 42.7528 12.4404 42.5838 12.5322C42.4148 12.6241 42.3739 12.6348 42.3507 12.6339C42.3199 12.6327 42.3187 12.4755 42.3004 12.1787C42.2902 12.0124 42.2456 11.8173 42.2246 11.6841C42.1935 11.4872 42.1884 11.3854 42.1786 11.2838C42.1512 10.9994 42.1276 10.9332 42.0971 10.8766C42.0525 10.7938 41.9971 10.7354 41.971 10.6691C41.957 10.6335 41.9558 10.5316 41.9395 10.3334C41.9298 10.2152 41.9339 10.06 41.9307 9.96293C41.9263 9.83118 41.9144 9.768 41.9122 9.71485C41.9103 9.66775 41.9013 9.49533 41.8518 9.26708C41.8323 9.17712 41.7033 9.18947 41.6319 9.19808C41.5175 9.21187 41.415 9.28469 41.3129 9.35743C41.2553 9.39848 41.2297 9.42633 41.1693 9.48027C41.034 9.60098 40.9471 9.70885 40.9136 9.76292C40.8902 9.80071 40.8478 9.85572 40.8042 9.93942C40.7605 10.0231 40.7153 10.1329 40.6888 10.2099C40.6623 10.2869 40.6558 10.3278 40.6331 10.4381C40.6104 10.5485 40.5717 10.7271 40.5421 10.9612C40.5124 11.1953 40.4931 11.4793 40.4809 11.6332C40.4645 11.8022 40.4515 11.8371 40.433 11.8707C40.4232 11.885 40.4125 11.8936 40.4014 11.9025" stroke="#C7B5F9" stroke-width="3" stroke-linecap="round"/>
<path d="M40.0575 10.124C40.02 10.124 39.9424 10.1077 39.8883 10.069C39.8359 10.0315 39.8034 9.87084 39.761 9.60787C39.7379 9.46495 39.7466 9.29826 39.7641 9.13136C39.7816 8.96445 39.8165 8.80122 39.8369 8.69498C39.8572 8.58874 39.8619 8.54444 39.8783 8.44583C39.92 8.19518 39.9515 8.00917 39.9538 7.94575C39.9563 7.87736 39.9773 7.79733 39.9938 7.63925C40.0056 7.526 39.9963 7.3436 39.9869 7.22775C39.9739 7.06608 39.9328 7.00096 39.8976 6.94701C39.7885 6.77949 39.6222 6.75117 39.4601 6.70888C39.384 6.68901 39.2591 6.67839 39.1337 6.66998C38.8851 6.65332 38.7153 6.6709 38.6249 6.69669C38.5196 6.72675 38.4303 6.7675 38.3131 6.80608C38.2316 6.83294 38.112 6.89363 37.8852 7.0134C37.6583 7.13317 37.3295 7.31506 37.0249 7.50436C36.7203 7.69366 36.4498 7.88488 36.1903 8.09881C35.9309 8.31274 35.6907 8.54359 35.4819 8.76861C35.273 8.99364 35.1028 9.20583 34.9825 9.34546C34.8621 9.48509 34.7968 9.54572 34.7177 9.6026C34.6386 9.65948 34.5477 9.71079 34.4414 9.76286C34.2188 9.87189 34.0586 9.92376 33.9823 9.93899C33.8921 9.95699 33.7577 9.98269 33.6141 9.98153C33.5404 9.98093 33.5026 9.97096 33.4009 9.89278C33.3129 9.82517 33.1709 9.67701 33.0777 9.58275C32.9846 9.48848 32.9496 9.44651 32.9001 9.37592C32.7838 9.21003 32.6948 9.08083 32.6221 9.00466C32.5091 8.88633 32.4333 8.78398 32.3886 8.73706C32.3321 8.67762 32.2849 8.6004 32.0828 8.31542C31.9054 8.06534 31.5892 7.59205 31.3652 7.28178C31.1411 6.9715 31.0222 6.83625 30.9516 6.75958C30.8326 6.6303 30.7517 6.57932 30.675 6.5193C30.6113 6.46943 30.5069 6.39829 30.3926 6.33674C30.2043 6.23532 30.1392 6.24241 30.0826 6.22354C30.0459 6.21133 29.9838 6.19535 29.8806 6.17415C29.7337 6.14396 29.5486 6.20425 29.3968 6.26894C29.2777 6.31967 29.2442 6.40917 29.1242 6.59699C29.0794 6.66715 29.0514 6.77492 29.0124 6.98867C28.9734 7.20242 28.9337 7.52422 28.9156 7.83573C28.8975 8.14724 28.9022 8.43873 28.9163 8.64485C28.9303 8.85097 28.9536 8.9629 28.9878 9.07885C29.0663 9.3114 29.1399 9.46651 29.1881 9.52533C29.2084 9.54918 29.22 9.56084 29.2321 9.57285" stroke="#C7B5F9" stroke-width="3" stroke-linecap="round"/>
<path d="M26.5831 12.0952C26.5753 12.103 26.5246 12.107 26.446 12.1022C26.3965 12.0991 26.3689 12.0619 26.3443 12.0296C26.3207 11.9985 26.304 11.9227 26.2697 11.807C26.2311 11.6766 26.1801 11.5862 26.1526 11.5293C26.1377 11.4983 26.1252 11.4608 26.0948 11.36C26.0644 11.2591 26.0177 11.0956 25.9878 10.9763C25.9406 10.7882 25.9244 10.6875 25.9077 10.6306C25.8903 10.5714 25.8695 10.4404 25.8224 10.2618C25.7839 10.1156 25.7376 10.0326 25.7092 9.9826C25.6441 9.86812 25.6137 9.79865 25.5754 9.73269C25.5439 9.67838 25.451 9.64326 25.3828 9.61942C25.3522 9.60875 25.2331 9.65635 25.0739 9.72508C25.0125 9.7516 24.9965 9.77435 24.9583 9.83791C24.92 9.90148 24.8616 10.0086 24.8199 10.09C24.7781 10.1714 24.7547 10.224 24.7193 10.402C24.6839 10.5799 24.6372 10.8817 24.6131 11.1179C24.5891 11.3542 24.5891 11.5158 24.5852 11.4034C24.5813 11.2909 24.5735 10.8996 24.5724 10.6737C24.5713 10.4478 24.5771 10.3991 24.5889 10.3439C24.6325 10.1394 24.6852 10.068 24.7207 10.0119C24.7591 9.95116 24.8189 9.92632 24.907 9.89968C25.047 9.85739 25.2021 9.91422 25.3304 9.95142C25.5053 10.0021 25.6116 10.0519 25.6312 10.0706C25.6544 10.0927 25.6921 10.1109 25.78 10.1695C25.8486 10.2153 25.973 10.2826 26.0556 10.3265C26.1752 10.39 26.2446 10.4098 26.3024 10.4216C26.4196 10.4455 26.5936 10.4434 26.7087 10.4336C26.7777 10.4277 26.8325 10.412 26.9161 10.3571C27.0208 10.2882 27.1215 10.2019 27.2277 10.1055C27.2802 10.0578 27.3261 9.99723 27.422 9.89363C27.4908 9.81925 27.5918 9.6927 27.6917 9.55258C27.7916 9.41247 27.885 9.26061 27.9731 9.08991C28.0611 8.91921 28.1409 8.73426 28.1889 8.62925C28.2368 8.52423 28.2504 8.50477 28.2662 8.46456C28.282 8.42436 28.2995 8.364 28.4039 8.1684C28.5084 7.97281 28.6991 7.64379 28.8354 7.44801C28.9716 7.25224 29.0476 7.19967 29.1169 7.15604C29.2443 7.07578 29.3515 7.01602 29.4291 6.96691C29.4856 6.93109 29.595 6.9136 29.7266 6.89296C29.8612 6.87185 29.977 6.92511 30.0664 6.98396C30.2021 7.07335 30.2269 7.17065 30.2564 7.23961C30.2813 7.29762 30.2978 7.35182 30.3027 7.40173C30.3105 7.48047 30.2726 7.62438 30.2264 7.80396C30.2049 7.88753 30.1977 7.95823 30.1781 8.03912C30.1363 8.21141 30.0798 8.34076 30.0503 8.41436C30.0368 8.44785 30.0402 8.47822 30.0402 8.48353C30.0402 8.48884 30.0402 8.46937 30.0646 8.29873C30.0889 8.12808 30.1376 7.80685 30.1626 7.61801C30.1877 7.38244 30.1916 7.30315 30.1975 7.24525C30.1995 7.21849 30.1995 7.19708 30.1995 7.17501" stroke="#C7B5F9" stroke-width="3" stroke-linecap="round"/>
<path d="M31.0273 7.50243C31.0221 7.4533 31.0117 7.34402 30.9456 7.07906C30.9109 6.93992 30.8193 6.83644 30.7555 6.69845C30.6602 6.49245 30.5303 6.38838 30.4677 6.33612C30.4083 6.28655 30.299 6.19856 30.057 6.05648C29.9607 5.99993 29.8562 6.00016 29.6001 6C29.5237 5.99995 29.3958 6.08796 29.224 6.18427C29.147 6.22748 29.0827 6.27816 28.9866 6.37944C28.8856 6.486 28.8117 6.57515 28.7714 6.63623C28.6811 6.77327 28.5956 6.95267 28.5318 7.11761C28.4883 7.23015 28.4549 7.30699 28.4276 7.36265C28.3784 7.46331 28.3585 7.55945 28.3146 7.68744C28.2791 7.79084 28.2036 7.96752 28.1407 8.1107C28.0314 8.35934 27.9627 8.49158 27.9407 8.54485C27.9209 8.59269 27.8641 8.69928 27.8029 8.84625C27.7338 9.01245 27.679 9.19421 27.6334 9.30775C27.6119 9.36122 27.5622 9.5165 27.4815 9.71429C27.4514 9.78797 27.4472 9.80896 27.3517 9.92785C27.2563 10.0467 27.0707 10.2633 26.8397 10.4895C26.6088 10.7158 26.3381 10.9452 26.1214 11.1149C25.9046 11.2847 25.7499 11.3878 25.5878 11.4847C25.4256 11.5817 25.2606 11.6693 25.1486 11.7145C25.0365 11.7596 24.9824 11.7596 24.9378 11.7493C24.7841 11.7138 24.6592 11.6117 24.4717 11.475C24.3903 11.4156 24.1964 11.323 23.97 11.1916C23.8213 11.1052 23.6568 11.0438 23.486 10.9671C23.3523 10.907 23.2191 10.8251 23.0646 10.7575C22.9802 10.7206 22.8259 10.6774 22.5877 10.6174C22.3495 10.5574 22.0299 10.4878 21.7054 10.4506C21.3809 10.4135 21.0613 10.4109 20.8683 10.4134C20.6183 10.4167 20.5111 10.4446 20.4202 10.4667C20.3455 10.4848 20.2534 10.5147 20.143 10.5809C20.0291 10.6491 19.9641 10.749 19.9083 10.8397C19.8756 10.8929 19.8447 10.9666 19.8159 11.103C19.787 11.2394 19.7638 11.4379 19.7544 11.6046C19.7451 11.7713 19.7502 11.9002 19.7593 11.9975C19.7743 12.1575 19.8255 12.2927 19.8775 12.4239C19.9172 12.5239 19.9608 12.6751 20.0478 12.8713C20.0898 12.9661 20.1425 13.0443 20.2425 13.2504C20.3425 13.4565 20.492 13.7865 20.5754 13.9861C20.682 14.241 20.7031 14.3499 20.7395 14.4872C20.7639 14.5793 20.7758 14.7224 20.7839 14.8793C20.7919 15.0361 20.7893 15.2036 20.7789 15.3312C20.7618 15.5424 20.7268 15.6417 20.7138 15.6754C20.6984 15.7155 20.6413 15.7768 20.5207 15.8625C20.3528 15.9819 20.1778 16.0166 20.0933 16.0426C19.9731 16.0796 19.8808 16.0482 19.7703 16.0117C19.7063 15.9905 19.5459 15.9933 19.3416 15.9908C19.1767 15.9887 19.0844 15.9621 18.7985 15.9103C18.687 15.8901 18.5973 15.8684 18.4832 15.8606C18.4177 15.8562 18.3381 15.8374 18.2131 15.8295C17.9211 15.8108 17.7274 15.8241 17.673 15.828C17.5929 15.8337 17.4882 15.8474 17.3894 15.8747C17.3234 15.893 17.2022 15.9046 17.0487 15.9359C16.9633 15.9532 16.7707 15.9903 16.5078 16.0631C16.3407 16.1094 16.2851 16.1702 16.2263 16.2132C16.1147 16.2948 16.0192 16.493 15.9659 16.584C15.917 16.6677 15.902 16.7689 15.898 16.9729C15.8963 17.061 15.9252 17.1282 15.9488 17.209C15.9735 17.2938 16.037 17.4609 16.0815 17.5683C16.1179 17.6336 16.1597 17.6804 16.1701 17.7116C16.1753 17.7273 16.1804 17.7428 16.2014 17.7743" stroke="#C7B5F9" stroke-width="3" stroke-linecap="round"/>
<path d="M17.0004 16.9579C17.0124 17.001 17.022 17.1824 17.0471 17.3551C17.0619 17.4571 17.1109 17.5341 17.1086 17.7404C17.1072 17.8715 17.0368 17.9907 16.9732 18.0807C16.9297 18.1424 16.8829 18.1833 16.8314 18.2217C16.779 18.2607 16.6409 18.2771 16.4788 18.3023C16.3475 18.3227 16.2392 18.3754 16.0163 18.4761C15.7742 18.5855 15.6164 18.6713 15.5805 18.6892C15.5259 18.7164 15.3415 18.8077 15.0904 18.9038C14.9275 18.9661 14.8021 19.0172 14.6555 19.0497C14.5876 19.0648 14.466 19.0894 14.31 19.1133C14.2049 19.1295 14.11 19.1567 13.9986 19.1675C13.8946 19.1776 13.7999 19.1759 13.6898 19.1915C13.5313 19.2138 13.4081 19.2456 13.3386 19.2719C13.2516 19.3049 13.1607 19.356 13.0351 19.4158C12.9556 19.4536 12.85 19.5184 12.7508 19.5919C12.6517 19.6654 12.5636 19.7486 12.4921 19.8237C12.3635 19.9585 12.2977 20.0672 12.2641 20.1665C12.2166 20.307 12.1944 20.4491 12.1655 20.6581C12.1441 20.8135 12.1557 21.074 12.1581 21.2278C12.1611 21.4222 12.1868 21.5018 12.2144 21.5749C12.2384 21.6384 12.2469 21.7061 12.284 21.8006C12.3432 21.9514 12.4126 22.0809 12.4594 22.1482C12.5154 22.2287 12.6261 22.3068 12.7475 22.4041C12.7956 22.4426 12.8751 22.496 12.956 22.5598C13.1215 22.6905 13.2392 22.7853 13.3075 22.8188C13.3629 22.846 13.417 22.8862 13.527 22.9483C13.6028 22.9911 13.7131 23.0675 13.8159 23.146C13.9187 23.2244 14.0091 23.3053 14.1068 23.4112C14.2046 23.5171 14.3069 23.6456 14.4286 23.7748C14.5502 23.904 14.6882 24.0301 14.7879 24.1105C14.9375 24.2313 15.0439 24.2823 15.1254 24.3434C15.2104 24.4072 15.2961 24.4769 15.3825 24.5321C15.4534 24.5774 15.5768 24.6736 15.7341 24.7793C15.8109 24.8309 15.8967 24.89 16.0083 24.9729C16.0764 25.0234 16.1731 25.056 16.3061 25.1303C16.4576 25.2151 16.6058 25.2628 16.7279 25.306C16.8751 25.3581 16.9906 25.3112 17.0385 25.2766C17.0695 25.2541 17.1054 25.211 17.1595 25.1057C17.2136 25.0004 17.2826 24.8315 17.3253 24.6874C17.3679 24.5433 17.3822 24.4291 17.3872 24.3132C17.3922 24.1972 17.3874 24.083 17.3528 23.9362C17.3183 23.7893 17.254 23.6133 17.2019 23.4928C17.122 23.3081 17.0321 23.2041 16.9363 23.101C16.8829 23.0437 16.812 22.9838 16.7383 22.9269C16.6647 22.8701 16.5886 22.8201 16.3722 22.698C16.1557 22.5759 15.8012 22.3832 15.6091 22.2709C15.3911 22.1434 15.3617 22.0911 15.2686 22.0314C15.1938 21.9834 15.0566 21.9099 14.9535 21.8457C14.8503 21.7815 14.7837 21.7315 14.6471 21.6558C14.5105 21.5801 14.3059 21.4802 14.16 21.4192C14.0142 21.3582 13.9333 21.3392 13.8416 21.3068C13.6468 21.2378 13.5376 21.1731 13.5232 21.142C13.5 21.092 13.5278 21.0147 13.5506 20.9345C13.5758 20.8456 13.6833 20.6982 13.8606 20.5111C13.9465 20.4204 14.0475 20.362 14.1441 20.3039C14.2407 20.2459 14.3358 20.1959 14.8 20.0595C15.2642 19.9232 16.0945 19.7019 16.5496 19.5749C17.0047 19.4478 17.0594 19.4216 17.1149 19.3998C17.2236 19.3571 17.322 19.3204 17.4059 19.2748C17.4916 19.2283 17.5934 19.1859 17.6965 19.1224C17.8952 19.0001 18.0093 18.8977 18.0706 18.8459C18.0863 18.8326 18.0819 18.8631 17.7535 19.3143C17.4251 19.7655 16.7756 20.641 16.4244 21.1241C16.0731 21.6073 16.0398 21.6715 16.037 21.7082C16.0341 21.7448 16.0626 21.752 16.1427 21.7295C16.2229 21.707 16.3537 21.6546 16.9196 21.297C17.4854 20.9393 18.4822 20.278 19.0849 19.8587C19.6877 19.4395 19.8661 19.2825 19.9913 19.154C20.1166 19.0255 20.1832 18.9304 20.2258 18.8564C20.2944 18.7373 20.3189 18.6572 20.3346 18.6461C20.3451 18.6387 20.3147 18.7088 20.262 18.7999C20.2094 18.8911 20.1238 19.0219 20.0392 19.1381C19.9546 19.2543 19.8738 19.3518 19.775 19.4354C19.6762 19.519 19.562 19.5856 19.4663 19.633C19.3008 19.715 19.1638 19.7335 19.0689 19.7252C19.0093 19.7199 18.9736 19.6236 18.9316 19.5001C18.9102 19.4372 18.9015 19.3696 18.8395 19.2068C18.7774 19.044 18.6656 18.7871 18.5961 18.6166C18.4614 18.2862 18.4736 18.2413 18.4664 18.209C18.4624 18.1912 18.4639 18.1695 18.4484 18.2941C18.433 18.4187 18.402 18.6899 18.1886 19.4755C17.9753 20.2612 17.5803 21.553 17.3352 22.3018C17.0902 23.0505 17.0069 23.217 16.9485 23.3445C16.8533 23.5525 16.8179 23.6505 16.8213 23.653C16.8676 23.6871 16.9781 23.5382 17.1183 23.4089C17.1905 23.3423 17.2514 23.2604 17.3059 23.1843C17.3604 23.1082 17.4033 23.0368 17.5252 22.7728C17.6472 22.5089 17.8471 22.0545 18.201 21.3933C18.555 20.7322 19.0569 19.8781 19.4059 19.3263C19.7549 18.7745 19.9358 18.5509 20.036 18.4333C20.1363 18.3157 20.1506 18.311 20.1175 18.3168C20.0844 18.3227 20.0035 18.3394 19.6264 18.2492C19.2493 18.1591 18.5784 17.9616 18.2197 17.8599C17.861 17.7582 17.8348 17.7582 17.8154 17.7665C17.796 17.7748 17.7841 17.7915 17.7779 17.9428C17.7718 18.0941 17.7718 18.3796 17.7825 18.6052C17.7932 18.8308 17.8146 18.9878 17.8387 19.0996C17.8629 19.2114 17.889 19.2733 17.9822 19.3884C18.0754 19.5035 18.2348 19.6701 18.355 19.813C18.4751 19.9558 18.5513 20.07 18.6143 20.2026C18.6773 20.3352 18.7249 20.4827 18.753 20.6122C18.781 20.7417 18.7882 20.8488 18.7776 21.0395C18.767 21.2303 18.7384 21.5015 18.694 21.7983C18.6495 22.095 18.5901 22.409 18.5594 22.6422C18.5288 22.8753 18.5288 23.0181 18.5347 23.094C18.5407 23.1699 18.5526 23.1747 18.6991 23.145C18.8456 23.1153 19.1263 23.0511 19.3673 22.949C19.6082 22.8469 19.8009 22.7089 20.0025 22.5189C20.2041 22.3289 20.4087 22.091 20.6473 21.7757C20.8859 21.4604 21.1524 21.075 21.3706 20.7278C21.5887 20.3805 21.7505 20.0832 21.8422 19.8978C21.9338 19.7125 21.9505 19.6483 21.9676 19.5821" stroke="#C7B5F9" stroke-width="3" stroke-linecap="round"/>
<path d="M32.5863 18.985C32.4513 19.0524 32.3164 19.1199 31.4823 19.465C30.6481 19.8101 29.1189 20.4308 27.409 21.4117C25.6991 22.3927 23.855 23.715 22.7206 24.5874C21.5862 25.4598 21.2174 25.8421 21.0049 26.0863C20.7924 26.3305 20.7474 26.4249 22.2311 25.8371C23.7147 25.2493 26.7282 23.9765 28.3054 23.3162C29.8825 22.656 29.932 22.647 29.9125 22.6559C29.893 22.6647 29.8031 22.6917 28.4996 23.4073C27.1961 24.1228 24.6818 25.5262 23.2786 26.3435C21.8755 27.1609 21.6596 27.3498 24.0851 26.8647C26.5107 26.3795 31.5842 25.2146 36.8115 24.0143" stroke="#C7B5F9" stroke-width="3" stroke-linecap="round"/>
<path d="M31.918 28.3622C31.8731 28.3622 31.8281 28.3622 31.0628 28.5466C30.2975 28.731 28.8132 29.0999 27.9631 29.3236C27.113 29.5473 26.9421 29.6148 26.5212 29.8677C26.1003 30.1206 25.4346 30.5569 24.9613 30.8131C24.4879 31.0694 24.227 31.1323 23.9375 31.1648C23.3404 31.2316 22.9953 31.1747 22.9432 31.1047C22.8619 30.9952 22.8406 30.848 22.8474 30.7234C22.8539 30.6017 22.958 30.381 23.1165 30.0885C23.2503 29.8418 23.4396 29.6536 23.6633 29.2494C23.8235 28.9598 24.0624 28.4898 24.2595 28.0397C24.4566 27.5895 24.6005 27.1712 24.922 26.4385C25.2435 25.7058 25.7383 24.6713 26.0809 24.0574C26.4235 23.4435 26.5989 23.2816 26.7297 23.1712C26.8606 23.0608 26.9415 23.0068 27.1362 22.9025C27.3308 22.7983 27.6367 22.6453 27.8887 22.5396C28.1407 22.4338 28.3296 22.3798 28.6541 22.3453C28.9785 22.3107 29.4328 22.2972 29.9142 22.324C30.3956 22.3508 30.8904 22.4183 31.4001 22.4878" stroke="#C7B5F9" stroke-width="19" stroke-linecap="round"/>
<path d="M38.3301 28.4134C38.519 28.7463 38.7079 29.0791 38.8952 29.4327C39.0824 29.7864 39.2624 30.1507 39.445 30.4351C39.6276 30.7195 39.8075 30.9129 39.9317 31.0282C40.106 31.1902 40.2827 31.3605 40.4416 31.6124C40.5269 31.7476 40.5516 31.8386 40.572 31.9225C40.5814 31.9609 40.579 31.9929 40.5565 32.0181C40.534 32.0433 40.489 32.0613 40.1195 32.0683C39.75 32.0753 39.0574 32.0708 38.7995 32.0865C38.5416 32.1022 38.7395 32.1382 39.0034 32.1567C39.2673 32.1752 39.5911 32.1752 40.0346 32.2157C40.478 32.2562 41.0312 32.3372 41.6671 32.3744C42.3029 32.4116 43.0045 32.4026 43.3795 32.4002C43.7545 32.3978 43.7814 32.4023 43.7931 32.3709C43.8276 32.278 43.7821 32.1305 43.7572 31.6302C43.7358 31.2022 43.7367 30.4192 43.6984 29.8271C43.66 29.235 43.5925 28.8572 43.5285 28.5591C43.4646 28.261 43.4061 28.0541 43.3332 27.8576C43.1913 27.4747 43.0059 27.1743 42.8742 26.9724C42.756 26.7909 42.7148 26.5971 42.6351 26.3404C42.5685 26.1258 42.5417 25.9832 42.5259 25.7734C42.5135 25.6083 42.4787 25.3252 42.4737 24.4708C42.4688 23.6164 42.4912 22.1996 42.4893 21.4697C42.4874 20.7399 42.4604 20.7399 42.4465 20.5667C42.4326 20.3935 42.4326 20.0472 42.4326 19.6904" stroke="#C7B5F9" stroke-width="19" stroke-linecap="round"/>
<path d="M38.3239 14.419C38.2879 14.419 38.022 14.419 37.5819 14.41C37.3891 14.406 37.2588 14.383 36.7846 14.349C36.3103 14.315 35.4962 14.2655 34.8272 14.2445C34.1582 14.2235 33.6589 14.2325 33.359 14.2192C33.0591 14.2058 32.9736 14.1698 32.7924 14.0636C32.6112 13.9573 32.3369 13.7819 32.1393 13.6151C31.799 13.3277 31.6999 13.0568 31.6795 12.8959C31.6598 12.7406 31.6635 12.6247 31.6499 12.5567C31.6383 12.4987 31.4429 12.4384 31.0642 12.3907C30.8886 12.3686 30.7441 12.3745 30.2359 12.4622C29.7277 12.5499 28.8596 12.7253 28.2595 12.8697C27.6594 13.014 27.3535 13.122 27.1397 13.2068C26.8086 13.3382 26.5223 13.4688 26.2385 13.5574C26.0977 13.6014 25.9311 13.4796 25.5977 13.3426C25.4633 13.2874 25.2346 13.2882 24.75 13.2788C24.2654 13.2694 23.5233 13.2784 23.0915 13.2943C22.6597 13.3102 22.5608 13.3327 22.4063 13.3443C21.811 13.3889 21.7277 13.3422 21.6687 13.3287C21.6184 13.3172 21.7353 13.4089 21.9889 13.9104C22.1611 14.2512 22.3143 14.8167 22.407 15.2996C22.4997 15.7825 22.4997 16.1783 22.5289 16.6183C22.5582 17.0584 22.6166 17.5306 22.6603 17.7807C22.7039 18.0307 22.7309 18.0442 22.8527 17.8645C22.9746 17.6848 23.1905 17.3115 23.3894 17.009C23.5883 16.7065 23.7637 16.4861 23.9755 16.2511C24.1873 16.0161 24.4302 15.7732 25.167 15.1781C25.9039 14.5829 27.1273 13.6429 27.8295 13.1204C28.5317 12.5979 28.6756 12.5214 28.7902 12.4528C28.9904 12.333 29.0962 12.2385 29.4272 12.0694C29.7261 11.9167 30.3115 11.6709 30.6239 11.5299C30.9655 11.3756 31.018 11.3523 31.0432 11.3523C31.0765 11.3523 30.856 11.3028 30.6562 11.2143C30.5391 11.1625 30.487 11.0171 30.4484 10.8424C30.4328 10.7718 30.4412 10.7351 30.457 10.7121C30.4873 10.668 30.6086 10.6618 30.9157 10.6482C31.1416 10.6381 31.5106 10.6435 31.8288 10.6773C32.147 10.711 32.4034 10.7785 32.5579 10.8177C32.7125 10.857 32.7575 10.866 32.7716 11.0572C32.7858 11.2485 32.7678 11.6219 32.7608 11.8277C32.7538 12.0335 32.7583 12.0605 32.8123 12.0901C32.9604 12.1714 33.2068 12.1702 33.5664 12.0935C33.7988 12.044 34.1194 11.9179 34.3604 11.8105C34.6014 11.7031 34.7499 11.6041 35.1479 11.2878C35.546 10.9714 36.1892 10.4407 36.588 10.1246C37.1114 9.70962 37.2877 9.62592 37.4051 9.56281C37.6582 9.42668 37.9319 9.19985 38.1362 9.03854C38.2106 8.97979 38.2415 8.98968 38.2667 9.00549C38.3209 9.03957 38.3735 9.20203 38.428 9.48955C38.4583 9.64934 38.4465 9.84454 38.4173 10.0364C38.3881 10.2282 38.3296 10.4126 38.2522 10.5976C38.1749 10.7825 38.0804 10.9625 37.9328 11.2013C37.7852 11.4402 37.5873 11.7325 37.4336 11.9349C37.0839 12.3954 36.9838 12.4197 36.9745 12.4515C36.9605 12.4997 37.1867 12.4655 37.7464 12.3258C38.1794 12.2178 38.8999 11.9792 39.2999 11.8589C39.6999 11.7385 39.7539 11.7295 39.7907 11.7317C39.8275 11.7338 39.8455 11.7473 39.8548 11.7677C39.864 11.7881 39.864 11.8151 39.864 11.8429" stroke="#C7B5F9" stroke-width="4" stroke-linecap="round"/>
<path d="M24.6396 29.3424C25.0063 30.1465 26.2529 31.6129 28.3062 31.0451C30.3595 30.4773 30.5061 28.5382 30.3228 27.6396" stroke="#3E235A" stroke-width="1.25" stroke-linecap="round"/>
<path d="M33.9136 26.6787C34.5617 27.617 36.3354 29.2308 38.2451 28.18C40.1549 27.1291 40.2222 25.6154 40.0171 24.9898" stroke="#3E235A" stroke-width="1.25" stroke-linecap="round"/>
<path d="M31.9263 33.3807C32.4415 33.7829 33.7369 34.4343 34.7968 33.8223C35.8567 33.2104 36.2689 32.2425 36.3425 31.835" stroke="#3E235A" stroke-width="1.25" stroke-linecap="round"/>
<path d="M36.7842 37.5761C38.3299 38.2902 42.3928 39.1575 46.2791 36.9137C50.1654 34.67 50.9898 30.5321 50.9162 28.7437" stroke="#3E235A" stroke-width="2.5" stroke-linecap="round"/>
<path d="M36.873 37.4002C36.8523 37.3399 36.8104 37.261 36.7732 37.1957C36.7094 37.0836 36.5873 36.9586 36.5395 36.8992C36.4716 36.8148 36.35 36.7119 36.2422 36.6296C36.1375 36.5496 36.0037 36.5328 35.889 36.52C35.7316 36.5024 35.5414 36.5556 35.3903 36.6125C35.3352 36.6333 35.3266 36.6441 35.3173 36.6604C35.2744 36.735 35.28 36.8252 35.2764 36.9566C35.2741 37.0424 35.3515 37.1897 35.4181 37.3752C35.4464 37.4538 35.4567 37.5369 35.429 37.608C35.4083 37.661 35.2809 37.7138 35.1206 37.7765C35.0088 37.8202 34.9476 37.8513 34.8724 37.8721C34.7293 37.9117 34.6081 37.9651 34.5409 37.9999C34.4152 38.0651 34.3267 38.07 34.1473 38.1243C34.0572 38.1516 33.9107 38.1741 33.7991 38.1998C33.6125 38.2429 33.4988 38.3022 33.4326 38.3579C33.3357 38.4395 33.3287 38.6756 33.3506 38.8393C33.3578 38.8929 33.4351 38.9464 33.5718 39.0079C33.6487 39.0426 33.7499 39.0625 33.8643 39.0756C33.9786 39.0886 34.1052 39.0886 34.205 39.084C34.3742 39.0762 34.4957 39.0607 34.5816 39.0688C34.6403 39.0743 34.6658 39.1234 34.6925 39.1593C34.7294 39.209 34.7519 39.2813 34.7624 39.3705C34.7752 39.4798 34.7314 39.6227 34.6043 39.8012C34.5261 39.911 34.362 40.012 34.2607 40.0839C34.1142 40.188 34.0405 40.235 33.9942 40.2825C33.8854 40.3941 33.8589 40.5278 33.8624 40.5998C33.8637 40.6283 33.8727 40.6396 33.8959 40.6479C33.9558 40.6692 34.0837 40.6655 34.2323 40.6609C34.3358 40.6576 34.4305 40.6076 34.5338 40.5542C34.6845 40.4763 34.8027 40.4587 34.904 40.4503C34.924 40.4487 34.9355 40.4538 34.946 40.4619C34.9939 40.4986 34.9892 40.6043 34.98 40.6977C34.9697 40.8011 34.9242 40.909 34.9229 41.0592C34.9227 41.0865 34.9333 41.0955 34.9529 41.1003C35.1099 41.1381 35.2959 41.0331 35.4293 40.9427C35.5397 40.8678 35.626 40.7359 35.7015 40.6325C35.7475 40.5695 35.7868 40.5285 35.8158 40.4809C35.8399 40.4414 35.951 40.2831 36.1218 40.06C36.2113 39.9431 36.2589 39.8936 36.3351 39.7976C36.4929 39.5989 36.6426 39.4795 36.6993 39.4298C36.7952 39.3458 36.8589 39.2632 36.9029 39.2284C36.9569 39.1859 37.0468 39.1008 37.1572 39.016C37.215 38.9715 37.2357 38.9399 37.3706 38.8718C37.4908 38.8112 37.7197 38.7047 37.8474 38.6421C37.9974 38.5685 38.0795 38.5215 38.1898 38.4657C38.3209 38.3995 38.3659 38.3423 38.4033 38.2957C38.4125 38.2842 38.408 38.2634 38.4 38.2458C38.3827 38.2082 38.3385 38.1656 38.2944 38.1168C38.1999 38.0121 37.9369 38.0238 37.8106 37.9921C37.7564 37.9785 37.6944 37.9515 37.6142 37.9398C37.5806 37.9349 37.5276 37.926 37.368 37.9235C37.2083 37.9211 36.9435 37.9257 36.7737 37.9384C36.6039 37.9511 36.5372 37.9719 36.4464 38.0263C36.3556 38.0807 36.2427 38.1682 36.0718 38.3526C35.9009 38.5369 35.6752 38.8155 35.5256 39.0109C35.376 39.2062 35.3092 39.3098 35.2725 39.3735C35.2256 39.455 35.2172 39.4978 35.2148 39.5176C35.2139 39.5245 35.2446 39.5029 35.3347 39.3473C35.4249 39.1916 35.5814 38.8969 35.6736 38.6967C35.7658 38.4965 35.7888 38.3998 35.8007 38.3431C35.8125 38.2864 35.8125 38.2726 35.7158 38.2954C35.6191 38.3182 35.4257 38.3781 35.333 38.4055C35.2403 38.4328 35.2541 38.4259 35.3084 38.3855C35.3627 38.3451 35.4571 38.2715 35.5552 38.1805C35.7596 37.9912 35.8636 37.8539 35.8879 37.8133C35.9237 37.775 35.9934 37.703 36.0713 37.6159C36.1008 37.5817 36.11 37.5679 36.1474 37.5397" stroke="#3E235A" stroke-width="1.5" stroke-linecap="round"/>
<path d="M34.1786 42.8215C33.9489 42.8317 34.5115 43.1746 34.3424 43.241C34.2761 43.267 34.2244 43.2973 34.1786 43.3431C34.1226 43.3991 34.0913 43.7897 34.0863 44.3669C34.0838 44.6511 34.0607 44.9563 34.0429 45.3748C34.0228 45.8505 33.8926 46.1476 33.8512 46.3434C33.8228 46.4778 33.7389 46.5886 33.6673 46.6911C33.5717 46.8278 33.3163 47.0327 33.1259 47.1689C32.8892 47.3383 32.7275 47.4271 32.4847 47.6235C32.3421 47.7388 32.2466 47.8258 32.1216 47.9507C31.837 48.2349 31.766 48.3772 31.6943 48.5182C31.6377 48.6294 31.6889 48.7612 31.7371 48.8453C31.7675 48.8985 31.8611 48.9345 32.2317 48.9554C32.6024 48.9763 33.2602 48.9713 33.6244 48.9636C34.1729 48.952 34.4176 48.9151 34.7415 48.8845C35.1599 48.8449 35.2715 48.7618 35.3993 48.7057C35.6432 48.5986 35.8594 48.4042 35.9897 48.2842C36.2092 48.0822 36.2737 47.689 36.3732 47.4998C36.453 47.3481 36.4626 47.1676 36.4936 47.0217C36.5348 46.8278 36.5908 46.6923 36.6722 46.4903C36.7398 46.3228 36.7797 46.1151 36.8793 45.7905C36.9368 45.6028 36.9588 45.4248 37.0173 45.2099C37.0824 44.971 37.2493 44.5059 37.3063 44.3049C37.3463 44.164 37.3882 44.0088 37.4722 43.7279C37.5148 43.5853 37.5667 43.4058 37.6408 43.1404C37.7822 42.6342 37.858 42.4754 37.9527 42.3726C38.0374 42.2806 38.1494 42.199 38.2338 42.117C38.2731 42.0788 38.3639 42.081 38.4584 42.0886C38.5897 42.0991 38.7063 42.2644 38.8037 42.3872C38.9093 42.5205 39.0538 42.6526 39.1412 42.8215C39.2141 42.9624 39.2436 43.159 39.2691 43.2766C39.2954 43.3983 39.3608 43.5825 39.3867 44.0191C39.3927 44.1198 39.4019 44.1805 39.4071 44.4243C39.4123 44.6682 39.4123 45.0932 39.4098 45.3324C39.4073 45.5717 39.4022 45.6121 39.3996 45.8531C39.397 46.0941 39.397 46.5343 39.3894 46.7713C39.3782 47.122 39.3307 47.3652 39.2949 47.6202C39.2398 48.0115 39.2593 48.276 39.1981 48.2811C39.0351 48.2946 38.7999 48.1082 38.697 48.0054C38.6015 47.91 38.5996 47.4467 38.6225 47.1011C38.6341 46.9241 38.6965 46.7892 38.7425 46.6512C38.8243 46.406 38.8756 46.1709 38.9011 45.9335C38.9374 45.5944 38.9572 45.4502 38.9803 45.2026C39.008 44.9051 39.075 44.7295 39.1004 44.5455C39.1356 44.2914 39.1565 44.1367 39.1796 43.9881C39.2101 43.7919 39.2743 43.661 39.3252 43.4924C39.3718 43.3383 39.4019 43.2316 39.4428 43.1038C39.4898 42.9571 39.5043 42.7115 39.5348 42.5539C39.5406 42.5243 39.5657 42.6327 39.5631 42.6939C39.5619 42.7248 39.5555 42.7551 39.52 42.7707C39.4845 42.7863 39.4188 42.7863 39.3697 42.7813C39.3206 42.7762 39.2903 42.7661 39.259 42.7557" stroke="#3E235A" stroke-width="1.5" stroke-linecap="round"/>
<path d="M38.1857 42.5257C38.2314 42.5054 38.3437 42.4643 38.4305 42.4719C38.5494 42.4823 38.5893 42.6529 38.6685 42.7451C38.7541 42.8449 38.7887 42.9851 38.8246 43.1054C38.8592 43.2214 38.8756 43.3786 38.8986 43.6833C38.9162 43.9166 38.9064 44.3118 38.9115 44.5354C38.9166 44.759 38.9267 44.7994 38.9319 45.005C38.9465 45.5798 38.9472 46.001 38.9626 46.0902C38.9969 46.29 38.8479 46.8695 38.9115 47.0711C38.9974 47.343 38.9923 47.2919 39.3329 47.6364C39.4561 47.761 39.199 48.1579 39.3329 48.3046C39.3541 48.3278 39.7799 48.1941 39.8056 48.1816C39.8622 48.154 39.8826 48.0416 39.898 47.6965C39.9104 47.4174 39.9032 46.9263 39.9006 46.6532C39.8971 46.2669 39.8572 46.1553 39.8063 45.9208C39.729 45.565 39.7348 45.3938 39.6888 45.1317C39.6624 44.981 39.5977 44.7237 39.5588 44.4339C39.4783 43.8333 39.5043 43.4818 39.5375 43.4358C39.5534 43.4137 39.5756 43.4 39.5861 43.4074C39.6907 43.4813 39.7443 43.6905 39.8262 43.8337C39.8862 43.9387 40.0298 44.0836 40.2244 44.24C40.48 44.4455 40.7766 44.4934 41.1437 44.687C41.4035 44.8241 41.6859 44.7694 41.9926 44.7722C42.1721 44.7739 42.2438 44.6421 42.5726 44.4712C42.7215 44.3938 42.8314 44.3406 42.9873 44.2078C43.1275 44.0884 43.2252 44.0186 43.3706 43.8936C43.5505 43.7389 43.5779 43.5843 43.6292 43.4615C43.7223 43.239 43.6297 42.8434 43.5836 42.6592C43.5419 42.4929 43.3945 42.3322 43.3205 42.1787C43.2478 42.0278 43.0734 41.8065 42.9449 41.619C42.8373 41.4619 42.7253 41.3965 42.5516 41.2509C42.4058 41.1288 42.2597 41.0691 41.9002 41.0461C41.5614 41.0244 40.903 41.0382 40.5363 41.0332C40.1136 41.0274 40.0312 41.0076 39.9777 41.0025C39.9175 40.9968 39.569 40.9769 39.0708 40.9794C38.7587 40.981 38.5341 41.0327 38.4059 41.0866C38.2953 41.1332 38.0444 41.3127 37.6887 41.5536C37.386 41.7586 37.2157 41.942 37.0464 42.05C36.8752 42.1592 36.6226 42.3616 36.451 42.5224C36.2579 42.7036 36.0895 42.7545 35.8957 42.8719C35.6226 43.0374 35.0886 43.3309 35.0579 43.4074C35.006 43.537 35.2931 43.6751 35.2672 43.887C35.2424 44.0896 35.2112 44.2422 35.1854 44.4188C35.1697 44.5263 35.1089 44.7626 35.0579 45.0715C35.0255 45.268 34.9708 45.428 34.9276 45.7027C34.8584 46.1429 34.7815 46.4862 34.7588 46.6797C34.7055 47.1321 34.603 47.2633 34.5186 47.3836C34.4272 47.5139 34.1191 47.5958 33.7961 47.698C33.5555 47.7741 33.4226 47.9227 33.0961 48.0991C32.9134 48.1977 32.8037 48.1685 32.7881 48.1991C32.751 48.2716 33.1437 48.2302 33.5417 48.192C34.0644 48.1418 34.2289 48.0307 34.5241 47.9546C34.9728 47.839 35.2719 47.6832 35.3306 47.6679C35.5003 47.6235 35.701 47.3517 35.755 47.1373C35.8843 46.6246 35.8804 46.3034 35.8957 46.0068C35.9089 45.7509 35.9009 45.28 35.9085 45.0123C35.9176 44.6933 35.9469 44.6064 35.9849 44.3933C36.0742 43.8919 36.1972 43.5279 36.2405 43.4514C36.3182 43.3142 36.3861 43.1857 36.4146 43.0424C36.4366 42.9313 36.7164 42.6456 36.9456 42.3985C37.1369 42.1923 37.2804 42.1018 37.4362 41.9666C37.5541 41.8642 37.6641 41.7899 37.8087 41.6807C38.1066 41.4557 38.3743 41.3449 38.4991 41.3399C38.6699 41.3329 38.9 41.3244 39.1854 41.3574C39.8236 41.4313 40.1324 41.6462 40.2525 41.6998C40.3004 41.7211 40.3068 41.7583 40.2842 41.7866C40.1466 41.9587 39.8228 41.9276 39.6456 41.9531C39.4481 41.9814 39.2134 42.0705 39.1801 42.0987C39.0723 42.1897 39.5802 41.9028 39.8001 41.7672C40.0311 41.6246 40.158 41.5446 40.4942 41.5467C41.1915 41.5509 41.3691 41.6565 41.5231 41.7024C41.7391 41.7667 41.478 42.0905 41.3858 42.2389C41.3086 42.3633 41.1459 42.3975 40.9798 42.4564C40.8146 42.5151 40.7012 42.5563 40.087 42.8719C39.9566 42.939 39.9394 42.9648 39.9466 42.9854C39.9539 43.0059 39.9894 43.0262 40.038 43.0366C40.2722 43.0869 40.4902 42.9041 40.8877 42.6904C41.4539 42.3861 41.5433 42.2705 41.6737 42.186C41.7995 42.1046 41.9114 42.0914 42.0291 42.0809C42.1551 42.0697 42.218 42.295 42.2824 42.4637C42.3048 42.5226 42.3361 42.5714 42.3287 42.6579C42.3048 42.9355 42.0356 42.9802 41.775 43.1334C41.6024 43.2348 41.4578 43.282 41.3247 43.3534C41.1753 43.4336 41.0539 43.527 40.9717 43.6674C40.9441 43.7145 40.9612 43.7969 41.0144 43.8461C41.1419 43.9643 41.3288 43.9364 41.4332 43.9238C41.6922 43.8924 41.8295 43.7273 41.9626 43.6276C42.1155 43.5131 42.2334 43.4255 42.3638 43.3414C42.5756 43.1904 42.8058 43.1289 42.9207 43.1085C42.9697 43.0983 43.0001 43.0881 43.0314 43.0777" stroke="#3E235A" stroke-width="1.5" stroke-linecap="round"/>
<path d="M17.353 38.2386C18.4571 41.1134 22.6525 46.3305 30.6018 44.2005C31.3378 44.0533 32.8099 43.5381 33.9139 42.8756" stroke="#3E235A" stroke-width="2.5" stroke-linecap="round"/>
</svg>
