<svg width="60" height="60" viewBox="0 0 60 60" fill="none" xmlns="http://www.w3.org/2000/svg">
<path d="M12.506 45.4254C12.4508 45.4254 12.3654 45.4212 12.2907 45.419C12.2531 45.418 12.399 45.4254 12.5273 45.4614C12.6226 45.4881 12.7759 45.5438 13.0317 45.5985C13.2875 45.6532 13.6402 45.7081 13.9085 45.7385C14.1768 45.7689 14.35 45.7731 14.4899 45.7806C14.6298 45.788 14.7312 45.7986 14.8499 45.8167C14.9687 45.8348 15.1017 45.8601 15.3973 45.8859C15.6929 45.9116 16.147 45.9369 16.4052 45.9489C16.6634 45.9609 16.712 45.9588 16.762 45.9567" stroke="#C1ABF5" stroke-width="2.14057" stroke-linecap="round"/>
<path d="M13.8564 46.2446C13.9328 46.2383 14.0651 46.2254 14.2907 46.1959C14.4748 46.1717 14.7971 46.1072 14.991 46.063C15.185 46.0188 15.2399 45.9913 15.2735 45.9719C15.307 45.9525 15.3176 45.9419 15.3285 45.931" stroke="#C1ABF5" stroke-width="2.14057" stroke-linecap="round"/>
<path d="M12.068 35.4984C11.6229 35.5353 11.0084 35.6102 10.6731 35.8592C9.61371 36.6458 10.587 37.4897 10.6518 37.7982C10.7029 38.041 10.9956 38.2822 11.2103 38.4135C11.4572 38.5645 11.7864 38.8869 12.2388 39.2276C12.6554 39.5415 12.9421 40.0046 13.0969 40.2759C13.1559 40.3794 13.1947 40.4998 13.2967 40.5928C13.4201 40.7054 13.6966 40.668 13.9755 40.7233C14.5204 40.8314 14.7299 41.5868 14.9364 42.1194C15.052 42.4175 15.0949 42.6509 15.2897 42.8329C15.6724 43.1907 16.0248 43.3114 16.2358 43.6197C16.3698 43.8153 16.3155 44.2051 16.2135 44.4908C16.1937 44.5462 16.1668 44.5885 16.1389 44.5892C16.0597 44.5911 15.9807 44.4778 15.9338 44.4176C15.7415 44.171 16.5368 43.9854 16.8548 43.8028C17.0415 43.6956 17.7993 43.6579 18.2894 43.8248C18.5395 43.9099 18.5593 44.2347 18.7544 44.551C19.213 45.2948 20.0303 44.7757 20.3011 44.8175C20.466 44.8429 20.6367 44.7852 20.813 44.725C21.0542 44.6426 21.5465 44.3308 22.2299 43.9863C22.5315 43.8342 22.7933 43.8446 22.9493 43.8997C23.2135 43.993 23.2636 44.6226 23.3335 45.348C23.3854 45.887 23.3849 46.3752 23.4268 47.3243C23.4573 48.0147 23.4411 49.131 23.4503 49.6274C23.4595 50.1238 23.478 49.9671 23.4875 49.6834C23.5106 48.9944 23.4416 48.3732 23.3578 48.0289C23.2735 47.6825 23.0879 47.4225 22.8923 47.1425C22.8502 47.0823 22.8084 47.0492 22.7572 47.0117C22.7059 46.9743 22.6413 46.9374 22.6081 47.1259C22.4193 48.1958 22.6492 48.3799 22.6863 48.4176C22.9944 48.7303 22.724 47.4035 22.6543 47.1889C22.624 47.0956 22.5379 47.0117 22.4821 46.9002C22.4555 46.8472 22.4631 46.7887 22.4631 46.917C22.4631 47.7376 22.6022 47.9233 22.6307 48.0913C22.673 48.3404 22.4636 47.4873 22.3795 47.1615C22.3579 47.0778 22.3423 47.0034 22.3236 46.9976C22.1088 46.9319 22.2859 47.4946 22.351 47.7043C22.4227 47.9351 22.5838 48.2206 22.6676 48.4588C22.7454 48.6798 22.8632 48.8823 22.9424 49.0969C23.0211 49.3099 23.1331 49.544 23.2265 49.7442C23.347 50.0027 23.5246 50.2057 23.5942 50.257C23.8267 50.4283 24.3789 49.4194 24.5865 49.0238C24.6796 48.8465 24.7544 48.163 24.8472 47.5899C24.8596 47.5134 24.8662 47.4594 24.8754 47.4678C25.1043 47.6758 24.9405 48.156 24.9685 48.7428C24.9924 49.2462 24.978 50.1688 24.9872 50.6715C24.9996 51.3459 25.1546 51.6018 25.2292 51.891C25.2608 52.0135 25.3038 52.1243 25.341 52.162C25.5492 52.3734 25.5369 51.4386 25.4349 51.1197C25.3882 51.0082 25.3507 50.8959 25.3136 50.7844C25.2949 50.7282 25.2764 50.6729 25.2015 50.6159" stroke="#C1ABF5" stroke-width="4.28114" stroke-linecap="round"/>
<path d="M19.2943 30.6521C19.2703 30.6922 19.2462 30.7322 18.7049 31.422C18.1636 32.1118 17.1058 33.4502 16.4527 34.3159C15.7995 35.1816 15.5832 35.5343 15.4517 35.8361C15.0291 36.8061 14.9476 37.4503 14.9673 37.5807C14.9742 37.626 15.1232 37.3906 15.2892 36.859C15.4552 36.3274 15.6716 35.4459 15.6789 35.5687C15.6861 35.6916 15.4778 36.8456 15.3584 37.4561C15.2391 38.0666 15.215 38.0987 15.1465 38.019C14.9337 37.7714 14.8102 37.5168 14.7295 37.4603C14.5384 37.3264 14.2436 37.3872 14.1187 37.3629C14.0428 37.3481 13.9377 37.3546 14.0923 37.5349C14.247 37.7152 14.6638 38.0759 15.187 38.462C15.7102 38.8481 16.3272 39.2488 16.7533 39.5554C17.7103 40.244 17.8606 40.4621 18.079 40.7048C18.2739 40.9214 18.7088 41.1415 19.2017 41.4322C19.9038 41.8463 19.9655 42.1863 20.1154 42.3688C20.2284 42.5065 20.3944 42.6156 21.37 42.8865C21.9549 43.0489 22.5618 42.8356 23.0268 42.6821C23.3101 42.5887 23.6145 42.3985 24.095 42.253C24.56 42.1122 25.0072 42.0901 25.4711 42.0701C25.7351 42.0586 26.0551 42.0099 26.4527 41.9893C26.8502 41.9687 27.315 41.9687 27.9031 42.0208C28.4911 42.0728 29.1883 42.177 29.9066 42.2844" stroke="#C1ABF5" stroke-width="2.99679" stroke-linecap="round"/>
<path d="M29.3142 23.0445C29.278 23.0445 28.744 23.3881 27.9134 23.9946C27.5819 24.2366 27.4987 24.4293 27.3435 24.7935C27.1883 25.1578 26.9803 25.7094 26.8596 26.102C26.7389 26.4946 26.7118 26.7116 26.6978 26.8596C26.6838 27.0076 26.6838 27.0799 26.7697 27.0539C27.0564 26.967 27.5028 26.4272 27.9956 25.875C28.1855 25.6622 28.2714 25.6031 28.5755 25.3354C29.4083 24.6023 30.0258 24.0588 30.1174 24.049C30.3126 24.0279 29.8545 24.6222 29.5765 25.1004C29.3011 25.5743 29.1775 25.9206 29.1997 26.0078C29.2119 26.0559 29.3756 25.9412 29.7166 25.6507C30.0575 25.3603 30.6091 24.854 29.6364 25.2713C28.6637 25.6885 26.1501 27.0448 24.7693 27.8158C23.3885 28.5869 23.2167 28.7315 23.1779 28.7382C23.1392 28.745 23.2386 28.6093 23.7917 28.0693C24.3447 27.5292 25.3484 26.5889 25.8021 26.1632C26.2559 25.7376 26.1293 25.8551 25.3588 26.9329C24.5883 28.0107 23.1778 30.0451 22.2206 31.5588C21.2634 33.0724 20.8023 34.0037 20.5376 34.6282C20.2729 35.2526 20.2187 35.542 20.3806 35.5373C20.5425 35.5326 20.9223 35.2252 21.6197 34.4882C22.3172 33.7511 23.3208 32.5938 23.9011 31.8755C24.4815 31.1572 24.6081 30.9131 24.6461 30.7964C24.6771 30.7013 24.0949 30.9967 22.9122 31.8011C22.1868 32.2945 21.2955 33.0848 20.5809 33.7789C19.8663 34.4731 19.378 35.0789 19.0768 35.504C18.7755 35.9291 18.6761 36.1552 18.7062 36.1993C18.7363 36.2434 18.8991 36.0987 19.2723 35.5902C19.6455 35.0816 20.2241 34.2136 20.5313 33.7213C20.8384 33.2289 20.8565 33.1385 20.7799 33.1552C20.7034 33.1719 20.5316 33.2985 20.2034 33.6304C19.8753 33.9624 19.3961 34.4958 19.0588 34.9153C18.5087 35.5996 18.2549 36.1664 18.1042 36.5724C18.0208 36.7973 18.062 36.9536 18.1074 37.0993C18.2307 37.4958 18.6267 37.866 18.9287 38.0635C18.9931 38.1057 19.0745 38.0868 19.1298 38.1863C19.2816 38.459 19.4123 38.9428 19.7446 39.4304C20.3138 40.2653 20.774 40.333 20.8699 40.4695C20.9812 40.6278 20.9206 40.8262 20.9752 40.818C21.0467 40.8072 21.0658 40.5747 21.1074 39.4462C21.1489 38.3178 21.176 36.2472 21.2216 35.1082C21.2672 33.9692 21.3305 33.8246 21.3631 33.6913C21.3957 33.558 21.3957 33.4404 21.3731 34.1529C21.3505 34.8655 21.3053 36.4116 21.273 37.2669C21.2407 38.1222 21.2226 38.2397 21.2133 38.359C21.2039 38.4784 21.2039 38.5959 21.335 38.5299C21.4662 38.4638 21.7284 38.2107 22.2342 37.5875C22.74 36.9643 23.4814 35.9787 24.2024 34.8561C24.9234 33.7336 25.6016 32.5039 25.9509 31.8433C26.3002 31.1827 26.3002 31.1284 26.3093 31.1412C26.366 31.2211 26.3279 31.726 26.1557 32.8895C26.0429 33.6517 25.7484 34.7402 25.5907 35.5118C25.4331 36.2834 25.3878 36.6993 25.3691 36.8684C25.3503 37.0374 25.3593 36.947 25.7573 35.8787C26.1553 34.8104 26.9419 32.7669 27.5371 30.8191C28.1322 28.8713 28.5119 27.081 28.6985 26.2491C28.8851 25.4173 28.867 25.5981 28.5865 26.8984C28.3059 28.1986 27.7634 30.6128 27.4477 32.512C27.1321 34.4112 27.0598 35.7222 27.0225 36.1445C26.9852 36.5667 26.9852 36.0604 27.0214 35.5418C27.0576 35.0233 27.1299 34.5079 27.1672 33.8762C27.2044 33.2445 27.2044 32.5121 27.1276 31.7596C27.0507 31.0071 26.897 30.2566 26.7229 29.6711C26.5488 29.0855 26.3589 28.6877 26.139 28.3516C25.9191 28.0156 25.675 27.7534 25.5221 27.659C25.3692 27.5646 25.315 27.646 25.2644 27.7919C25.1444 28.1383 25.1221 28.8754 25.1402 29.7919C25.1535 30.4663 25.2678 30.7799 25.3498 30.8483C25.3927 30.8841 25.4498 30.9076 25.5636 30.8673C25.6775 30.827 25.8493 30.7185 26.4938 30.2106C27.1384 29.7026 28.2505 28.7984 28.9455 28.2829C29.6405 27.7673 29.8847 27.6679 30.0556 27.7206C30.2266 27.7734 30.317 27.9813 30.3274 29.1554C30.3378 30.3295 30.2655 32.4633 30.2282 33.54C30.191 34.6167 30.191 34.5715 30.3989 33.3004C30.6069 32.0293 31.0228 29.5338 31.228 29.6678C31.4333 29.8018 31.4152 32.6409 31.424 34.0899C31.4327 35.5389 31.4689 35.5118 31.9034 34.9553C32.338 34.3988 33.1698 33.3138 33.6165 32.8001C34.0631 32.2863 34.0992 32.3768 34.1179 32.5364C34.1626 32.9199 34.0009 33.8059 33.8542 34.2453C33.8431 34.0336 33.9606 32.9395 34.0212 32.0911C34.0817 31.2427 34.0817 30.6731 34.0817 30.0862" stroke="#C1ABF5" stroke-width="3.42491" stroke-linecap="round"/>
<circle cx="16.4414" cy="26.6197" r="6.63576" fill="#C1ABF5"/>
<circle cx="23.291" cy="20.198" r="6.63576" fill="#C1ABF5"/>
<circle cx="37.419" cy="26.1916" r="6.63576" fill="#C1ABF5"/>
<circle cx="36.563" cy="38.1788" r="6.63576" fill="#C1ABF5"/>
<circle cx="28.0005" cy="40.3194" r="6.63576" fill="#C1ABF5"/>
<path d="M25.2178 35.182C25.4318 35.182 26.2881 36.2523 28.8567 35.6101C29.3562 35.4674 30.4836 34.8823 30.9973 33.6836" stroke="#3E235A" stroke-width="1.28434" stroke-linecap="round" stroke-linejoin="round"/>
<path d="M33.7803 27.69C32.71 28.1181 30.441 29.274 29.9272 30.4727C31.3543 30.1873 34.3796 29.959 35.0646 31.329" stroke="#3E235A" stroke-width="1.28434" stroke-linecap="round" stroke-linejoin="round"/>
<circle cx="22.6493" cy="29.8306" r="4.28114" fill="#FDFDFF"/>
<circle cx="22.6489" cy="29.8306" r="2.14057" fill="#483956"/>
<path d="M13.2305 38.6069L15.371 39.6772C15.0143 41.3183 14.8573 44.9858 17.0835 46.527C17.3689 46.7411 18.325 47.1692 19.8662 47.1692" stroke="#3E235A" stroke-width="0.856227" stroke-linecap="round" stroke-linejoin="round"/>
<path d="M40.0827 12.7901L40.2967 9.57922C38.7983 9.36516 37.728 8.723 38.1562 6.79649C38.6699 5.42652 40.2254 5.79755 40.9389 6.15432C41.6239 4.61311 43.0795 4.94133 43.7216 5.29809C44.1498 5.51214 44.9632 6.19713 44.7919 7.2246C44.6207 8.25207 43.8643 8.79435 43.5076 8.93705C43.8643 9.15111 44.4922 9.83609 44.1498 10.8636C43.8073 11.891 42.4373 11.5771 41.7951 11.2917L40.0827 12.7901Z" fill="#EBE8F9" stroke="#CCC7E9" stroke-width="0.856227" stroke-linecap="round" stroke-linejoin="round"/>
<path d="M13.968 33.4026C13.2516 33.6907 12.7698 34.0431 12.4088 34.3843C12.2982 34.4888 12.1618 34.5941 12.0408 34.7336C11.9878 34.7947 11.9751 34.8546 12.0532 34.8047C12.6255 34.4392 12.9688 33.9822 13.1388 33.6832C13.2376 33.5094 13.2504 33.3009 13.3063 33.1615C13.3318 33.098 13.3253 33.0405 13.2562 33.035C12.8448 33.0026 12.6837 33.3277 12.4691 33.4765C12.2953 33.5971 12.088 33.8576 11.7664 34.105C11.4816 34.3522 11.3324 34.5198 11.2488 34.6221C11.2022 34.669 11.1468 34.7059 11.0898 34.7439" stroke="#C1ABF5" stroke-width="4.28114" stroke-linecap="round"/>
<path d="M21.4713 48.7949C21.4434 48.8713 21.4087 49.3345 21.3807 49.5102C21.3682 49.5883 21.3771 49.2516 21.3823 49.1713C21.3875 49.0909 21.3979 49.1151 21.4187 49.1517C21.5223 49.3333 21.6239 49.5432 21.7184 49.7422C21.7947 49.9031 21.8615 50.0113 21.8894 50.046C21.9243 50.0897 22.0246 50.2058 22.2193 50.3555C22.4081 50.5006 22.5863 50.5721 22.675 50.6627C22.7417 50.7307 22.851 50.8229 22.997 50.981C23.1555 51.1526 23.2384 51.3077 23.2853 51.393C23.3784 51.5622 23.4442 51.674 23.4547 51.733C23.4608 51.7675 23.4582 51.8127 23.4203 51.7824C23.281 51.6709 23.1522 51.4692 23.02 51.3457C22.8417 51.1793 22.7233 51.1027 22.6306 51.0695C22.6028 51.0595 22.6007 51.1681 22.6111 51.3365C22.6268 51.5924 22.6634 51.8268 22.6617 51.9626C22.6601 52.0888 22.5419 52.1896 22.4581 52.2562C22.3884 52.3114 22.3221 52.3919 22.2715 52.4583C22.1291 52.6452 22.0502 53.0401 21.9926 53.1311C21.9428 53.2098 21.8795 53.3017 21.7974 53.474C21.7422 53.59 21.7084 53.7165 21.573 53.8958C21.4663 54.037 21.3324 54.0723 21.2466 54.0918C21.238 54.0937 21.2686 54.0591 21.2879 54.0397C21.3073 54.0204 21.3211 54.0066 21.2868 53.9995C21.0682 53.9542 20.7938 54.0028 20.5967 54.041C20.5704 54.0461 20.5514 54.0584 20.5545 54.062C20.575 54.0852 20.662 54.0552 20.7525 54.0395C20.8282 54.0264 20.9337 54.0066 21.43 53.9596C21.8558 53.9192 22.6407 53.9298 23.0701 53.921C23.4995 53.9122 23.5513 53.9053 23.8316 53.9018C24.112 53.8982 24.6193 53.8982 24.9237 53.8862C25.3159 53.8706 25.4828 53.825 25.6203 53.8216C25.7667 53.8179 25.8284 53.7834 25.8929 53.7311C25.9842 53.657 26.0794 53.6822 26.1316 53.6769C26.1561 53.6744 26.1768 53.6889 26.1875 53.7115C26.1982 53.734 26.1982 53.7686 26.2068 53.7743C26.3394 53.8619 26.4452 53.3176 26.4909 53.1058C26.5131 53.0028 26.5257 52.9123 26.5311 52.561C26.5333 52.4162 26.46 52.2781 26.411 52.1558C26.3739 52.0632 26.2998 51.888 26.2075 51.6965C26.1574 51.5925 26.0837 51.3798 26 51.0871C25.9508 50.9146 25.9125 50.7931 25.8706 50.6099C25.8433 50.4901 25.7974 50.3501 25.7817 50.2333C25.7716 50.1582 25.7311 50.0885 25.7207 49.8101C25.7171 49.5663 25.7171 49.1142 25.7137 48.8675C25.7102 48.6208 25.7033 48.5932 25.6962 48.5229" stroke="#C1ABF5" stroke-width="2.99679" stroke-linecap="round"/>
<path d="M33.1929 44.2115C33.1997 44.2115 33.2065 44.2115 33.4514 44.4189C33.6963 44.6263 34.1791 45.0411 34.4346 45.2598C34.6901 45.4786 34.7037 45.4888 34.7243 45.489C34.7449 45.4891 34.7721 45.4789 34.7657 45.4873C34.6818 45.5969 34.5535 45.6602 34.4553 45.6933C34.3967 45.713 34.2178 45.7669 33.9759 45.8132C33.8541 45.8366 33.7058 45.846 33.4167 45.8718C33.017 45.9074 32.7366 45.8873 32.6577 45.8976C32.4903 45.9195 32.1948 46.0035 32.0156 46.0538C31.8973 46.0869 31.8229 46.1552 31.7885 46.1791C31.7484 46.207 31.7642 46.2718 31.7796 46.3231C31.8213 46.4625 31.9253 46.5257 32.0078 46.5912C32.0465 46.6219 32.0835 46.653 32.15 46.8114C32.2072 46.9477 32.2947 47.2044 32.3488 47.363C32.4514 47.6636 32.4853 47.7962 32.5162 47.9063C32.5486 48.0216 32.66 48.184 32.6814 48.2281C32.8227 48.5207 32.5336 47.804 32.5369 47.7984C32.6022 47.6854 32.6739 48.088 32.7834 48.2472C32.9951 48.5551 33.1202 48.6138 33.2302 48.7013C33.4345 48.8638 33.6798 48.9468 33.7918 48.9969C33.8909 49.0413 33.9584 49.057 34.1229 49.1615C34.2433 49.2379 34.3155 49.3282 34.4115 49.4105C34.5292 49.5113 34.6386 49.5619 34.6184 49.5621C34.582 49.5624 34.503 49.5079 34.3097 49.3492C34.1163 49.1905 33.8137 48.9151 33.6273 48.7528C33.3856 48.5426 33.2893 48.5009 33.2277 48.4906C33.1535 48.4782 33.0697 48.5041 33.0011 48.5451C32.9422 48.5804 32.9456 48.6585 32.9473 48.7099C32.95 48.7913 33.0276 48.844 33.0982 48.9177C33.2034 49.0279 33.244 49.1425 33.4048 49.2559C33.7473 49.4972 33.9067 49.4176 33.9859 49.4656C34.0408 49.4989 34.1163 49.5309 34.1951 49.5703C34.2742 49.6099 34.4826 49.6474 34.7315 49.7195C34.8456 49.7526 34.9912 49.7814 35.1936 49.85C35.3252 49.8946 35.5504 49.9703 35.8506 50.0321C36.1075 50.085 36.3307 50.0737 36.487 50.0771C36.5347 50.0781 36.5176 50.0873 36.4986 50.0976C36.4027 50.1497 36.2672 50.187 36.1228 50.2041C35.9926 50.2196 35.6103 50.2214 35.3552 50.1752C35.2799 50.1615 35.2262 50.1015 35.0994 50.0259C34.9884 49.9597 34.7604 49.9023 34.5313 49.8421C34.3686 49.7994 34.2442 49.7749 34.1327 49.7578C34.0298 49.742 33.9384 49.7441 33.9329 49.7287C33.9016 49.6409 34.2423 49.7472 34.6559 49.8275C34.9274 49.8802 35.321 49.9723 35.599 50.023C35.877 50.0736 36.0265 50.0838 36.1546 50.0993C36.3858 50.1272 36.5952 50.1561 36.782 50.1527C36.8636 50.1512 36.9179 50.1425 37.0633 50.139C37.4431 50.1299 37.7053 50.1287 37.7464 50.1082C37.8515 50.0558 37.942 49.988 38.0433 49.9468C38.1319 49.9107 38.2134 49.8954 38.3771 49.827C38.5037 49.7742 38.7312 49.7179 38.9352 49.6846C39.3124 49.623 39.5593 49.6581 39.6861 49.6684C39.7515 49.6737 39.8196 49.6719 39.8376 49.6787C39.9625 49.7258 39.4784 49.744 39.2969 49.7304C39.1965 49.7229 39.0815 49.6896 38.6803 49.543C38.279 49.3964 37.5956 49.1312 37.2062 48.9691C36.8168 48.807 36.742 48.756 36.5453 48.643C36.3487 48.5301 36.0325 48.3567 35.7931 48.2384C35.4076 48.048 35.1989 47.9961 35.1235 47.9858C34.9981 47.9686 34.8077 47.8693 34.6682 47.715C34.6241 47.6662 34.8705 47.5061 35.1451 47.319C35.3405 47.186 35.4387 47.134 35.473 47.1391C35.5554 47.1512 35.5794 47.3324 35.6718 47.4324C35.7124 47.4763 35.8114 47.5108 36.0185 47.5795C36.2255 47.6483 36.5485 47.7366 36.7472 47.7856C37.0085 47.8499 37.2368 47.8483 37.4925 47.8534C37.6818 47.8572 37.7875 47.9204 37.8871 47.946C38.0308 47.983 38.1786 48.0062 38.6446 48.0098C38.9247 48.0119 39.1703 47.9586 39.3175 47.9C39.4049 47.8653 39.508 47.8108 39.6401 47.7575C39.7644 47.7074 39.8548 47.6835 39.9562 47.6596C40.0806 47.6302 40.2286 47.6013 40.3852 47.5737C40.5046 47.5526 40.5935 47.5872 40.6226 47.6214C40.6532 47.6574 40.6794 47.7174 40.6897 47.8982C40.7105 48.2621 40.6898 48.5246 40.6847 48.576C40.6754 48.6688 40.6419 48.7649 40.628 49.0424C40.6217 49.1689 40.5902 49.3037 40.5697 49.4105C40.5435 49.5472 40.4975 49.7292 40.4206 50.0912C40.3763 50.2998 40.35 50.4063 40.3396 50.5129C40.3312 50.5985 40.2881 50.664 40.2777 50.8696C40.2659 51.1028 40.2469 51.4471 40.2416 51.5466C40.257 51.6498 40.2708 51.8374 40.2827 52.0402C40.2946 52.0968 40.3184 52.0594 40.343 52.0209" stroke="#C1ABF5" stroke-width="2.99679" stroke-linecap="round"/>
<path d="M38.4355 33.2565C38.4737 33.2126 38.6383 33.1687 38.7817 33.0917C38.9245 33.0152 39.1219 32.9211 39.3208 32.9044C39.5198 32.8877 39.7393 32.8877 39.7888 32.9178C39.8834 32.9754 39.8822 33.2112 39.9237 33.3824C39.9746 33.5923 40.1186 33.7342 40.385 33.9683C40.5794 34.1391 40.8885 34.0541 41.4268 34.0626C41.6405 34.066 41.7693 33.9283 41.9478 33.8592C42.3166 33.7165 42.5121 33.7629 42.6771 33.6695C42.9129 33.536 43.3533 33.6031 43.5466 33.5703C43.7069 33.543 43.8491 33.4163 44.0581 33.3119C44.1897 33.2463 44.4312 33.0653 44.5977 32.8911C44.7842 32.696 45.0267 32.4212 45.2081 32.2063C45.4312 31.9421 45.5718 31.5295 45.6871 31.3589C45.7906 31.2056 45.8577 31.0835 45.9184 30.9817C45.9494 30.9298 46.001 30.8907 46.0421 30.8931C46.1435 30.899 46.0947 31.3007 46.0893 31.7075C46.0859 31.9622 46.0236 32.1713 45.9168 32.4455C45.6736 33.0697 45.4787 33.201 45.2741 33.4441C45.0998 33.6511 44.7481 33.9976 44.5141 34.2645C43.9865 34.8661 43.9713 35.0603 43.9133 35.1983C43.8647 35.3138 43.7785 35.4347 43.6605 35.6052C43.5233 35.8036 43.4213 35.9134 43.226 36.1798C43.1437 36.2921 43.14 36.4033 43.1591 36.4694C43.1761 36.5284 43.2828 36.4864 43.3322 36.4945C43.4756 36.5179 43.3495 36.8157 43.3053 36.9285C43.2401 37.0952 43.7666 36.6133 43.8769 36.5306C44.0079 36.4324 44.1628 36.3987 44.2977 36.338C44.4447 36.2718 44.5642 36.1293 44.7351 36.0245C44.9081 35.9184 45.0541 35.7932 45.2138 35.6314C45.3466 35.4967 45.4724 35.3918 45.8128 35.1502C46.0055 35.0134 46.166 34.9184 46.2208 34.8881C46.2507 34.8716 46.2974 34.885 46.309 34.9205C46.3755 35.1248 46.0957 35.2697 45.8646 35.4484C45.72 35.5603 45.5561 35.6439 45.4871 35.7183C45.402 35.8101 45.6979 35.5569 45.8274 35.4276C45.9356 35.3197 46.0993 35.2215 46.2564 35.0701C46.4316 34.9012 46.5563 34.7979 46.6693 34.6929C46.7933 34.5778 46.9362 34.4344 47.0736 34.286C47.1964 34.1533 47.3374 33.9128 47.4808 33.7357C47.5946 33.5952 47.6787 33.4387 47.7972 33.3257C47.8737 33.2528 47.9267 33.1578 47.9898 33.1028C48.0183 33.078 48.0475 33.0696 48.0724 33.0858C48.0973 33.102 48.1191 33.1456 48.1195 33.2007C48.1209 33.436 47.9441 33.5694 47.7023 33.7702C47.5475 33.8987 47.4598 34.0098 47.3087 34.18C47.0668 34.4525 46.9098 34.5929 46.8103 34.6977C46.7881 34.7211 46.7827 34.7579 46.8098 34.7503C47.0712 34.6761 47.2327 34.3961 47.3489 34.294C47.4501 34.2051 47.5249 34.0716 47.6404 33.8378C47.7398 33.6368 47.8497 33.4222 47.9267 33.2626C47.9994 33.1116 48.0587 32.9382 48.1686 32.7893C48.2976 32.6147 48.3888 32.4044 48.4714 32.2666C48.512 32.1986 48.6903 32.0145 48.9976 31.6908C49.3217 31.3495 49.4839 31.1109 49.5278 31.0696C49.5451 31.0533 49.5717 31.0772 49.5829 31.1456C49.6397 31.4908 49.5559 31.6381 49.5338 31.7978C49.5084 31.9809 49.2759 32.166 49.1626 32.3425C49.1378 32.3813 49.1105 32.414 49.0856 32.4417C49.0607 32.4694 49.0389 32.4912 49.0164 32.5137" stroke="#C1ABF5" stroke-width="2.99679" stroke-linecap="round"/>
<path d="M46.1001 22.019C45.9732 22.0287 45.7857 22.0509 45.5763 22.089C45.4351 22.1147 45.3483 22.1962 45.2463 22.2956C45.0998 22.4386 44.9882 22.5931 44.9326 22.6855C44.9121 22.7196 44.9235 22.7364 44.97 22.7623C45.2045 22.8927 45.3349 22.9017 45.483 22.9351C45.6112 22.964 45.673 23.025 45.8455 23.1137C45.8945 23.139 45.9272 23.1829 45.9728 23.2284C46.0065 23.2621 46.0846 23.399 46.2285 23.6315C46.3008 23.7483 46.3652 23.8664 46.4248 23.9988C46.4844 24.1313 46.5357 24.2753 46.5755 24.3776C46.6153 24.4799 46.6422 24.5361 46.6853 24.6553C46.7285 24.7746 46.7871 24.9553 46.838 25.1705C46.889 25.3857 46.9305 25.6298 46.9519 25.7849C46.9812 25.9977 46.9855 26.1127 47.004 26.2405C47.0146 26.3141 47.0102 26.4073 47.0139 26.482C47.0176 26.5567 47.0249 26.6104 47.0274 26.8639C47.03 27.1175 47.0276 27.5692 47.0007 27.913C46.9738 28.2568 46.9225 28.479 46.8851 28.6679C46.8477 28.8569 46.8257 29.0058 46.8083 29.1009C46.7839 29.2336 46.7563 29.3264 46.7342 29.4335C46.7142 29.5301 46.6872 29.6249 46.6676 29.7466C46.6284 29.9048 46.5862 30.0223 46.5603 30.0703C46.5515 30.0914 46.5515 30.1061 46.5515 30.1212" stroke="#C1ABF5" stroke-width="2.99679" stroke-linecap="round"/>
<path d="M43.642 22.274C43.6333 22.274 43.496 22.2588 43.2514 22.2357C43.0532 22.217 42.9454 22.23 42.8885 22.2431C42.7013 22.2863 42.6051 22.3942 42.5344 22.4498C42.5219 22.4596 42.508 22.4716 42.5285 22.4816C42.549 22.4916 42.6034 22.4981 42.7478 22.5015C42.8923 22.5048 43.1251 22.5048 43.2853 22.5103C43.4455 22.5157 43.5261 22.5266 43.6426 22.5322C43.9091 22.545 44.0771 22.5313 44.1056 22.5181C44.1708 22.488 44.2264 22.45 44.3011 22.4028C44.3282 22.3857 44.4258 22.4317 44.5632 22.512C44.607 22.5377 44.607 22.5162 44.5982 22.4985C44.5895 22.4808 44.5743 22.4634 44.5599 22.4403C44.5455 22.4172 44.5325 22.3889 44.519 22.3598" stroke="#C1ABF5" stroke-width="1.71245" stroke-linecap="round"/>
<path d="M43.6551 19.6693C43.5459 19.6867 43.3784 19.7308 43.2808 19.7965C43.1562 19.8803 43.0752 20.0662 43.0496 20.1844C43.0081 20.3762 43.0111 20.6386 43.0176 20.6649C43.021 20.6784 43.0285 20.6912 43.0482 20.7033C43.0969 20.7334 43.1668 20.7376 43.2446 20.7245C43.2909 20.7168 43.3462 20.6854 43.5549 20.5631C43.7636 20.4409 44.1226 20.2232 44.3598 20.0894C44.597 19.9555 44.7015 19.912 44.7575 19.8722C44.8135 19.8323 44.8178 19.7975 44.819 19.76C44.8213 19.6833 44.7983 19.6125 44.7621 19.5587C44.6768 19.4319 44.4182 19.5043 44.3522 19.5362C44.3163 19.5536 44.2795 19.5659 44.2575 19.5715C44.175 19.5924 44.4546 19.3796 44.5746 19.2861C44.6243 19.2473 44.6965 19.2145 44.8354 19.1816C45.0624 19.1278 45.2222 19.1572 45.3007 19.1779C45.4931 19.2286 45.6398 19.2867 45.6716 19.3229C45.7291 19.3882 45.7891 19.5258 45.7961 19.7048C45.801 19.829 45.726 19.9588 45.6527 20.1154C45.6091 20.2085 45.538 20.322 45.3749 20.5719C45.2117 20.8217 44.955 21.2025 44.8129 21.4259C44.6404 21.6971 44.6202 21.7793 44.6015 21.8209C44.5821 21.8643 44.5849 21.9351 44.599 22C44.6045 22.025 44.6415 22.0191 44.6843 21.9919C44.7918 21.9236 44.8878 21.7803 44.9755 21.6181C45.0201 21.5355 45.0545 21.4471 45.0845 21.349C45.1144 21.2508 45.1362 21.1442 45.1496 21.0305C45.1629 20.9168 45.1673 20.7993 45.1238 20.7464C45.0804 20.6935 44.989 20.7087 44.8309 20.7644C44.6729 20.8202 44.4509 20.9159 44.3104 20.9881C44.1095 21.0913 44.0378 21.19 43.9907 21.2613C43.9153 21.3752 43.9255 21.5737 43.968 21.7012C43.9776 21.7298 44.0345 21.7287 44.0711 21.7278C44.1076 21.7269 44.1381 21.7138 44.4345 21.5178C44.7309 21.3217 45.2923 20.9431 45.624 20.7045C45.9556 20.4659 46.0405 20.3789 46.0886 20.3427C46.1366 20.3066 46.1453 20.324 46.1531 20.5158C46.1608 20.7075 46.1674 21.0731 46.1707 21.2223C46.1741 21.3714 46.1741 21.2931 46.198 21.0319C46.222 20.7706 46.2698 20.3289 46.3054 20.0502C46.3409 19.7715 46.3627 19.6692 46.3935 19.6187C46.4243 19.5682 46.4635 19.5725 46.5315 19.5954C46.6983 19.6516 46.8027 19.7132 46.8376 19.7449C46.9017 19.8031 46.9762 19.8515 47.0559 19.9204C47.1102 19.9673 47.1988 20.0307 47.2785 20.0817C47.3582 20.1328 47.4278 20.1676 47.5485 20.253C47.6693 20.3384 47.839 20.4733 48.1332 20.7517C48.4273 21.0301 48.8408 21.4479 49.0581 21.6762C49.2928 21.9227 49.3149 21.9815 49.3533 22.0362C49.3954 22.0962 49.4138 22.1792 49.4696 22.2885C49.5587 22.4631 49.6074 22.597 49.6282 22.6419C49.6826 22.7592 49.6493 22.8717 49.634 22.9123C49.6273 22.9299 49.6143 22.9377 49.5728 22.9433C49.5313 22.9488 49.4595 22.951 49.3746 22.9184C49.2897 22.8858 49.194 22.8183 48.902 22.5714C48.6101 22.3245 48.1248 21.9002 47.7997 21.6315C47.4747 21.3629 47.3245 21.2628 47.2091 21.1916C47.0209 21.0756 46.8781 21.017 46.7738 20.972C46.7296 20.9529 46.7065 20.9336 46.6964 20.9398C46.6862 20.9461 46.6906 20.9766 46.9942 21.4297C47.2978 21.8827 47.9006 22.7575 48.2133 23.2234C48.526 23.6893 48.5303 23.7198 48.5326 23.7431C48.5348 23.7664 48.5348 23.7816 48.4739 23.7525C48.413 23.7233 48.2911 23.6493 48.0281 23.4404C47.7651 23.2315 47.3647 22.8898 47.091 22.6692C46.8173 22.4486 46.6824 22.3594 46.5574 22.2884C46.4324 22.2174 46.3214 22.1674 46.162 22.1405C46.0025 22.1136 45.798 22.1114 45.6621 22.1136C45.5263 22.1157 45.4654 22.1222 45.3339 22.1256C45.2024 22.129 45.0022 22.129 44.8838 22.1311C44.6623 22.1352 44.5588 22.2102 44.4381 22.2399C44.3911 22.2514 44.2716 22.2717 43.9763 22.2871C43.7834 22.2972 43.5025 22.2895 43.3405 22.2807C43.0891 22.2672 43.0355 22.2279 42.974 22.2475C42.9091 22.2682 42.875 22.3376 42.8475 22.3705C42.8249 22.3977 42.8177 22.4343 42.822 22.476C42.8307 22.5597 42.9775 22.5948 43.0592 22.6311C43.0858 22.6429 43.1164 22.6454 43.1743 22.6717C43.2841 22.7214 43.4258 22.7575 43.5367 22.7849C43.6445 22.8116 43.7382 22.852 43.8274 22.8817C43.8614 22.8931 43.8858 22.9114 43.9578 22.9452C44.124 23.0233 44.2745 23.096 44.3786 23.1256C44.4375 23.1423 44.5066 23.1703 44.5772 23.2012C44.6479 23.232 44.7176 23.2669 44.8361 23.3153C44.9547 23.3637 45.1201 23.4246 45.2325 23.4614C45.3449 23.4983 45.3993 23.5091 45.596 23.5963C45.7926 23.6836 46.1299 23.8468 46.345 23.9569C46.5601 24.0671 46.6428 24.1194 46.705 24.155C46.7672 24.1906 46.8063 24.208 46.8467 24.2259" stroke="#C1ABF5" stroke-width="1.71245" stroke-linecap="round"/>
<path d="M48.5552 34.1767C48.5552 34.1862 48.5552 34.1958 48.5743 34.1935C48.721 34.1763 48.9065 33.9314 49.0451 33.7908C49.2796 33.5529 49.2697 33.2645 49.3784 32.9725C49.4485 32.7844 49.521 32.6172 49.5911 32.484C49.708 32.2619 49.7192 32.1048 49.782 31.9887C49.846 31.8702 50.003 31.5654 50.1707 31.2693C50.2151 31.1909 50.2698 31.0952 50.3875 30.8886C50.5916 30.5301 50.7627 30.2738 50.7965 30.1798C50.8544 30.008 50.9221 29.8777 50.9607 29.7645C50.9801 29.7039 50.9992 29.637 51.0189 29.568" stroke="#C1ABF5" stroke-width="1.71245" stroke-linecap="round"/>
<path d="M48.7878 24.3796C48.7878 24.3988 48.7878 24.4179 48.8069 25.0327C48.826 25.6476 48.8643 26.8576 48.8792 27.5431C48.8942 28.2286 48.8846 28.3529 48.8271 28.6179C48.7695 28.8828 48.6643 29.2845 48.6029 29.5106C48.5309 29.776 48.5029 29.867 48.4884 29.9634C48.4818 30.0071 48.4834 30.0408 48.5193 30.0413C48.6318 30.0429 48.763 29.9164 48.905 29.7529C49.1103 29.5167 49.2317 29.2213 49.3234 28.9924C49.4099 28.7763 49.4588 28.5115 49.5313 28.2415C49.5917 28.0164 49.5702 27.8392 49.592 27.4245C49.6104 27.0725 49.5994 26.4312 49.5946 26.0796C49.5892 25.6846 49.5704 25.607 49.5656 25.5419C49.5611 25.4801 49.4649 25.0886 49.3394 24.5188C49.2695 24.2015 49.2037 24.0712 49.1502 23.9405C49.086 23.7836 49.015 23.6075 48.945 23.3973C48.8993 23.2602 48.9037 23.1194 48.8388 22.9528C48.8193 22.9028 48.8121 22.8446 48.8024 22.8007C48.7927 22.7567 48.7831 22.7281 48.8165 22.7898C49.0271 23.1799 49.053 23.3353 49.1377 23.4541C49.2651 23.6327 49.3043 23.8283 49.3889 23.9251C49.5012 24.0538 49.5507 24.1762 49.6281 24.2658C49.7118 24.3627 49.7344 24.4712 49.7443 24.4572C49.9299 24.1925 49.4356 23.8976 49.2017 23.5524C49.154 23.482 49.1455 23.4527 49.2362 23.4403C49.5157 23.4021 49.7344 23.4663 49.7682 23.5241C49.7998 23.5783 49.9362 23.8746 50.1439 24.2922C50.2673 24.5404 50.2753 24.6689 50.3022 24.8572C50.3214 24.9916 50.3576 25.0941 50.3818 25.8051C50.4044 26.4678 50.3773 27.7451 50.3604 28.4436C50.3436 29.1421 50.3197 29.2234 50.3026 29.3035C50.2382 29.6052 50.1457 29.8376 50.0779 30.0285C49.9763 30.3144 49.8895 30.4608 49.8652 30.6013C49.8391 30.752 49.7785 30.8622 49.718 31.0022C49.6804 31.0892 49.6092 31.1474 49.5994 31.167C49.566 31.2332 49.7198 30.9986 49.8112 30.78C49.8755 30.6262 49.9504 30.375 50.009 30.1631C50.1131 29.7871 50.1356 29.5828 50.1523 29.4843C50.209 29.1509 50.295 29.0373 50.3286 28.8779C50.3735 28.6652 50.4736 28.4918 50.5075 28.3511C50.5353 28.2358 50.5704 28.1193 50.6304 27.9022C50.6781 27.7298 50.7681 27.5883 50.819 27.4212C50.8311 27.3895 50.8454 27.3703 50.8481 27.3414C50.8507 27.3124 50.8411 27.2741 50.8023 27.1767" stroke="#C1ABF5" stroke-width="3.42491" stroke-linecap="round"/>
<path d="M12.3745 31.1149C10.662 31.8998 7.40834 34.1973 8.09332 37.1085C8.7783 40.0197 11.5182 42.1745 12.8026 42.8881L13.6588 45.2427C13.1593 44.7432 12.032 43.9155 11.5182 44.6005C10.8761 45.4567 11.3042 46.7411 13.2307 47.1692C15.1572 47.5973 16.8697 46.7411 16.8697 46.527" stroke="#3E235A" stroke-width="0.856227" stroke-linecap="round" stroke-linejoin="round"/>
<path d="M19.6521 45.2427C19.7235 46.8838 20.1231 50.5513 21.1505 52.0925C20.3656 52.3779 18.7959 53.1628 18.7959 54.019C18.7959 55.0893 19.224 55.3033 20.7224 55.3033C21.9211 55.3033 25.2176 55.3033 26.716 55.3033C27.1441 55.3033 28.0003 55.0465 28.0003 54.019C28.0003 52.9915 27.4295 48.1681 27.1441 45.8848" stroke="#3E235A" stroke-width="0.856227" stroke-linecap="round" stroke-linejoin="round"/>
<path d="M30.3553 45.4567C30.1413 46.8124 30.3982 49.8663 33.1381 51.2363C35.878 52.6062 38.2754 51.8071 39.1317 51.2363C38.989 52.2352 39.0032 54.1475 40.202 53.805C41.7004 53.3768 42.5566 49.7379 42.3425 47.5973C42.1713 45.8849 41.1295 45.7422 40.6301 45.8849C40.1306 46.0989 39.046 46.527 38.7036 46.527C38.2754 46.527 36.1349 47.1692 36.1349 44.8146" stroke="#3E235A" stroke-width="0.856227" stroke-linecap="round" stroke-linejoin="round"/>
<path d="M16.6557 15.2748C17.2265 14.918 18.411 14.1617 18.5822 13.9904C19.7952 13.0628 22.478 11.1221 23.5055 10.7796C24.533 10.4371 25.6461 10.6369 26.0742 10.7796L47.2658 19.1278L42.3425 25.7635C42 26.2773 41.0582 26.1203 40.6301 25.9776C33.0667 23.1235 17.6832 17.2869 16.6557 16.7732C15.6282 16.2594 16.2276 15.5602 16.6557 15.2748Z" fill="#B8AAC2" stroke="#3E235A" stroke-width="0.856227" stroke-linecap="round" stroke-linejoin="round"/>
<path d="M20.0805 15.2748L23.9335 12.278C24.6185 11.7452 25.9314 12.1987 26.5022 12.492L44.0548 19.3418C43.4127 20.3408 41.9999 22.5527 41.4862 23.4089C40.9724 24.2652 39.7023 24.0511 39.1315 23.837C33.2806 21.6251 21.322 17.0728 20.2945 16.5591C19.2671 16.0454 19.7237 15.4888 20.0805 15.2748Z" fill="white" stroke="#3E235A" stroke-width="0.856227" stroke-linecap="round" stroke-linejoin="round"/>
<path d="M18.3682 13.5623C18.7107 13.0485 18.2255 12.9201 17.9401 12.9201C16.8698 12.492 16.8698 12.0639 17.726 11.2076C18.411 10.5227 19.7239 11.3503 20.2947 11.8498L20.9369 11.4217C21.7218 11.7071 23.42 12.3635 23.9337 12.706C24.4474 13.0485 24.1477 13.4196 23.9337 13.5623C23.3629 14.0617 22.1784 15.1035 22.0072 15.2747C21.8359 15.446 21.365 15.3461 21.151 15.2747C20.5088 14.9893 19.096 14.3757 18.5823 14.2044C18.0685 14.0332 18.2255 13.705 18.3682 13.5623Z" fill="#B8AAC2" stroke="#3E235A" stroke-width="0.856227" stroke-linecap="round" stroke-linejoin="round"/>
<path d="M42.1284 21.2684C41.7716 19.9127 42.0856 17.8007 46.1955 20.1981" stroke="#3E235A" stroke-width="0.856227" stroke-linecap="round" stroke-linejoin="round"/>
<path d="M41.7002 38.821C43.6981 38.7497 48.4216 37.3226 51.3328 32.1853C54.2439 27.0479 51.4041 22.3386 49.6203 20.6262C48.336 19.3418 45.2535 17.2013 43.1986 18.9137" stroke="#3E235A" stroke-width="0.856227" stroke-linecap="round" stroke-linejoin="round"/>
<path d="M45.125 21.9105C44.6255 21.5537 43.3697 20.9258 42.3423 21.2683C41.9855 21.3397 41.3576 21.7392 41.7001 22.7667C42.1282 24.051 44.6969 23.4089 45.125 24.9073C45.5531 26.4057 45.7672 31.9711 41.272 32.1852" stroke="#3E235A" stroke-width="0.856227" stroke-linecap="round" stroke-linejoin="round"/>
</svg>
