<svg width="60" height="60" viewBox="0 0 60 60" fill="none" xmlns="http://www.w3.org/2000/svg">
<path d="M12.7592 31.9919C12.6369 32.1143 12.4793 32.2885 12.3111 32.4793C12.1952 32.6107 11.9745 32.8549 11.694 33.2028C11.5135 33.4266 11.3557 33.6252 11.146 33.9497C10.847 34.4128 10.5466 34.7488 10.4179 34.9757C10.278 35.2222 10.1085 35.4231 9.98532 35.6024C9.86411 35.7789 9.64289 36.012 9.40756 36.3484C9.06507 36.8379 8.91778 36.9567 8.79678 37.0778C8.59896 37.2758 8.45672 37.502 8.48697 37.5637C8.51323 37.6172 8.66737 37.6143 10.0345 37.648C11.4017 37.6817 14.0042 37.7261 15.3616 37.7463C16.719 37.7664 16.7523 37.7609 16.8307 37.758C16.9091 37.7551 17.0314 37.7551 17.1575 37.7551" stroke="#C7B5F9" stroke-width="2.48597" stroke-linecap="round"/>
<path d="M15.8592 38.0922C15.8033 38.2433 15.7581 38.4339 15.7106 38.6167C15.698 38.665 15.6853 38.7147 15.5878 38.9796C15.4903 39.2445 15.3068 39.7227 15.2067 40.0052C15.0343 40.492 14.9216 40.7422 14.7813 41.1855C14.7266 41.3583 14.5293 41.7289 14.3159 42.2481C14.1441 42.6664 14.0285 42.9161 13.9301 43.1412C13.8456 43.3345 13.7364 43.5232 13.7663 43.5326C13.8632 43.5633 14.0574 43.2696 14.3137 43.0831C14.5699 42.8965 14.8646 42.7297 15.0999 42.6104C15.3351 42.4911 15.502 42.4243 15.7853 42.2787C16.0687 42.1331 16.4635 41.9107 16.7837 41.7461C17.1038 41.5814 17.3374 41.4813 17.5384 41.3769C17.9099 41.1839 18.178 41.0024 18.3854 40.8903C18.6977 40.7216 18.8412 40.6091 18.9762 40.5443C19.1279 40.4348 19.274 40.3337 19.3581 40.2693C19.3977 40.2382 19.431 40.2104 19.4823 40.148" stroke="#C7B5F9" stroke-width="2.48597" stroke-linecap="round"/>
<path d="M13.7192 43.4677C13.7472 43.5011 13.7809 43.6022 13.8089 43.6611C13.822 43.6888 13.848 43.7033 13.8789 43.7064C13.9489 43.7132 14.089 43.6312 14.591 43.4635C14.9867 43.3314 15.6936 43.1846 16.4048 43.0042C17.1161 42.8237 17.8168 42.6346 18.2584 42.5289C18.7 42.4231 18.8613 42.4064 19.1168 42.3561C19.7201 42.2373 20.1334 42.1087 20.2483 42.0666C20.3021 42.0522 20.3466 42.0522 20.3862 42.0467C20.4258 42.0411 20.4591 42.03 20.4935 42.0185" stroke="#C7B5F9" stroke-width="2.48597" stroke-linecap="round"/>
<path d="M18.8786 42.5302C18.8373 42.6126 18.8267 42.7784 18.8913 43.0837C18.9345 43.2878 18.9614 43.5246 19.0053 43.796C19.0302 43.9496 19.1054 44.2149 19.1398 44.4345C19.1994 44.8152 19.1947 45.1466 19.2258 45.4133C19.2442 45.5716 19.262 45.733 19.3009 46.3479C19.3329 46.8542 19.3141 47.7584 19.3269 48.2058C19.3398 48.6531 19.3654 48.6172 19.4223 48.5499C19.4791 48.4827 19.5664 48.3852 20.0116 47.7652C20.4569 47.1453 21.2576 46.0059 21.7958 45.2932C22.334 44.5805 22.5855 44.329 23.0512 43.9018C23.5169 43.4745 24.1893 42.8792 24.7127 42.7932C25.2361 42.7072 25.5902 43.1486 25.8266 43.4606C26.1838 43.9324 26.3022 44.1627 26.4129 44.3764C26.5004 44.5454 26.6621 44.8314 26.7672 45.0333C26.9263 45.3391 27.0482 45.6029 27.1854 45.8644C27.279 46.0427 27.3286 46.1793 27.4395 46.3829C27.7969 47.0391 27.8364 47.2881 27.9297 47.3977C28.1678 47.6775 27.8581 46.8137 27.7725 46.6419C27.6829 46.462 27.5629 46.2488 27.4047 46.0096C27.2931 45.8409 27.1794 45.6728 27.0185 45.5092C26.8264 45.2678 26.6509 45.0513 26.4949 44.82C26.4382 44.7399 26.3458 44.6167 26.2195 44.4276" stroke="#C7B5F9" stroke-width="2.48597" stroke-linecap="round"/>
<path d="M23.7461 43.7899C23.7512 43.7951 23.7564 43.8002 24.0285 44.0518C24.3005 44.3033 24.8394 44.8012 25.135 45.0782C25.4702 45.3923 25.56 45.4899 25.6969 45.6292C26.0589 45.9978 26.2697 46.2407 26.4465 46.4178C26.5164 46.4878 26.6174 46.5939 26.7905 46.7951C27.2566 47.3371 27.3332 47.5581 27.4446 47.7319C27.5545 47.9035 27.6755 48.0511 27.7246 48.1054C27.7641 48.149 27.8924 47.801 28.0685 47.213C28.1649 46.8911 28.2355 46.7251 28.3845 46.2901C28.5074 45.9315 28.7901 45.3163 28.9841 44.8963C29.2742 44.2681 29.4535 44.0134 29.5414 43.8945C29.6972 43.6556 29.7908 43.5414 29.8269 43.4896C29.8527 43.4686 29.8938 43.4584 29.9361 43.4478" stroke="#C7B5F9" stroke-width="2.48597" stroke-linecap="round"/>
<path d="M29.4541 44.7387C29.6143 44.6506 29.7801 44.5887 30.1084 44.503C30.3064 44.4514 30.4697 44.5001 30.6065 44.5387C30.8151 44.5977 31.8023 43.9623 32.0347 44.148C32.3735 44.4186 32.5238 44.6831 32.5983 44.7966C32.8737 45.2155 33.0522 45.3617 33.2902 45.6777C33.4458 45.8843 33.5652 46.098 33.6718 46.3467C33.7668 46.5682 33.856 46.6995 33.9672 46.8782C34.1065 47.1021 33.6876 48.0015 33.76 48.2064C33.8175 48.3687 33.9 48.4631 33.998 48.5539C34.0517 48.6037 34.1678 48.5779 34.3824 48.4932C34.5969 48.4084 34.6266 48.3295 34.8496 48.2064C35.192 48.0174 35.3738 47.8654 35.5879 47.7233C35.917 47.5049 36.1881 47.414 36.2887 47.3263C36.4586 47.1781 36.6542 47.0257 36.8145 46.8782C36.9732 46.7322 37.2597 46.4877 37.5448 46.1717C37.7276 45.9691 37.7848 45.828 37.9891 45.4997C38.2792 45.0336 38.345 44.5265 38.3605 44.4463C38.368 44.4076 38.3658 44.3713 38.2221 44.3528C38.0784 44.3343 37.791 44.3343 37.4556 44.3779C37.1202 44.4215 36.7455 44.5088 36.5371 44.5537C36.3287 44.5987 36.2979 44.5987 36.2846 44.5859C36.2563 44.5585 36.4049 44.2694 36.6044 43.8345C36.733 43.554 36.7738 43.3245 36.8822 42.884C36.9633 42.5544 37.042 41.997 37.0895 41.5139C37.1371 41.0307 37.1371 40.6355 37.1243 40.3806C37.0993 39.8829 36.967 39.5982 36.9066 39.2832C36.888 39.1862 36.8314 39.1142 36.8158 39.0366C36.8025 38.9703 37.0158 38.8143 37.4655 38.5841C37.7029 38.4625 37.9869 38.3897 38.2709 38.3243C38.5548 38.2588 38.8371 38.2177 39.0646 38.1966C39.4552 38.1603 39.6769 38.1857 39.8368 38.2628C40.1362 38.4073 40.4766 37.8534 40.6758 37.9671C40.9865 38.1445 41.166 38.3406 41.3428 38.4523C41.4435 38.5159 41.535 38.5537 41.8228 38.713C42.0828 38.8568 42.5624 39.1494 42.8571 39.3462C43.1518 39.543 43.2442 39.6405 43.3354 39.7216C43.4266 39.8026 43.5139 39.8642 43.7513 40.1217C43.9887 40.3793 44.3736 40.8309 44.654 41.1817C44.9345 41.5324 45.0987 41.7685 45.1936 41.9055C45.2884 42.0425 45.309 42.0733 45.3612 42.1361" stroke="#C7B5F9" stroke-width="2.48597" stroke-linecap="round"/>
<path d="M40.6749 34.5844C40.727 34.5471 40.8358 34.5279 41.0772 34.5503C41.2376 34.5651 41.4713 34.6173 41.7672 34.7148C42.0631 34.8123 42.4131 34.9613 42.7033 35.1106C42.9935 35.26 43.2132 35.4052 43.3618 35.521C43.5103 35.6367 43.5811 35.7187 43.638 35.7963C43.6949 35.8738 43.7359 35.9446 43.9488 36.2175C44.1617 36.4904 44.5452 36.9634 44.7652 37.2424C45.0367 37.5868 45.0907 37.6985 45.117 37.7735C45.1739 37.9357 45.2148 38.0668 45.2881 38.223C45.3044 38.2578 45.3015 38.2888 45.322 38.2856C45.3947 38.274 45.086 38.3112 45.2881 38.0826C45.4166 37.9374 45.6242 37.7573 45.793 37.6297C45.9618 37.5022 46.7843 38.3863 46.9502 38.2922C47.3181 38.0835 47.5577 37.93 47.6402 37.8888C47.7259 37.846 47.8245 37.7872 48.006 37.7216C48.305 37.6136 48.5208 37.5688 48.5993 37.565C48.8949 37.5506 49.0545 37.7225 49.175 37.8465C49.4069 38.0851 49.4351 38.4066 49.4781 38.5706C49.5179 38.7223 49.2434 37.6946 49.2474 38.0023C49.2491 38.1383 49.195 38.2959 49.1405 38.4781C49.0992 38.616 49.0448 38.8408 48.9136 39.1597C48.7814 39.4809 48.6607 39.6658 48.6046 39.7706C48.5118 39.9442 48.4013 40.0944 48.2817 40.2982C48.1947 40.4465 48.0281 40.6696 47.9121 40.8183C47.7398 41.0391 47.6302 41.1439 47.5608 41.2489C47.4061 41.4832 47.3065 41.5916 47.1361 41.8448C46.9642 42.1001 46.8667 42.1597 46.769 42.2386C46.6115 42.3659 46.413 42.5575 46.2406 42.6787C46.022 42.8323 46.4711 42.5318 46.2929 42.5945C46.2011 42.6268 46.12 42.6379 46.0035 42.6285C45.7887 42.6112 45.7063 42.5517 45.5465 42.3997C45.3635 42.2255 45.2246 42.0326 45.1568 41.963C45.0528 41.8563 44.9689 41.732 44.8354 41.5871C44.7882 41.5357 44.7208 41.4536 44.6287 41.3578C44.5729 41.2997 44.4319 41.1421 44.2102 40.9279C44.079 40.801 44.0446 40.3902 43.9488 40.2982C43.8834 40.2354 43.7518 40.1049 43.5695 39.9358C43.4095 39.7874 43.2401 39.6498 42.9779 39.408C42.8239 39.266 42.6113 39.1029 42.476 38.9998C42.289 38.8574 42.1825 38.7877 42.0664 38.694C41.9074 38.5656 41.7686 38.4978 41.7123 38.4622C41.6551 38.4261 40.8387 38.7164 40.6414 38.5962C40.5262 38.526 40.244 38.7305 39.9696 38.5708C39.8313 38.4903 39.765 38.4401 39.6917 38.41C39.6341 38.3864 39.4056 38.3014 39.0691 38.2054C38.9422 38.1693 38.9003 38.1728 38.8065 38.1561C38.7128 38.1393 38.5676 38.1058 37.8541 38.1034C37.1407 38.1011 35.8634 38.1309 34.5474 38.1615" stroke="#C7B5F9" stroke-width="2.48597" stroke-linecap="round"/>
<path d="M41.3808 34.3964C41.1909 34.2671 41.0668 34.1344 40.9478 34.0024C40.8681 33.914 40.7402 33.7905 40.6099 33.6358C40.4795 33.4812 40.3482 33.3014 40.2377 33.1159C40.1272 32.9305 40.0416 32.7449 39.9918 32.6079C39.9138 32.3935 39.9187 32.2458 39.9244 32.1493C39.9281 32.0876 40.0247 32.0179 40.1828 31.9158C40.2672 31.8613 40.3695 31.8165 40.8877 31.683C41.4059 31.5495 42.3395 31.3326 42.9759 31.1708C43.6124 31.0091 43.9236 30.9092 44.0968 30.8534C44.2699 30.7977 44.2956 30.7891 44.3103 30.7761C44.3249 30.7632 44.3278 30.746 44.3021 30.7144C44.2765 30.6827 44.2222 30.637 43.9245 30.4179C43.6268 30.1989 43.0872 29.8078 42.3896 29.2109C41.692 28.614 40.8527 27.8232 40.406 27.4059C39.9594 26.9885 39.9308 26.9685 39.8576 26.9025C39.7844 26.8366 39.6673 26.7252 39.5956 26.6593C39.5239 26.5934 39.5011 26.5763 39.4775 26.5586" stroke="#C7B5F9" stroke-width="2.48597" stroke-linecap="round"/>
<path d="M38.2964 22.372C38.3065 22.372 38.3166 22.372 38.3459 22.3594C38.3752 22.3467 38.4233 22.3214 39.053 22.335C39.6827 22.3485 40.8927 22.4017 41.6349 22.4531C42.3772 22.5045 42.6151 22.5526 42.8326 22.5875C43.0501 22.6224 43.24 22.6427 43.3517 22.6531C43.491 22.6661 43.5452 22.6686 43.5912 22.6763C43.6117 22.6797 43.627 22.6789 43.6298 22.7067C43.6325 22.7345 43.6224 22.7902 43.1173 23.5872C42.6121 24.3841 41.6123 25.9205 41.0441 26.7715C40.4759 27.6225 40.3695 27.7415 40.3148 27.7964C40.26 27.8514 40.26 27.8387 40.26 27.8257" stroke="#C7B5F9" stroke-width="2.48597" stroke-linecap="round"/>
<path d="M41.2879 23.6837C41.2474 23.6938 41.2069 23.704 40.9607 23.7509C40.7146 23.7979 40.264 23.8815 39.9332 23.9726C39.6024 24.0637 39.4049 24.1599 39.2741 24.2297C39.0851 24.34 39.0074 24.4045 38.978 24.4466C38.9663 24.4659 38.9613 24.4811 38.9561 24.4968" stroke="#C7B5F9" stroke-width="2.48597" stroke-linecap="round"/>
<path d="M33.7402 17.7506C33.7428 17.7456 33.7453 17.7405 33.8516 17.6556C33.958 17.5707 34.1681 17.4062 35.1255 16.8949C36.083 16.3837 37.7815 15.5307 38.6754 15.0849C39.5694 14.6391 39.6073 14.6265 39.6345 14.6161C39.6616 14.6058 39.6768 14.5982 39.6821 14.6968C39.6874 14.7954 39.6823 15.0005 39.5747 15.968C39.467 16.9355 39.2569 18.6593 39.1487 19.5776C39.0405 20.496 39.0405 20.5568 39.0367 20.5982C39.0329 20.6396 39.0253 20.6599 39.0214 20.7715C39.0175 20.8832 39.0175 21.0857 39.0111 21.209C39.0028 21.3712 38.9741 21.4524 38.9613 21.5442C38.9471 21.6467 38.9255 21.7161 38.8963 21.8251C38.8259 22.0879 38.8027 22.2837 38.8002 22.3206C38.7747 22.4191 38.749 22.4754 38.7439 22.5086C38.7389 22.5265 38.7288 22.5468 38.703 22.583" stroke="#C7B5F9" stroke-width="2.48597" stroke-linecap="round"/>
<path d="M29.5942 15.7103C29.6018 15.7052 29.6094 15.7002 30.1753 15.2521C30.7411 14.804 31.865 13.913 32.5199 13.3768C33.1748 12.8406 33.3267 12.6862 33.4353 12.5864C33.5972 12.4376 33.6773 12.3892 33.7053 12.3586C33.7232 12.3431 33.7485 12.328 33.7806 13.2466C33.8126 14.1652 33.8505 16.018 33.8897 17.9271" stroke="#C7B5F9" stroke-width="2.48597" stroke-linecap="round"/>
<path d="M23.8921 15.5762C23.9248 15.4804 23.9575 15.3846 23.9884 15.3002C24.0192 15.2159 24.0473 15.1458 24.5301 14.2897C25.0129 13.4336 25.9497 11.7936 26.4358 10.9441C26.9219 10.0946 26.9289 10.0852 26.9396 10.0652C26.9502 10.0452 26.9642 10.0149 26.9761 10.0027C26.988 9.99059 26.9973 9.9976 27.3047 10.4965C27.612 10.9954 28.2171 11.9859 28.5463 12.5417C28.8755 13.0975 28.9106 13.1886 28.9835 13.3524C29.0565 13.5161 29.1663 13.7497 29.2275 13.8864C29.3317 14.119 29.3666 14.2167 29.3949 14.2863C29.4217 14.3522 29.4398 14.408 29.5053 14.5157C29.5616 14.6079 29.655 14.7822 29.7067 14.8806C29.7584 14.979 29.7631 14.9977 29.7701 15.012C29.7772 15.0263 29.7866 15.0356 29.7962 15.0736" stroke="#C7B5F9" stroke-width="2.48597" stroke-linecap="round"/>
<path d="M18.3696 18.2601C18.3804 18.2439 18.3994 18.1388 18.4197 17.968C18.4285 17.8942 18.4267 17.8456 18.475 17.4269C18.5234 17.0081 18.6202 16.2205 18.6701 15.7798C18.7199 15.3391 18.7199 15.2692 18.7266 15.1794C18.7333 15.0897 18.7468 14.9821 18.7564 14.6163C18.766 14.2504 18.7714 13.6294 18.7768 13.3015C18.7823 12.9735 18.7877 12.9574 18.7904 12.9276C18.7932 12.8977 18.7932 12.8547 19.0419 13.0396C19.2905 13.2244 19.7878 13.6384 20.3881 14.0855C20.9884 14.5326 21.6766 15.0004 22.0848 15.2696C22.4931 15.5387 22.6006 15.5952 22.6923 15.6377C22.784 15.6802 22.8566 15.7071 23.3348 15.9468C23.8131 16.1864 24.6948 16.638 25.6358 17.1196" stroke="#C7B5F9" stroke-width="2.48597" stroke-linecap="round"/>
<path d="M14.9645 22.4267C14.9591 22.4267 14.9537 22.4267 14.8811 22.2076C14.8084 21.9886 14.6686 21.5504 14.3843 20.8206C14.0999 20.0909 13.6752 19.0828 13.408 18.4076C13.1408 17.7324 13.044 17.4206 12.9915 17.2492C12.9389 17.0778 12.9335 17.0563 13.6391 17.2186C14.3447 17.3809 15.7613 17.7277 16.725 17.913C17.6887 18.0984 18.1564 18.1118 18.5452 18.1416C18.934 18.1714 19.2297 18.2171 19.4197 18.2406C19.6096 18.2641 19.6849 18.2641 19.7344 18.2628C19.784 18.2615 19.8055 18.2588 19.8439 18.256" stroke="#C7B5F9" stroke-width="2.48597" stroke-linecap="round"/>
<path d="M12.8797 27.579C12.7664 27.5306 12.5785 27.4082 12.4854 27.2949C12.4139 27.2079 12.3036 27.0526 12.0976 26.8299C11.8916 26.6071 11.5959 26.3195 11.1237 25.8823C10.6514 25.4452 10.0116 24.8672 9.65653 24.5359C9.3014 24.2046 9.25033 24.1373 9.19176 24.0718C9.07373 23.9398 8.9565 23.8539 8.87517 23.8024C8.81134 23.762 8.71514 23.6535 8.58631 23.5192C8.46557 23.3933 8.38344 23.3516 8.3559 23.2864C8.34651 23.2641 8.39875 23.2351 8.98795 23.1809C9.57714 23.1267 10.7223 23.0487 11.3848 22.9951C12.0473 22.9415 12.1925 22.9146 12.778 22.7556C13.3635 22.5966 14.385 22.3063 14.9368 22.146C15.4886 21.9857 15.5397 21.9642 15.5767 21.9531C15.6138 21.942 15.6353 21.942 15.6574 21.942" stroke="#C7B5F9" stroke-width="2.48597" stroke-linecap="round"/>
<path d="M8.30127 23.0906C8.35503 23.0852 8.4088 23.0799 8.59644 23.0771C8.78408 23.0743 9.10397 23.0743 9.3857 23.0595C9.66743 23.0447 9.9013 23.0152 10.0702 22.9999C10.3352 22.976 10.4839 22.9793 10.6123 22.9712C10.6922 22.9661 10.8026 22.9684 10.9588 22.955C11.115 22.9415 11.314 22.9147 11.7 22.9008C12.0861 22.887 12.6533 22.887 13.0504 22.8695C13.4474 22.852 13.6571 22.8171 14.1589 22.787C14.6607 22.7569 15.4484 22.7327 15.7412 22.7283C16.0341 22.7239 15.8082 22.74 14.9715 22.8411C14.1347 22.9421 12.6939 23.1276 11.8159 23.2258C10.9379 23.3241 10.6664 23.3294 10.4969 23.3362C10.3275 23.343 10.2684 23.3511 10.1492 23.3553C9.85273 23.3656 9.65635 23.3567 9.53921 23.3392C9.24235 23.2948 9.01029 23.2698 8.94798 23.2564C8.80036 23.2245 8.74131 23.1097 8.71284 23.0961C8.69949 23.0898 8.69244 23.0772 9.43022 23.0865C10.168 23.0957 11.6519 23.1253 12.8665 23.1795C14.0812 23.2337 14.9818 23.3117 15.4981 23.3626C16.0144 23.4135 16.1193 23.435 16.2273 23.4572" stroke="#C7B5F9" stroke-width="2.48597" stroke-linecap="round"/>
<path d="M12.8588 27.0699C12.8481 27.0699 12.6974 27.1263 12.4075 27.2616C12.2583 27.3313 12.1231 27.4399 12.0067 27.5153C11.8904 27.5907 11.8016 27.6391 11.4939 27.8361C11.1861 28.0331 10.6619 28.3771 10.1512 28.6754C9.64061 28.9736 9.15943 29.2155 8.86585 29.3549C8.57227 29.4944 8.48087 29.5239 8.40691 29.5526C8.1822 29.6397 8.0506 29.7142 7.96751 29.743C7.84505 29.7855 7.75735 29.8392 7.65777 29.8598C7.65056 29.8613 7.71499 29.8719 7.88646 29.9406C8.05793 30.0093 8.34826 30.1383 9.08652 30.5005C9.82479 30.8626 11.0022 31.454 11.7217 31.795C12.4411 32.1359 12.6669 32.2085 12.8343 32.2567C13.0017 32.3048 13.1039 32.3263 13.2173 32.3648" stroke="#C7B5F9" stroke-width="2.48597" stroke-linecap="round"/>
<path d="M12.2479 29.3834C11.9899 29.4801 11.7318 29.5769 11.6311 29.6079C11.596 29.6188 11.8173 29.4282 12.0684 29.2084C12.1645 29.1242 12.193 29.0908 12.2123 29.0674C12.2873 28.9766 11.8815 29.4779 11.8719 29.5458C11.8661 29.5864 11.9841 29.5438 12.0923 29.5112C12.2284 29.4703 12.3991 29.4811 12.5523 29.4892C12.6199 29.4927 12.6652 29.5134 12.7008 29.5499C12.778 29.6291 12.8017 29.7763 12.8261 30.0073C12.8425 30.1624 12.8344 30.3969 12.8398 30.512C12.8452 30.6271 12.856 30.6163 13.0873 30.5019C13.3186 30.3875 13.7703 30.1698 14.0997 30.0267C14.4291 29.8836 14.6226 29.8218 14.8221 29.7581" stroke="#C7B5F9" stroke-width="2.48597" stroke-linecap="round"/>
<path d="M51.5742 27.1382C51.5742 27.1161 51.4833 27.0303 51.2021 26.8831C51.0217 26.7886 50.7252 26.7414 50.3887 26.7045C50.0521 26.6676 49.6745 26.6648 49.3586 26.6924C49.0428 26.7199 48.8002 26.7778 48.5898 26.8434C48.3794 26.9091 48.2084 26.9808 48.0983 27.0329C47.9882 27.0849 47.9441 27.1153 47.7891 27.277C47.6341 27.4387 47.3694 27.7309 47.2221 27.8966C47.0023 28.1437 46.9773 28.3096 46.9741 28.4479C46.9736 28.4718 47.0072 28.4719 47.2308 28.4182C47.4545 28.3644 47.879 28.2542 48.1556 28.1905C48.4321 28.1268 48.5479 28.113 48.6999 28.1059C49.0363 28.0902 49.249 28.1016 49.2906 28.1085C49.3276 28.1146 49.3549 28.1349 49.3812 28.1723C49.425 28.2344 49.4412 28.4287 49.4317 28.6969C49.4238 28.9186 49.319 29.0562 49.2814 29.1424C49.2531 29.2072 49.2466 29.2873 49.198 29.3983C49.1318 29.5495 49.1127 29.7104 49.1238 29.8258C49.1317 29.908 49.1876 29.9641 49.2597 30.0238C49.3562 30.1037 49.5128 30.1535 49.6561 30.1911C49.7396 30.213 49.8415 30.2177 50.0411 30.2372C50.1685 30.2496 50.3509 30.2401 50.4695 30.2318C50.6387 30.22 50.7163 30.1845 50.8298 30.1209C50.9176 30.0717 51.059 29.9747 51.2527 29.8051C51.4465 29.6355 51.6863 29.3929 51.8416 29.2046C51.9968 29.0162 52.0602 28.8894 52.0957 28.8061C52.1925 28.5786 52.2258 28.3638 52.2397 28.2607C52.2546 28.1495 52.1703 28.0323 52.0967 27.9779C52.0194 27.9207 51.8978 27.9179 51.7646 27.9095C51.684 27.9045 51.5764 27.9067 51.4176 27.9177C51.2589 27.9287 51.0521 27.9508 50.8933 27.9828C50.7344 28.0149 50.6296 28.0562 50.5315 28.1037C50.3413 28.1958 50.2213 28.2878 50.1574 28.3531C50.0917 28.4202 50.0596 28.505 50.0429 28.591C50.0338 28.6379 50.0372 28.6936 50.0744 28.7165C50.17 28.7753 50.3123 28.6811 50.4041 28.6117C50.4828 28.5521 50.5244 28.4862 50.5356 28.4209C50.5481 28.3477 50.483 28.247 50.4274 28.1455C50.3915 28.0798 50.3134 28.0351 50.1444 27.9671C49.85 27.8485 49.6335 27.8288 49.5962 27.8052C49.5698 27.7926 49.5285 27.7789 49.4341 27.7718C49.3398 27.7647 49.1937 27.7647 49.0431 27.7647" stroke="#C7B5F9" stroke-width="2.48597" stroke-linecap="round"/>
<path d="M12.0456 43.9294C12.0456 43.9175 12.0436 43.8995 12.0366 43.8756C12.029 43.8495 11.9067 43.7959 11.7288 43.7279C11.6365 43.6926 11.5759 43.6855 11.4824 43.6656C11.4211 43.6525 11.3295 43.6457 11.1677 43.6485C11.006 43.6513 10.7763 43.6671 10.6006 43.6862C10.4249 43.7052 10.3101 43.727 10.245 43.7382C10.1683 43.7514 10.0845 43.793 9.91017 43.8887C9.80894 43.9443 9.67448 44.0002 9.56853 44.0566C9.46259 44.1129 9.38735 44.1644 9.26841 44.279C9.14948 44.3936 8.98911 44.5698 8.89066 44.6853C8.79221 44.8008 8.76054 44.8503 8.73333 44.8976C8.70612 44.9449 8.68434 44.9884 8.65234 45.095C8.62033 45.2016 8.57875 45.3699 8.55437 45.4843C8.5184 45.653 8.51792 45.7885 8.52188 45.9144C8.524 45.9819 8.55578 46.0527 8.59459 46.1643C8.63861 46.291 8.74932 46.3947 8.8472 46.4706C8.90415 46.5148 8.94376 46.5251 9.01125 46.5539C9.06528 46.577 9.16586 46.6006 9.28416 46.6228C9.40247 46.645 9.5371 46.6608 9.67871 46.668C9.82033 46.6752 9.96485 46.6732 10.0561 46.6672C10.1818 46.659 10.2593 46.6352 10.4015 46.6034C10.5011 46.5812 10.6526 46.5321 10.7717 46.4868C10.8909 46.4416 10.972 46.3981 11.0435 46.3499C11.18 46.258 11.2733 46.1715 11.36 46.0968C11.4826 45.9912 11.5514 45.8656 11.5953 45.7829C11.645 45.6892 11.6715 45.5897 11.6865 45.495C11.7035 45.3877 11.6896 45.3134 11.6668 45.2796C11.6245 45.2167 11.4805 45.1855 11.2931 45.1525C11.1918 45.1347 11.074 45.1413 10.9703 45.1463C10.8666 45.1512 10.7795 45.1611 10.6732 45.185C10.567 45.2089 10.4442 45.2465 10.3335 45.2946C10.2227 45.3427 10.1277 45.4001 10.0312 45.4831C9.93474 45.5662 9.83971 45.6731 9.77293 45.7668C9.70616 45.8604 9.67052 45.9377 9.64326 46.0111C9.59181 46.1496 9.57981 46.2707 9.58872 46.3734C9.59338 46.4272 9.61545 46.482 9.64245 46.5264C9.66944 46.5708 9.70508 46.6025 9.76798 46.6198C9.83089 46.6371 9.91998 46.6391 10.0272 46.6263C10.1345 46.6134 10.2573 46.5857 10.3878 46.5447C10.5184 46.5037 10.653 46.4502 10.7916 46.3772C10.9303 46.3041 11.0689 46.213 11.168 46.1265C11.3387 45.9775 11.3876 45.8396 11.3996 45.7588C11.4117 45.6769 11.3937 45.5956 11.3708 45.5347C11.3614 45.5097 11.342 45.5034 11.316 45.5003C11.29 45.4972 11.2544 45.4992 11.1816 45.525C11.1088 45.5508 10.9999 45.6003 10.8933 45.6574C10.7867 45.7146 10.6857 45.778 10.5961 45.8472C10.5065 45.9165 10.4312 45.9897 10.3648 46.071C10.2983 46.1523 10.2429 46.2394 10.1965 46.3308C10.1501 46.4222 10.1145 46.5153 10.0922 46.5949C10.0527 46.7356 10.0538 46.8289 10.0666 46.8679C10.0794 46.9066 10.2149 46.8514 10.43 46.7559C10.5647 46.6961 10.7401 46.5892 10.8646 46.5075C10.989 46.4258 11.0543 46.3664 11.1306 46.2754C11.2068 46.1844 11.2919 46.0636 11.3645 45.9391C11.437 45.8145 11.4945 45.6898 11.529 45.6008C11.5635 45.5118 11.5734 45.4623 11.6072 45.3665C11.641 45.2707 11.6984 45.1301 11.7389 45.0389C11.8208 44.8543 11.8593 44.7858 11.9034 44.6877C11.9449 44.5955 12.0193 44.5278 12.0963 44.4347C12.1119 44.4158 12.1174 44.4036 12.1245 44.3935C12.1315 44.3835 12.1394 44.3755 12.1544 44.4012C12.1693 44.4268 12.1911 44.4862 12.2162 44.5791C12.2413 44.6721 12.269 44.7968 12.2843 44.969C12.2995 45.1411 12.3015 45.3569 12.2906 45.5206C12.2798 45.6842 12.256 45.7891 12.2349 45.8649C12.2137 45.9408 12.1959 45.9843 12.1551 46.0622C12.1142 46.1401 12.0508 46.2509 12.0063 46.3219C11.9022 46.4879 11.808 46.5788 11.7084 46.6526C11.6504 46.6955 11.5692 46.7382 11.3532 46.8161C11.1372 46.894 10.7868 47.0029 10.5667 47.064C10.3465 47.125 10.2673 47.1349 10.1652 47.138C10.063 47.1411 9.94026 47.1372 9.80773 47.1213C9.6752 47.1054 9.53662 47.0777 9.43751 47.0535C9.28141 47.0154 9.18625 46.9693 9.07181 46.9017C8.99535 46.8565 8.88808 46.7787 8.8211 46.729C8.72957 46.6612 8.66041 46.5738 8.56166 46.4422C8.51017 46.3736 8.46489 46.2947 8.4117 46.1748C8.35852 46.0548 8.3011 45.8945 8.26955 45.7911C8.22598 45.6483 8.22401 45.5775 8.21303 45.5227C8.20097 45.4624 8.20193 45.3303 8.2079 45.1694C8.21334 45.0228 8.32162 44.9177 8.4102 44.832C8.46374 44.7802 8.54828 44.7265 8.83856 44.5811C9.12884 44.4357 9.62577 44.2041 9.90453 44.0768C10.1833 43.9496 10.2288 43.9337 10.2731 43.9147C10.3173 43.8956 10.3589 43.8739 10.4357 43.8468C10.6213 43.7815 10.7753 43.7515 10.8452 43.7405C10.9048 43.7312 10.9891 43.7035 11.1008 43.6885C11.1961 43.6758 11.307 43.6735 11.4594 43.6586C11.5463 43.65 11.6534 43.6535 11.7897 43.6436C11.9259 43.6337 12.0883 43.6139 12.1828 43.6056C12.2773 43.5974 12.2991 43.6014 12.3215 43.6055" stroke="#C7B5F9" stroke-width="2.48597" stroke-linecap="round"/>
<path d="M23.396 22.6034C23.2814 22.611 22.792 22.8702 22.3475 23.2407C22.118 23.432 21.9738 23.5411 21.7741 23.7791C21.4836 24.1253 21.0144 24.6999 20.7471 24.9029C20.6826 24.9519 20.5511 24.8879 20.2454 24.7163C19.5979 24.3527 19.1819 23.9957 19.082 23.9536C18.8725 23.8653 18.7435 23.4816 18.6241 23.3192C18.519 23.1762 18.4892 22.9961 18.4243 22.9269C18.2908 22.9034 18.1664 22.8729 18.0859 22.8192C18.0434 22.7959 17.9978 22.7806 17.9507 22.7649" stroke="#C7B5F9" stroke-width="8.70089" stroke-linecap="round"/>
<path d="M26.9497 16.2351C26.9651 15.9741 26.7212 15.3177 26.5195 14.6565C26.4335 14.3749 26.3728 14.1668 26.3652 14.044C26.3614 13.9819 26.3424 13.9213 26.3041 14.263C26.2658 14.6047 26.2049 15.3509 26.1049 15.8838C26.005 16.4167 25.868 16.7137 25.6908 16.9808C25.5136 17.248 25.3004 17.4765 25.0497 17.7007C24.799 17.925 24.5173 18.1382 24.178 18.3166C23.8387 18.4949 23.4503 18.632 23.1551 18.7216C22.6747 18.8675 22.3668 18.8886 22.1444 18.8581C21.6361 18.7885 21.3672 18.2674 21.0173 17.9552C20.6016 17.5843 20.0763 17.2976 19.707 17.1589C19.5941 17.1164 19.6118 17.2028 19.6312 17.28C19.7057 17.5767 19.8578 17.8484 19.9082 18.126C19.9504 18.3583 20.0197 18.641 20.0428 18.9135C20.0626 19.1472 19.8908 19.5319 19.599 20.0081C19.3912 20.3473 19.0377 20.6099 18.6269 20.8596C18.3364 21.0363 17.8315 21.0344 17.217 20.9925C16.7684 20.962 16.4452 20.6664 16.0962 20.3867C15.4058 19.8335 15.4055 19.5965 15.3746 19.5808C15.302 19.5439 15.6035 19.902 16.0286 20.2931C16.2724 20.5174 16.6289 20.7298 17.0681 20.9541C17.5073 21.1784 18.0327 21.3916 18.4632 21.5357C18.8938 21.6798 19.2136 21.7483 19.7019 21.795C20.1903 21.8418 20.8375 21.8646 21.4564 21.8345C22.0754 21.8044 22.6464 21.7206 23.1462 21.6051C23.646 21.4897 24.0572 21.345 24.3794 21.2172C24.7016 21.0893 24.9224 20.9827 25.5273 20.7489C26.1322 20.515 27.1144 20.1572 27.6623 19.9385C28.3067 19.6814 28.5554 19.497 29.1481 19.1417C29.5754 18.8856 30.2206 18.4133 30.577 18.1513C31.07 17.7888 31.1481 17.5208 31.3713 17.2896C31.4589 17.1988 31.5487 17.1583 31.6025 17.1465C31.6695 17.1318 31.6567 17.3646 31.6034 17.8384C31.5627 18.1996 31.4435 18.7995 31.3886 19.1627C31.3337 19.5259 31.3337 19.6325 31.3831 19.6874C31.5839 19.9102 32.2137 19.5517 32.9389 19.4578C33.2729 19.4145 33.5012 19.297 34.3568 18.9896C34.7407 18.8517 34.9553 18.812 35.1706 18.7044C35.5133 18.5333 35.7855 18.4197 35.9862 18.3543C36.1972 18.2855 36.4551 18.0893 36.659 18.0119C36.7512 17.9769 36.8021 18.6366 36.7945 19.5857C36.7903 20.1013 36.695 20.4479 36.5723 20.9268C36.4108 21.5569 36.3868 22.0409 36.3906 22.2252C36.3956 22.4677 36.6323 22.6717 36.8932 22.8605C37.1244 23.0277 37.5377 23.0635 37.9622 23.4211C38.3133 23.7169 38.24 24.3099 38.294 24.5904C38.3504 24.8834 38.3863 25.0257 38.4322 25.1025C38.5271 25.2613 38.7629 25.1263 38.8435 25.1451C38.9713 25.1749 38.9249 25.5243 38.9172 25.8391C38.9114 26.0789 38.734 26.5529 38.5072 27.1525C38.3421 27.5889 38.133 27.756 38.064 27.8596C38.0289 27.9123 37.9798 27.9556 37.8839 27.8992C37.6051 27.7351 37.2811 27.1907 36.8362 26.5728C36.6191 26.2712 36.3609 26.0386 35.3978 25.3116C34.4347 24.5845 32.7596 23.3815 31.8091 22.6779C30.8586 21.9744 30.6834 21.8069 30.5323 21.6331C30.2416 21.2987 30.0653 21.0579 29.931 20.9887C29.8689 20.9567 29.8043 20.9652 29.7653 21.0794C29.6533 21.4077 29.7792 21.9315 30.203 22.6666C30.4892 23.1629 31.1371 23.7672 31.5115 24.1348C31.9948 24.6091 32.2176 24.7331 32.2831 24.8713C32.3102 24.9285 32.2649 24.9791 31.9789 24.995C31.6929 25.0109 31.1523 24.9957 30.1619 24.847C29.1714 24.6983 27.7476 24.4165 26.5991 24.2448C25.4506 24.073 24.6206 24.0197 25.4037 24.0455C26.1869 24.0714 28.6082 24.178 29.8632 24.2633C31.1181 24.3487 31.1334 24.4096 31.1374 24.4905C31.1464 24.6702 30.9585 25.0008 30.3963 25.5677C30.0302 25.9369 29.3849 26.3478 28.5989 26.8037C27.8129 27.2597 26.8763 27.7165 26.2758 27.9938C25.6753 28.271 25.4393 28.3547 25.7327 28.4093C26.026 28.4639 26.856 28.4867 27.5158 28.5327C28.1756 28.5788 28.64 28.6473 29.0697 28.7321C29.8849 28.893 30.4246 29.094 30.6667 29.2398C30.8145 29.3288 30.8182 29.4941 30.8184 29.6397C30.8187 29.8404 30.5127 30.1312 30.0452 30.5414C29.7838 30.7708 29.4407 31.005 28.6742 31.2752C27.9077 31.5454 26.7199 31.8347 25.8414 31.9952C24.963 32.1557 24.43 32.1785 24.0451 32.1826C23.6601 32.1868 23.4393 32.1716 23.2912 32.1485C23.1432 32.1254 23.0747 32.095 22.9579 32.0636" stroke="#C7B5F9" stroke-width="4.97194" stroke-linecap="round"/>
<path d="M16.818 26.7844C16.7296 26.7512 16.347 26.6236 15.806 26.4424C15.5382 26.3527 15.3571 26.3045 15.0763 26.2629C14.7185 26.2099 14.3918 26.1314 14.0638 26.1121C13.3002 26.0671 13.1965 25.9252 13.1464 25.8807C13.1196 25.8568 13.0853 25.8361 13.0737 25.8772C13.0342 26.0178 13.1067 26.2254 13.1402 26.7019C13.167 27.0838 13.1516 27.753 13.1903 28.2106C13.2487 28.9021 13.4302 29.1668 13.5772 29.347C13.8719 29.7079 14.0827 30.0759 14.2193 30.2486C14.325 30.3823 14.3956 30.5723 14.4653 30.8421C14.5462 31.1557 14.5356 31.4651 14.5079 31.7101C14.4819 31.9397 14.258 32.2456 13.9768 32.5912C13.773 32.8416 13.543 32.9169 13.3291 33.0473C12.9831 33.2583 12.7669 33.497 12.7166 33.73C12.6256 34.1526 12.6885 34.4794 12.6607 34.5712C12.6304 34.6715 12.5991 34.88 12.6461 35.1228C12.6771 35.2831 12.9224 35.1998 13.028 35.1776C13.1912 35.1433 13.4568 35.0827 14.1942 35.041C14.7597 35.0089 15.716 35.0047 16.225 34.9934C16.7672 34.9814 16.8841 34.9212 17.0566 34.8017C17.15 34.7369 17.2402 34.6434 17.4515 34.3852C17.6629 34.127 17.9889 33.7016 18.2452 33.3056C18.5015 32.9097 18.6783 32.5561 18.8246 32.2138C18.9709 31.8714 19.0814 31.551 19.2129 30.9522C19.3444 30.3535 19.4936 29.4861 19.5842 28.868C19.6749 28.2499 19.7025 27.9074 19.7223 27.8442C19.742 27.781 19.7531 28.0075 19.7449 28.2595C19.7368 28.5116 19.7092 28.7823 19.648 29.104C19.5868 29.4258 19.4929 29.7904 19.3755 30.1192C19.258 30.4479 19.1199 30.7296 18.988 30.9135C18.7758 31.2091 18.427 31.2875 18.0927 31.2852C17.7903 31.2832 17.5948 30.9041 17.3997 30.6562C17.1211 30.3021 17.1253 29.922 17.0416 29.5903C16.944 29.2035 16.8571 28.9165 16.9039 28.8496C16.9395 28.7986 17.0888 28.8268 17.5797 28.9207C18.0706 29.0146 18.9214 29.2025 20.006 29.2992C21.0907 29.396 22.3835 29.396 23.2566 29.3518C24.1298 29.3076 24.5441 29.2192 24.8432 29.124C25.1423 29.0287 25.3136 28.9293 25.4073 28.9084C25.5011 28.8876 25.5121 28.9484 25.4902 29.0349C25.4682 29.1215 25.413 29.2319 24.8459 29.9795C24.2788 30.727 23.2015 32.1081 22.5084 33.071C21.8153 34.0339 21.539 34.5366 21.3443 34.9476C21.1495 35.3585 21.0445 35.6623 20.9904 35.8879C20.9363 36.1135 20.9363 36.2516 20.9999 36.3532C21.0634 36.4547 21.1905 36.5155 21.3214 36.5781" stroke="#C7B5F9" stroke-width="4.97194" stroke-linecap="round"/>
<path d="M21.1769 37.7867C21.0692 37.8356 20.9304 37.9392 20.7626 38.0923C20.5995 38.241 20.3522 38.4042 20.0388 38.5746C19.5695 38.8299 19.3814 38.7562 19.2601 38.7712C19.1179 38.7888 18.9414 38.8156 18.7777 38.8306C18.7121 38.8366 18.5999 38.9142 18.4296 39.0547C18.2334 39.2166 18.1636 39.5167 18.1661 39.7912C18.1673 39.9238 18.4332 40.0714 18.8877 40.2936C19.0903 40.3927 19.2247 40.4864 19.4227 40.6641C19.6207 40.8418 19.8754 41.1063 20.0679 41.3504C20.2603 41.5944 20.3828 41.8099 20.4581 41.9675C20.5745 42.2109 20.6566 42.4561 20.7802 42.686C20.846 42.8084 20.8898 42.8825 20.9047 42.9984C20.9132 43.0649 20.9097 43.1485 21.8943 42.7261C22.8789 42.3036 24.8481 41.3729 25.8748 40.8788C26.9015 40.3846 26.9259 40.3552 26.9435 40.3548C26.9832 40.3538 26.9809 40.4924 26.9735 40.6577C26.9655 40.8388 26.8384 41.0217 26.6752 41.1602C26.5898 41.2327 26.4769 41.2304 26.3435 41.2231C26.2833 41.2198 26.2396 41.201 25.967 40.9142C25.6945 40.6275 25.1949 40.069 24.9007 39.725C24.6066 39.381 24.5331 39.2684 24.4708 39.1124C24.3338 38.7696 24.309 38.49 24.3359 38.2587C24.355 38.0949 24.4167 37.8413 24.6037 37.301C24.7907 36.7608 25.1091 35.9427 25.2951 35.5042C25.4812 35.0656 25.5253 35.0313 25.57 35.0137C25.6148 34.996 25.6589 34.996 25.6963 34.9985C25.7337 35.0009 25.7631 35.0058 25.9178 35.4174C26.0726 35.8289 26.3518 36.6469 26.5201 37.2472C26.6884 37.8474 26.7374 38.2049 26.7578 38.7296C26.7781 39.2543 26.7683 39.9351 26.7559 40.3251C26.741 40.794 26.7137 40.9966 26.7186 41.2042C26.7245 41.4562 26.8027 41.6799 26.9012 42.2523C26.9338 42.4417 27.0201 42.5264 27.1211 42.5882C27.2512 42.6677 27.5038 42.6554 27.7927 42.6456C27.93 42.641 28.0472 42.6162 28.316 42.5523C28.5847 42.4883 29.0011 42.3805 29.3552 42.3201C29.7093 42.2597 29.9885 42.2499 30.2254 42.284C30.4623 42.3182 30.7548 41.7915 30.9879 41.9494C31.2209 42.1074 31.4952 42.3425 31.7296 42.5175C31.964 42.6925 32.1501 42.8003 32.3097 42.9391C32.8091 43.3735 32.8264 43.5342 32.918 43.6309C33.0179 43.7364 33.0687 43.856 33.2268 43.9966C33.3841 44.1365 33.3783 44.8719 33.4375 44.9236C33.7018 45.1545 34.0456 45.5345 34.155 45.6068C34.1759 45.6205 34.2092 45.5948 34.2733 45.308C34.3375 45.0212 34.4354 44.4628 34.4761 43.989C34.5168 43.5152 34.4972 43.1429 34.4797 42.9095C34.4623 42.6761 34.4476 42.5928 34.4449 42.2266C34.4423 41.8604 34.4521 41.2138 34.4914 40.6456C34.5307 40.0774 34.5993 39.6071 34.6542 39.2889C34.7358 38.8165 34.8034 38.5302 34.8257 38.3126C34.8344 38.2275 34.8333 38.1931 34.7696 38.1607C34.7059 38.1284 34.5785 38.099 34.3464 38.0838C34.1142 38.0687 33.7811 38.0687 33.4552 38.1348C33.1293 38.2009 32.8207 38.3332 32.5809 38.4748C32.3411 38.6164 32.1795 38.7634 32.0276 38.937C31.8758 39.1107 31.7386 39.3067 31.6386 39.4958C31.4522 39.848 31.4192 40.1262 31.4363 40.2622C31.4433 40.3171 31.4878 40.3344 31.525 40.3445C31.5994 40.3647 31.7153 40.3448 31.8487 40.3128C31.9637 40.2852 32.052 40.1672 32.1459 40.0316C32.2598 39.8672 32.2503 39.5597 32.2676 39.1824C32.2771 38.9767 32.2605 38.7414 32.2138 38.4292C32.1672 38.1171 32.0839 37.735 31.9724 37.3545C31.8609 36.974 31.7238 36.6066 31.5551 36.2189C31.3865 35.8313 31.1906 35.4345 30.9255 34.9803C30.6605 34.5261 30.3323 34.0264 30.08 33.6784C29.8276 33.3304 29.6611 33.1491 29.5214 33.0215C29.2883 32.8084 29.1335 32.7448 29.0718 32.7299C29.0401 32.7223 29.0053 32.7249 28.9705 32.7396C28.9357 32.7543 28.9014 32.7837 28.8837 32.8258C28.8459 32.9157 28.8758 33.0262 28.9421 33.1298C29.0475 33.2946 29.3789 33.3332 29.815 33.3777C30.0787 33.4047 30.4324 33.3929 30.6557 33.388C30.9626 33.3812 31.1216 33.3289 31.2721 33.2206C31.3588 33.1582 31.4275 33.034 31.3821 33.0641C31.3368 33.0942 31.1653 33.2706 30.9717 33.5108C30.7781 33.7511 30.5674 34.0499 30.263 34.5638C29.9585 35.0778 29.5667 35.7979 29.3183 36.3648C29.0698 36.9316 28.9768 37.3235 28.9288 37.5499C28.8809 37.7763 28.8809 37.8252 28.898 37.8505C28.9152 37.8757 28.9495 37.8757 29.0406 37.8169C29.1317 37.7582 29.2787 37.6406 29.6091 37.1735C29.9395 36.7063 30.449 35.8932 30.802 35.2759C31.1551 34.6586 31.3363 34.2618 31.4885 33.8835C31.6406 33.5052 31.7582 33.1575 31.8335 32.8583C31.9087 32.5591 31.9381 32.3191 32.2496 31.2819C32.5611 30.2446 33.1538 28.4175 33.4494 27.5253C33.7449 26.633 33.7253 26.731 33.5977 27.117C33.47 27.503 33.2349 28.1741 33.0795 28.7378C32.924 29.3015 32.8555 29.7374 32.8152 30.3784C32.775 31.0193 32.7652 31.8521 32.7994 32.4133C32.8335 32.9746 32.9119 33.2391 33.0306 33.4611C33.1494 33.6831 33.3061 33.8545 33.4481 33.9502C33.5901 34.0459 33.7125 34.0606 33.8418 34.0436C33.971 34.0267 34.1032 33.9777 34.6245 33.6096C35.1457 33.2415 36.0519 32.5557 36.7319 31.9575C37.4118 31.3593 37.8379 30.8694 38.1016 30.5363C38.3652 30.2031 38.4534 30.0414 38.3763 30.3696C38.2993 30.6978 38.0544 31.5208 38.107 31.7806C38.1895 32.1882 38.9444 31.3398 39.0433 31.2781C39.1609 31.2046 39.4176 30.965 39.6274 30.8178C39.6557 30.7979 39.6866 30.7905 39.6601 30.7977C39.6336 30.8049 39.5503 30.8293 39.1768 30.8444C38.8032 30.8595 38.1419 30.8644 37.6813 30.8522C37.2206 30.84 36.9806 30.8106 36.4846 30.7073C35.9887 30.604 35.2441 30.4277 34.8459 30.3368C34.4476 30.246 34.4182 30.246 34.4178 30.3072C34.4173 30.3684 34.4467 30.4909 34.5745 30.8014C34.7023 31.1118 34.9277 31.6066 35.2029 32.3758C35.4782 33.145 35.7966 34.1737 35.9876 34.7624C36.1786 35.3511 36.2324 35.4686 36.2847 35.5708C36.4598 35.9134 36.6683 36.0495 36.7967 36.1163C36.8534 36.1458 36.9055 36.139 37.1242 36.0802C37.3429 36.0214 37.7299 35.9039 37.9488 35.8335C38.2759 35.7284 38.3851 35.615 38.7235 35.5971C38.9002 35.5878 39.0234 35.7774 39.1769 35.8985C39.2682 35.9705 39.3701 36.0248 39.525 36.1331C39.8193 36.3389 40.0874 36.4799 40.2793 36.6104C40.6107 36.8357 40.8743 37.0093 40.9508 37.1081C41.0679 37.2591 41.3595 37.031 41.7372 37.4714C42.0866 37.8789 42.3095 37.962 42.4607 38.0838C42.6191 38.2113 42.7548 38.304 42.9971 38.467C43.1348 38.5596 43.1971 38.7491 43.3879 38.7634C44.0136 38.8101 44.0392 39.4362 44.2302 39.5626C44.4142 39.6842 44.7368 39.571 44.8934 39.5112C45.055 39.4494 45.0351 39.8155 45.196 39.7587C45.4941 39.6535 45.6437 39.5733 45.7481 39.5112C45.8023 39.4889 45.8619 39.4691 45.953 39.4273C46.0147 39.3953 46.1077 39.3414 46.263 39.2562" stroke="#C7B5F9" stroke-width="4.97194" stroke-linecap="round"/>
<path d="M7.79753 43.1677C6.48549 41.6485 4.93866 38.1958 9.24767 36.5385C9.86917 36.2623 11.6093 35.8341 13.5981 36.3313" stroke="#3E235A" stroke-width="1.65731" stroke-linecap="round" stroke-linejoin="round"/>
<path d="M41.8394 28.0233L45.3611 24.0871C46.0517 23.2585 47.9714 22.0569 50.1259 23.88C50.3331 23.949 50.8303 24.4186 51.1617 25.7445" stroke="#3E235A" stroke-width="1.65731" stroke-linecap="round" stroke-linejoin="round"/>
<path d="M48.545 28.9758C48.1307 29.3211 47.1363 29.8045 46.4734 28.9758C45.6447 27.94 46.6806 26.0755 48.9594 25.454C50.7824 24.9568 52.2049 26.0755 52.6883 26.697C53.0336 27.1114 53.5584 28.2715 52.8955 29.5973C52.2326 30.9232 50.2714 31.2546 49.3737 31.2546C48.6141 31.2546 47.1778 30.9232 47.5092 29.5973" stroke="#3E235A" stroke-width="0.828656" stroke-linecap="round" stroke-linejoin="round"/>
<path d="M11.9186 44.9644C12.458 44.9602 13.5292 44.6866 13.4997 43.6258C13.4628 42.2998 11.4676 41.5462 9.32679 42.5443C7.61417 43.3428 7.25134 45.1158 7.284 45.9025C7.28821 46.4418 7.63729 47.6663 8.99995 48.2499C10.3626 48.8334 12.0735 47.8191 12.7587 47.2391C13.3384 46.7483 14.2204 45.5672 13.1108 44.7695" stroke="#3E235A" stroke-width="0.828656" stroke-linecap="round" stroke-linejoin="round"/>
<path d="M27.3379 46.0465C27.7522 45.3318 29.0366 44.1654 30.8597 45.2179C32.6827 46.2704 33.1385 47.8662 33.1385 48.5325C33.2075 49.085 33.5942 50.1484 34.5886 49.9827C35.8316 49.7755 39.1462 46.8752 39.3534 46.4609C39.5606 46.0465 39.9749 45.2179 39.5606 44.1821C39.2291 43.3534 37.7651 43.8368 37.0746 44.1821C36.3841 42.2793 34.2986 38.6624 31.4812 39.4173C30.9287 39.4864 29.6581 39.8731 28.9952 40.8675" stroke="#3E235A" stroke-width="1.24298" stroke-linecap="round" stroke-linejoin="round"/>
<path d="M37.2817 40.8674C37.627 40.0388 38.8976 38.7129 41.2179 40.0388C44.1182 41.6961 44.1182 42.1104 44.3253 42.3176C44.5325 42.5247 45.5683 44.3892 47.0184 42.9391C48.1786 41.779 49.4354 39.8316 49.9187 39.003C50.4021 38.4505 50.9131 37.1799 49.0901 36.517C48.8139 36.3789 47.9714 36.3927 46.8113 37.5528C46.1898 36.586 44.4082 34.7354 42.2537 35.0668C40.0992 35.3983 39.4224 35.7574 39.3534 35.8955" stroke="#3E235A" stroke-width="1.24298" stroke-linecap="round" stroke-linejoin="round"/>
<circle cx="21.7444" cy="29.0591" r="4.14328" fill="#FDFDFF"/>
<circle cx="21.123" cy="30.5092" r="2.27881" fill="#423553"/>
<circle cx="31.2741" cy="24.9158" r="4.14328" fill="#FDFDFF"/>
<circle cx="30.6523" cy="26.366" r="2.27881" fill="#423553"/>
</svg>
