<svg xmlns="http://www.w3.org/2000/svg" width="40" height="40" viewBox="0 0 40 40" fill="none">
  <circle cx="20" cy="20" r="20" fill="url(#paint0_radial_2395_11999)"/>
  <path d="M23.6747 17.3496H15.7304C15.1935 17.3496 14.7857 17.8401 14.9878 18.3375C15.505 19.6099 16.7347 21.1362 19.5185 21.1362C22.3743 21.1362 23.8501 19.5298 24.374 18.2392C24.5615 17.7775 24.173 17.3496 23.6747 17.3496Z" fill="#441035" stroke="#441710" stroke-width="0.172117"/>
  <path d="M13.4941 13.7695C13.4941 13.0122 14.458 12.0483 15.6456 12.0483C17.1086 12.0483 17.5905 13.2532 17.6249 13.7695" stroke="#441710" stroke-width="1.13735" stroke-linecap="round"/>
  <path d="M21.6865 13.7695C21.6865 13.0122 22.6504 12.0483 23.838 12.0483C25.301 12.0483 25.7829 13.2532 25.8173 13.7695" stroke="#441710" stroke-width="1.13735" stroke-linecap="round"/>
  <defs>
    <radialGradient id="paint0_radial_2395_11999" cx="0" cy="0" r="1" gradientUnits="userSpaceOnUse" gradientTransform="translate(20 20) rotate(90) scale(20)">
      <stop stop-color="#FDA1B4"/>
      <stop offset="1" stop-color="#FF8BA3"/>
    </radialGradient>
  </defs>
</svg>