<svg xmlns="http://www.w3.org/2000/svg" width="40" height="40" viewBox="0 0 40 40" fill="none">
  <circle cx="20" cy="20" r="20" fill="#ADDEFF"/>
  <path d="M16.1027 18.7253L24.047 18.7253C24.5839 18.7253 24.9917 18.2349 24.7895 17.7375C24.2723 16.4651 23.0426 14.9388 20.2588 14.9388C17.403 14.9388 15.9272 16.5451 15.4033 17.8357C15.2159 18.2974 15.6043 18.7253 16.1027 18.7253Z" fill="#200856"/>
  <path d="M26.2988 11.0825C26.2988 11.8399 25.335 12.8037 24.1474 12.8037C22.6844 12.8037 22.2024 11.5989 22.168 11.0825" stroke="#200856" stroke-width="1.13735" stroke-linecap="round"/>
  <path d="M18.1064 11.0825C18.1064 11.8399 17.1426 12.8037 15.955 12.8037C14.492 12.8037 14.0101 11.5989 13.9756 11.0825" stroke="#200856" stroke-width="1.13735" stroke-linecap="round"/>
</svg>